<?xml version="1.0" encoding="UTF-8"?>
<svg id="b" data-name="Layer 2" xmlns="http://www.w3.org/2000/svg" width="244.501" height="173.691" viewBox="0 0 244.501 173.691">
  <g id="c" data-name="Layer 1">
    <g>
      <path d="m21.517,106.611c6.604,3.521,15.089,3.977,22.107,1.188-1.042,1.79-1.197,3.876-1.702,5.847s-1.558,4.038-3.604,4.854c-1.126.449-2.399.454-3.629.435-4.837-.074-9.724-.399-14.337-1.721s-8.969-3.721-11.762-7.296c-.334-.427-.653-.89-.714-1.41-.225-1.896,2.962-5.928,5.23-5.908,2.961.026,5.998,2.724,8.411,4.01Z" fill="#f2d146" stroke-width="0"/>
      <path d="m188.443,119.972c.382,2.825.765,5.649,1.147,8.474,2.441.595,5.028.165,7.51-.267,8.14-1.418,16.279-2.835,24.419-4.253,1.608-.28,3.309-.602,4.503-1.617,1.972-1.677,1.808-4.504,1.495-6.936-.273-2.121-1.437-3.391-3.865-2.994-2.867.468-5.714,1.233-8.549,1.844-5.706,1.23-11.412,2.46-17.117,3.691-.798.172-9.563,1.913-9.543,2.058Z" fill="#f2d146" stroke-width="0"/>
      <g>
        <path d="m153.941,111.28c.078-.328-.257-.503-.349-.77-.102-.296-.121-.575.162-.792.282-.216.48-.463.584-.791.078-.249.307-.429.55-.55,1.247-.623,2.402-1.401,3.773-1.816.337-.102.656-.255.982-.387.693-.281,1.396-.522,2.171-.535.196-.003.402,0,.56-.137.124-.108.187-.243.103-.386-.051-.086-.148-.198-.238-.208-.358-.043-.724.008-1.046.142-1.523.634-3.173.611-4.786.771-1.074.107-2.13.283-3.079.758-1.25.625-2.453,1.325-3.625,2.068-.821.521-1.288,1.248-1.603,2.078-.198.522-.575.611-1.021.235-.28-.236-.399-.741-.148-.982.682-.655,1.006-1.552,1.822-2.118.411-.284.802-.588,1.254-.821.619-.32,1.252-.621,1.843-.979,1.113-.674,2.346-1.038,3.644-1.266.895-.157,1.793-.283,2.709-.233.534.029,1.032-.121,1.496-.319.772-.329,1.557-.511,2.414-.438.321.027.41-.064.435-.379.158-1.934.336-3.866.329-5.81-.008-2.049.073-4.099.16-6.148.031-.725-.064-1.437-.092-2.155-.044-1.115-.078-2.231-.105-3.347-.013-.54-.145-1.068-.197-1.598-.061-.619-.277-.924-.982-.905-.148.004-.297-.094-.448-.137-.174-.049-.259-.165-.275-.314-.028-.25-.012-.506-.058-.753-.129-.702-.181-1.421-.882-1.933-.303-.221-.39-.613-.521-.956-.391-1.022-.538-2.091-.753-3.146-.26-1.278-.713-2.506-1.13-3.744-.019-.055-.106-.091-.161-.136-.042.051-.116.099-.12.152-.017.251-.041.505-.016.754.154,1.577.144,3.159.21,4.739.16,3.851-.037,7.702.058,11.553.03,1.219-.089,2.438-.169,3.657-.094,1.43-.047,2.867-.041,4.301.001.326.026.639-.138.948-.082.154-.102.347-.104.522-.012.838-.289,1.628-.502,2.431-.238.9-.762,1.651-1.393,2.357-.18.202-.388.36-.645.466-1.171.484-2.386.761-3.684.6-1.023-.127-2.045-.27-3.069-.392-.669-.08-1.335-.186-2.018-.111-.272.03-.56.012-.832-.032-1.054-.172-2.101-.381-3.157-.54-.863-.13-1.57-.496-2.163-1.056-.357-.337-.724-.675-1.013-1.058-.253-.335-.509-.562-.947-.74-.756-.306-1.18-.937-1.33-1.688-.028-.139.003-.287-.004-.431-.091-1.793-.165-3.588-.284-5.379-.05-.752-.224-1.498-.156-2.256.205-2.299.082-4.61.254-6.904.186-2.485.104-4.963.128-7.444.008-.861-.124-1.721-.158-2.583-.053-1.33.007-2.669-.135-3.991-.185-1.725-.087-3.45-.187-5.174-.109-1.867-.16-3.735-.07-5.608.069-1.43-.058-2.863.028-4.296.028-.458-.104-.923-.141-1.386-.042-.518.095-.969.489-1.389.566-.603,1.154-1.185,1.768-1.748,1.067-.978,2.017-2.033,2.686-3.28.295-.55.65-1.073.944-1.624.853-1.599,1.287-3.317,1.707-5.037.147-.604.084-1.221.053-1.83-.089-1.73-.073-3.452.297-5.159.031-.141.072-.283.08-.426.142-2.476.509-4.943.363-7.432-.036-.611-.006-1.226-.053-1.836-.096-1.253-.203-2.505-.341-3.755-.189-1.716-.41-3.429-.382-5.158.008-.499.06-.999-.148-1.494-.093-.22-.056-.502-.016-.748.207-1.293-.041-2.578-.052-3.867-.001-.144-.024-.289-.014-.432.139-2.133-.265-4.236-.441-6.351-.023-.281-.163-.553-.224-.833-.086-.4.149-.681.614-.755.155-.025.319-.067.467-.042.258.045.466.036.618-.187.039-.057.115-.125.181-.131,1.309-.134,2.625-.57,3.887.23,1.112.704,1.124.675,1.126,1.898.001.68-.119,1.365.118,2.038.043.121-.02.284-.068.417-.089.249-.089.494-.022.744.238.884.221,1.788.186,2.683-.028.72.011,1.433.037,2.15.012.317.1.557.405.725.135.074.27.158.379.26.403.379.497.833.236,1.292-.249.44-.656.805-.756,1.32-.012.062-.082.129-.146.165-.556.308-.599.818-.627,1.323-.102,1.832-.204,3.665-.282,5.498-.052,1.224-.021,2.446.081,3.67.068.823.021,1.655.026,2.482.005.935-.013,1.866.118,2.801.099.709.045,1.435.057,2.154.002.144-.025.29-.004.432.334,2.217.252,4.449.296,6.677.004.216.013.432.02.648.018.545.037,1.053.653,1.414.371.218.479.671.314,1.077-.294.723-.097,1.385.122,2.094.534,1.726,1.409,3.277,2.624,4.682.073.085.137.179.221.253.051.045.15.1.197.082.054-.02.099-.113.106-.177.169-1.571.749-3.092.713-4.688.518-2.617.88-5.259,1.756-7.816.444-1.296.82-2.612,1.316-3.895.105-.27.22-.56.214-.838-.014-.659.463-1.127.747-1.659.223-.419.745-.624,1.189-.869,1.088-.602,2.212-1.143,3.444-1.445,1.491-.366,2.985-.762,4.507-.97,1.604-.219,3.243-.268,4.851.113.23.054.456.081.665.211.87.543,1.864.784,2.891.937.195.029.387.078.582.111.529.09.982.298,1.294.706.264.345.596.53,1.073.594.476.063.606.364.298.685-.287.299-.306.543-.111.868.189.315.292.679.513.971,1.388,1.829,2.254,3.876,3.081,5.941.406,1.013.833,2.02,1.212,3.041.381,1.027.562,2.086.616,3.174.083,1.686.238,3.37.363,5.054.011.144.051.288.039.43-.068.815-.132,1.63-.227,2.442-.097.824-.293,1.63-.563,2.423-.421,1.237-.779,2.493-1.234,3.719-.519,1.395-1.128,2.763-1.676,4.149-.94,2.376-2.255,4.596-3.469,6.858-.034.064-.06.134-.08.203-.038.137.07.213.182.209.632-.023,1.266-.041,1.894-.104.445-.045.861.03,1.295.084.743.093,1.51.176,2.25.109,1.551-.141,3.102-.085,4.649-.062,2.148.032,4.293.121,6.443.051.672-.022,1.345-.016,2.023.066.455.055.935.039,1.414-.012.785-.082,1.594-.097,2.381-.03,2.008.172,4.02.341,5.993.751.192.04.393.049.591.06.714.041,1.423.1,2.118.275.266.067.549.118.823.115,1.746-.022,3.356.484,4.963,1.011.56.184,1.128.322,1.723.405.704.097,1.394.279,2.087.434,1.268.285,2.535.577,3.801.87.153.035.299.097.447.148.852.296,1.708.543,2.621.687,1.291.204,2.518.631,3.588,1.37.79.545,1.615,1.049,2.429,1.565,1.728,1.093,3.59,1.986,5.408,2.944.581.306,1.218.525,1.832.781,1.355.565,2.522,1.347,3.492,2.381.305.325.705.577,1.053.871.493.418.978.845,1.466,1.268v1.729c-1.469-.983-2.859-2.056-4.071-3.289-.845-.86-1.84-1.504-2.973-1.934-1.324-.502-2.524-1.182-3.755-1.827-1.72-.903-3.393-1.86-4.966-2.968-1.23-.867-2.581-1.512-4.176-1.737-.967-.136-1.9-.491-2.835-.782-1.238-.384-2.516-.617-3.786-.886-1.274-.269-2.547-.546-3.807-.861-.8-.2-1.587-.453-2.361-.724-.453-.158-.909-.246-1.386-.276-2.692-.174-5.336-.649-7.992-1.049-.273-.041-.551-.052-.828-.069-.516-.032-1.034-.039-1.548-.09-1.03-.103-2.054-.182-3.085.007-.307.056-.645.066-.951.012-.994-.175-1.981-.024-2.971-.01-1.387.02-2.771.024-4.16-.077-1.385-.1-2.781-.072-4.172-.091-.237-.003-.479.02-.711.067-.911.184-1.807.147-2.714-.051-.417-.091-.866-.069-1.301-.083-.237-.008-.5.079-.707.012-1.011-.329-1.841.215-2.738.426-.201.047-.308.212-.42.365-.592.808-1.224,1.594-1.778,2.423-1.212,1.813-2.379,3.65-3.664,5.423-.719.992-1.404,2.008-2.452,2.765-.247.178-.737,1.186-.763,1.519-.055.718-.099,1.436-.133,2.155-.092,1.939-.14,3.88-.274,5.816-.127,1.828-.218,3.659-.577,5.471-.139.699-.071,1.43-.131,2.144-.081.968-.194,1.933-.293,2.9-.029.286-.068.571-.081.857-.008.17.082.276.283.165.303-.168.655-.139.925-.04,1.309.483,2.718.478,4.069.74.813.158,1.618.354,2.421.548,1.046.253,1.793.904,2.491,1.599.552.55.675,1.231.482,1.924-.312,1.124-.813,2.169-1.765,2.997-.215.187-.444.305-.724.333-.235.024-.482-.024-.712.014-.574.094-1.18.101-1.588.604-.218.269-.599.321-.97.345-1.505.098-3.002.257-4.522.166-.984-.059-1.981.051-2.972.099-1.632.08-3.262.004-4.887-.089-1.042-.06-2.048-.02-3.056.221-.977.234-1.872-.171-2.261-.976-.182-.376-.038-.582.458-.642.117-.014.238-.003.358-.004.028.025.059.049.085.076.449.474.916.651,1.666.45,1.105-.295,2.287-.324,3.431-.192,1.072.124,2.143.163,3.209.104,1.549-.086,3.095-.11,4.645-.105.992.003,1.984-.094,2.976-.141.51-.024.914-.201,1.197-.6.28-.395.633-.734,1.017-1.053.35-.291.667-.617.983-.941.303-.311.223-.686.104-1.023-.087-.248-.409-.139-.627-.19-.537-.125-1.074-.256-1.606-.398-.312-.084-.64-.166-.934-.046-.569.233-1.103.091-1.616-.09-.492-.173-1.013-.181-1.508-.31-.275-.072-.552-.029-.825.034-.252.058-.41.18-.467.426-.074.315-.175.625-.283.932-.051.145-.197.24-.36.245-.397.013-.863-.245-.809-.61.042-.284.037-.575.031-.862-.002-.101-.04-.246-.116-.287-.069-.037-.264.009-.316.074-.344.436-.738.526-1.204.173-.269-.204-.568-.226-.896-.194-.397.04-.768.111-1.137.282-.738.342-1.478.683-2.27.927-1.029.317-1.852.969-2.749,1.495-.309.181-.596.534-.515.893.058.257.472.193.731.263.038.01.075.024.112.038.226.087.27.385.086.536-.254.209-.545.274-.881.234-.393-.047-.788-.078-1.182-.115Zm1.197-63.405c.249-.227.626-.417.723-.688.253-.708.576-1.427.473-2.192-.044-.325-.045-.619.022-.943.071-.345.022-.715-.01-1.071-.032-.351-.303-.699-.337-.602-.071.199-.075.416-.108.626-.056.355-.115.709-.168,1.064-.189,1.277-.376,2.555-.564,3.833-.336.802-.482,1.647-.664,2.483-.052.241-.051.504.131.719.043.051.125.101.189.101.044,0,.123-.084.127-.135.035-.426.001-.864.093-1.279.142-.64.163-1.274.092-1.917Zm9.115,55.785c.063-.089.167-.172.182-.267.133-.853.284-1.706.365-2.563.105-1.109.048-2.238.246-3.331.265-1.46.366-2.925.516-4.392.162-1.577.136-3.159.296-4.732.141-1.395-.056-2.803.223-4.191.052-.259-.152-.432-.431-.323-.41.16-.773.053-1.161-.016-.278-.05-.455.117-.42.375.048.356.138.71.157,1.067.08,1.498.169,2.996.2,4.495.036,1.762.07,3.527.002,5.288-.053,1.364-.199,2.726-.199,4.093,0,1.509-.169,3.019.055,4.525l-.05.027.02-.053Zm-24.337-30.648l-.022-.019c.005.277.13.48.43.582.339.116.69.144,1.05.166,1.63.099,3.26.028,4.89.043,1.072.01,2.148.097,3.208-.116,1.315-.264,2.653-.467,3.794-1.194.329-.21.707-.32,1.123-.307.244.008.338-.143.347-.346.005-.108.005-.216.011-.324.127-2.491-.197-4.954-.583-7.41-.073-.465-.128-.925-.151-1.392-.02-.395-.025-.794-.092-1.184-.223-1.282-.321-2.571-.305-3.868.013-1.044.001-2.091-.326-3.099-.324-.998-.73-1.975-1.07-2.969-.393-1.15-1.02-2.169-1.884-3.088-.621-.66-1.044-1.433-1.31-2.276-.295-.936-.582-1.87-.553-2.857.006-.213-.052-.428-.078-.642-.124-1.036-.3-2.069-.359-3.108-.103-1.831-.132-3.665-.196-5.498-.042-1.187-.023-2.38-.158-3.558-.152-1.33-.164-2.656-.163-3.987,0-.756.072-1.521-.034-2.265-.208-1.475-.154-2.944-.068-4.417.057-.968.103-1.941.251-2.899.1-.646.055-1.291.122-1.934.023-.221-.166-.305-.397-.278-.236.027-.506.008-.699.108-.634.328-1.208.241-1.802-.078-.235-.126-.402-.027-.39.201.079,1.509.048,3.028.308,4.523.366,2.103.393,4.229.565,6.343.184,2.265-.171,4.524-.327,6.784-.057.825-.153,1.649-.278,2.467-.137.898-.157,1.787.002,2.685.441,2.495.106,4.946-.558,7.375-.028.104-.082.202-.119.305-.147.409-.283.822-.439,1.229-.481,1.256-.95,2.519-1.844,3.603-.665.806-1.327,1.613-1.988,2.422-.117.143-.338.311-.314.436.083.424-.281.652-.423.973-.132.298-.334.569-.369.905-.097.93-.243,1.857-.305,2.788-.041.608.08,1.224.042,1.832-.087,1.38.132,2.735.466,4.062.285,1.135.407,2.27.427,3.421.014.792-.017,1.584-.009,2.376.011,1.008.046,2.016.059,3.023.004.325.213.43.519.461Zm43.217-26.73c.103-1.821-.263-3.578-.928-5.284-.501-1.284-1.096-2.538-1.594-3.823-.396-1.023-.869-2.003-1.504-2.923-.315-.456-.633-.918-.87-1.409-.266-.552-.553-.479-1.048-.327-.241.074-.398.229-.529.414-.514.725-1.346,1.013-2.199,1.169-1.598.293-3.235.282-4.858.326-1.228.033-2.455.059-3.683.107-1.427.056-2.857.052-4.271-.19-.637-.109-.731-.087-.966.499-.313.782-.757,1.505-1.221,2.214-.164.249-.271.61-.688.672-.399-.357.149-.553.181-.842.035-.319.144-.63.354-.906.412-.542.508-1.206.819-1.788.092-.173-.047-.332-.284-.388-.174-.041-.331-.011-.387.149-.227.651-.421,1.311-.66,1.959-.399,1.084-.683,2.204-1.255,3.234-.271.488-.399,1.028-.45,1.557-.069.711-.024,1.432.007,2.148.022.505.103.994-.35,1.413-.197.183-.112.482-.126.731-.043.754-.092,1.502-.227,2.253-.139.773-.412,1.534-.329,2.342.063.607.082,1.224.045,1.833-.04.66.426,1.228.352,1.889-.018.161.172.266.326.171.269-.166.424-.101.568.127.101.159.235.339.137.502-.333.554.024,1.056.127,1.567.073.362.507.475.833.262.929-.608,1.853-1.222,2.772-1.842.191-.129.368-.252.606-.324.524-.157,1.048-.329,1.545-.546,1.046-.456,2.234-.454,3.291-.866.035-.014.078-.013.117-.012,1.031.005,2.058-.091,3.094.016.902.093,1.811.119,2.725-.035.619-.104,1.263-.101,1.897-.105.438-.003.818.186,1.216.358.402.175.786-.326,1.253-.188.11.033.24.006.355.029,1.008.201,1.993.461,2.897.932.664.346,1.221.791,1.674,1.356.263.328.534.28.657-.121.285-.932.666-1.847.62-2.842-.018-.394-.01-.794.128-1.176.102-.281.054-.564.055-.851.004-1.152-.324-2.283-.225-3.438Zm-18.589,36.062c1.344-.019,2.363-.273,3.096-1.086.552-.613,1.085-1.246,1.556-1.911,1.071-1.512,2.189-2.999,3.061-4.62.121-.225.292-.429.438-.643,1.085-1.59,2.277-3.119,3.26-4.767.32-.537.692-1.049.995-1.593.661-1.187,1.361-2.361,1.923-3.587.882-1.926,1.664-3.888,2.485-5.837.255-.604.544-1.2.622-1.852.007-.058-.041-.154-.093-.177-.056-.024-.151.008-.22.035-.071.028-.139.072-.195.121-1.094.956-2.321,1.722-3.766,2.184-.336.107-.655.26-.989.374-1.077.368-2.133.809-3.241,1.072-2.188.52-4.403.897-6.695.825-1.033-.032-2.05-.16-3.075-.226-1.389-.09-2.752-.292-4.053-.788-.581-.222-1.213-.339-1.827-.488-.288-.07-.469.064-.47.317-.01,1.727.03,3.455-.045,5.179-.043.971.198,1.932.041,2.901-.049.303.116.554.304.796.135.174.331.364.341.554.04.729.384,1.398.459,2.114.038.367.174.691.328,1.026.336.728.738,1.455.902,2.22.227,1.058.628,2.083.729,3.165.019.204.12.429.258.592.556.655.973,1.404,1.663,1.969.356.291.623.655.824,1.051.16.316-.02.558-.419.561-.117,0-.235-.049-.35-.043-.056.003-.153.087-.149.127.01.099.043.214.111.288.112.121.288.102.444.085.503-.056,1.003-.201,1.505.042.126.061.312.022.242.019Zm-10.04,1.568c.117-3.39-.137-6.811.162-10.225.006-.072.02-.146.004-.215-.037-.165-.167-.256-.339-.194-.255.092-.504.207-.739.337-.372.206-.712.46-1.144.57-1.225.312-2.46.568-3.737.62-2.333.096-4.666.118-6.998-.038-.593-.04-1.19-.027-1.783-.067-.51-.034-.527-.051-.491.411.078,1.004.177,2.007.268,3.01.147,1.613.3,3.226.285,4.845-.01,1.15-.112,2.3-.13,3.451-.014.83-.135,1.643-.313,2.452-.148.669-.38,1.332-.439,2.007-.068.785-.006,1.581.033,2.371.039.794.203,1.571.553,2.307.059.124.175.305.28.314.218.019.153-.19.159-.308.03-.692.439-1.116,1.112-1.399.868-.365,1.758-.685,2.696-.837,2.322-.378,4.667-.373,7.005-.165.828.074,1.641.305,2.157,1.008.152.207.384.364.565.554.152.16.254.477.476.434.298-.058.306-.385.328-.636.019-.215.028-.431.028-.647.002-3.311.001-6.622.001-9.96Zm13.297-24.327c1.33-.028,3.368-.256,5.354-.781.985-.26,1.923-.666,2.909-.921,1.718-.445,3.114-1.383,4.535-2.293.189-.121.215-.315.049-.463-.452-.403-.932-.78-1.55-.967-.598-.18-1.219-.312-1.795-.538-.488-.192-.979-.287-1.498-.295-.992-.016-1.985-.035-2.977-.03-.479.003-.948,0-1.416-.117-.544-.137-1.151-.19-1.648-.033-.755.238-1.488.142-2.23.128-.478-.009-.898-.006-1.363.207-.553.253-1.179.394-1.806.515-1.015.196-1.904.619-2.674,1.308-1.002.895-2.097,1.71-3.519,2.053-.535.129-.56.4-.14.743.16.131.33.188.534.191.689.013,1.331.237,1.955.447.635.213,1.286.332,1.937.45,1.518.275,3.061.348,5.346.395Zm-11.635,24.436s.006,0,.009,0c0-.9.003-1.8,0-2.699-.009-2.483.035-4.967-.121-7.448-.013-.213-.046-.426-.092-.635-.009-.042-.116-.071-.182-.096-.01-.004-.058.043-.066.072-.029.102-.071.208-.068.311.068,2.122-.058,4.248.136,6.369.043.466.142.957.03,1.398-.184.721-.094,1.431-.101,2.145-.019,1.907-.083,3.815-.02,5.72.091,2.774.012,5.527-.479,8.275-.213,1.19-.782,2.084-1.884,2.727-1.425.832-3.005,1.292-4.652,1.58-.504.088-1.021.235-1.535.114-.731-.172-1.487-.191-2.226-.3-1.531-.225-2.766-.933-3.844-1.827-1.054-.873-1.908-1.933-2.299-3.229-.062-.207-.157-.408-.261-.601-.336-.627-.465-1.296-.519-1.983-.022-.287-.043-.575-.086-.859-.144-.972-.11-1.936.115-2.896.137-.583.291-1.154.353-1.762.099-.968.12-1.937.197-2.904.175-2.196-.036-4.39-.069-6.584-.004-.286-.079-.571-.104-.857-.113-1.29-.28-2.579-.317-3.87-.07-2.411-.062-4.824-.092-7.235-.005-.396.039-.809-.068-1.184-.37-1.293-.651-2.593-.672-3.933-.002-.099-.072-.141-.15-.093-.058.036-.127.098-.133.154-.023.214-.035.43-.029.644.104,3.56.211,7.121.319,10.681.008.252.024.504.047.755.227,2.477.231,4.957.157,7.44-.031,1.042-.063,2.079-.142,3.12-.104,1.363-.064,2.734-.088,4.102-.007.396.03.799-.043,1.186-.174.933-.099,1.865-.082,2.8.035,1.939.423,3.862.325,5.807-.017.333.071.641.287.917.188.241.394.45.748.483.531.051.929.222.852.807-.008.065.027.145.069.202.578.794,1.236,1.503,2.302,1.786,1.416.375,2.859.611,4.334.662,1.309.045,2.606.178,3.89.399.946.163,1.883.225,2.833.024,1.023-.217,1.844-.659,2.277-1.567.141-.296.287-.593.392-.9.39-1.144.534-2.318.476-3.511-.041-.83.005-1.657.132-2.477.128-.824.142-1.65.143-2.478.002-2.916,0-5.832,0-8.748Zm-9.674,16.726c.367.035.605.088.839.075,1.893-.105,3.658-.589,5.281-1.485.381-.21.648-.505.918-.824.557-.659.473-1.423.536-2.166.014-.166-.112-.272-.275-.305-.861-.177-1.437-.729-2.041-1.247-.2-.172-.386-.38-.678-.417-.784-.098-1.569-.219-2.358-.256-.751-.036-1.507.021-2.261.04-1.279.032-2.501.35-3.692.718-.737.227-1.467.58-1.663,1.403-.069.288-.306.278-.555.171-.101-.043-.208-.11-.317-.02-.106.087-.077.196-.027.292.472.919,1.078,1.761,1.885,2.464.66.575,1.398,1.094,2.31,1.27.731.141,1.457.386,2.098.287Zm23.096-72.505c-.565.011-1.225-.122-1.826.081-1.016.344-2.067.502-3.128.654-1.307.188-2.51.642-3.64,1.255-.164.089-.327.217-.424.363-.224.338-.414.695-.604,1.05-.136.255-.072.493.141.693.282.266.598.479,1.031.47.278-.005.565-.042.805.121.377.255.815.258,1.253.269.993.026,1.987.053,2.98.073,1.307.026,2.608-.27,3.92-.068.038.006.08,0,.119-.008.903-.16,1.821-.12,2.733-.17.394-.021.781-.119,1.175-.153.423-.037.757-.202,1.023-.489.469-.506.971-.952,1.786-.896.068.005.14-.061.212-.091.2-.084.238-.244.092-.426-.116-.144-.287-.268-.35-.428-.262-.659-.813-.878-1.529-1.021-.766-.153-1.587-.179-2.275-.587-1.047-.622-2.213-.749-3.495-.692Zm-21.57-22.642c-.016-.536.124-1.078-.103-1.604-.142-.33-.209-.381-.601-.372-.833.02-1.625.343-2.478.245-.37-.042-.493.169-.253.472.354.447.513.941.282,1.422-.532,1.108-.149,2.273-.331,3.401-.047.288.065.618.012.946-.142.88-.348,1.782.453,2.534.074.069.06.208.113.303.216.389,1.149.905,1.581.787.533-.145,1.238-.065,1.467-.728.486-.334.559-.779.327-1.244-.515-1.028-.277-2.107-.278-3.164,0-.5.053-.998-.022-1.5-.074-.497-.114-.998-.169-1.497Zm18.451,98.915c-.001.008-.003.015-.004.023-.079-.007-.158-.017-.237-.022-.38-.023-.434.01-.464.309-.018.179-.03.359-.03.539,0,.281.128.415.434.364.729-.121,1.436-.023,2.106.199.546.181,1.088.233,1.638.159.86-.116,1.662-.01,2.413.385.325.171.655.234,1.028.162.149-.029.317-.015.468.015.721.145,1.026.67.763,1.302-.042.101-.085.205-.152.293-.19.247-.144.428.081.66.348.358.321.382.01.711-.155.163-.323.316-.474.481-.061.067-.032.145.056.184.03.013.083.007.114-.009.282-.144.554-.327.672-.593.235-.531.45-1.074.604-1.629.17-.612-.086-1.135-.597-1.549-.483-.392-1.052-.654-1.677-.789-.884-.192-1.77-.394-2.669-.503-1.101-.134-2.196-.269-3.263-.559-.263-.072-.545-.089-.818-.132Zm-10.555-42.801c0-1.175-.047-2.185.01-3.19.108-1.894-.38-3.708-.804-5.534-.034-.146-.131-.278-.306-.279-.105,0-.228.064-.313.131-.319.253-.296.554-.146.884.367.809.529,1.66.543,2.529.029,1.799.019,3.596.279,5.388.228,1.568.349,3.148.523,4.722.006.053.078.141.122.142.145.004.174-.109.193-.215.006-.035.006-.072.002-.108-.139-1.544-.141-3.09-.103-4.471Zm-18.948-6.633c.019,0,.038,0,.057,0,0,.252-.01.505.003.756.018.354-.119.72.096,1.059.419-.269.288-.706.394-1.07.02-.068.009-.144.017-.215.104-.896.231-1.768.8-2.567.223-.313.381-.655.662-.963,1.165-1.275,2.281-2.588,3.108-4.077.213-.384.395-.785.451-1.218.005-.042-.077-.1-.13-.138-.015-.01-.084.015-.103.04-.088.12-.181.239-.247.369-.896,1.756-2.18,3.247-3.74,4.559-.348.292-.636.643-.948.969-.329.344-.453.744-.426,1.199.025.431.005.864.005,1.296Zm6.999-53.028c.002.658.155.81.883.831.189.006.38-.056.57-.088.54-.091,1.068-.229,1.63-.209.368.013.465-.114.485-.46.049-.864-.315-1.195-1.261-1.086-.66.076-1.312.207-1.966.319-.221.038-.329.175-.34.373-.006.106-.001.213-.001.32Zm-6.944,57.422c0,.251-.012.466.006.679.007.082.007.248.183.182.09-.033.19-.141.203-.226.031-.21.042-.428.01-.637-.036-.239-.007-.504-.227-.697-.321.191-.116.491-.175.698Z" stroke-width="0"/>
        <path d="m103.933,79.174c-.616-.121-1.235-.264-1.86-.308-.791-.055-1.59.005-2.384-.032-.618-.029-1.165.099-1.72.338-.603.26-1.225.497-1.916.534-.551.03-1.112-.01-1.647.192-.201.076-.394-.04-.459-.236-.068-.203-.156-.421-.137-.625.068-.757-.037-1.508-.043-2.261-.004-.404-.222-.781-.147-1.17.138-.723-.032-1.426-.062-2.138-.064-1.519-.395-2.998-.676-4.481-.227-1.196-.522-2.39-1.161-3.497-.439-.761-.757-1.586-1.056-2.404-.662-1.81-1.023-3.689-1.463-5.549-.098-.415-.235-.851.233-1.201.096-.072.124-.268.111-.402-.052-.545-.262-1.05-.556-1.524-.052-.084-.175-.169-.276-.183-.417-.057-.917-.039-.338-.581.057-.054-.031-.264-.091-.386-.273-.559-.574-1.106-.835-1.67-.149-.321-.417-.502-.716-.692-1.283-.814-2.727-1.334-4.184-1.798-.694-.221-1.406-.48-2.185-.462-1.346.033-2.694.023-4.041.019-1.021-.004-1.963-.193-2.885-.553-.879-.343-1.792-.591-2.738-.725-1.112-.157-2.227-.176-3.296.187-.63.214-1.231.501-1.835.774-1.564.709-3.143,1.391-4.84,1.792-1.238.293-2.408.732-3.532,1.263-.662.313-1.323.689-1.452,1.469-.025.148-.15.249-.307.305-.185.065-.371.127-.556.193-.57.203-.889.538-.899,1.136-.014.762-.244,1.487-.655,2.162-.326.535-.641,1.077-.934,1.628-.638,1.199-1.24,2.425-1.476,3.741-.363,2.021-.734,4.043-.888,6.091-.062.823-.251,1.639-.293,2.462-.066,1.285-.438,2.561-.148,3.858.023.103.013.219-.015.322-.195.708-.153,1.44-.126,2.147.068,1.768-.092,3.511-.387,5.253-.193,1.14-.145,2.293-.037,3.438.048.511.095.531-.386.537-.884.012-1.733.127-2.566.422-.474.168-.999.23-1.507.304-2.831.412-5.584,1.072-8.243,2.049-1.372.504-2.815.728-4.272.913-1.139.144-2.265.356-3.356.71-1.118.362-2.24.722-3.379,1.021-1.299.341-2.555.76-3.724,1.378-.219.115-.414.151-.669.062-.702-.246-1.41-.479-2.129-.681-.754-.212-1.423-.57-2.111-.901-.456.015-.839.207-1.163.491-.007.006-.013.01-.02.016-.039.058-.077.117-.119.172.025.026.048.054.068.086.088.141.051.278-.066.392-.306.297-.466.657-.621,1.033-.248.605-.543,1.196-.831,1.787-.043.088-.161.145-.245.217-.042-.06-.106-.115-.123-.179-.095-.377-.419-.573-.775-.554-.38.02-.548.36-.661.673-.012.033.001.073-.009.107-.27.912-.828,1.705-1.298,2.533-.156.274-.306.374-.564.335-.035.401-.195.779-.386,1.148.002.003.004.006.005.01.046.119-.161.309-.232.476-.299.703-.626,1.394-.969,2.081-.211.423-.671.826-.485,1.394.035.107-.075.281-.168.389-.693.809-1.073,1.764-1.501,2.69-.333.722-.796,1.234-1.697,1.33-.203.022-.441.083-.485.265-.124.509-.591.62-1.008.824-.416.205-.804.463-1.184.722-.383.261-.76.487-1.253.585-.752.15-.881.348-.888,1.066-.008.864-.002,1.727-.002,2.591.009,0,.017,0,.026,0,0,.216.002.432,0,.648-.006.684-.014,1.368-.019,2.052-.003.345.107.539.523.718,1.792.772,3.55,1.61,5.235,2.566.572.324,1.129.669,1.695,1.002.798.469,1.62.908,2.389,1.412.838.55,1.689,1.061,2.649,1.426.657.25,1.309.527,1.917.86,1.192.654,2.448,1.196,3.675,1.787.21.101.429.19.628.307,1.371.803,2.834,1.444,4.329,2.03.945.371,1.933.647,2.846,1.093.596.291,1.25.491,1.928.532,1.585.098,3.15.415,4.748.357.331-.012.602.079.884.248.501.299.528.283.946-.147.137-.142.266-.26.476-.287.549-.071,1.095-.16,1.646-.209,1.04-.092,2.02-.32,2.936-.806.764-.405,1.419-.929,2.058-1.459,1.666-1.382,3.29-2.807,4.909-4.234.285-.251.57-.496.873-.729.91-.698,1.86-1.336,2.875-1.913,2.553-1.452,5.067-2.961,7.581-4.468,2.074-1.243,3.834-2.81,5.343-4.581.872-1.023,1.633-2.121,2.694-3.005.113-.094.188-.228.276-.346q.334-.451.905-.234c.183.069.373.12.556.188,1.171.434,2.348.856,3.506,1.317.234.093.573.155.647.428.043.156-.065.343-.085.518-.021.179-.03.36-.026.539.028,1.153-.003,2.302-.188,3.445-.08.497-.124,1-.199,1.498-.233,1.529-.444,3.062-.719,4.586-.256,1.417-.625,2.818-.872,4.237-.302,1.739-.575,3.484-.594,5.251-.019,1.801.093,3.595.325,5.382.088.676.03.824-.67,1.015-.262.071-.546.105-.82.106-.722.002-1.417.143-2.117.275-1.438.27-2.879.531-4.32.789-.468.084-.945.126-1.409.219-.982.197-1.852.559-2.6,1.216-1.141,1-1.872,2.246-2.544,3.491-.76,1.409-1.569,2.833-1.754,4.441-.042.365-.177.546-.663.57-.579.028-.766.41-.55.93.084.202.171.393.199.613.165,1.3.697,2.519,1.302,3.671.712,1.355,1.61,2.645,2.691,3.806.808.867,1.7,1.622,3.019,1.794.192.025.372.124.559.186,1.048.347,2.127.564,3.242.644,1.066.077,2.143.111,3.191.284,1.19.196,2.368.2,3.558.119.598-.041,1.177-.031,1.747.202.51.209,1.066.255,1.632.237.962-.031,1.89-.218,2.796-.486,1.055-.313,2.096-.666,3.138-1.012,1.321-.438,2.502-1.058,3.465-2.022.311-.312.6-.654.983-.926.812-.574,1.584-1.198,2.337-1.835,1.652-1.397,2.716-3.045,2.845-5.161.046-.754-.011-1.504.053-2.254.145-1.676-.132-3.297-.789-4.867-.197-.47-.423-.935-.56-1.42-.364-1.289-1.307-2.015-2.673-2.357-.421-.105-.843-.221-1.273-.284-.512-.075-1.007-.2-1.509-.312-1.116-.249-2.234-.496-3.391-.561-.949-.053-1.895-.172-2.845-.21-.625-.025-.94-.277-1.023-.819-.016-.105-.082-.203-.105-.308-.325-1.447-.407-2.917-.494-4.386-.023-.392.045-.791.105-1.182.212-1.384.419-2.769.663-4.149.427-2.415.923-4.817,1.693-7.167.363-1.107.586-2.242.69-3.389.1-1.105.184-2.219-.136-3.312-.121-.412-.283-.813-.426-1.22.396-.38.966-.191,1.437-.36.836-.3,1.688-.549,2.411-1.064.308-.22.641-.427,1.043-.508.153-.031.307-.082.443-.152.23-.118.285-.526.122-.783-.102-.162-.388-.182-.64-.04-.101.057-.212.109-.291.186-.55.541-1.312.8-1.967,1.199-.382.233-.874.32-1.321.462-.058.019-.169-.002-.208-.043-.307-.318-.628-.241-.952-.04-.398.247-.833.272-1.247.093-.46-.199-.914-.214-1.392-.112-.076.016-.16.019-.238.012-.144-.014-.345.018-.341-.187.003-.122.141-.138.261-.154.945-.127,1.896-.166,2.847-.121.457.022.86-.055,1.259-.243.561-.264,1.106-.587,1.704-.747.871-.234,1.591-.818,2.542-.858.178-.008.37-.136.518-.249.62-.474,1.364-.741,2.095-1.014.816-.304,1.575-.683,2.287-1.148.225-.147.449-.302.694-.415.131-.061.307-.054.462-.051.049.001.148.115.136.137-.233.415-.484.799-1.002,1.007-.977.392-1.933.829-2.894,1.255-.056.025-.077.113-.114.172.072.028.141.067.216.083.405.088.794.023,1.162-.132.465-.196.927-.402,1.378-.623.524-.256,1.027-.535,1.419-.962.2-.218.462-.4.727-.556,1.038-.614,1.557-1.531,1.789-2.582.252-1.138.676-2.215,1.191-3.272.403-.827.652-1.688.707-2.6.054-.896.131-1.795.272-2.683.203-1.277.758-2.499.726-3.816-.004-.173.092-.348.143-.521.21-.707.272-1.795.161-2.642-.028-.214-.04-.432-.026-.646.04-.609.125-1.216.142-1.825.025-.899.004-1.8.008-2.699.003-.767.108-.865.937-.928.395-.03.788-.088,1.183-.099.853-.024,1.655-.265,2.378-.619.53-.259,1.048-.359,1.594-.288.942.122,1.908-.053,2.837.215.182.053.395.019.594.018.254-.002.476-.054.516-.331.044-.301-.082-.565-.341-.616Zm-47.392-24.64c.742-.7,1.515-1.372,2.27-2.061.148-.135.312-.221.522-.22.326,0,.637-.061.91-.221,1.077-.629,2.272-1.014,3.475-1.376,1.326-.399,2.553-.996,3.796-1.552,1.636-.731,3.207-.64,4.798.077,1.186.534,2.446.825,3.774.84,1.232.014,2.465.022,3.698.017.929-.003,1.809.168,2.661.501.726.284,1.452.589,2.21.78.829.209,1.369.654,1.721,1.327.356.681.68,1.377,1.049,2.052.402.737.288,1.416-.295,2.002-1.109,1.116-2.053,2.356-3.435,3.266-.996.655-1.944,1.373-3.043,1.876-1.483.679-2.924,1.451-4.578,1.787-.771.157-1.493.478-2.299.55-.394.035-.78.076-1.178.062-1.906-.068-3.779-.281-5.618-.786-.942-.259-1.946-.33-2.938-.365-.437-.016-.875-.012-1.313-.01-.368.002-.713-.058-1.012-.262-.419-.286-.895-.47-1.389-.608-1.127-.316-2.035-.958-2.937-1.603-.657-.469-.975-1.125-1.102-1.858-.092-.531-.199-1.065-.034-1.6-.32-.381.15-.875-.249-1.236.049-.502.137-1.004.536-1.381Zm-3.038,4.562c.049.033.037.051-.034.055.011-.018.023-.037.034-.055Zm-.068.094c.098.314-.025.59-.199.855-.031.047-.105.071-.16.106-.031-.06-.096-.123-.089-.18.038-.311.145-.595.448-.782Zm-30.142,34.341c.157-.106.335-.203.52-.256,2.457-.7,4.838-1.619,7.361-2.123.89-.178,1.794-.309,2.698-.41,1.312-.147,2.542-.544,3.744-.994,1.29-.483,2.631-.798,3.967-1.129,1.334-.331,2.711-.488,4.069-.723.428-.074.844-.203,1.265-.308.734-.183,1.48-.274,2.241-.235.365.019.496.112.556.443.217,1.186.846,2.231,1.368,3.312.11.229.244.464.428.644.632.616,1.024,1.367,1.48,2.082.258.405.387.854.557,1.293.523,1.352,1.083,2.699,1.952,3.914.022.03.039.074.07.086.68.254.696.894.984,1.376.098.165.158.311.059.499-.144.272,0,.491.224.666.209.163.42.333.657.457,1.211.628,2.291,1.393,3.167,2.384.091.039.182.079.273.118-.037.034-.071.094-.112.098-.114.011-.192-.047-.225-.149-.718-.298-1.467-.548-2.148-.903-2.386-1.243-5.015-1.975-7.516-2.974-1.528-.298-2.917-.917-4.335-1.483-.752-.3-1.595-.423-2.406-.591-1.321-.274-2.606-.65-3.79-1.24-.928-.462-1.933-.636-2.938-.781-1.722-.248-3.457-.441-5.205-.494-.316-.01-.629-.072-.944-.105-.44-.046-.686.135-.732.505-.033.264.243.623-.145.77-.268.101-.463-.216-.691-.343-.819-.456-1.728-.707-2.62-1.008-1.302-.439-2.564-.961-3.627-1.802-.089-.071-.177-.144-.254-.225-.128-.135-.09-.279.047-.371Zm-12.526,6.988c.654-.511.961-1.193,1.205-1.919.075-.224.169-.481.433-.616.032-.016.08-.038.104-.027.029.013.041.058.068.103-.075.369-.072.783-.248,1.123-.316.612-.732,1.183-1.336,1.61-.045.032-.159.037-.199.008-.046-.034-.053-.119-.063-.184-.005-.031.011-.077.036-.097Zm-3.753,9.123c.171-.908.504-1.777,1.363-2.321.733-.464,1.036-1.091,1.096-1.823.054-.659.393-1.152.837-1.627.308-.33.596-.675.896-1.011.53-.593.993-1.215,1.134-1.992.025-.138.099-.273.174-.399.113-.191.258-.247.455-.066.075.069.249.163.28.139.114-.086.265-.217.265-.331,0-1.336.637-2.486,1.209-3.671.522-1.082,1.174-2.116,1.544-3.258.022-.067.081-.123.121-.185.127-.196.246-.35.558-.217.536.228,1.088.428,1.641.618.741.255,1.5.472,2.235.74.661.241,1.304.508,1.881.915,1.396.984,3.037,1.534,4.666,2.115,1.991.711,3.997,1.402,5.821,2.445.57.326,1.161.621,1.745.927.171.09.36.154.521.256,1.399.887,2.794,1.778,4.188,2.672.583.374,1.163.751,1.737,1.137.279.187.575.334.744.663.174.34.61.403,1.008.49.535.117.629.52.25.887-.275.266-.591.477-.964.621-.438.169-.91.299-1.298.536-1.148.702-2.418.663-3.676.495-.993-.133-1.961-.282-2.948-.023-.076.02-.162.047-.234.033-1.136-.226-2.289.013-3.425-.102-.748-.076-1.499-.181-2.227-.347-.351-.08-.667-.202-1.035-.102-.25.068-.458-.043-.66-.171-.596-.379-1.261-.603-1.977-.715-.193-.03-.384-.092-.567-.158-.489-.179-.514-.234-.433-.811.056-.393-.229-.691-.614-.529-.781.329-1.376-.002-2.009-.298-.992-.464-1.932-1-2.818-1.616-.664-.462-1.39-.778-2.208-1.013-.92-.264-1.927-.527-2.863-.719-.288-.059-.696-.205-.972-.029-.093.059-.496.581-.238.659.499.15,1.099.247,1.565.414.127.045.268-.195.447-.03.028.026.117.312.072.305.13.02.259.051.388.093.105-.044.233-.015.384.05.215.092.44.173.671.222.916.195,1.677.63,2.385,1.174.422.324.888.604,1.352.879.128.076.265.14.404.201,1.007.251,1.869.89,2.783,1.35.907.456,1.826.863,2.721,1.32.31.023.588.118.861.243.425.195.837.417,1.273.589.288.114.608.23.912.227,1.206-.012,2.342.39,3.533.446.292.014.271.169.232.372-.042.22.154.192.31.177.748-.076,1.484-.231,2.249-.187.367.021.708.01.992.265.188.169.429.148.673.118.636-.079,1.271-.046,1.9.062.497.086.937.013,1.336-.296.208-.161.475-.257.711-.389.133-.075.333-.139.374-.248.294-.772,1.184-.908,1.762-1.372.339-.271,1.138,0,1.287.401.113.305.181.62-.02.937-.454.714-.765,1.508-1.472,2.078-.218.176-.34.414-.252.681.277.839-.156,1.475-.729,2.053-.244.247-.443.455-.488.819-.031.251-.318.482-.506.711-.293.355-.345.712-.086,1.102.102.153.172.324.255.487.064.126-.021.216-.119.268-.965.516-1.943.968-3.13.878-.63-.048-1.271.017-1.907.023-.368.004-.73.065-1.016.265-.519.363-1.113.341-1.708.339-.056,0-.153-.072-.156-.115-.003-.052.061-.132.119-.156.141-.061.302-.085.441-.148.049-.023.063-.116.08-.18.003-.011-.061-.05-.097-.054-.55-.061-1.109.046-1.657-.09-.225-.056-.582-.148-.657.052-.131.348.301.317.523.415.035.015.076.023.115.027.096.011.166.063.139.143-.016.045-.114.094-.175.094-.756.006-1.512.004-2.089.004-.616.026-1.056.023-1.49.07-.485.052-.959.024-1.414-.116-.724-.222-1.477-.315-2.225-.355-1.054-.056-2.027-.334-2.988-.683-1.042-.379-1.037-.382-.427-1.231.121-.168.24-.233.481-.201.608.081,1.156.275,1.61.643.759.616,1.612,1.026,2.633,1.17.342.048.656.246.99.357.1.033.29.047.326,0,.26-.341.503-.344.885-.113.319.193,1.962.063,2.296-.104.058-.029.112-.11.115-.169.002-.043-.081-.121-.133-.127-.197-.021-.398-.039-.594-.023-.608.051-1.194.006-1.73-.283-.33-.178-.708-.222-1.037-.119-.429.135-.777.035-1.133-.129-.745-.342-1.446-.725-2.054-1.27-.808-.723-1.791-1.077-2.938-.698-.583.192-1.097-.058-1.63-.154-.381-.069-.719-.27-1.144-.095-.24.098-.499-.063-.575-.275-.049-.136-.094-.273-.138-.411-.428.048-.863.01-1.297-.09.03.056.048.112.039.161-.026.145-.236.166-.391.141-.193-.032-.386-.078-.569-.142-.283-.098-.551-.389-.451-.432.103-.044.213-.071.301-.091-.373-.164-.738-.36-1.088-.571-.018.019-.039.034-.052.032-.196-.039-.385-.101-.506-.254-.025-.032-.018-.088-.009-.14-.376-.253-.727-.513-1.043-.756-.61-.001-1.118-.179-1.537-.753-.351-.48-.89-.911-1.594-1.054-.191-.039-.371-.129-.55-.208-.105-.046-.198-.128-.127-.242.005-.008.013-.015.023-.021-.022-.014-.044-.028-.066-.044-.189-.136-.309-.317-.365-.516-.151.094-.396.048-.488-.13-.064-.124-.13-.278-.106-.405Zm52.061-.054c-1.329-.724-2.726-1.299-4.262-1.589-.773-.146-1.52-.39-2.254-.682-1.085-.432-2.111-.988-3.275-1.265-.452-.108-.89-.318-1.287-.547-.652-.377-1.379-.552-2.108-.722-.538-.126-1.091-.199-1.588-.445-.103-.051-.254-.132-.33-.099-.617.269-.928-.204-1.369-.409-1.426-.662-2.586-1.656-3.891-2.467-.719-.447-1.478-.841-2.214-1.266-.092-.053-.153-.149-.228-.226.112-.021.224-.044.337-.061.038-.006.079.006.118.009.962.097,1.838.432,2.701.801,1.147.49,2.288.995,3.536,1.25.463.095.927.194,1.396.256,1.706.227,3.257.909,4.893,1.341,1.222.323,2.373.795,3.507,1.319.771.356,1.502.812,2.353.999.817.179,1.577.483,2.349.762.774.28,1.532.582,2.247.983.708.397,1.463.724,2.287.897.27.057.534.142.795.227.059.019.136.09.135.136-.001.061-.055.14-.113.178-.997.649-1.998,1.293-3,1.935-.128.082-.269.147-.407.214-.025.012-.087.003-.099-.014-.04-.057-.092-.123-.09-.184.002-.064.057-.129.094-.191.367-.608.345-.823-.234-1.138Zm-.983.709c-.067.032-.142.098-.201.088-.151-.025-.307-.065-.439-.134-.455-.235-.96-.345-1.46-.438-1.514-.281-2.963-.756-4.423-1.194-.975-.293-1.93-.642-2.821-1.118-.337-.18-.675-.379-1.107-.195-.095.04-.201-.083-.235-.192-.04-.131.063-.195.163-.249.213-.116.439-.154.678-.063.547.208,1.097.408,1.641.623,1.484.585,2.959,1.203,4.527,1.574.881.208,1.744.453,2.607.707.34.1.676.201.955.41.055.041.077.12.113.182Zm-11.986-3.144c-.036.052-.082.192-.157.207-.087.017-.217-.059-.299-.125-.294-.239-.365-.538-.221-.868.053-.12.202-.122.305-.08.404.164.405.49.371.866Zm-1.003.617c-.008.238-.059.439-.229.6-.088.083-.214.108-.309.047-.123-.079-.23-.186-.32-.297-.175-.217-.144-.378.085-.534.062-.042.126-.092.197-.109.145-.034.318-.098.438-.055.141.051.156.225.139.348Zm-5.644,1.215c-.035.09-.044.2-.109.265-.222.221-.506.318-.843.311-.51-.011-1.02-.003-1.53-.003,0,.022-.001.044-.002.065-.588-.033-1.176-.064-1.763-.106-.051-.004-.134-.084-.135-.13,0-.058.052-.139.109-.172.395-.225.846-.164,1.264-.133.945.07,1.873.028,2.797-.155.063-.012.141.037.212.057Zm2.667,6.499c-.027.176-.063.353-.12.523-.196.578-.4,1.153-.611,1.726-.019.05-.111.104-.173.108-.053.003-.149-.056-.16-.1-.048-.208-.072-.419-.105-.63-.1-.761.355-1.291.896-1.782.043-.039.163-.059.206-.032.049.03.077.125.068.186Zm-22.923,1.768c-.048.05-.099.144-.144.141-.717-.038-1.356-.261-1.895-.697-.035-.028-.02-.116-.01-.173.003-.02.065-.048.095-.044.152.02.311.029.451.08.468.17.93.354,1.39.541.052.021.076.099.112.151Zm-12.524-4.051c.012-.125.086-.199.225-.215-.039-.183.1-.282.251-.292.222-.014.134.203.207.305.248-.026.469-.129.627-.288.347-.347.706-.261,1.064-.055.233.135.446.301.656.465,1.75,1.362,3.578,2.634,5.415,3.896.983.676,2.004,1.283,3.234,1.561.493.111.964.336,1.414.561,1.417.71,2.959,1.012,4.545,1.152.558.049,1.115.082,1.637.265.615.216,1.256.244,1.881.177,1.425-.151,2.852-.101,4.278-.133.238-.005.481-.016.715.018.682.1,1.343.045,1.998-.149.225-.066.475-.149.698-.121,1.026.132,1.939-.229,2.876-.491.458-.128.797-.454,1.265-.59.512-.149.978-.201,1.494-.022.577.2.781.122,1.063-.319.098-.153.155-.328.221-.496.242-.609.496-1.215.715-1.83.205-.579.439-1.145.536-1.761.083-.526.328-1.034.533-1.539.383-.941.915-1.828,1.211-2.801.097-.32.296-.587.615-.771.484-.279.817-.668,1.069-1.134.208-.385.237-.387.623-.248.442.159.877.336,1.309.519,1.801.762,3.659,1.372,5.602,1.762.658.132,1.269.405,1.946.491.364.046.444.355.222.659-.242.331-.493.646-.901.843-.768.371-1.509.789-2.285,1.147-1.28.591-2.388,1.421-3.617,2.084-1.122.606-2.199,1.282-3.283,1.943-.691.421-1.379.85-2.034,1.316-1.153.82-2.278,1.672-3.417,2.507-.644.472-1.298.933-1.94,1.408-.353.261-.775.383-1.199.454-.532.089-.964.329-1.376.609-.544.37-.661.437-1.204.356-.904-.136-1.795-.344-2.614-.716-.649-.294-1.319-.477-2.027-.585-1.1-.167-2.212-.384-3.205-.811-1.415-.608-2.907-.958-4.385-1.365-1.214-.334-2.455-.586-3.677-.897-.801-.204-1.609-.406-2.379-.687-1.143-.417-2.31-.754-3.495-1.053-.533-.135-1.069-.292-1.562-.516-1.003-.455-2.066-.723-3.151-.94-1.129-.225-2.22-.541-3.279-.968-.612-.246-1.278-.383-1.917-.577-.056-.017-.124-.094-.126-.145-.003-.062.04-.157.095-.184.381-.191.754-.411,1.161-.537.395-.123.732-.229.85-.649.062-.22.316-.308.549-.375.091-.08.182-.16.272-.24Zm-5.396-.99c.006-.028.049-.065.081-.07.831-.14,1.24-.702,1.606-1.308.178-.295.455-.496.782-.632.285-.119.58-.224.882-.3.25-.063.495-.37.738-.171.255.209.37.541.412.866.008.06-.03.137-.075.185-.047.052-.121.094-.193.118-1.363.472-2.636,1.096-3.846,1.832-.054.033-.146.014-.253.022-.053-.073-.142-.152-.167-.244-.024-.092.011-.2.033-.298Zm-.095,2.137c.016-.028.062-.042.095-.06,1.616-.888,3.206-1.815,4.893-2.593.109-.05.236-.086.31.032.028.044-.006.14-.043.196-.205.31-.476.566-.8.779-.319.21-.65.409-.944.645-.394.317-.821.54-1.352.609-.229.03-.461.111-.664.214-.165.083-.348.224-.273.426.089.242.031.324-.242.263-.114-.025-.225-.065-.27-.078-.265-.038-.462-.058-.652-.1-.056-.012-.125-.087-.132-.139-.008-.061.039-.132.075-.192Zm9.318,6.952c-.001-.008.071-.036.078-.03.04.041.073.087.107.132-.09.019-.169.015-.184-.102Zm23.094,7.733c-.271.511-.672.735-1.331.672-.866-.082-1.751.003-2.603-.232-.112-.031-.236-.041-.354-.039-1.643.022-3.086-.592-4.544-1.163-.471-.185-.953-.346-1.426-.527-1.247-.478-2.409-1.101-3.573-1.72-.342-.182-.689-.358-1.042-.523-2.292-1.073-4.588-2.142-6.88-3.215-.349-.163-.73-.292-.935-.631-.137-.038-.238-.097-.192-.242.139-.018.233.038.291.155,1.729.632,3.466,1.24,5.143,1.99,1.027.46,2.103.846,3.221,1.11.191.045.377.116.555.194,1.503.657,3.084,1.115,4.681,1.543.948.254,1.873.577,2.809.866.973.3,1.961.552,2.914.917.529.203,1.125.323,1.73.345.473.018.945.11,1.414.184.21.033.21.156.125.316Zm.665-1.37c-1.359-.234-2.763-.252-4.063-.763-1.712-.673-3.534-1.056-5.298-1.594-1.24-.378-2.497-.703-3.654-1.279-.345-.172-.718-.312-1.096-.415-1.869-.506-3.637-1.236-5.405-1.968-.43-.178-.854-.354-1.338-.426-.378-.056-.752-.234-1.086-.42-1.362-.758-2.886-1.186-4.327-1.783-1.369-.568-2.743-1.127-4.109-1.7-.72-.302-1.431-.622-2.143-.939-.356-.158-.709-.322-1.056-.496-.093-.046-.236-.172-.22-.205.059-.116.199-.082.312-.047.412.129.829.247,1.232.395,1.469.54,3.034.825,4.483,1.427.642.267,1.358.407,2.056.539,1.52.289,2.938.853,4.399,1.299,1.802.55,3.574,1.183,5.385,1.708,1.357.394,2.751.688,4.136,1.002,1.54.349,3.057.76,4.488,1.389.651.286,1.351.427,2.039.572,1.159.246,2.302.483,3.394.952.778.334,1.653.497,2.523.595.236.027.478.03.71.075.549.107,1.087.196,1.557-.202.022-.018.153.031.191.077.037.045.054.156.022.186-.33.309-.701.588-.814,1.036-.688.49-1.376.978-2.316.982Zm29.061-17.356c-1.324,1.713-2.86,3.258-4.602,4.627-.626.492-1.33.91-2.029,1.318-1.431.836-2.925,1.588-4.312,2.477-1.102.707-2.264,1.319-3.397,1.975-1.515.877-2.857,1.944-4.148,3.064-1.718,1.492-3.403,3.016-5.222,4.409-.827.633-1.771,1.076-2.884,1.18-.551.051-1.094.178-1.642.26-.063.01-.163-.03-.201-.076-.036-.044-.039-.14-.009-.192.2-.352.374-.733.969-.527.125.043.271-.101.373-.223.62-.742,1.237-1.488,1.881-2.213.361-.406.526-.761.087-1.229-.261-.278-.2-.378.181-.544.888-.387,1.776-.771,2.549-1.334,1.361-.992,2.73-1.977,4.069-2.993.975-.741,1.957-1.471,3.078-2.023,1.574-.777,2.995-1.763,4.504-2.629.192-.11.363-.264.613-.259-.044.404-.417.582-.714.79-1.164.812-2.345,1.603-3.521,2.401-.762.517-1.526,1.03-2.287,1.546-.127.086-.234.2-.371.269-1.148.585-2.104,1.383-3.034,2.211-.709.631-1.433,1.238-2.279,1.727-.563.326-1.058.75-1.407,1.287-.255.392-.205.662.189.914.143.091.296.09.441,0,.065-.04.142-.079.181-.137.572-.856,1.484-1.383,2.316-1.993.585-.428,1.127-.908,1.669-1.382.945-.827,2.034-1.482,3.08-2.194,1.709-1.163,3.468-2.271,5.091-3.539,1.198-.936,2.447-1.818,3.681-2.715.246-.179.533-.309.793-.472,1.097-.691,2.098-1.494,3.169-2.215.951-.641,1.932-1.246,2.904-1.861.092-.058.223-.11.311.015.074.105-.004.197-.069.28Zm-.628-2.868c-1.435-.435-2.705-1.178-4.078-1.726-.866-.346-1.716-.721-2.652-.928-.604-.133-1.179-.414-1.735-.682-1.687-.813-3.433-1.487-5.273-1.962-.571-.148-1.13-.335-1.69-.515-.862-.277-1.752-.459-2.647-.616-1.214-.213-2.385-.518-3.498-1.029-.776-.356-1.609-.611-2.419-.907-.146-.054-.299-.108-.454-.126-1.813-.209-3.532-.803-5.331-1.069-.389-.057-.772-.159-1.151-.259-.102-.027-.21-.118-.129-.245.036-.057.103-.126.167-.136.154-.026.318-.044.472-.024,1.529.2,3.084.196,4.599.547.6.139,1.247.164,1.863.292.62.128,1.212.298,1.754.632.801.493,1.77.619,2.68.852,1.827.468,3.668.89,5.354,1.716.173.085.363.157.554.195,1.477.292,2.851.841,4.231,1.376,1.31.508,2.623,1.01,3.929,1.525.289.114.564.26.833.411,1.219.685,2.482,1.261,3.895,1.572.803.177,1.524.553,1.971,1.238-.428.07-.825-.004-1.243-.131Zm2.037.707c-.373.073-.47-.01-.75-.561.259,0,.518-.007.776.005.167.008.315.107.342.244.045.232-.2.278-.367.312Zm6.788.793c-.288.038-.548-.041-.807-.144-1.853-.743-3.719-1.458-5.493-2.354-.632-.319-1.184-.733-1.729-1.148-.729-.555-1.408-1.166-2.099-1.762-.098-.084-.277-.151-.207-.331.134.067.277.122.4.203.962.637,1.91,1.293,2.883,1.915,1.459.933,2.974,1.783,4.622,2.427.73.285,1.456.571,2.246.691.078.012.162.019.232.049.139.059.345.098.322.27-.022.163-.226.154-.371.183Zm2.462,32.409c.013.138.034.298.119.403.133.163.291.374.571.277.216-.074.468-.154.507-.408.098-.646.034-1.288-.069-1.93-.068-.427-.126-.856-.162-1.286-.023-.269.132-.379.445-.348,1.301.126,2.602.245,3.901.39.471.053.944.139,1.399.264.874.24,1.75.458,2.648.617,1.147.203,2.023.729,2.55,1.748.34.656.595,1.329.848,2.008.076.204.098.429.199.621.355.67.438,1.375.39,2.104-.012.179-.002.36-.002.629.23,1.145-.087,2.359-.248,3.564-.159,1.191-.88,2.236-1.828,3.091-.844.761-1.762,1.453-2.636,2.188-.552.464-1.095.94-1.62,1.429-.535.499-1.141.871-1.872,1.111-1.003.329-1.977.73-2.971,1.08-.404.142-.823.26-1.247.342-1.169.225-2.336.418-3.52.012-.718-.246-1.446-.247-2.218-.073-.687.155-1.432.068-2.132-.058-1.324-.237-2.659-.371-4.003-.448-1.527-.088-2.951-.556-4.365-1.027-.561-.187-.936-.65-1.328-1.062-1.071-1.124-1.885-2.398-2.675-3.687-.096-.157-.221-.313-.259-.483-.212-.952-.744-1.818-.888-2.787-.042-.284-.259-.606-.165-.833.12-.292.566-.09.857-.175.215-.063.319-.174.326-.386.051-1.517.746-2.848,1.479-4.168.178-.321.37-.635.537-.96.203-.394.432-.775.757-1.093.219-.214.39-.444.553-.693.629-.959,1.557-1.449,2.797-1.614,1.444-.192,2.901-.363,4.307-.759.451-.127.928-.198,1.399-.245.991-.099,1.958-.268,2.891-.6.412-.147.591-.02.622.38.113,1.474.479,2.914.701,4.373.046.299.222.452.516.514.276.059.556.083.761-.16.18-.213.228-.425.133-.7-.437-1.275-.633-2.591-.749-3.918-.039-.439.057-.584.582-.599.277-.008.555.038.833.042,1.029.014,1.035.01,1.125.948.076.789.131,1.579.204,2.368Zm1.463-30.258c.162.014.166.157.119.24-.204.358-.095.692.029,1.042.485,1.368.45,2.743.153,4.149-.372,1.763-.809,3.508-1.368,5.23-.089.273-.093.568-.157.849-.383,1.685-.721,3.377-1.012,5.078-.256,1.492-.501,2.982-.41,4.498.089,1.467.117,2.942.587,4.369.089.27-.091.467-.358.392-.544-.151-1.094-.136-1.649-.14-.432-.003-.573-.089-.651-.48-.12-.601-.214-1.208-.27-1.816-.075-.824-.103-1.651-.148-2.414.023-2.397.274-4.708.746-7.005.318-1.548.552-3.11.818-4.666.268-1.56.528-3.122.795-4.682.14-.82.162-1.645.176-2.473.011-.643.103-1.286.165-1.928.015-.159.125-.26.298-.282.713-.089,1.424-.022,2.135.037Zm17.409-26.748c-.099,1.11-.192,2.22-.282,3.331-.099,1.218-.297,2.433-.527,3.637-.337,1.769-.703,3.531-.899,5.322-.133,1.217-.518,2.395-1.013,3.537-.072.167-.182.323-.237.494-.435,1.361-1.488,2.254-2.734,3.018-1.686,1.034-3.525,1.802-5.372,2.554-.937.381-1.854.801-2.794,1.175-.472.188-.952.36-1.427.542-.158.061-.333.079-.439-.041-.243-.274-.53-.266-.858-.179-1.353.361-2.667.047-3.975-.219-1.874-.382-3.601-1.118-5.278-1.933-.906-.44-1.723-1.032-2.568-1.572-.487-.311-.934-.674-1.425-.98-.683-.426-1.373-.818-2.164-1.109-1.132-.417-2.185-1.007-2.845-2.037-.657-1.026-1.407-2.004-2.094-3.015-.248-.366-.489-.752-.627-1.159-.178-.523-.45-1.016-.765-1.45-.558-.77-.808-1.631-1.127-2.474-.104-.276-.24-.526-.398-.777-.454-.719-.845-1.465-1.13-2.257-.314-.87-.282-.922.676-.824.157.016.309.069.466.089.424.053.843-.262.884-.675.015-.149-.078-.288-.223-.358-.135-.065-.293-.11-.445-.124-.276-.025-.556-.013-.834-.03-.895-.056-1.092-.164-1.333-.973-.205-.691-.402-1.402-.435-2.111-.048-1-.152-2.014.12-3.01.26-.949.124-1.921.175-2.882.053-1.003.043-2.008.068-3.013.004-.142.007-.304.079-.421.199-.322.106-.623-.006-.936-.149-.415-.192-.821-.042-1.261.2-.586.195-1.203.184-1.817-.007-.394-.033-.799.053-1.18.335-1.482.508-2.98.654-4.485.044-.453.152-.905.495-1.304,1.014-1.179,1.687-2.515,2.068-3.971.046-.175.105-.348.177-.515.02-.045.116-.097.166-.09.069.01.151.063.185.119.056.091.087.197.114.3.073.28.123.565.209.841.145.464.429.851.87,1.128.747.469,1.403,1.051,2.237,1.414,1.139.496,2.213,1.101,3.468,1.385.741.168,1.464.325,2.227.279.725-.044,1.42.084,2.116.249,1.883.446,3.778.829,5.737.872.277.006.554.073.83.069.627-.01,1.243.016,1.86-.235.607-.248,1.288-.351,1.942-.497.659-.147,1.264-.425,1.896-.623,1.442-.451,2.645-1.297,4.017-1.859.458-.187.832-.549,1.228-.849.852-.645,1.779-1.22,2.506-1.988.464-.49.855-1.036,1.282-1.555.116-.141.258-.108.354.05.159.261.178.548.237.831.293,1.415.559,2.837,1.114,4.193.371.908.737,1.82,1.166,2.706.741,1.527,1.163,3.131,1.478,4.762.198,1.023.379,2.051.496,3.083.073.641.014,1.294.014,1.741.063.849.115,1.495.158,2.142.041.61.042,1.224.116,1.831.07.575-.055.998-.754,1.136-.075.015-.145.059-.211.098-.335.195-.512.5-.412.706.121.25.536.404.914.338.67-.116.663-.115.763.453.14.797-.058,1.579-.128,2.364Z" stroke-width="0"/>
        <path d="m107.708,155.457c.045-2.385.581-4.544,2.021-6.51.793-1.083,1.638-2.117,2.554-3.111.483-.524.915-1.088,1.402-1.609.516-.551,1.109-1.041,1.819-1.379,1.385-.66,2.603-1.525,3.742-2.479.884-.741,1.881-1.325,2.911-1.867.894-.471,1.743-.993,2.581-1.541.802-.524,1.676-.968,2.557-1.379.916-.428,1.882-.767,2.818-1.16.502-.211.983-.463,1.484-.676,1.33-.565,2.699-1.046,4.16-1.233.91-.117,1.799-.297,2.675-.527,1.41-.37,2.844-.646,4.273-.941.23-.047.464-.103.676-.193,1.751-.747,3.637-.982,5.526-1.213,1.611-.197,3.219-.42,4.833-.596,1.499-.163,3.005-.276,4.507-.413.565-.051,1.126.036,1.653.169,1.611.408,3.269.574,4.906.842.863.141,1.709.341,2.489.715,1.41.676,2.881,1.201,4.425,1.57,1.823.435,3.513,1.132,5.04,2.146.287.191.597.359.915.506.787.364,1.481.839,2.113,1.393.664.584,1.41,1.082,2.285,1.34.71.209,1.284.565,1.808,1.006.88.739,1.606,1.595,2.227,2.525.291.437.445.918.563,1.414.168.705.389,1.395.809,2.019.185.274.297.637.561.806.305.195.648-.138.988-.202.588-.111,1.179-.187,1.773-.171,1.758.046,3.486-.193,5.218-.41.55-.069,1.098-.151,1.647-.222.672-.087,1.318-.236,1.935-.512,1.172-.524,1.848-.445,2.787.369.317.275.609.429,1.039.361.074-.012.157.016.235.028.353.056.452.207.33.515-.196.498-.286,1.036-.919,1.314-.21.092-.305.406-.443.624-.728,1.154-1.761,1.9-3.241,2.165-.819.146-1.621.328-2.464.352-1.038.029-2.06.228-3.05.486-1.57.41-3.173.643-4.774.901-.665.108-1.327.234-1.986.366-.246.049-.419.189-.482.427-.12.455-.297.902-.364,1.362-.249,1.699-1.165,3.125-2.228,4.482-.55.702-1.108,1.406-1.794,2.017-.28.249-.491.565-.713.863-.512.689-1.094,1.323-1.735,1.918-.387.359-.752.745-1.08,1.149-.669.824-1.443,1.536-2.454,2.011-1.943.914-3.687,2.105-5.499,3.201-1.021.618-2.121,1.115-3.303,1.471-1.467.442-2.886,1.024-4.434,1.221-1.139.145-2.263.378-3.422.401-1.199.024-2.36.297-3.532.494-.978.165-1.953.238-2.958.152-1.629-.138-3.249-.037-4.842.354-.953.234-1.906.529-2.923.344-1.272.282-2.619.088-3.874.497-.181.059-.392.053-.59.054-1.788.006-3.577.022-5.365,0-.47-.006-.936-.141-1.406-.209-1.165-.169-2.309.016-3.427.258-1.151.25-2.305.201-3.439.085-1.495-.153-2.985-.39-4.452-.725-1.208-.276-2.295-.724-3.32-1.383-1.617-1.039-3.241-2.07-5-2.927-2.067-1.006-3.734-2.408-4.763-4.385-.647-1.245-1.207-2.497-1.455-3.863-.298-1.636-.453-3.282-.555-4.857Zm30.282-8.116c.015-.131-.068-.194-.194-.211-.097-.013-.15.047-.098.116.068.09.174.133.301.086.006.167.137.286.28.302.72.079,1.316.441,1.97.669.375.131.77.147,1.151.003.119-.045.154-.149.08-.258-.11-.16-.273-.284-.477-.278-1.037.033-2-.338-3.013-.429Zm25.091,7.095c.029.141.085.283.083.424-.005.505.293.79.787.955.148.049.281.134.427.191.313.123.457.083.704-.2.096-.11.19-.235.078-.379-.087-.113-.221-.079-.321-.032-.431.203-.764.06-1.062-.226-.244-.234-.484-.472-.725-.708.071-.273-.071-.502-.228-.703-.524-.672-1.125-1.298-1.458-2.08-.01-.024-.092-.051-.102-.041-.051.046-.124.103-.124.156,0,.101.029.207.071.303.293.676.281.66-.292,1.045-.276.185-.558.256-.884.248-.476-.011-.954-.005-1.429-.034-1.767-.109-3.499.083-5.135.674-1.081.391-2.187.662-3.32.795-1.458.17-2.855.59-4.309.77-.364.045-.795.117-1.092.387-.503.456-.995.922-1.488,1.386-.022.02-.033.081-.017.097.045.046.112.116.161.111.275-.032.559-.051.817-.134,1.328-.428,2.698-.54,4.098-.529,2.33.019,4.574-.434,6.72-1.223.996-.366,2.006-.661,3.045-.877,1.204-.25,2.43-.345,3.632,0,.389.111.674.122.962-.154.104-.1.267-.148.404-.22Zm-53.979,1.035c-.016.961.082,1.779.187,2.601.224,1.764.645,3.475,1.474,5.093.749,1.463,1.746,2.74,3.28,3.617.605.346,1.213.685,1.827,1.018.477.259.998.463,1.441.762,1.277.862,2.645,1.596,3.974,2.385.545.324,1.123.525,1.755.635.742.129,1.484.259,2.22.415,1.244.263,2.51.36,3.778.437.393.024.797-.01,1.188-.064.706-.098,1.404-.244,2.11-.345.71-.102,1.422-.105,2.133.038.425.086.864.186,1.292.172,1.027-.033,2.044.135,3.076.042.867-.078,1.751.009,2.619-.12,1.373-.203,2.759-.297,4.142-.425.706-.065,1.41-.182,2.109-.334,1.666-.362,3.367-.608,5.08-.478,1.247.095,2.45.029,3.665-.21,1.202-.236,2.428-.345,3.653-.449,1.623-.138,3.233-.344,4.767-.883.481-.169.961-.346,1.455-.477,1.034-.275,2.037-.601,2.939-1.152.56-.342,1.155-.636,1.712-.981,1.511-.933,3.002-1.891,4.629-2.66.642-.304,1.164-.733,1.578-1.286.332-.445.721-.861,1.125-1.256.756-.737,1.582-1.418,2.081-2.343.085-.157.248-.28.374-.419.682-.75,1.396-1.479,2.036-2.257.64-.778,1.234-1.595,1.555-2.536.223-.652.4-1.317.598-1.976.067-.222-.066-.379-.28-.315-.868.259-1.733.526-2.599.788-.603.182-1.195.409-1.813.534-2.287.462-4.507,1.13-6.746,1.74-2.461.671-4.874,1.572-7.528,1.411-.077-.005-.157.015-.234.031-.143.03-.2.153-.151.24.228.409-.203.569-.355.834-.222.388-.589.314-.758.092-.445-.585-1.207-.654-1.819-.962-.139-.07-.311.011-.392.158-.071.128-.17.259-.183.395-.079.819-.699,1.239-1.4,1.609-.136.071-.26.16-.389.242-.811.514-1.627,1.024-2.432,1.546-.495.32-1.058.559-1.631.627-1.097.131-2.166.507-3.3.365-.116-.015-.245-.016-.357.012-1.131.286-2.289.146-3.435.195-.238.01-.486-.011-.713.041-1.32.303-2.605.063-3.885-.195-.458-.092-.811-.08-1.195.233-1.031.84-2.279,1.288-3.642,1.481-.705.1-1.409.211-2.116.294-1.035.122-1.984.515-2.986.745-1.394.32-2.741.265-4.096-.147-.601-.183-1.192-.388-1.807-.543-.778-.197-1.418-.598-1.735-1.355-.18-.43-.483-.831-.793-1.202-.891-1.067-1.656-2.198-2.238-3.428-.316-.667-.494-1.336-.339-2.087.223-1.08.705-2.053,1.28-3.001.257-.424.249-.496-.252-.546-.422-.042-.759-.2-1.071-.427-.59-.427-1.165-.87-1.759-1.292-.382-.272-.668-.616-.951-.963-.343-.42-.463-.875-.417-1.416.108-1.251.702-2.277,1.624-3.166.815-.787,1.654-1.553,2.499-2.314.223-.201.496-.36.761-.517,1.178-.694,2.461-1.152,3.834-1.424,2.186-.433,4.373-.709,6.583-.152.363.092.597-.011.819-.269,1.239-1.441,2.739-2.591,4.598-3.335.217-.087.418-.206.626-.31.73-.367,1.48-.687,2.282-.911,1.358-.38,2.692-.826,4.098-1.058.546-.09,1.074-.264,1.619-.359.615-.107,1.183.011,1.667.4.327.263.676.504,1,.769.289.237.615.314.992.258,1.136-.167,2.287-.277,3.405-.515,1.233-.263,2.44-.117,3.658,0,.117.011.232.051.344.087.871.281,1.562.734,1.72,1.619.061.343.244.473.594.567.35.094.389.204.179.456-.167.2-.197.352-.104.581.232.57.42,1.143.896,1.618.313.312.551.714.717,1.112.208.499.552.645,1.101.598.602-.052,1.184.039,1.745.267.453.185.678.474.678.92,0,.503.024,1.006.013,1.509-.009.401.123.659.579.823.363.13.407.396.15.703-.255.304-.3.629-.385.985-.165.69-.02,1.359-.005,2.035.021.956.04.965,1.09.734.849-.187,1.686-.417,2.536-.601,2.123-.459,4.262-.863,6.332-1.505.488-.151.965-.341,1.463-.452,1.964-.438,3.892-1.008,5.894-1.302.408-.06.505-.208.322-.505-.509-.82-.922-1.668-1.057-2.611-.015-.104-.083-.201-.122-.302-.445-1.155-1.325-2.044-2.242-2.891-.493-.456-1.086-.812-1.793-1.026-.831-.251-1.588-.656-2.218-1.233-.846-.775-1.865-1.335-2.908-1.862-.242-.122-.491-.239-.714-.386-1.073-.706-2.262-1.19-3.527-1.532-.875-.237-1.761-.446-2.621-.72-.821-.262-1.669-.492-2.383-.967-.629-.419-1.339-.602-2.097-.71-1.684-.24-3.383-.398-5.04-.791-.534-.127-1.082-.193-1.65-.116-.387.052-.793-.004-1.19-.008-.236-.002-.479-.029-.706.015-1.713.327-3.459.436-5.19.646-.787.096-1.582.147-2.362.273-1.406.227-2.824.419-4.152.94-.473.186-.961.425-1.457.46-1.284.091-2.481.484-3.698.792-.958.243-1.92.462-2.9.562-1.613.164-3.068.728-4.51,1.332-1.33.557-2.628,1.175-3.947,1.753-.824.361-1.605.772-2.344,1.268-.635.426-1.272.853-1.968,1.213-1.381.713-2.687,1.534-3.826,2.555-.25.224-.518.43-.832.601-.946.517-1.844,1.107-2.79,1.624-.766.419-1.356.986-1.886,1.617-.385.457-.732.943-1.144,1.379-.803.85-1.504,1.766-2.198,2.688-.425.564-.838,1.148-1.072,1.799-.481,1.338-.914,2.69-.71,3.994Zm48.995-3.369c.437,0,.874.006,1.311-.003.172-.004.299-.098.329-.258.04-.212.038-.433.098-.64.182-.624-.046-1.131-.506-1.581-.321-.313-.599-.669-1.161-.665-.179.001-.365-.129-.539-.213-.229-.111-.476-.129-.689-.027-.817.393-1.702.328-2.571.324-1.258-.006-2.425.283-3.579.715-.64.24-.985.517-.831,1.186.073.316-.028.644-.278.909-.163.173-.209.375-.209.601,0,.176-.033.358-.09.527-.047.139-.179.251-.351.233-.104-.011-.228-.078-.292-.154-.248-.296-.374-.629-.294-1.009.074-.353.146-.707.204-1.063.009-.054-.051-.144-.108-.173-.054-.028-.153-.017-.216.008-.068.027-.131.083-.175.141-.601.794-.998,1.581-.003,2.389.195.159.028.423-.235.483-.368.084-.707-.063-1.061-.071-.756-.017-.761-.011-.96-.529-.077-.202-.138-.411-.184-.621-.205-.933-.7-1.746-1.265-2.531-.218-.302-.526-.396-.914-.399-1.034-.008-2.068-.032-3.101-.065-.909-.029-1.815-.072-2.705-.285-1.112-.266-2.23-.446-3.403-.332-.999.097-1.939.352-2.885.619-.238.067-.405.212-.563.38-.586.625-1.369.959-2.206,1.22-.525.163-1.034.365-1.553.543-.19.065-.361.142-.475.303-.69.972-1.318,1.97-1.388,3.159-.111,1.873.49,3.479,2.222,4.63.486.323.494.312.986-.049.365-.268.456-.284.832-.064.334.195.664.399.971.626.405.298.777.379,1.297.159.678-.286,1.39-.564,2.15-.609,1.478-.087,2.879-.518,4.328-.73.064-.009.124-.076.173-.127.075-.076-.064-.171-.221-.129-1.762.469-3.603.49-5.396.785-.461.076-.737-.063-.75-.457-.011-.346-.087-.531-.474-.618-.323-.072-.524-.311-.689-.565-.134-.207-.042-.447.214-.518.151-.042.308-.082.465-.092,1.428-.097,2.793-.489,4.188-.734,1.595-.279,3.177-.626,4.756-.979,1.038-.232,2.065-.51,3.087-.796.7-.196.789-.341.792-1.013.002-.325-.023-.646-.158-.955-.187-.43-.43-.779-1.035-.702-.382.049-.7-.118-1-.289-.174-.099-.225-.299-.209-.482.02-.221.218-.282.424-.287.593-.014,1.187-.03,1.78-.014.136.004.311.102.396.205.523.64,1.013,1.298,1.012,2.143,0,.144.005.288.018.432.035.381.105.439.5.424.759-.029,1.493-.196,2.225-.357,1.771-.39,3.57-.667,5.297-1.224,1.504-.485,3.061-.758,4.669-.734Zm-11.483-4.56c0-.013,0-.025,0-.038.397.021.794.033,1.189.064.624.049,1.224-.111,1.659-.459.777-.623,1.612-1.163,2.464-1.69,1.009-.624,1.52-1.583,1.87-2.563.315-.886.251-1.851.022-2.777-.041-.167-.137-.344-.265-.469-1.741-1.701-3.793-2.689-6.45-2.265-.597.095-1.149.3-1.664.569-.624.326-1.22.409-1.922.18-.645-.211-1.343-.18-1.978.088-1.279.539-2.345,1.298-3.118,2.402-.442.632-.601,1.319-.782,2.016q-.225.866.631,1.312c.068.036.13.081.194.124.261.174.25.412-.035.612-.061.043-.142.063-.215.091-.171.064-.252.184-.184.336.344.772.835,1.392,1.865,1.448.316.017.63.069.946.095.726.059,1.416.203,1.957.686.247.221.525.258.866.248.982-.028,1.966-.01,2.95-.01Zm-11.09-6.134c-.076-.055-.153-.139-.252-.176-.372-.141-.77-.163-1.167-.176-2.239-.073-4.417.205-6.512.941-.703.247-1.404.529-1.957.994-1.229,1.035-2.284,2.189-2.689,3.721-.064.244-.137.491-.251.717-.295.585-.163,1.101.21,1.619.223.309.466.574.831.745.349.164.723.284.995.57.188.198.491.215.755.291.257.074.502.039.658-.129.381-.412.92-.675,1.233-1.155.269-.411.697-.653,1.224-.792.91-.239,1.804-.53,2.7-.811.887-.278,1.664-.681,1.996-1.55.038-.101.089-.207.166-.285.399-.404.584-.827.29-1.363-.097-.177.073-.339.274-.411.108-.038.231-.04.347-.063.613-.119.674-.152.723-.665.062-.645.092-1.291.395-1.893.016-.032.016-.07.029-.131Zm12.175,16.662c0,.026,0,.053,0,.079-.397,0-.795.014-1.191-.004-.445-.02-.869.035-1.286.176-.711.241-1.439.369-2.207.319-.314-.02-.633.047-.951.061-.413.018-.767.145-1.087.386-.714.535-1.541.908-2.428,1.101-1.384.3-2.791.514-4.19.761-.155.027-.321.013-.474.046-.385.083-.77.173-1.146.284-.087.026-.153.141-.198.229-.01.02.095.117.163.138.823.26,1.649.515,2.477.762.108.032.236.019.354.012,1.623-.102,3.233-.298,4.813-.647.494-.109,1.002-.237,1.431-.518.223-.146.567-.246.648-.439.118-.282-.302-.359-.478-.535-.105-.105-.204-.222-.271-.349-.165-.314.061-.67.446-.73.417-.064.767.031,1.1.285.446.34.58.321.966-.028.111-.101.184-.236.295-.337.232-.211.518-.338.849-.339.102,0,.224.064.302.132.083.072.123.183.047.292-.147.213-.302.422-.441.639-.258.402-.188.549.343.619.829.109,1.663.162,2.492,0,.429-.084.859-.131,1.299-.141,1.942-.045,3.876-.159,5.8-.425.808-.112,1.532-.344,2.19-.774.673-.441,1.321-.924,2.04-1.293.723-.371,1.248-.865,1.63-1.514.174-.295.089-.487-.265-.53-.881-.108-1.751-.022-2.594.204-.869.233-1.759.396-2.568.817-.69.359-1.529.364-2.278.591-1.214.368-2.448.619-3.726.667-.634.024-1.271.004-1.906.004Zm17.509-3.733c.231-.031.502-.055.761-.171.746-.333,1.513-.626,2.252-.971,1.092-.509,2.164-1.052,3.247-1.576,1.375-.665,2.892-.983,4.349-1.45,1.991-.637,4.026-1.089,6.128-1.304.747-.076,1.529-.128,2.217-.372,1.867-.662,3.814-.959,5.776-1.229,1.176-.162,2.354-.324,3.52-.533,1.787-.319,3.567-.668,5.378-.868.833-.092,1.624-.334,2.384-.656.153-.065.301-.182.25-.321-.042-.115-.206-.207-.336-.278-.264-.143-.532-.086-.797.022-.396.163-.796.299-1.225.399-1.429.332-2.899.423-4.344.655-1.373.22-2.751.358-4.15.294-.475-.022-.941.073-1.409.178-1.422.322-2.85.625-4.282.909-1.78.353-3.557.706-5.256,1.327-.698.255-1.419.47-2.148.639-1.575.365-3.161.693-4.745,1.028-1.352.285-2.703.575-4.062.832-.972.184-1.944.348-2.873.681-.829.297-1.682.422-2.563.174-.063-.018-.168.004-.213.045-.036.032-.039.139-.007.182.53.717,1.069,1.428,1.603,2.143.123.164.287.239.547.221Zm34.945-7.444c-.118.016-.236.03-.353.048-1.758.28-3.534.493-5.27.86-1.742.369-3.515.531-5.268.815-1.167.189-2.357.272-3.481.652-.519.175-1.026.409-1.563.502-1.285.224-2.583.389-3.878.559-.353.046-.7.094-1.051.164-1.439.287-2.781.845-4.198,1.186-1.195.287-2.319.736-3.425,1.225-1.384.612-2.687,1.368-4.112,1.909-.02.007-.027.069-.018.101.008.03.043.074.069.076.113.007.234.023.339-.005,1.826-.485,3.7-.81,5.497-1.394,1.045-.339,2.108-.631,3.18-.901,2.366-.597,4.758-1.117,7.069-1.884.258-.086.532-.176.8-.182.517-.011.768-.207.925-.663.151-.439.455-.505.944-.26.328.164.624.262,1.007.198,2.07-.346,4.136-.693,6.18-1.158,1.264-.288,2.536-.577,3.864-.604.584-.011,1.168-.192,1.744-.325.469-.108.867-.352,1.228-.639.051-.04.09-.134.074-.187-.013-.043-.117-.067-.185-.09-.035-.012-.079-.002-.119-.003Zm-42.14-5.855c.008.071.005.145.025.213.175.587.346,1.175.539,1.758.047.143.202.229.377.173.223-.071.448-.148.65-.256.862-.46,1.792-.741,2.767-.921.387-.072.768-.168,1.15-.263.175-.044.266-.165.189-.321-.26-.524-.533-1.066-1.08-1.382-.31-.179-.485-.37-.472-.673.024-.516-.348-.861-.617-1.248-.11-.158-.308-.212-.523-.153-1.597.438-2.362,1.586-2.979,2.859-.03.062-.017.141-.024.212Zm9.084,2.216c.003-.26-.1-.439-.376-.496-.154-.032-.314-.047-.473-.058-.778-.054-.901.017-1.027.706-.133.732-.444,1.37-1.004,1.919-.512.502-.973,1.049-1.669,1.367-.223.102-.228.272-.106.45.083.123.182.237.261.361.157.247.239.59.471.726.344.201.609-.216.952-.293.786-.174,1.425-.616,2-1.127.425-.378.617-.829.554-1.367-.034-.287-.089-.564-.208-.838-.23-.527-.229-.553.266-.871.212-.136.384-.245.358-.481Zm.334,5.551c.021-.421.036-.706.049-.992.005-.106.004-.24-.126-.254-.093-.01-.221.058-.297.125-.749.661-1.648,1.098-2.603,1.456-.328.123-.652.259-.958.422-.281.15-.507.644-.393.84.152.259.472.242.731.267.227.022.47-.034.697-.087.573-.134,1.142-.278,1.709-.431.375-.101.814-.146,1.096-.357.38-.285.04-.745.093-.988Zm-8.951-12.95c-.342.037-.662.049-.97.111-.889.179-1.775.361-2.689.409-.256.013-.659.001-.676.286-.016.277.307.485.584.633.186.099.38.013.573-.032,1.151-.271,2.308-.51,3.509-.511.194,0,.398-.033.58-.093.291-.097.768-.17.764-.42-.005-.337-.495-.183-.762-.264-.294-.089-.623-.084-.915-.117Zm-9.179,13.066c.195.044.374-.042.546-.129.555-.282,1.126-.514,1.747-.669.454-.113.883-.323,1.304-.524.494-.237.937-.545,1.278-.955.194-.233.335-.487.298-.797-.016-.138-.196-.27-.326-.206-.731.363-1.456.73-2.112,1.204-.834.602-1.623,1.264-2.607,1.679-.099.042-.173.135-.248.213-.015.016.005.071.024.1.019.03.056.05.097.083Zm2.11-12.276c.114-.034.271-.038.316-.104.095-.14-.008-.299-.131-.372-.464-.273-.946-.523-1.422-.779-.219-.117-.441-.102-.686-.046-1.422.325-2.884.498-4.273.951-.483.158-.979.282-1.467.429-.063.019-.108.085-.162.13.055.049.104.108.168.146.326.199.664.219,1.009.038.552-.29,1.152-.476,1.757-.649,1.325-.381,2.649-.415,3.975.002.299.094.605.169.916.255Zm7.938,8.481c.078-.01.164-.004.232-.032,1.084-.461,2.267-.634,3.402-.945.445-.122.663-.347.794-.708.091-.252-.046-.451-.317-.421-.431.048-.865.075-1.273.242-.36.146-.729.322-1.111.365-.731.084-1.207.65-1.914.752-.031.004-.058.048-.081.076-.101.124-.113.262-.07.406.046.157.18.225.339.264Zm-1.191,2.412c-.005-.036.003-.092-.018-.104-.133-.073-.272-.137-.41-.202-.593-.279-.751-.555-.581-1.123.103-.345.269-.674.395-1.013.052-.14-.118-.279-.276-.231-.376.116-.753.229-1.119.365-.204.076-.328.261-.2.434.307.412.137.73-.141,1.075-.258.321-.517.634-.863.884-.038.028-.028.122-.02.184.003.024.062.065.09.061.51-.062,1.029-.092,1.524-.206.472-.109.925-.194,1.405-.074.061.015.142-.032.213-.05Zm-24.761,10.973c.04,0,.081.007.119-.001,1.009-.219,2.056-.098,3.074-.326.96-.214,1.956-.374,2.94-.397,1.123-.027,1.941-.555,2.793-1.076.056-.035.072-.123.107-.187-.068-.025-.137-.071-.204-.069-.117.003-.235.029-.348.058-.876.227-1.739.52-2.631.673-1.792.307-3.531.857-5.368.962-.181.01-.354.145-.528.227-.025.012-.055.062-.046.077.016.027.059.04.091.059Zm24.157-20.471c-.679.019-1.288.283-1.922.461-.119.033-.15.163-.094.264.233.42.334.867.368,1.333.011.151.128.249.301.283.212.041.385-.013.517-.168.024-.028.051-.058.06-.091.186-.665.58-1.235.993-1.797.081-.111-.058-.274-.223-.284Zm3.178,9.752c-.361.071-.67.126-.976.192-.187.04-.206.16-.048.302.139.126.28.251.431.366.586.447,1.116.919,1.053,1.697-.005.062.047.135.091.191.068.089.162.157.293.116.116-.036.217-.106.216-.225-.004-.358-.065-.713-.238-1.034-.131-.244-.145-.431-.001-.691.222-.404.121-.572-.313-.747-.177-.071-.365-.12-.508-.166Zm-32.403,13.553c-.074.05-.126.067-.132.093-.015.062-.037.143-.006.189.185.284.459.49.783.63,1.255.543,2.578.855,3.965.944.032.002.096-.034.096-.052,0-.059-.002-.148-.042-.17-.097-.055-.215-.08-.326-.115-.814-.26-1.636-.501-2.438-.787-.473-.168-.912-.415-1.375-.608-.172-.072-.372-.091-.525-.126Zm27.472-18.79c-.145.292-.133.687.216,1.061.275.295.401.356.794.215.393-.14.464-.253.383-.639-.101-.485-.117-1.004-.624-1.336-.161-.105-.327-.243-.527-.201-.241.051-.192.272-.215.439-.015.106-.013.213-.026.46Zm4.037,3.885c.762.005,1.49-.277,2.232-.87.026-.02.033-.06.048-.09-.069-.025-.148-.082-.206-.068-.228.055-.448.138-.674.201-.764.213-1.526.401-2.288-.023-.097-.054-.225.016-.288.117-.063.103-.048.208.026.302.284.357.686.461,1.148.431Zm-12.97,3.043c-.15.015-.462.032-.767.087-.083.015-.219.176-.2.21.21.371.446.73.674,1.092.457-.068.431-.541.745-.73.032-.019.057-.049.082-.075.147-.152.427-.282.292-.507-.053-.089-.357-.056-.547-.077-.039-.004-.078,0-.28,0Zm-11.489-2.369c-.114-.005.003.006.12.004.325-.004.442-.113.361-.37-.128-.406-.275-.807-.425-1.207-.022-.058-.097-.117-.162-.136-.031-.009-.129.069-.139.118-.108.492-.348.934-.608,1.371-.06.101.028.203.156.217.154.016.311.004.698.004Z" stroke-width="0"/>
        <path d="m132.715,60.398c-.043-1.256-.337-2.497-.243-3.761.032-.43-.039-.868.013-1.295.06-.49-.296-.889-.281-1.363.013-.402-.221-.739-.619-.839-.486-.122-.501-.404-.489-.738.012-.36.022-.72.065-1.078.065-.539.101-1.064-.081-1.602-.126-.371-.247-.799-.16-1.161.129-.539-.066-.989-.205-1.472-.261-.904-.512-1.81-.763-2.717-.109-.392-.155-.769.158-1.127.272-.311.241-.673.083-1.026-.165-.367-.324-.746-.698-.985-.271-.173-.449-.398-.597-.658-.509-.897-.901-1.837-1.203-2.803-.184-.588-.291-1.183-.985-1.483-.063-.027-.093-.114-.143-.17-1.034-1.171-2.442-1.805-3.977-2.25-.3-.087-.614-.166-.925-.181-.951-.045-1.905-.093-2.856-.071-.686.016-1.347-.068-2.008-.189-.698-.128-1.393-.273-2.086-.424-.188-.041-.412-.085-.537-.201-.619-.573-1.44-.466-2.13-.376-.808.105-1.657.147-2.432.453-.177.07-.381.12-.572.117-.521-.009-.931.122-1.168.581-.092.178-.286.27-.493.164-.575-.295-1.078-.04-1.588.15-.545.203-.881.575-1.084,1.076-.136.335-.304.673-.536.959-.225.278-.294.55-.337.885-.054.418-.263.82-.418,1.225-.03.078-.15.091-.203.023-.113-.146-.185-.318-.302-.461-.139-.169-.48-.18-.631-.032-.122.118-.124.257-.031.392.169.243.347.482.515.726.122.177.097.332-.098.463-.175.117-.298.254-.054.418.178.12.258.248.132.451-.37.595-.723,1.199-1.092,1.795-.216.348-.495.713-.441,1.101.12.865-.201,1.623-.507,2.403-.13.332-.124.707-.194,1.06-.091.459-.105.955-.322,1.361-.218.408-.298.813-.342,1.239-.139,1.326-.468,2.627-.626,3.953-.07.591-.155,1.187-.244,1.778-.098.647-.084,1.289-.127,1.933-.049.718-.099,1.436-.141,2.154-.017.287-.059.58-.013.86.245,1.494.225,3.004.353,4.505.176,2.076.174,4.165.581,6.223.182.921.365,1.847.816,2.696.378.712.849,1.382,1.244,2.087.346.618.907,1.09,1.304,1.665.406.587.938.957,1.675,1.091.312.057.516.189.516.492,0,.206.134.319.288.441.419.332.802.705,1.246,1.006.68.461,1.239,1.111,2.205,1.156.195.009.396.223.563.372.262.234.364.553.471.863q.232.672.918.711c.118.006.238-.009.357-.011.228-.004.435.105.431.29-.013.589.442.796.911,1.005.249.111.517.191.756.316.57.299.966.706,1.035,1.34.17,1.573.326,3.148.557,4.714.226,1.536.387,3.073.41,4.622.014.9-.025,1.803.043,2.699.111,1.466.289,2.928.44,4.392.022.215.051.429.076.644.137,1.215.282,2.429.404,3.644.045.449-.073.574-.551.684-.957.219-1.918.426-2.875.646-1.269.292-2.525.638-3.807.871-.812.147-1.557.431-2.31.705-.308.506-.77.951-1.05,1.493-.226.438-.341.951-.529,1.423.033.046.056.109.046.154-.047.21-.135.413-.178.624-.152.741-.417,1.459-.43,2.227-.009.543.185.976.576,1.369.658.663,1.49,1.053,2.417,1.302.456.123.924.214,1.373.354,1.617.502,3.296.778,4.955,1.127.416.088.874.074,1.305.034.877-.081,1.748-.059,2.62.024.906.086,1.81.191,2.383.252,1.577.085,2.668-.252,3.679-.906,1.137-.736,2.123-1.629,3.126-2.492.98-.844,1.715-1.895,2.049-3.117.307-1.125.062-2.159-.843-2.991-.645-.593-1.437-1.019-2.314-1.297-.262-.083-.533-.148-.783-.255-1.558-.667-3.197-1.064-4.908-1.234-.157-.016-.316-.039-.468-.078-.216-.055-.353-.209-.317-.399.184-.97.016-1.935-.035-2.9-.084-1.581-.191-3.162-.299-4.742-.062-.898-.15-1.794-.217-2.691-.037-.503.18-1.027.103-1.488-.132-.784-.136-1.572-.245-2.355-.168-1.211-.257-2.432-.337-3.651-.08-1.218-.109-2.44-.161-3.66-.007-.163.06-.299.248-.296.52.009.927-.14,1.192-.569.051-.083.189-.123.291-.177,1.147-.607,1.984-1.527,2.848-2.4.819-.828,1.512-1.758,2.252-2.649.19-.229.361-.472.517-.721.414-.661.907-1.266,1.484-1.819.793-.761,1.521-1.579,2.067-2.499.619-1.042,1.233-2.088,1.734-3.19.433-.953.688-1.921.694-2.93.008-1.483.372-2.925.524-4.39.029-.284.126-.564.217-.839.299-.904.411-1.822.379-2.769Zm-24.508-26.294c1.406-.409,2.854-.612,4.323-.696.319-.018.637.032.925.172.102.049.278.142.268.181-.04.15-.214.192-.366.235-.235.068-.472.048-.785-.019-.16,0-.405-.035-.634.006-1.173.211-2.389.06-3.551.352-.037.009-.082.008-.118-.003-.073-.022-.141-.055-.212-.083.049-.049.088-.126.148-.144Zm-4.127,6.091c.35.078.505.037.442-.35-.136-.834.243-1.627.309-2.448.024-.296.306-.493.492-.722.023-.028.077-.069.092-.062.586.272.819-.308,1.24-.438.4-.123.73-.423,1.105-.624.126-.068.295-.087.447-.097,1.574-.097,3.147-.208,4.723-.272.724-.029,1.408-.204,2.106-.334.233-.043.457-.132.698-.089,1.107.199,2.214.011,3.321.012,1.642.001,3.237.183,4.729.886,1.429.674,2.326,1.616,2.55,3.132.166,1.121-.11,2.144-.472,3.154-.209.583-.869.932-1.484,1.172-.649.253-1.334.439-2.054.506-1.695.158-3.38.384-5.083.495-.82.053-1.643.193-2.449.212-.696-.052-1.367-.06-2.04-.144-.78-.097-1.591-.088-2.378-.022-1.96.163-3.537-.526-5.005-1.619-.785-.584-1.093-1.379-1.476-2.156-.043-.087.044-.226.192-.193Zm-2.571,31.053c-.002.029-.04.069-.071.08-.032.011-.083.001-.114-.016-.031-.017-.058-.052-.07-.085-.579-1.531-1.092-3.073-1.015-4.719.005-.098.013-.2.138-.25.05.046.13.086.149.143.137.412.299.82.383,1.241.218,1.093.401,2.191.594,3.287.018.104.012.212.006.318Zm14.673,18.817c-.167-1.025-.27-2.059-.388-3.09-.037-.32-.048-.645-.039-.968.009-.352.145-.444.521-.404.562.059.664.145.697.678.092,1.469.156,2.94.261,4.408.191,2.652.412,5.302.606,7.953.12,1.644.111,3.295.345,4.935.081.565.013,1.148.013,1.723.003,0,.005,0,.008,0,0,.574.008,1.149-.006,1.723-.003.136-.067.273-.119.405-.048.123-.312.144-.401.044-.159-.177-.21-.379-.197-.603.078-1.289-.029-2.562-.256-3.839-.169-.953-.123-1.936-.267-2.894-.221-1.464-.242-2.93-.238-4.403.005-1.901-.234-3.787-.54-5.667Zm1.906,18.847c-.072.082-.124.2-.21.227-.151.047-.185-.092-.201-.19-.017-.102-.004-.209.006-.313.003-.03.047-.084.066-.081.067.007.16.016.192.057.064.083.094.188.146.301Zm.795.552c.052-.135.132-.261.202-.391.202-.376.329-.466.711-.399,1.088.19,2.199.308,3.24.665,1.075.369,2.138.77,3.183,1.203,1.49.618,2.005,1.853,1.341,3.224-.464.957-1.082,1.836-1.979,2.52-.811.619-1.642,1.218-2.458,1.832-.888.668-1.945.828-3.018.664-.785-.12-1.576-.15-2.36-.257-.542-.074-1.106-.014-1.599-.014-1.936.271-3.669-.332-5.431-.731-1.112-.252-2.196-.601-3.303-.874-.625-.154-1.009-.548-1.372-.979-.16-.191-.236-1.301-.123-1.543.169-.363.302-.749.534-1.077.206-.291.221-.512-.002-.777-.172-.205-.119-.414.073-.58.277-.24.398-.515.368-.867-.025-.286.177-.37.463-.31.252.054.461-.021.67-.146,1.115-.664,2.388-.958,3.662-1.231,1.387-.297,2.807-.464,4.154-.917.479-.161,1.013.338.91.807-.031.141-.089.276-.13.415-.083.285.1.472.29.665.214.219.409.147.616.002.031-.022.073-.049.106-.045.736.091,1.045-.32,1.251-.861Zm4.187-29.413c-1.093,1.268-2.181,2.541-3.739,3.389-.032.018-.075.029-.112.027-.032-.001-.074-.018-.093-.04-.019-.023-.022-.063-.016-.093.006-.034.02-.073.045-.096,1.195-1.092,2.39-2.183,3.592-3.269.076-.069.205-.116.317-.002.002.021.022.066.006.085Zm1.116-1.029c.019-.079.071-.131.157-.154-.022.076-.073.128-.157.154Zm.247-.258c.029-.039.067-.07.112-.094-.037.031-.075.062-.112.094Zm.244-.195c.029-.057.08-.088.15-.097-.05.032-.1.065-.15.097Zm5.42-12.184c-.083.893-.163,1.785-.306,2.675-.161,1.002-.397,1.975-.8,2.918-.345.807-.721,1.6-1.331,2.278-.3.333-.613.65-.982.934-1.03.79-2.035,1.606-2.989,2.475-.783.714-1.652,1.35-2.445,2.055-.991.882-1.94,1.802-2.914,2.699-.222.205-.471.386-.708.578-.411.331-.388.629.085.94.092.061.226.067.326.121.131.07.094.295-.06.343-.437.136-.846.355-1.352.12-.34-.158-.8.017-1.134-.25-.134-.107-.211-.236-.071-.362.195-.175.424-.319.629-.486.051-.042.066-.12.098-.181-.111-.022-.251-.093-.328-.057-.315.148-.619.319-.911.503-.26.163-.497.162-.777.035-1.25-.568-2.396-1.282-3.446-2.105-.689-.54-1.372-1.089-2.061-1.63-.568-.447-1.107-.937-1.581-1.465-.383-.426-.815-.781-1.288-1.111-.314-.22-.628-.445-.907-.7-.654-.597-1.146-1.265-1.287-2.137-.101-.625-.107-1.309-.703-1.787-.073-.415-.312-.88-.181-1.234.213-.577-.013-1.083-.113-1.585-.154-.776-.341-1.548-.46-2.333-.094-.615-.356-1.178-.748-1.688-.183-.238-.368-.485-.708-.545-.404-.072-.475-.323-.479-.637-.005-.395-.073-.794-.037-1.185.183-1.975.006-3.957.148-5.932.036-.502.098-1.002.141-1.504.034-.395.088-.79.081-1.185-.021-1.297.016-2.576.404-3.848.219-.717.197-1.497.263-2.249.117-1.334.455-2.618.994-3.864.333-.769.683-1.536.786-2.371.017-.139.076-.282.152-.405.057-.092.216-.155.296-.063.525.594,1.296.939,1.829,1.531,1.085,1.204,2.565,1.615,4.224,1.651,1.308.028,2.615.046,3.92.172.905.088,1.827.074,2.739.047.469-.013.931-.21,1.4-.226,2.153-.076,4.239-.541,6.355-.837,1.62-.226,3.732-1.639,3.57-3.48-.009-.106.041-.234.168-.217.092.013.209.12.24.207.238.682.538,1.352.577,2.079.066,1.231.611,2.371.822,3.574.663.846.566,1.829.671,2.791.137,1.259-.093,2.509.007,3.762.02.251-.03.509.015.755.084.469.078.905-.161,1.353-.173.324-.183.723-.029,1.057.196.426.142.84.111,1.271-.099,1.364-.305,2.721-.271,4.092.002.069-.015.188-.052.198-.133.037-.229-.055-.278-.152-.528-1.037-1.497-1.549-2.659-1.823-.767-.181-1.541-.338-2.309-.514-.384-.088-.762-.195-1.143-.292-.229-.058-.457-.156-.688-.163-1.387-.045-2.749-.379-4.148-.268-.911.004-1.82.045-2.726-.132-.343-.067-.719-.052-1.071-.013-2.477.275-4.983.344-7.432.828-1.164.23-2.16.68-2.86,1.59-.156.203-.383.363-.583.538-.796.7-1.294,1.531-1.356,2.547-.055.904.048,1.791.412,2.645.287.672.796,1.166,1.497,1.476.498.22,1.019.437,1.556.536,1.746.322,3.499.633,5.303.461.39-.037.793.011,1.188.038.318.021.628.06.941-.051.14-.05.329-.085.46-.04.952.324,1.968.163,2.945.338.896.161,1.826.049,2.736-.037.71-.067,1.416-.171,2.122-.269.507-.07,1.007-.125,1.47-.39.325-.186.741-.245,1.121-.348,1.078-.292,2.094-.746,2.928-1.396,1.12-.872,2.042-1.921,2.183-3.35.009-.091.036-.211.174-.201.041.003.1.113.103.176.024.44.194.834.377,1.238.209.462.355.959.307,1.47Zm-2.114-3.808c0,.404-.084.785-.221,1.163-.462,1.274-1.2,2.313-2.663,2.844-1.545.561-3.047,1.224-4.729,1.396-.275.028-.549.071-.824.078-.594.016-1.176.055-1.769.152-.898.148-1.826.031-2.727-.085-.754-.097-1.501-.127-2.256-.116-1.113.016-2.227.013-3.34.045-1.543.044-2.977-.383-4.409-.807-.506-.15-.864-.456-1.052-.95-.263-.688-.421-1.377-.355-2.106.046-.514.19-1.015.561-1.398.549-.566,1.062-1.165,1.716-1.644.444-.326.935-.539,1.501-.611,1.297-.164,2.595-.33,3.892-.494,2.012-.254,4.032-.347,6.062-.239,1.699.1,3.41.093,5.087.413.503.096,1,.221,1.5.334.846.192,1.69.389,2.538.576.313.069.604.163.864.345.404.282.628.624.627,1.102Zm3.245.641c-.018.066-.07.127-.116.185-.02.025-.061.041-.096.052-.079.026-.142-.009-.157-.101-.024-.142-.054-.286-.046-.428.062-1.218-.045-2.437.119-3.659.129-.959.094-1.937.132-2.906-.012,0-.023,0-.035,0,0-.895-.002-1.79.004-2.685,0-.064.06-.128.093-.193.081.068.21.123.235.205.227.737.191,1.5.193,2.25.002.822.058,1.653-.138,2.471-.076.317.006.64.058.962.21,1.296.09,2.578-.246,3.847Z" stroke-width="0"/>
        <path d="m180.723,119.265c0-.252.016-.505-.003-.756-.158-2.125.71-3.946,2.057-5.614.844-1.045,1.731-2.06,2.48-3.167.184-.272.446-.504.684-.745,1.283-1.302,2.816-2.318,4.474-3.192.273-.144.534-.309.788-.479.939-.631,2.017-.979,3.126-1.259.543-.137,1.097-.142,1.655-.045.27.047.555.028.822.084,1.056.219,2.076-.004,3.037-.317,1.614-.526,3.305-.748,4.951-1.141.686-.164,1.348-.44,2.077-.452.073-.001.152-.044.217-.083,1.263-.763,2.776-1.077,4.041-1.842.291-.176.65-.263.983-.378.514-.176,1.019-.126,1.499.099.246.115.486.248.708.398,1.226.828,2.615,1.368,4.043,1.815,1.152.36,2.164.9,3.025,1.668.298.266.595.45,1.033.452.489.003.913.231,1.349.403.8.315,1.583.658,2.444.843.699.15,1.337.48,1.917.855,1.131.732,2.353,1.346,3.394,2.197.349.285.784.492,1.202.696,1.417.69,2.678,1.553,3.669,2.709.925,1.079,1.863,2.152,2.41,3.452.366.872.794,1.723,1.139,2.602.445,1.135.507,2.293.346,3.502-.193,1.444-.861,2.66-1.71,3.853-1.382,1.943-3.2,3.476-5.276,4.775-.885.554-1.89.902-2.954,1.07-.283.045-.529.143-.785.235-1.586.566-3.204,1.042-4.842,1.469-1.256.327-2.525.574-3.815.763-.858.125-1.701.344-2.542.55-.77.188-1.533.375-2.343.344-.232-.009-.471.041-.7.089-.659.138-1.339.175-1.994.296-1.092.202-2.202.179-3.295.347-.935.144-1.9.128-2.852.187-.317.02-.634.045-.949.083-.542.065-1.067.333-1.632.103-.72.245-1.497.115-2.23.283-.467.107-.938.125-1.42.068-.313-.037-.635-.014-.953-.007-.875.021-1.746.035-2.613-.126-.425-.079-.867-.112-1.302-.115-.407-.003-.789-.07-1.166-.19-.15-.048-.298-.119-.452-.132-1.621-.135-3.009-.856-4.449-1.443-.436-.178-.835-.429-1.162-.747-1.081-1.053-2.209-2.073-3.208-3.187-1.075-1.198-2.141-2.41-2.998-3.759-.902-1.42-1.57-2.914-1.8-4.539-.12-.85-.089-1.718-.126-2.577Zm14.788,10.164c.093-.284.381-.365.633-.436,1.057-.295,2.08-.706,3.225-.698.431.003.866-.101,1.295-.178.974-.175,1.944-.363,2.916-.544.465-.087.939-.145,1.396-.258.693-.172,1.389-.299,2.107-.351.713-.051,1.401-.189,2.082-.429.922-.325,1.877-.605,2.845-.786,1.28-.239,2.565-.406,3.797-.852.723-.262,1.504-.423,2.308-.502.809-.08,1.638-.207,2.298-.765.277-.234.684-.391,1.061-.469,1.201-.25,2.276-.796,3.44-1.134.676-.196,1.298-.54,2.009-.663.369-.064.679-.235.879-.516.432-.605.828-1.208.509-1.999-.174-.432-.192-.915-.29-1.373-.012-.054-.087-.096-.133-.143-.056.046-.139.082-.163.139-.057.133-.095.274-.126.414-.127.573-.094,1.143.047,1.712.01.042-.074.109-.125.155-.016.014-.089.007-.1-.01-.148-.217-.337-.396-.57-.54-.144-.089-.188-.24-.175-.382.064-.711-.146-1.443.195-2.134.066-.133.11-.28.022-.415-.389-.597-.283-1.254-.295-1.898-.026-1.409-.047-1.427-1.54-1.122-1.24.254-2.459.605-3.727.724-1.071.101-2.127.271-3.162.516-1.633.387-3.408.406-4.803,1.444-1.568.514-3.138,1.021-4.815,1.175-.828.076-1.66.139-2.479.267-1.564.243-3.12.529-4.68.794-.665.113-1.334.183-2.01.232-.669.048-1.377.089-1.983.317-1.173.44-2.33.888-3.597,1.054-.234.031-.466.08-.7.106-.641.069-1.312.2-1.785.549-.453.334-.923.394-1.42.45-.59.067-1.189.064-1.783.094-.267.013-.361.125-.255.346.462.963.767,1.966.957,2.999.163.884.313,1.771.468,2.656.088.505.264.982.608,1.391.2.238.369.604.822.264.053-.04.227.023.327.069.176.081.367.162.501.287.466.434,1.007.511,1.643.401.344-.059.72-.045,1.069.007.441.065.87.015,1.305-.002-.023.03-.039.077-.069.086-.923.287-1.913.373-2.797.789-.339.159-.747.09-1.008-.142-.48-.425-.958-.757-1.678-.546-.067.02-.17.004-.231-.03-.671-.379-1.419-.695-1.626-1.486-.092-.349-.167-.702-.234-1.056-.196-1.028-.289-2.08-.592-3.081-.816-2.697-1.501-5.434-2.715-8.022-.122-.261.004-.47.3-.611.224-.107.454-.121.694-.105.254.016.45-.072.638-.23.581-.49,1.177-.965,1.767-1.447,1.093-.893,2.247-1.719,3.464-2.467,1.544-.949,3.121-1.854,4.676-2.789,1.289-.775,2.576-1.553,3.846-2.353.52-.328.995-.716,1.485-1.083.053-.04.113-.146.091-.181-.065-.106-.205-.114-.314-.074-.774.284-1.562.493-2.395.621-1.031.158-2.051.065-3.074.064-.732-.001-1.421.089-2.085.37-1.989.842-3.804,1.929-5.488,3.196-.858.645-1.631,1.375-2.205,2.246-.614.931-1.321,1.796-2.078,2.632-1.35,1.491-1.878,3.203-1.791,5.12.046,1.007.161,2.007.228,3.011.054.802.283,1.557.645,2.287,1.035,2.092,2.534,3.903,4.17,5.628.699.737,1.456,1.429,2.185,2.142.434.425.884.85,1.472,1.084,1.018.405,2.037.827,3.096,1.122,2.688.748,5.457.911,8.247.714,1.899-.134,3.791-.351,5.688-.52.791-.07,1.589-.087,2.377-.173,1.654-.182,3.307-.38,4.956-.6.942-.126,1.888-.262,2.81-.475,1.08-.25,2.165-.459,3.26-.638,2.154-.352,4.245-.907,6.293-1.605.705-.24,1.417-.484,2.148-.637,1.432-.301,2.661-.903,3.757-1.784,1.61-1.294,3.159-2.623,4.205-4.365.653-1.088,1.19-2.189,1.147-3.465-.018-.543-.054-1.072-.263-1.59-.407-1.012-.756-2.045-1.194-3.045-.593-1.355-1.593-2.481-2.622-3.583-.806-.862-1.767-1.551-2.9-2.017-.481-.198-.876-.471-1.282-.764-1.606-1.162-3.12-2.452-5.191-2.97-.642-.161-1.228-.503-1.841-.759-.143-.06-.287-.123-.437-.159-.063-.015-.166.015-.211.059-.03.029-.016.138.022.176.982.992,1.968,1.98,3.186,2.751.555.351,1.085.732,1.531,1.199.163.17.319.367.186.581-.421.677.098,1.403-.162,2.082.241.941.338,1.923.818,2.797.537.976.804,2.021,1.091,3.063.203.735.249,1.479.12,2.242-.081.476-.321.867-.738,1.048-.958.416-1.811,1.009-2.874,1.258-1.731.405-3.376,1.022-4.925,1.846-.825.439-1.703.752-2.689.796-.468.021-.936.154-1.393.273-1.563.406-3.114.85-4.74,1.031-.467.052-.925.202-1.377.336-1.36.403-2.711.831-4.151.948-.275.022-.557.073-.814.163-.752.262-1.553.278-2.329.417-.779.14-1.582.199-2.338.402-1.02.273-2.035.288-3.068.174-.278-.031-.546-.06-.828-.03-.631.068-1.265.113-1.897.168Zm-6.552-9.652c.348.011.706.031,1.055-.067.417-.117.834-.233,1.251-.349.303-.084.6-.202.909-.248,1.495-.218,2.911-.676,4.292-1.205,1.443-.553,2.931-.885,4.48-1.008.995-.079,1.973-.214,2.917-.515.833-.266,1.685-.381,2.572-.369,1.156.015,2.282-.183,3.385-.505,1.092-.319,2.22-.546,3.223-1.084.099-.053.229-.058.339-.097,1.263-.454,2.611-.609,3.916-.91,1.076-.248,2.165-.46,3.259-.631,1.397-.22,2.812-.331,4.2-.628.581-.124.906-.397,1.183-.799.42-.609.371-.89-.225-1.4-.173-.148-.342-.308-.54-.424-1.497-.875-2.688-2.022-3.624-3.383-.387-.563-.91-.894-1.626-.944-.471-.033-.819-.258-1.162-.5-.165-.116-.181-.279-.105-.481.164-.439.144-.447-.271-.61-.182-.071-.37-.129-.552-.201-1.456-.572-2.921-1.133-4.238-1.946-.497-.307-.976-.275-1.465-.083-2.002.782-4.04,1.497-5.976,2.411-1.196.565-2.359,1.181-3.456,1.902-1.061.697-2.018,1.519-3.148,2.132-.442.24-.848.532-1.276.794-1.613.989-3.162,2.081-4.857,2.937-2.427,1.226-4.415,2.925-6.499,4.53-.387.298-.567.609-.331,1.129.235.519.365,1.098.368,1.683.001.211.051.425.11.631.16.557.164.552.75.241.092-.049.237-.084.327-.053.268.092.527.154.815.053Z" stroke-width="0"/>
        <path d="m211.644,99.1c-1.314-.059-2.617.111-3.923.189-.23.014-.474.073-.678.169-.647.304-1.372.344-2.057.507-.571.136-.959-.092-1.187-.497-.149-.264-.008-.485.066-.724.051-.163-.03-.296-.216-.308-.514-.033-1.039-.107-1.542-.047-.665.079-1.335.115-2.001.248-1.019.204-2.002.082-2.962-.46-1.101-.621-1.938-1.469-2.849-2.261-.027-.024-.069-.051-.071-.079-.123-1.205-1.227-2.039-1.409-3.269-.204-1.376-.638-2.731-.911-4.108-.184-.927-.131-1.863-.238-2.792-.091-.783-.115-1.573-.158-2.36-.035-.648.012-1.287.137-1.931.238-1.225,1.106-1.958,2.25-2.48,1.163-.53,2.335-1.049,3.529-1.517,1.417-.556,2.857-1.063,4.296-1.572.866-.306,1.798-.235,2.702-.322,1.191-.114,2.376.047,3.561.123,1.031.066,2.039.056,3.073-.129.915-.164,1.878-.203,2.828.059.601.166,1.251.189,1.88.274.078.011.16.023.238.014.809-.095,1.408.474,2.15.561.774.091,1.43.344,2.032.802.481.367,1.045.65,1.589.944.524.284.931.666,1.278,1.113.829,1.068,1.448,2.225,1.822,3.488.072.243.109.499.219.727.63,1.305.609,2.656.328,4.014-.408,1.977-.742,3.965-1.262,5.924-.445,1.678-1.482,2.891-3.137,3.735-2.072,1.056-4.312,1.633-6.635,1.945-.895.12-1.826.02-2.74.02Zm8.484-19.411c.076-.002.085.048.023.051-.158.006.052.071-.041-.046-.074-.075-.148-.15-.221-.225-.073-.275-.168-.547-.215-.825-.073-.436-.384-.667-.77-.884-.385-.216-.84-.193-1.227-.357-.894-.378-1.825-.382-2.773-.29-.058-.046-.112-.095-.174-.136-.029-.019-.071-.032-.105-.03-.026.001-.049.031-.074.049.05.025.097.061.151.073.073.016.152.014.228.02.067.306.387.327.619.416,1.397.536,2.818,1.026,4.032,1.884.079.056.219.041.33.059l.217.242Zm-22.633-.835c.346-.08.692-.16,1.037-.241.298-.071.647-.028.856-.305-.347-.261-.653.005-.973.066-.361.069-.668.224-.888.502-.072.015-.144.031-.216.046.062-.023.124-.045.186-.068Zm13.772,19.156c1.687.073,3.177-.021,4.661-.364,1.511-.349,2.974-.797,4.309-1.52,1.27-.688,2.115-1.673,2.495-3.014.474-1.674.747-3.381,1.113-5.072.205-.945.173-1.932.239-2.901.004-.053-.069-.125-.126-.163-.082-.054-.156-.022-.191.061-.226.527-.637.996-.599,1.608.005.075-.14.158-.216.237-.045-.046-.103-.087-.133-.14-.091-.159-.176-.322-.253-.487-.073-.157-.183-.214-.365-.152-.258.089-.514.186-.778.255-.872.226-1.769.344-2.657.5-1.437.252-2.865.556-4.322.693-1.339.126-2.674.413-4.022.311-1.705-.129-3.415-.07-5.118-.188-.277-.019-.551-.061-.828-.087-1.54-.146-3.072-.333-4.623-.409-1.696-.083-3.394-.262-4.953-.968-.069-.031-.164-.065-.226-.046-.102.032-.233.088-.271.167-.099.205-.052.424.029.63.151.381.25.777.104,1.163-.117.309-.115.548.149.783.126.112.128.289.023.397-.427.438-.375.891-.179,1.404.099.258.012.571.035.858.044.568.011,1.159.184,1.695.218.679.604,1.315.926,1.966.2.405.54.724.922.976.608.401,1.236.781,1.921,1.08.524.228,1.055.297,1.614.193,1.824-.341,3.628-.233,5.429.15.356.076.706.157.977.372.37.293.762.285,1.221.244,1.223-.11,2.453-.164,3.51-.23Zm-.49-11.304c1.036-.082,1.908-.129,2.774-.225,2.087-.232,4.172-.476,6.184-1.069.226-.067.46-.122.695-.147.729-.078,1.302-.516,1.992-.688.189-.047.301-.269.275-.441-.022-.143-.236-.154-.394-.169-.495-.045-.783-.297-.917-.725-.064-.206-.17-.402-.259-.602-.647-1.452-1.866-2.422-3.391-3.03-1.992-.793-3.954-1.651-6.062-2.213-1.169-.312-2.337-.357-3.516-.451-.224-.018-.471.064-.687.144-1.113.409-2.277.616-3.463.728-.441.042-.841.157-1.255.298-1.071.366-2.102.829-3.237,1.049-.731.142-1.497.302-2.135.632-1.185.612-2.183,1.436-2.684,2.649-.148.358-.168.695-.002,1.044.092.194.267.378.171.605-.191.452.115.672.479.856.553.281,1.1.565,1.754.639.984.11,1.959.283,2.944.381,1.771.176,3.556.259,5.319.487,1.858.24,3.726.024,5.415.246Zm11.188-6.529c-.258.071-.618.511-.537.649.424.724.826,1.455,1.145,2.225.098.237.398.177.629.11.232-.067.302-.24.219-.42-.166-.359-.292-.729-.438-1.092-.187-.464-.493-.89-.764-1.324-.047-.075-.18-.107-.253-.148Zm-29.03,1.667c.004.062-.007.138.018.202.024.059.078.133.136.148.062.016.179-.006.212-.05.443-.584.881-1.172,1.305-1.768.06-.084.031-.218-.097-.273-.063-.026-.159-.037-.219-.012-.827.34-1.255.939-1.356,1.753Zm.728,6.837c-.028-.375-.033-.7-.08-1.02-.121-.813-.311-1.618-.272-2.447.004-.094-.085-.194-.14-.287-.013-.022-.063-.033-.097-.035-.033-.001-.088.009-.097.028-.031.064-.066.135-.064.203.037,1.292.162,2.576.441,3.845.015.068.048.134.085.196.017.028.061.054.096.058.02.002.062-.04.066-.065.027-.175.046-.351.062-.475Zm28.123-8.888c-.011-.034-.015-.071-.034-.101-.156-.252-.387-.435-.657-.582-.118-.064-.224-.031-.315.042-.098.078-.116.18-.04.278.212.273.509.427.87.471.052.006.117-.07.175-.108Zm-16.323,19.197c-.046-.156-.165-.23-.335-.244-.147-.011-.219.079-.225.188-.011.202.168.201.321.202.107,0,.225-.01.239-.146Z" stroke-width="0"/>
        <path d="m133.709,76.874c-.272-.029-.562-.015-.813-.097-.347-.113-.686-.167-1.046-.118-.294.04-.545-.043-.781-.191-.184-.115-.23-.276-.198-.467.033-.194.142-.331.358-.38.39-.088.795-.132,1.173-.008.78.256,1.549.246,2.329.022.112-.032.233-.039.351-.055.246-.034.474-.011.633.19.128.162.001.373-.337.601-.496.334-1.045.503-1.669.502Z" stroke-width="0"/>
        <path d="m139.916,73.013c.239-.565.552-.783,1.053-.698.082.014.17.136.203.224.039.107-.047.213-.159.238-.37.083-.746.146-1.12.216l.022.019Z" stroke-width="0"/>
        <path d="m74.447,93.821c-.162-.019-.358-.049-.556-.063-1.18-.083-2.344-.217-3.549-.142-1.255.079-2.527.02-3.791.132-.51.045-1.032-.016-1.548-.034-.436-.015-.869-.055-1.294.106-.175.066-.389.089-.579.073-1.738-.149-3.467-.332-5.107-.936-1.042-.384-1.793-1.059-2.346-1.907-.397-.609-.493-1.265-.116-1.957.357-.656.788-1.227,1.435-1.68,1.001-.7,2.028-1.367,2.925-2.195.64-.591,1.546-.875,2.404-1.157,1.231-.405,2.482-.748,3.771-.996,1.24-.239,2.446-.616,3.671-.92.688-.171,1.386-.312,2.076-.475.304-.072.613-.142.902-.253.809-.311,1.666-.464,2.506-.675.628-.158,1.261-.204,1.891-.139,1.652.171,3.32.214,4.958.525.82.155,1.597.371,2.376.653.996.36,1.982.72,2.915,1.202.497.257.928.567,1.203,1.016.199.324.389.549.825.31.029-.016.08-.008.117.001.72.194,1.381,1.278,1.125,1.925-.339.856-.877,1.629-1.606,2.244-.515.434-1.068.849-1.698,1.171-.724.37-1.4.815-2.1,1.223-1.175.684-2.49,1.09-3.778,1.55-.072.026-.174.004-.231.042-.952.633-2.052.696-3.174.692-.403-.002-.805.068-1.152.241-.768.382-1.602.382-2.472.424Zm2.459-11.93c-.469.036-.899.033-1.329.146-1.104.291-2.226.527-3.333.811-1.681.432-3.385.79-5.035,1.319-.447.143-.91.239-1.381.319-1.333.228-2.59.683-3.836,1.156-.63.239-1.194.568-1.668,1.015-.635.599-1.357,1.103-2.091,1.594-.485.324-.883.729-1.23,1.167-.277.35-.308.725.014,1.095.296.341.596.664.999.915,1.014.631,2.15.913,3.352,1.008.989.078,1.982.134,2.975.055,1.021-.081,2.033.111,3.068-.024,1.334-.174,2.702,0,4.046-.175.154-.02.318.009.475.028.783.093,1.567.179,2.347.291.246.035.465.002.7-.043,1.241-.236,2.485-.461,3.729-.683.308-.055.628-.004.934-.13,1.654-.685,3.467-1.052,4.965-2.049.063-.042.148-.055.215-.093,1.146-.647,2.317-1.261,3.316-2.1.413-.347.764-.73,1.024-1.182.125-.218.075-.416-.052-.612-.06-.092-.139-.193-.27-.133-.176.081-.326.206-.502.286-.285.129-.562.002-.638-.277-.019-.069-.034-.141-.036-.212-.022-.681-.39-1.119-1.067-1.427-1.488-.675-2.978-1.271-4.645-1.574-1.69-.307-3.393-.306-5.046-.493Z" stroke-width="0"/>
        <polygon points="13.351 101.754 13.315 101.727 13.327 101.778 13.351 101.754" stroke-width="0"/>
        <path d="m37.335,118.297c-.153-.013-.306-.024-.459-.043-.026-.003-.062-.037-.068-.062-.006-.028.007-.079.029-.088.524-.226,1.048-.474,1.641-.18.065.032.117.085.175.129-.058.039-.109.093-.174.115-.369.124-.753.15-1.144.129Z" stroke-width="0"/>
        <polygon points="38.888 117.441 38.82 117.404 38.895 117.38 38.888 117.441" stroke-width="0"/>
        <path d="m6.388,113.407c.085-.074.169-.148.254-.222.12-.036.21-.099.239-.217.17-.002.341-.003.511-.005-.178.188-.338.393-.538.56-.188.157-.355.074-.466-.115Z" stroke-width="0"/>
        <path d="m197.632,84.322c-.008.293-.318.732-.573.778-.243.045-.465-.041-.627-.218-.047-.052-.104-.124-.099-.183.023-.322.307-.477.553-.644.178-.121.384-.058.551.038.09.052.14.161.195.229Z" stroke-width="0"/>
      </g>
    </g>
  </g>
</svg>