<?xml version="1.0" encoding="UTF-8"?>
<svg id="b" data-name="Layer 2" xmlns="http://www.w3.org/2000/svg" width="87.035" height="81.015" viewBox="0 0 87.035 81.015">
  <g id="c" data-name="Layer 1">
    <g>
      <path d="m86.12,27.102c.206.15.29.382.381.601.197.473.325.981.43,1.469.134.625.128,1.306.042,1.944-.097.713-.09,1.434-.226,2.142-.247,1.28-.388,2.585-.986,3.773-.135.269-.236.559-.398.81-.198.304-.283.763-.82.692-.066-.009-.145.153-.262.169l.011.011c.007-.065.021-.13.02-.194-.008-.412.695-.149.549-.443-.171-.342-.037-.514.088-.752.132-.252.264-.504.396-.757.308-.592.428-1.239.54-1.886.135-.775.279-1.551.36-2.333.063-.61-.014-1.235.06-1.842.117-.951-.078-1.83-.468-2.678-.246-.534-.51-1.046-.977-1.457-.371-.326-.659-.77-.908-1.205-.514-.898-1.29-1.476-2.179-1.94-.895-.467-1.802-.897-2.808-1.09-1.268-.243-2.52-.309-3.75.181-.122.049-.247.113-.375.122-.671.048-.906.453-.989,1.069-.098.732-.269,1.454-.407,2.181-.016.086-.037.184.048.242.079.054.169.02.248-.019,1.03-.506,2.178-.668,3.233-1.106.155-.064.345-.049.52-.059.197-.011.402.025.592-.015,1.381-.29,2.459.335,3.38,1.219,1.039.997,1.779,2.234,2.278,3.581.31.837.417,1.723.316,2.646-.144,1.311-.554,2.506-1.167,3.665-.294.557-.509,1.166-.887,1.672-.893,1.196-1.435,2.607-2.363,3.782-.314.398-.636.786-.988,1.146-.608.622-1.116,1.329-1.788,1.903-.995.852-2.051,1.566-3.284,2.017-1.113.407-2.243.749-3.404.995-.513.109-1.025.245-1.52.418-.925.325-1.875.447-2.847.463-.827.013-1.656-.039-2.48.079-.145.021-.257-.042-.324-.173-.07-.138-.012-.272.071-.366.32-.363.674-.688,1.104-.923,1.123-.613,2.324-1.039,3.55-1.373,1.388-.378,2.681-.96,3.944-1.63.562-.298,1.134-.578,1.695-.876.297-.158.31-.231.101-.487-.496-.606-1.139-1.028-1.817-1.391-1.043-.558-2.098-1.09-3.25-1.4-.287-.077-.352-.242-.285-.554.055-.26.227-.389.471-.355.235.033.474.106.689.208,1.108.528,2.238,1.016,3.255,1.717.507.349.988.729,1.454,1.13.449.387.443.352.964.072.919-.494,1.53-1.301,2.195-2.054.306-.347.649-.653.97-.982.797-.817,1.585-1.644,2.031-2.726.327-.793.57-1.61.627-2.466.054-.813-.02-1.621-.171-2.425-.203-1.078-.991-1.772-2.358-1.595-1.964.253-3.766.981-5.588,1.67-.207.078-.396.187-.527.378-.286.416-.596.817-.856,1.249-.119.198-.272.333-.444.469-.223.177-.402.053-.604-.043-.17-.081-.219.078-.275.195-.513,1.069-.946,2.168-1.23,3.32-.112.455-.293.874-.525,1.272-1.404,2.409-2.804,4.821-4.226,7.221-.864,1.459-1.884,2.809-2.997,4.086-.677.777-1.391,1.522-2.091,2.278-.123.133-.229.265-.205.462.045.369-.11.696-.265,1.006-.326.655-.522,1.351-.683,2.055-.173.759-.66,1.338-1.085,1.942-.745,1.06-1.571,2.056-2.615,2.852-.599.456-1.255.806-1.935,1.11-1.205.539-2.457.922-3.761,1.159-1.361.248-2.73.412-4.102.575-.109.013-.22.024-.328.016-2.058-.154-4.095-.453-6.125-.818-.928-.167-1.86-.309-2.775-.545-.448-.116-.884-.252-1.309-.436-1.902-.823-3.711-1.798-5.297-3.151-.217-.185-.454-.346-.683-.517-.088-.066-.23-.109-.26-.194-.203-.572-.759-.688-1.202-.92-.987-.515-1.801-1.212-2.553-2.032-.831-.907-1.442-1.915-1.908-3.045-.318-.77-.881-1.411-1.315-2.123-.482-.791-1.141-1.446-1.687-2.189-1.067-1.452-2.088-2.93-2.861-4.566-.721-1.528-1.464-3.045-2.181-4.575-.125-.266-.303-.29-.533-.237-.664.154-1.306.381-1.933.641-1.731.718-3.205,1.801-4.445,3.206-1.061,1.203-2.12,2.408-3.011,3.745-.634.951-1.136,1.977-1.608,3.017-.546,1.202-.984,2.439-1.226,3.742-.105.566-.12,1.134-.115,1.704.003.395.034.79.033,1.186,0,.649.204,1.241.456,1.827.164.382.294.78.433,1.173.445,1.256.981,2.478,1.398,3.746.161.49.535.907.723,1.391.317.813.897,1.436,1.396,2.12.203.278.421.546.617.828.081.116.217.228.117.411-.048.088.017.145.101.201.728.475,1.363,1.066,1.947,1.7.23.25.488.407.757.583.56.368,1.116.744,1.646,1.153.211.163.443.276.666.408,1.019.604,1.918,1.378,2.9,2.035.314.21.664.341,1.002.47.515.196,1.007.435,1.456.734,1.03.685,2.147,1.192,3.268,1.694.998.446,1.983.929,3.005,1.311.795.298,1.631.501,2.48.6.501.059,1,.112,1.48.279.062.021.129.041.193.039,1.25-.041,2.488.167,3.734.199.415.011.831.067,1.242.127.52.075,1.036.194,1.565.177.387-.013.726.162,1.087.249.915.221,1.868.244,2.767.546.415.14.833.272,1.256.386.829.223,1.68.303,2.533.381,1.241.113,2.475.308,3.717.387,1.331.085,2.664.109,4.003-.038,1.028-.113,2.027-.307,3.034-.528,1.001-.22,2.005-.405,2.985-.714.391-.123.819-.137,1.232-.177,1.132-.11,2.166-.565,3.206-.958,1.025-.388,2.056-.739,3.099-1.071,1.687-.538,3.368-1.086,4.884-2.057.748-.479,1.604-.791,2.412-1.178.079-.038.182-.052.237-.112.461-.504.925-.361,1.398-.026.088.063.196.1.281.166.123.096.227.112.344-.007.138-.14.279-.364.462-.344.341.036.61-.167.945-.173.75-.014,1.491.078,2.236.097.503.013,1.007.021,1.51.025.083,0,.19-.007.209-.117.026-.154-.102-.173-.205-.191-.389-.068-.784-.031-1.177-.068-.504-.047-1.001-.095-1.494-.212-1.098-.261-2.222-.232-3.337-.252-.796-.014-1.569-.162-2.341-.306-.456-.085-.907-.15-1.369-.155-1.055-.011-2.111.007-3.164-.046-1.161-.059-2.326-.13-3.473-.304-.659-.1-1.293-.096-1.918.052-.599.142-1.176.004-1.758-.021-1.095-.047-2.188-.01-3.279.039-.855.039-1.707.118-2.564.123-.305.002-.61.08-.915.086-.634.011-1.265.046-1.901-.092-.712-.154-1.444-.041-2.163.018-1.113.091-2.227.145-3.343.177-.281.008-.59-.016-.841-.128-.693-.309-1.372-.079-2.049.003-.752.092-1.292.615-1.835,1.081-.314.269-.727.513-.684,1.036-.475.667-1.005,1.26-1.79,1.594-.816.347-1.676.523-2.533.703-.687.144-1.388.221-2.085.311-.437.057-.875.061-1.31-.04-.148-.034-.306-.046-.458-.038-1.394.066-2.757-.196-4.113-.441-1.119-.202-2.251-.366-3.34-.732-1.411-.474-2.833-.907-4.171-1.581-1.327-.669-2.495-1.541-3.567-2.562-.463-.441-.646-.976-.688-1.585-.023-.335-.013-.628-.232-.97-.266-.416.581-.143.563-.565-.002-.059.06-.117.078-.179.45-1.6,1.56-2.701,2.775-3.74.675-.578,1.422-1.02,2.211-1.407.478-.234.985-.38,1.514-.421.266-.02.526-.066.772-.149,1.241-.421,2.488-.309,3.766-.186,1.034.099,2.03.3,3.033.536,1.361.32,2.606.898,3.811,1.58.326.184.667.332,1.004.491,1.729.817,3.407,1.725,4.919,2.907.336.262.698.441,1.099.577.413.139.94.108,1.119.655.34,0,.569.354.986.225.359-.112.779-.017,1.17-.036.942-.047,1.885-.144,2.828-.068,1.008.081,2.017.057,3.02-.004.674-.041,1.352-.116,2.024-.202,1.108-.141,2.21-.33,3.315-.493.239-.035.479-.008.721.015,1.23.116,2.452.033,3.673-.141.91-.129,1.833-.175,2.742-.314,1.413-.217,2.848-.085,4.261-.303.605-.093,1.223-.001,1.838-.041.723-.047,1.442-.094,2.145-.264.821-.199,1.648-.192,2.484-.16,1.311.05,2.624.11,3.934.078.805-.02,1.614-.06,2.42-.098,1.055-.049,2.106.067,3.155.135.919.059,1.839.07,2.758.117.718.037,1.438.119,2.161.067.146-.011.304.045.446.098.107.04.288.101.075.255-.016.012-.032.036-.032.055-.01,1.094-.716,1.949-1.017,2.943-.076.25-.208.483-.317.723-.152.333-.379.654-.083,1.029.079.1.027.233-.07.289-.454.262-.613.726-.779,1.167-.19.506-.517.715-1.051.702-.525-.012-1.052.035-1.578.05-.86.025-1.713-.013-2.548-.247-.167-.047-.348-.076-.52-.066-1.058.057-2.105-.063-3.153-.178-.636-.069-1.267-.087-1.898.066-.268.065-.539.114-.81-.102-.262-.209-.64-.103-.953-.208-.11-.037-.205.055-.292.122-.702.538-1.483.94-2.29,1.285-.526.225-1.038.473-1.531.756-.916.527-1.897.882-2.898,1.2-2.276.723-4.553,1.445-6.798,2.263-.372.135-.75.24-1.139.31-1.21.218-2.369.643-3.572.886-.71.144-1.417.294-2.115.485-.406.111-.819.129-1.236.161-1.357.104-2.716.068-4.074.084-.419.005-.831-.034-1.236-.155-.552-.166-1.131-.098-1.695-.174-.998-.134-2.003-.206-3.005-.308-.506-.051-.973-.257-1.459-.389-1.079-.295-2.187-.418-3.286-.599-1.278-.21-2.564-.353-3.842-.557-.151-.024-.307-.041-.459-.032-.943.055-1.879-.168-2.823-.064-.043.005-.092.007-.131-.007-.94-.347-1.942-.323-2.914-.473-.944-.146-1.826-.467-2.69-.83-.626-.263-1.262-.505-1.883-.779-1.708-.751-3.381-1.576-4.982-2.536-.715-.429-1.514-.707-2.172-1.236-1.727-1.389-3.662-2.495-5.345-3.948-.685-.592-1.329-1.213-1.869-1.94-.824-1.11-1.691-2.189-2.343-3.418-.657-1.24-1.289-2.484-1.682-3.847-.309-1.071-.753-2.105-1.15-3.15-.245-.646-.345-1.312-.329-1.997.03-1.294.094-2.583.409-3.85.288-1.157.782-2.232,1.264-3.31.995-2.227,2.388-4.187,4.066-5.951.407-.429.768-.905,1.195-1.312,1.584-1.507,3.443-2.554,5.518-3.225.224-.072.524.027.666-.212.162-.274-.021-.562-.092-.823-.258-.95-.552-1.889-.942-2.797-.424-.987-.629-2.046-.952-3.067-.515-1.631-.592-3.31-.569-5.008.016-1.16-.073-2.322-.124-3.482-.008-.173-.058-.346-.1-.516-.185-.75-.264-1.504-.213-2.282.08-1.226.128-2.456.152-3.684.026-1.293.288-2.541.798-3.71.65-1.49,1.61-2.746,3.058-3.596.561-.329,1.075-.751,1.61-1.131,1.001-.708,1.944-1.497,3.047-2.062.822-.422,1.653-.811,2.529-1.104.54-.181,1.083-.354,1.615-.557,1.359-.519,2.767-.866,4.202-1.045,1.96-.244,3.903-.598,5.859-.863,1.197-.162,2.405-.199,3.594-.384,1.183-.184,2.366-.118,3.549-.149.55-.014,1.092-.095,1.632-.19.909-.16,1.82-.296,2.747-.257.983.041,1.966.088,2.948.136.463.023.895.203,1.354.27,1.37.199,2.745.277,4.127.333,1.332.054,2.661.178,3.976.448.73.15,1.452.335,2.182.484.342.069.683.159,1.011.276,1.132.404,2.289.747,3.366,1.294.785.399,1.515.88,2.206,1.426.482.381.971.757,1.485,1.091.61.396,1.133.895,1.669,1.373.435.387.985.632,1.345,1.106l-.012-.011c.753.507,1.19,1.276,1.616,2.034.57,1.013.956,2.112,1.348,3.204.118.329.207.672.274,1.015.291,1.497.619,2.991.734,4.514.052.688.182,1.382.05,2.081-.072.384.089.519.48.389.46-.152.933-.23,1.403-.328.828-.172,1.654-.104,2.48.025.172.027.352.013.522.049,1.91.406,3.604,1.237,4.915,2.704.696.778,1.307,1.638,1.828,2.55.118.206.203.431.303.648,0,0-.013.004-.013.004v-.017ZM18.338,11.196c-.049.037-.098.075-.147.112-.079.028-.077.102-.095.165-.232-.114-.353-.008-.416.21-.313.077-.531.276-.686.549-.022.038.032.091.068.067.246-.165.54-.289.607-.628.188.023.291-.12.418-.215.032-.053.063-.106.095-.159.048-.039.097-.078.145-.116.047-.068.093-.136.14-.204.182.012.29-.134.434-.203.242-.131.474-.274.597-.537l.012.01c-.292.074-.52.22-.593.537-.185-.011-.32.081-.439.209-.047.068-.093.135-.14.203Zm9.698,4.497c-.006-.051.014-.067.055-.041.01.006.017.037.01.048-.026.046-.05.044-.064-.001-.009.042-.022.083-.024.126-.002.045-.074.131.053.111.007-.001.006-.077.001-.117-.006-.042-.021-.083-.032-.125Zm16.645,7.825c-.085.001-.172-.008-.255.007-.065.011-.109.069-.077.137.035.074.106.053.166.033.091-.03.126-.108.152-.191.038.013.075.037.113.038.047,0,.136.036.104-.073-.004-.013-.068-.018-.1-.01-.037.01-.069.039-.103.059Zm17.96-13.271h.03s-.042-.013-.042-.013c-.06-.123-.139-.216-.292-.163-.022.008-.049.077-.037.098.063.12.178.076.278.076.021,0,.042.001.063.002Zm-8.564,18.311c.76.046,1.45-.285,2.179-.41.038-.006.074-.047.102-.079.028-.031.044-.072.065-.109-.038-.02-.078-.06-.113-.055-.192.027-.39.045-.574.104-.553.178-1.179.143-1.649.563-.062-.034-.117-.029-.154.034-.004.007.017.044.031.047.075.016.114-.017.112-.095Zm15.644,18.169l-.013-.007c.03.079.043.214.092.229.241.071.612.008.647-.142.096-.413.449-.304.663-.393.385-.16.796-.365,1.252-.148.12.057.315.033.424-.103.269-.336.59-.552,1.043-.488.109.015.176-.038.169-.138-.016-.258.167-.312.349-.405.465-.237.97-.436,1.364-.764,1.247-1.038,2.426-2.149,3.393-3.468.986-1.345,1.854-2.762,2.669-4.213.235-.418.359-.896.576-1.325.447-.887.743-1.823.936-2.789.223-1.115.024-2.213-.469-3.198-.448-.895-1.081-1.7-1.657-2.527-.263-.377-.581-.719-1.007-.929-.878-.434-1.798-.511-2.753-.34-.782.139-1.503.466-2.254.701-.465.146-.897.359-1.288.643-.16.116-.286.164-.475.083-.21-.089-.331.028-.379.232-.03.128-.051.259-.084.386-.237.898-.569,1.733-1.216,2.443-.546.6-.868,1.36-1.178,2.109-.03.072-.083.173.022.221.034.016.12-.043.16-.088.539-.603,1.071-1.212,1.61-1.815.273-.305.587-.528,1.032-.449.315.055.615-.035.9-.145,1.297-.504,2.659-.716,4.025-.899,1.134-.152,2.294.406,2.735,1.312.278.572.464,1.175.508,1.823.074,1.078.009,2.125-.229,3.193-.388,1.738-1.369,3.069-2.628,4.231-.55.507-1.081,1.019-1.542,1.609-.435.557-.959,1.027-1.598,1.341-.245.12-.417.162-.102.422.195.161.144.471-.034.472-.423.002-.82.056-1.178.293-.443-.183-.757.143-1.076.322-.534.3-1.08.573-1.625.847-1.235.62-2.5,1.148-3.836,1.539-1.021.299-2.062.611-2.994,1.168-.075.045-.155.087-.214.148-.052.053-.034.141.044.143.151.004.307-.004.453-.04,1.046-.255,2.11-.404,3.176-.539.571-.073,1.099-.255,1.587-.558ZM40.848,4.555c1.231-.107,2.562.072,3.872.347,1.796.378,3.626.608,5.375,1.196.082.028.171.042.258.051.463.049.906.181,1.337.343.313.118.634.164.959.218,1.296.215,2.602.358,3.883.68.782.196,1.572.36,2.32.66.411.165.837.252,1.258.359,1.195.306,2.165,1.032,3.187,1.661.859.528,1.642,1.166,2.455,1.761.937.686,1.665,1.544,2.312,2.489.173.253.307.534.534.749.587.556.897,1.271.93,2.049.044,1.05-.011,2.104-.48,3.091-.13.275-.243.56-.38.834-.029.059-.048.132.019.173.022.014.083-.02.118-.045.255-.178.459-.406.656-.644.196-.237.376-.495.608-.691.359-.304.601-.65.797-1.09.197-.442.27-.919.487-1.348.31-.611.41-1.257.423-1.949.012-.589.069-1.214.449-1.727.077-.104.08-.194.03-.301-.429-.91-.669-1.9-1.178-2.776-.31-.534-.648-1.027-1.142-1.427-.423-.342-.824-.721-1.218-1.103-.754-.731-1.514-1.471-2.384-2.058-.961-.649-1.858-1.4-2.918-1.902-.181-.086-.412-.173-.478-.418-.019-.072-.053-.08-.137-.072-.445.044-.836-.178-1.23-.32-1.195-.43-2.407-.791-3.642-1.077-1.781-.413-3.582-.649-5.412-.635-.943.008-1.889-.02-2.815-.172-1.34-.219-2.663-.538-4.032-.542-1.118-.003-2.241-.113-3.351.108-.473.094-.936.205-1.427.218-1.269.033-2.541.004-3.807.146-1.243.139-2.49.243-3.731.388-.761.089-1.523.191-2.27.354-.558.121-1.117.212-1.68.291-1.063.149-2.129.283-3.19.45-1.22.192-2.37.637-3.539,1.014-1.697.547-3.352,1.195-4.84,2.195-1.037.698-2.028,1.465-3.066,2.161-.892.598-1.623,1.341-2.218,2.223-.57.844-1.019,1.766-1.19,2.761-.196,1.143-.311,2.307-.294,3.474.01.683-.054,1.358-.133,2.036-.052.45-.151.892-.061,1.368.233,1.226.454,2.456.445,3.715-.003.414.045.832.149,1.241.136.531.258,1.067.37,1.604.273,1.31.498,2.63.987,3.887.142.365.232.755.308,1.14.285,1.43.787,2.785,1.394,4.105.218.474.382.975.714,1.391-.053.659.296,1.223.457,1.828.42,1.573,1.35,2.891,2.277,4.195.588.827,1.064,1.714,1.486,2.626.239.516.451,1.045.718,1.551.373.704.883,1.309,1.359,1.938.442.584.819,1.209.993,1.915.109.442.297.821.548,1.182.377.542.818,1.031,1.281,1.5.953.964,2.02,1.752,3.313,2.212.329.117.642.29.942.471.249.15.507.276.785.327.587.107,1.131.336,1.684.542.76.282,1.539.508,2.287.827,1.068.456,2.158.851,3.296,1.105,1.162.259,2.34.435,3.518.232.826-.142,1.646-.263,2.481-.273.532-.006,1.035-.09,1.547-.251.729-.228,1.456-.493,2.231-.544.909-.061,1.764-.34,2.603-.675.489-.196.992-.36,1.471-.577.914-.413,1.878-.712,2.659-1.408,2.066-1.843,4.058-3.761,5.962-5.77,1.636-1.727,3.067-3.614,4.261-5.675,1.165-2.012,2.343-4.015,3.563-5.994.472-.766.874-1.573,1.088-2.457.229-.941.649-1.8,1.107-2.646.437-.807.75-1.669,1.001-2.548.091-.319.177-.642.333-.924.625-1.129,1.136-2.303,1.611-3.503.363-.917.681-1.827.837-2.802.128-.799.25-1.6.379-2.399.132-.818.101-1.657-.072-2.484-.13-.621-.201-1.254-.309-1.88-.052-.301-.137-.596-.122-.907.005-.105-.017-.257-.14-.265-.195-.012-.131.18-.163.29-.018.061-.004.132-.013.197-.087.582-.159,1.167-.269,1.745-.134.711-.633,1.239-1,1.825-.8,1.277-1.643,2.528-2.497,3.77-.641.932-1.428,1.7-2.475,2.204-.481.231-1.001.307-1.476.539-.629.307-1.277.58-1.933.825-1.472.549-2.951,1.077-4.431,1.604-.678.241-1.362.461-2.06.647-.451.12-.911.14-1.365.21-1.368.212-2.674.676-4.034.932-1.616.304-3.225.635-4.862.809-.628.067-1.253.133-1.886.163-1.032.048-2.06.093-3.091.032-.767-.045-1.535-.086-2.301-.145-.401-.031-.775.125-1.175.12-.767-.009-1.526-.121-2.29-.164-.56-.032-1.132-.054-1.694-.186-.326-.076-.573-.305-.918-.333-1.29-.105-2.48-.708-3.78-.775-.042-.002-.083-.028-.124-.043-.594-.219-1.211-.353-1.826-.497-.296-.069-.61.028-.897-.095-.584-.25-1.216-.365-1.798-.599-2.62-1.05-5.065-2.391-7.14-4.352-.857-.81-1.641-1.659-2.089-2.756-.325-.797-.779-1.52-1.176-2.275-.143-.272-.3-.536-.41-.824-.304-.798-.622-1.591-.91-2.395-.133-.372-.348-.742-.154-1.172.048-.106-.015-.258-.017-.39-.011-.549-.038-1.099-.022-1.647.029-.996.535-1.79,1.136-2.532.135-.167.679-.176.786-.012.117.179-.095.305-.155.454-.047.116-.156.209-.245.306-.122.133-.228.268-.193.466.054.303-.074.567-.219.81-.189.316-.24.651-.243,1.009-.005.621.132,1.22.271,1.818.023.097.014.239.168.236.127-.003.182-.114.225-.212.186-.42.311-.862.561-1.26.376-.598.84-1.126,1.262-1.687.437-.582.957-1.083,1.584-1.469.261-.161.499-.357.744-.543.89-.677,1.757-1.386,2.776-1.874.692-.331,1.366-.7,2.057-1.035,1.336-.648,2.804-.866,4.223-1.22,1.442-.36,2.933-.518,4.389-.83.904-.194,1.821-.301,2.729-.333,1.051-.037,2.08-.232,3.126-.287,1.116-.059,2.226-.243,3.467-.168Zm-17.503,57.544c-.571.014-1.147-.045-1.695.174-.369.147-.754.223-1.139.313-.664.156-1.324.369-1.822.861-.283.28-.574.545-.901.766-1.586,1.071-2.518,2.593-3.073,4.385-.055.177-.027.291.103.405.69.607,1.351,1.251,2.075,1.814.566.441,1.175.831,1.81,1.18.585.322,1.241.424,1.833.694.75.342,1.536.475,2.341.565.346.039.687.119.985.332.213.153.415.473.652.409.343-.092.524.182.803.198.79.046,1.547.29,2.311.463.775.175,1.512.273,2.273.006.188-.066.383-.043.582,0,.739.158,1.493.112,2.221-.003.641-.101,1.294-.2,1.919-.416.221-.076.446-.155.688-.198.617-.11,1.187-.303,1.626-.837.967-1.177,2.049-2.22,3.583-2.657.329-.094.634-.139.964-.075.84.164,1.686.221,2.543.201.578-.013,1.129-.202,1.696-.212,1.379-.024,2.755-.139,4.138-.107.959.022,1.932-.057,2.88-.205,1.439-.225,2.868-.292,4.325-.208,1.839.106,3.687.015,5.529.163,1.049.085,2.107.038,3.159.099.853.049,1.698.225,2.558.2.065-.002.137-.001.195.024.58.248,1.197.224,1.807.243.178.006.349.013.512.088.035.016.068.04.101.06-.058.017-.115.039-.174.051-.081.017-.2.018-.167.131.019.064.131.143.202.144.771.009,1.518.182,2.273.304.15.024.308.011.461.001.076-.005.208.002.166-.13-.036-.115-.095-.212.093-.197.306.025.613.048.916.095,1.086.169,2.181.113,3.273.148.436.014.875-.051,1.313-.08.108-.007.255-.053.31.046.251.451.677.35,1.044.31.585-.064,1.179-.036,1.757-.185.23-.059.48-.044.72-.065.361-.031.179-.387.335-.565.586-.667.83-1.521,1.168-2.322.086-.204.027-.334-.216-.362-.303-.034-.552-.175-.661-.471-.102-.277-.288-.327-.562-.334-1.116-.026-2.232-.024-3.349-.01-1.645.022-3.293-.075-4.936.081-1.229.117-2.456-.064-3.684.006-.832.048-1.67.026-2.487.22-.622.147-1.25.236-1.888.255-1.054.031-2.11.014-3.16.129-.503.055-1.005.055-1.511.058-.92.005-1.84.064-2.75.2-1.128.169-2.253.343-3.399.343-.856,0-1.718-.015-2.568.072-1.372.141-2.738.345-4.103.552-.703.106-1.403.01-2.104.044-1.667.08-3.332.183-5.002.208-.803.012-1.605.013-2.407.012-.102,0-.158-.028-.212-.104q-.303-.426-.747-.315c-.46.114-.476.116-.669-.353-.072-.176-.167-.295-.332-.383-.154-.082-.309-.175-.438-.291-1.152-1.043-2.523-1.741-3.875-2.467-.946-.508-1.931-.942-2.875-1.453-.793-.429-1.6-.805-2.455-1.098-1.587-.543-3.202-.911-4.883-.95Zm20.658-.071c.64-.034,1.295-.049,1.944-.196.898-.203,1.825-.192,2.731-.386,3.01-.645,5.45-2.132,7.197-4.696.623-.914,1.121-1.884,1.353-2.975.021-.101.117-.235.008-.304-.14-.089-.231.066-.322.148-.114.103-.216.219-.322.33-.862.91-1.8,1.738-2.727,2.579-.229.207-.492.364-.744.539-.898.623-1.946.912-2.935,1.321-1.294.536-2.602,1.061-4.027,1.183-.456.039-.899.176-1.342.302-.715.203-1.434.434-2.19.406-1.165-.043-2.314.064-3.456.289-.126.025-.267.026-.392-.002-.703-.159-1.425-.182-2.136-.317-1.439-.273-2.769-.821-4.102-1.381-.585-.246-1.144-.551-1.764-.713-.119-.031-.269-.165-.327,0-.049.14.143.185.259.241.138.067.274.138.407.214,1.296.741,2.644,1.379,3.985,2.032.161.079.329.11.501.146,1.76.371,3.548.577,5.314.91,1.016.192,2.042.25,3.086.331Zm-8.051-31.596c1.249.037,2.497.01,3.746-.008.853-.012,1.712.04,2.556.216.189.039.398.043.587.007.436-.082.875-.069,1.313-.094.153-.009.322.018.455-.039.573-.248,1.167-.371,1.788-.392.129-.004.257-.054.385-.085.088-.021.18-.059.145-.168-.031-.095-.128-.103-.218-.087-1.219.226-2.448.044-3.672.092-1.201.047-2.407-.032-3.61-.023-1.389.011-2.753-.179-4.114-.428-.967-.177-1.922-.407-2.902-.529-.591-.073-1.181-.002-1.768-.122-.899-.183-1.807-.333-2.715-.464-.862-.125-1.655-.421-2.408-.844-.172-.096-.35-.18-.523-.274-1.058-.573-2.198-.999-3.155-1.753-.446-.351-.884-.714-1.337-1.056-.262-.197-.539-.38-.826-.538-.281-.154-.485-.489-.858-.433-.533.08-.213-.581-.58-.644-.079-.013-.142-.102-.22-.142-.47-.237-.942-.47-1.415-.702-.058-.029-.121-.059-.184-.066-.105-.011-.167.043-.128.153.021.059.08.104.11.162.342.662.949,1.085,1.452,1.6,1.117,1.145,2.468,1.968,3.848,2.74,1.398.781,2.946,1.247,4.342,2.038.151.085.325.137.494.18.761.197,1.507.468,2.302.511,1.398.075,2.72.433,3.974,1.054.197.098.414.14.639.139.834-.003,1.668-.001,2.501-.001Zm27.378-4.23c.182-.199.455-.265.737-.304.888-.122,1.633-.595,2.411-.986.118-.059.289-.108.271-.25-.048-.364.232-.435.451-.559.476-.269.871-.646,1.299-.979.074-.058.153-.234.12-.282-.088-.13-.194.011-.276.057-.171.096-.327.219-.489.329-.588.4-1.16.829-1.77,1.193-.637.38-1.314.694-1.969,1.046-.307.165-.603.35-.901.532-.029.018-.051.082-.041.116.007.027.067.039.157.086Zm-44.129,46.66c-.034.111-.083.184-.064.225.095.202.303.256.491.291.391.072.758.281,1.133.315.436.04.747.286,1.119.423.061.022.123.05.186.057.028.003.064-.038.088-.066.009-.01.001-.052-.012-.061-.258-.173-.508-.464-.779-.485-.365-.028-.708-.099-.995-.274-.37-.226-.856-.013-1.167-.425Zm-4.005-2.473c-.071.025-.11.078-.061.139.15.187.295.383.469.546.398.372.781.771,1.323.944.063.02.144.034.168-.037.016-.047-.011-.146-.049-.167-.652-.368-1.162-.914-1.733-1.382-.03-.025-.078-.029-.117-.042ZM50.299,7.179c.207.002.338-.019.444-.105.046-.038.09-.121-.008-.14-.363-.067-.728-.121-1.093-.174-.036-.005-.091.022-.111.051-.013.019.013.094.038.104.262.104.515.241.731.264Zm31.68,65.188c.085-.013.29.074.453-.081.01-.01.008-.051-.003-.062-.179-.168-.387-.152-.603-.094-.104.028-.213.042-.317.072-.036.01-.089.051-.088.077,0,.077.074.085.132.087.108.005.217.002.426.002Zm-1.269.375c-.083.102-.363-.142-.362.144,0,.179.24.108.379.121.105.009.213-.003.319-.012.061-.006.121-.027.136-.101.019-.092-.058-.111-.113-.121-.104-.019-.212-.019-.359-.03Zm-1.649.169c.054-.002.1.004.141-.008.058-.018.155-.045.158-.075.007-.076-.079-.086-.141-.103-.042-.012-.084-.026-.128-.031-.164-.018-.332-.145-.487.019-.01.011-.009.044,0,.06.111.195.306.112.458.139ZM61.465,9.719c-.068.029-.12.068-.087.144.056.13.173.19.3.226.035.01.087-.005.12-.027.082-.052.028-.115-.009-.159-.085-.101-.188-.179-.325-.184Zm-26.738,18.838c.06-.018.133-.034.088-.119-.04-.077-.113-.12-.203-.121-.065,0-.131.029-.12.098.02.129.126.144.235.142Zm-8.522-1.586c0-.111-.082-.136-.168-.151-.065-.011-.141,0-.15.071-.013.11.088.128.168.15.065.018.122,0,.15-.07ZM44.663,5.619c-.082.004-.234-.002-.219.059.028.112.176.079.276.084.069.003.196.028.171-.087-.018-.083-.145-.051-.227-.055Zm4.998,23.169c.035-.022.091-.037.101-.067.026-.077-.022-.129-.097-.13-.035,0-.094.032-.103.061-.022.074.021.122.099.136ZM29.167,7.438c-.105.024-.239-.02-.239.138,0,.064.065.111.128.102.1-.014.215-.03.236-.155.004-.022-.085-.06-.125-.086Zm43.519,7.466c-.014-.086-.03-.176-.143-.173-.022,0-.064.061-.061.091.007.085.032.174.138.181.02.001.044-.064.066-.099Zm-30.515,10.132c.031-.076.085-.151.085-.226,0-.059-.085-.084-.144-.051-.082.046-.105.128-.065.211.013.028.066.036.124.065ZM62.543,3.158c-.02.002-.051-.004-.058.007-.028.041-.008.07.05.076.02.002.052.004.059-.006.026-.041.005-.069-.051-.076Zm19.746,70.054c-.009-.076-.057-.117-.128-.105-.058.01-.153.037-.161.072-.025.114.074.134.16.141.072.006.117-.035.129-.108ZM48.96,29.505c.048-.013.062-.042.035-.082-.009-.013-.037-.028-.047-.023-.027.013-.05.036-.075.055.029.017.058.033.086.05Zm23.518-15.257c0-.074-.043-.118-.11-.121-.032-.001-.079.033-.097.064-.039.066-.004.117.064.133.063.015.116-.011.143-.075Zm-58.394,1.647c-.022-.065-.05-.125-.131-.103-.065.017-.112.063-.098.136.012.063.045.121.127.095.06-.02.121-.046.102-.127ZM48.24,6.595c-.021-.032-.037-.085-.065-.092-.033-.008-.096.012-.111.039-.043.077.014.114.082.114.031,0,.063-.039.094-.061Zm16.273,4.954c.009-.072-.026-.122-.093-.13-.033-.004-.096.024-.101.046-.013.069.039.115.099.132.025.007.063-.031.095-.048ZM30.025,6.48c-.023-.073-.08-.103-.145-.109-.089-.008-.17.019-.225.097.051.035.097.085.153.101.09.025.167-.017.217-.089Zm46.145,60.513c-.005-.016-.011-.031-.016-.047-.015.006-.038.007-.044.018-.005.009.005.038.014.042.012.005.03-.008.046-.013Zm-23.665-46.346c-.031-.013-.063-.026-.094-.039-.014.035-.027.069-.041.104.032.012.077.042.093.031.024-.017.029-.063.041-.097Zm32.621,17.181c.029-.016.073-.025.088-.051.038-.063.023-.129-.041-.165-.017-.01-.075.019-.09.044-.036.062-.021.123.042.171ZM58.802,2.158c-.048-.019-.083-.005-.103.043-.019.048-.004.093.045.099.034.004.073-.024.109-.038-.017-.035-.034-.07-.051-.104Zm-19.171,23.892c-.015-.053-.048-.064-.095-.032-.016.011-.034.028-.039.045-.014.047.012.083.058.069.031-.009.051-.054.075-.083Zm.452-.179c-.029-.018-.057-.04-.089-.052-.008-.003-.043.031-.04.037.014.032.036.061.055.09.025-.025.049-.05.074-.075Zm5.995-12.652c-.017-.031-.029-.079-.053-.087-.027-.009-.086.01-.097.033-.029.057-.005.112.064.115.028.001.057-.039.086-.061Zm-21.955,12.619c-.035-.014-.075-.046-.104-.039-.048.012-.052.058-.016.096.013.014.037.025.055.025.051,0,.073-.031.065-.082Zm57.631,47.146l.089-.051c-.014-.013-.028-.037-.041-.036-.035.001-.07.013-.105.021.019.022.038.044.056.067ZM41.931,13.866c-.014-.035-.021-.091-.044-.099-.029-.01-.087.007-.107.033-.05.064-.008.108.057.116.029.003.062-.031.094-.049Zm38.757,58.425c-.011-.015-.022-.031-.033-.046-.027.021-.054.041-.082.062.012.015.021.04.036.044.047.014.074-.009.079-.06Zm-1.499-.083c-.053-.008-.084.014-.083.064,0,.015.023.038.039.042.053.014.085-.009.081-.059-.001-.017-.024-.032-.037-.048ZM46.899,23.008c-.015.001-.035-.003-.043.005-.011.011-.023.036-.018.046.022.042.051.041.07-.002.006-.013-.005-.033-.009-.049ZM24.869,7.716c.031-.022.062-.044.093-.066-.014-.015-.028-.045-.041-.044-.038.003-.09.005-.109.029-.027.034.004.07.057.081Zm42.947,7.414c-.014.01-.035.017-.04.031-.003.01.012.037.023.04.048.012.072-.008.061-.049-.003-.01-.029-.015-.044-.022Zm1.148,1.107c-.014-.015-.027-.039-.042-.04-.014,0-.041.022-.042.036-.004.055.023.077.064.056.013-.007.014-.035.02-.051Zm-.044.509c.012.014.027.043.037.041.034-.007.066-.023.099-.036-.012-.015-.027-.043-.036-.041-.034.007-.066.023-.099.036ZM27.577,7.013c.016.005.033.01.049.016.004-.014.008-.029.012-.043-.016-.004-.032-.013-.048-.011-.006,0-.009.025-.013.038Zm40.316,14.602c-.01-.014-.02-.029-.031-.043-.014.01-.037.018-.041.032-.014.044.006.066.05.053.011-.003.015-.027.022-.042ZM14.619,69.934c-.011-.013-.023-.027-.034-.04-.013.012-.036.023-.037.035-.005.049.018.07.053.052.011-.006.012-.031.018-.047ZM64.821,15.179l-.048-.026-.005.044.053-.018Zm-8.827-7.137c-.015-.006-.037-.022-.042-.017-.035.028-.026.05.024.054.005,0,.012-.024.018-.037Zm-11.472,5.534c-.015-.006-.031-.019-.044-.017-.055.012-.06.037-.011.065.011.006.035.001.047-.007.008-.006.006-.027.008-.041Zm11.856-5.412c-.036-.015-.07-.04-.103-.039-.019.001-.036.045-.054.07.032.013.066.038.096.035.022-.002.04-.043.06-.067Zm-11.035,5.183c-.011-.012-.022-.033-.034-.034-.012,0-.024.02-.037.031.018.016.036.033.054.049.006-.015.011-.031.017-.046Zm11.571-5.028c.006-.013.02-.034.017-.038-.029-.033-.051-.024-.055.022,0,.004.025.011.038.017Zm.717.111c.004.014.004.034.013.039.014.009.04.016.05.009.04-.029.033-.057-.017-.068-.013-.003-.03.013-.046.02Zm-14.785-2.979c.016-.011.032-.021.048-.032-.013-.014-.023-.038-.038-.041-.051-.011-.075.011-.059.053.004.011.032.014.048.02Zm13.166,21.576c-.04-.009-.074-.022-.109-.023-.015,0-.031.025-.046.039.033.02.063.048.098.054.014.002.037-.044.057-.07Zm20.234,17.426c-.012-.014-.022-.034-.038-.041-.044-.019-.082-.002-.083.045,0,.013.055.03.087.038.007.002.022-.027.034-.042Zm-53.699,29.814c-.008-.014-.014-.034-.026-.039-.013-.005-.041-.002-.047.008-.026.036-.011.062.035.061.013,0,.026-.019.038-.03ZM59.199,2.089c-.017.004-.047.005-.049.012-.012.051.011.063.058.031.004-.003-.006-.028-.01-.043Zm-37.617,6.908l.043-.019-.041-.021-.002.04Zm29.674,20.108c-.033.019-.066.038-.098.056.014.015.025.037.043.044.05.02.086,0,.093-.053.002-.014-.024-.032-.038-.048ZM57.948,1.83c-.008.016-.025.034-.021.047.015.057.046.061.078.012.007-.011.002-.039-.008-.05-.009-.01-.032-.007-.049-.009Zm-10.405,27.855c.013.015.028.043.038.041.035-.006.068-.022.102-.034-.013-.015-.028-.043-.038-.041-.035.006-.068.022-.102.034Zm-22.28,45.23c-.011-.014-.025-.042-.034-.041-.033.006-.063.022-.095.034.011.014.025.042.034.041.033-.006.063-.022.095-.034ZM60.588,9.084c.001.016-.004.038.005.047.011.011.038.019.049.013.044-.024.042-.054-.007-.074-.012-.005-.031.009-.046.014Zm18.948,63.179l-.005.036.044-.013-.039-.023Zm-5.038-26.75c-.013-.015-.026-.041-.04-.042-.014,0-.03.023-.045.037.013.015.026.041.04.042.014,0,.03-.023.045-.037Zm-31.919-20.835c-.01-.013-.02-.035-.032-.037-.012-.001-.026.018-.039.028.01.013.02.035.032.037.012.001.026-.018.039-.028Zm11.061-16.892l-.034-.023-.005.037.039-.014Zm-23.204-1.438l-.041-.028-.006.044.047-.016Zm.627-.118l.022-.032-.035-.005.013.037Zm4.855-.563l.034.025.006-.037-.04.013Zm-13.525,67.941c-.011-.013-.022-.036-.034-.037-.012,0-.026.02-.039.032.011.013.022.036.035.036.012,0,.026-.02.039-.031Zm9.595,1.55l-.021.03.032.004-.012-.034Z" stroke-width="0"/>
      <path d="m78.991,46.098c.026.437.197.798.555,1.064,1.041.772,1.487,1.936,1.972,3.061.334.775.371,1.629.393,2.457.021.791.089,1.579.138,2.366.088,1.4-.148,2.753-.457,4.1-.275,1.198-.741,2.337-1.133,3.5-.315.934-.808,1.744-1.345,2.544-.183.273-.27.286-.586.096-.257-.155-.307-.287-.161-.538.219-.378.514-.704.706-1.106.577-1.21.974-2.486,1.401-3.75.216-.641.442-1.282.576-1.95.244-1.21.442-2.418.181-3.653-.141-.666-.103-1.35-.176-2.025-.12-1.115-.447-2.136-1.016-3.095-.28-.473-.559-.935-.992-1.295-.233-.194-.42-.447-.615-.684-.304-.37-.308-.388-.765-.183-.815.366-1.645.687-2.371,1.249-.571.442-1.311.6-1.996.824-.379.124-.658.304-.852.657-.212.388-.572.607-1.004.676-.387.062-.78.094-1.171.132-.131.013-.283.017-.317-.152-.035-.174.045-.301.232-.329.54-.082,1.049-.282,1.575-.412.255-.063.44-.146.554-.384.113-.235.317-.312.567-.388.621-.189,1.242-.402,1.825-.684.293-.142.576-.303.888-.407.336-.113.648-.288.915-.51.304-.254.624-.49.984-.626.483-.182.776-.631,1.254-.802l-.012-.017c-.064.148-.23.231-.253.405l-.014.012v-.024c.18-.038.361-.077.542-.115l-.02-.012Zm-1.179.6l.045.032.01-.048-.054.016Z" stroke-width="0"/>
      <path d="m65.639,51.105c-1.211-.16-2.337.246-3.484.521-.511.123-1.03.221-1.561.185-.212-.014-.397-.087-.393-.347.004-.225.121-.397.351-.402.973-.022,1.875-.429,2.83-.516,1.213-.11,2.429-.203,3.649-.211.433-.003.869-.012,1.297-.069.249-.033.484-.063.7.067.199.12.55-.188.58.086.026.239-.361.102-.556.185-.898.384-1.853.49-2.821.501-.197.002-.395,0-.592,0Z" stroke-width="0"/>
      <path d="m84.28,38.704c-.009.043-.019.085-.027.129-.021.121-.184.269-.051.352.139.086.195-.103.266-.204.034-.049.116-.123.139-.111.115.056.035.151.008.219-.155.387-.461.68-.639,1.064-.18.387-.491.712-.745,1.065-.015-.031-.029-.063-.044-.094-.019.018-.038.036-.057.054.03.016.061.033.091.049-.088.426-.37.737-.627,1.063-.038.048-.084.115-.15.07-.018-.013.006-.118.036-.165.13-.202.273-.396.404-.598.049-.075.065-.167-.012-.24-.081-.076-.148-.035-.226.023-.068.051-.158.073-.238.107h-.016c.508-.834,1.144-1.59,1.555-2.488.064-.14.186-.242.344-.285l-.011-.011Zm-.413,1.226c.06-.013.133-.02.113-.107-.006-.025-.059-.054-.091-.054-.061,0-.133.013-.111.101.007.026.058.04.089.06Zm-.239.418c-.025-.023-.048-.048-.076-.066-.006-.004-.045.026-.043.034.008.033.026.064.041.095.024-.02.049-.04.078-.064Z" stroke-width="0"/>
      <path d="m79.02,45.572c.348-.153.576-.426.81-.72.282-.354.636-.651.967-.964.364-.345.737-.68,1.108-1.018.047-.043.114-.084.172-.038.067.053.015.116-.023.163-.304.373-.593.761-.92,1.112-.521.559-1.073,1.088-1.601,1.64-.157.164-.323.292-.542.351l.02.012q.248-.353-.012-.547l.02.009Z" stroke-width="0"/>
      <path d="m78.75,45.849c.016-.164.176-.188.27-.277,0,0-.019-.009-.019-.009-.021.155-.075.277-.263.269l.012.017Z" stroke-width="0"/>
      <path d="m82.408,41.487c-.009.004-.017.008-.026.013.038.013.041.01.01-.011h.016Z" stroke-width="0"/>
      <path d="m72.667,71.123c-.013-.01-.026-.02-.038-.031.017-.007.033-.017.05-.019.055-.006.072.013.042.046-.009.01-.035.003-.053.004Z" stroke-width="0"/>
      <path d="m69.72,46.727c.059-.019.118-.04.178-.055.009-.002.025.021.037.033-.071.076-.152.014-.228.015l.013.007Z" stroke-width="0"/>
    </g>
  </g>
</svg>