<?xml version="1.0" encoding="UTF-8"?>
<svg id="b" data-name="Layer 2" xmlns="http://www.w3.org/2000/svg" width="128.966" height="135.571" viewBox="0 0 128.966 135.571">
  <g id="c" data-name="Layer 1">
    <g id="d" data-name="SPNttl.tif">
      <g>
        <path d="m110.539,116.09c-.022.672.087,1.286-.271,1.837-.055.085-.033.234-.018.349.034.256-.06.435-.236.628-.305.333-.482.762-.768,1.119-.429.534-.857,1.064-1.443,1.429-.101.063-.198.127-.268.21-.523.617-1.229,1.033-1.777,1.623-.075.081-.164.146-.273.202-.516.265-1.012.568-1.52.849-.054.03-.14,0-.186.07-.387.588-1.05.709-1.642.894-.4.125-.678.441-1.078.53-.672.634-1.537.897-2.36,1.249-.714.305-1.478.47-2.181.817-.261.129-.383.466-.665.458-.294-.009-.514.217-.799.172-.29.372-.768.202-1.136.387-.23.115-.49.197-.736.305-.424.186-.829.465-1.325.448-.043-.001-.094.009-.13.031-.735.456-1.571.612-2.387.842-.585.164-1.167.316-1.764.436-.695.14-1.372.382-2.047.608-.345.115-.673.289-1.051.238-.241-.032-.403.203-.662.158-.195-.034-.413-.055-.62.051-.196.101-.401.185-.618.251-.174.053-.34.121-.524.116-.211-.006-.406.017-.591.142-.149.1-.312.211-.513.148-.317-.099-.567.161-.876.154-.293-.007-.579-.032-.887.11-.268.124-.619.053-.941.152-.621.19-1.311.101-1.906.442-.072.041-.189.011-.284.005-.584-.041-1.152.011-1.679.29-.348.184-.727.172-1.091.133-.386-.041-.775.027-1.077.184-.228.118-.472.011-.652.169-.188.166-.415.1-.61.077-.317-.037-.558.209-.878.164-.306-.043-.64-.075-.93.004-.696.188-1.392.325-2.114.27-.2-.015-.306.195-.518.157-.176-.032-.342.026-.526.112-.216.101-.516.026-.78.023-.812-.007-1.628-.046-2.399.288-.995-.106-1.982.26-2.958.116-.611-.091-1.21-.083-1.815-.117-.091-.005-.211.008-.267-.042-.355-.322-.787-.267-1.196-.237-.736.054-1.353-.245-1.872-.686-.666-.565-1.243-1.214-1.447-2.129-.135-.606-.134-1.272-.002-1.903.088-.42.316-.792.325-1.244.005-.267.158-.573.337-.782.2-.234.274-.519.444-.757.34-.476.764-.9.926-1.487.461-.312.619-.886,1.136-1.192.48-.284.83-.787,1.236-1.195.443-.444.929-.834,1.458-1.17.02-.013.037-.031.051-.051.548-.757,1.369-1.159,2.162-1.559.671-.339,1.259-.784,1.885-1.181.221-.14.5-.243.737-.285.321-.056.563-.243.765-.405.298-.238.624-.412.961-.465.383-.06.652-.292.981-.423,1.034-.41,1.997-.967,3.008-1.424.261-.118.557-.162.838-.233.089-.022.214.016.272-.033.556-.476,1.295-.606,1.885-1.012.056-.038.109-.086.171-.107.53-.172.987-.431,1.386-.845.232-.24.602-.404.956-.438.262-.026.377-.196.503-.347.141-.169-.042-.329-.092-.498-.095-.325-.096-.678-.198-.999-.102-.323-.217-.629-.26-.975-.052-.415-.213-.818-.343-1.22-.15-.464-.161-.98-.504-1.374.124-.575-.231-1.064-.292-1.607-.033-.291-.032-.629-.184-.854-.316-.468-.374-1.004-.513-1.516-.042-.156-.168-.272-.163-.439.005-.192.001-.384.001-.575,0-1.047.005-1.206-.454-2.039-.126-.229-.098-.441-.163-.653-.21-.684-.414-1.379-.516-2.085-.068-.477-.126-.949-.31-1.392-.291-.703-.392-1.462-.66-2.172-.11-.293-.089-.62-.188-.928-.109-.338-.2-.687-.282-1.032-.067-.282-.225-.553-.168-.872.076-.424-.089-.823-.294-1.168-.265-.445-.36-.943-.393-1.413-.041-.585-.233-1.101-.403-1.64-.101-.32-.264-.635-.204-.998.051-.305-.134-.565-.215-.844-.15-.52-.386-1.024-.348-1.578.017-.249-.239-.4-.159-.662.07-.23-.037-.445-.128-.662-.042-.1-.028-.213-.12-.312-.224-.242-.286-.558-.316-.873-.022-.229-.059-.442-.126-.666-.075-.251-.165-.511-.188-.795-.049-.603-.206-1.2-.345-1.793-.091-.392-.086-.806-.297-1.172-.192-.332-.126-.752-.341-1.082-.022-.034-.011-.095-.002-.142.119-.632-.189-1.154-.436-1.69-.046-.1-.16-.157-.144-.302.102-.964-.281-1.827-.566-2.713-.13-.405-.187-.833-.296-1.245-.186-.7-.22-1.428-.424-2.126-.219-.751-.365-1.526-.613-2.266-.06-.181-.124-.352-.104-.527.032-.29-.113-.536-.144-.805-.02-.169-.123-.143-.226-.19-.355-.162-.716-.303-1.109-.269-.334.029-.643-.053-.946-.155-.218-.073-.42-.19-.662-.138-.138.03-.203-.088-.304-.137-.618-.3-1.265-.547-1.862-.883-.435-.245-.81-.597-1.209-.905-.075-.058-.131-.186-.205-.194-.578-.062-.93-.533-1.414-.76-.262-.123-.489-.342-.817-.293-.056.008-.126-.041-.181-.076-1.013-.636-2.175-1.052-2.989-1.985-.118-.135-.235-.274-.337-.429-.196-.3-.451-.601-.827-.73-.201-.069-.369-.191-.499-.356-.384-.487-.925-.797-1.376-1.209-.279-.255-.624-.463-.951-.651-.321-.186-.532-.503-.885-.635-.362-.136-.596-.444-.855-.711-.261-.268-.617-.413-.864-.705-.195-.229-.306-.514-.547-.716-.228-.19-.413-.425-.583-.685-.218-.334-.538-.614-.854-.868-.301-.243-.399-.632-.783-.842-.329-.181-.448-.663-.72-.977-.247-.286-.364-.711-.614-.953-.546-.529-.782-1.222-1.179-1.825-.437-.663-.938-1.285-1.361-1.957-.406-.646-.788-1.294-1.369-1.814-.189-.169-.302-.404-.554-.552-.36-.211-.405-.695-.69-1.001-.229-.247-.353-.604-.604-.816-.242-.204-.217-.655-.64-.667-.386-.653-1.028-1.12-1.342-1.819-.095-.21-.245-.342-.391-.483-.587-.565-1.087-1.195-1.495-1.901-.069-.12-.167-.258-.285-.308-.677-.282-.841-1.003-1.294-1.472-.007-.346-.302-.456-.513-.641-.172-.15-.341-.307-.421-.544-.027-.08-.039-.197-.095-.244-.437-.362-.684-.868-1.025-1.301-.489-.619-1.046-1.184-1.519-1.819-.164-.22-.383-.391-.644-.519-.548-.269-.759-.794-.363-1.19.395-.395.043-.721.113-1.065-.39-.563-.232-1.209-.288-1.825-.067-.738.176-1.403.463-2.041.089-.199.105-.424.244-.625.165-.238.265-.521.492-.728.115-.105.189-.258.275-.382.254-.364.537-.74.958-.927.19-.084.337-.211.421-.354.449-.771,1.168-1.223,1.897-1.665.054-.033.145-.045.169-.103.118-.288.303-.544.607-.587.34-.047.391-.489.744-.471.282-.396.879-.288,1.144-.712.232.019.303-.198.45-.304.129-.093.222-.212.382-.29.621-.301,1.218-.653,1.819-.995.331-.188.638-.422,1.045-.438.075-.003.144-.107.219-.16.35-.244.709-.48,1.139-.544.137-.02.226-.078.288-.172.088-.133.243-.162.354-.189.82-.2,1.486-.704,2.223-1.065.146-.071.299-.228.507-.167.157.046.278-.027.367-.153.146-.206.362-.246.591-.314,1.233-.371,2.412-.887,3.585-1.416.041-.018.071-.098.102-.095.596.048,1.067-.329,1.607-.47.668-.175,1.327-.385,1.993-.57.494-.137.958-.35,1.43-.543.254-.104.5-.224.79-.181.09.013.229.024.27-.026.302-.363.771-.238,1.145-.365.343-.116.765-.154,1.145-.214.402-.064.856-.047,1.227-.323.216-.161.544-.03.77-.219.677.047,1.294-.312,1.967-.288.616-.453,1.452-.11,2.067-.568.381.084.716-.203,1.088-.147.338.052.605-.202.95-.163.285.032.597.098.884-.116.108-.08.326-.017.494-.012.556.016,1.095-.068,1.615-.271.062-.024.14-.024.208-.016.805.1,1.587-.168,2.387-.149.112.003.246.059.339-.043.126-.139.227-.13.352.003.092.097.25.074.336.034.497-.228,1.092-.058,1.564-.401.094-.068.258-.056.388.059.121.108.192-.107.345-.092,1.327.126,2.643-.199,3.967-.125.949.053,1.87-.206,2.819-.162.957.044,1.918.011,2.877.008.112,0,.237.045.331-.068.111-.134.282-.102.398-.066.613.194,1.215.16,1.827-.004.374-.1.707.17,1.091.155.36-.015.753-.149,1.096.122.059.047.187.007.283.007.342,0,.681-.309,1.003-.11.327.202.646.069.965.105.631.071,1.221.293,1.808.503.458.164.896.381,1.366.527.146.045.336.116.465.271.221.265.549.404.819.6.412.298.905.399,1.305.691.217.159.456.288.682.435.641.417,1.217,1.362,1.126,2.008-.077.549-.196,1.099-.412,1.624-.219.533-.36,1.099-.688,1.586-.035.052-.042.133-.036.199.054.616-.238,1.149-.455,1.683-.116.285-.165.528-.066.789.122.32.16.619-.02.927-.032.055-.057.148-.032.198.223.444.004.892-.032,1.32-.062.752-.273,1.494-.716,2.141-.153.223-.267.489-.253.753.021.4-.193.703-.374.999-.226.37-.441.709-.525,1.158-.061.33-.317.642-.54.918-.145.18-.219.398-.382.573-.118.126-.244.326-.208.555.035.22-.102.421-.225.546-.315.32-.453.724-.663,1.097-.163.291-.234.655-.547.855-.173.699-.618,1.283-.845,1.951-.119.352-.374.601-.495.949-.204.583-.673,1.061-.703,1.725-.003.068-.096.137-.125.234-.084.28-.365.458-.424.759-.054.279-.235.479-.4.701-.197.265-.143.673-.463.884-.002.348-.165.65-.292.958-.313.759-.543,1.558-1.037,2.231-.056.077-.091.147-.118.241-.091.322-.133.673-.424.902-.175.72-.633,1.319-.867,2.015-.085.251-.154.546-.33.719-.326.319-.488.706-.648,1.106-.286.71-.676,1.362-1.124,1.979-.069.096-.118.225-.131.302-.081.463-.428.741-.658,1.103-.318.502-.743.969-.84,1.588-.023.145-.116.309-.166.355-.45.415-.613,1.017-.999,1.467-.059.069-.104.142-.147.226-.194.384-.472.728-.681,1.09-.299.518-.664,1.015-.878,1.573-.164.426-.46.763-.655,1.166-.136.28-.283.551-.413.836-.089.195.002.48-.273.614-.22.107-.031.478-.309.585-.178.504-.546.922-.659,1.452-.03.139-.118.305-.169.352-.293.264-.42.612-.479.96-.064.374-.319.608-.52.863-.566.715-1.114,1.471-1.99,1.849-.154.066-.153.135-.158.251-.014.352.128.654.261.971.174.413.18.877.301,1.312.048.172.237.305.157.512.348.438.289.956.289,1.463,0,.228.042.438.124.666.211.584.291,1.212.559,1.784.115.246-.068.567.179.789-.108.559.207,1.011.389,1.494.063.166.043.326.038.486-.014.408-.003.402.121.839.128.454.251.916.299,1.383.024.236.236.397.17.661-.05.203.012.432-.016.644-.033.247.221.401.16.663-.045.194-.058.425.134.586-.075.38.114.727.136,1.092.021.347.164.654.245.981.13.525.271,1.045.346,1.585.113.822.154,1.655.304,2.467.066.358.205.726.324,1.084.108.325.157.666.203.987.068.476.173.932.309,1.389.07.237.26.481.137.725-.114.226.304.406.011.606.104.341.191.688.317,1.02.154.408.275.817.26,1.26-.01.322-.043.657.196.924.07.079.096.152.091.252-.031.628.24,1.195.374,1.789.019.085.064.173.054.262-.068.638.161,1.207.387,1.783.097.248.196.527.178.783-.043.642.144,1.222.398,1.784.089.197-.068.436.142.589-.025.65.284,1.234.362,1.872.066.543.052,1.116.379,1.639.229.365.219.868.292,1.308.038.229.2.408.175.657-.033.333.003.671-.011,1.006-.013.316.195.568.321.8.171.313,0,.647.205.928.174.239-.05.56.108.816.146.236.173.506.252.761.191.62.149,1.304.513,1.871.075.116.047.232.038.342-.043.54.207,1.022.297,1.535.029.163.144.138.265.063.361-.226.743-.422,1.086-.671.232-.168.471-.235.743-.303.448-.112.875-.314,1.316-.464.882-.301,1.762-.609,2.646-.905.02-.007.037-.049.051-.047.522.071.977-.201,1.466-.271.214-.031.405-.113.576-.186.274-.116.544-.079.811-.131.806-.158,1.652-.055,2.431-.38.041-.017.084-.044.125-.043.848.03,1.678-.249,2.53-.145.112.014.22-.019.337.059.252.169.576.146.806.038.191-.089.358-.09.536-.093.307-.005.666-.079.91.051.337.179.542-.14.846-.078.286.058.549.234.873.177.279-.049.589-.068.858.002.508.131,1.038.139,1.536.285.492.144.992.257,1.484.404,1.454.435,2.409.842,3.597,1.577.205.127.364.28.538.427.164.139.308.302.46.455.407.407.867.775,1.205,1.233.297.404.472.902.672,1.371.148.346.367.674.359,1.074,0,.048-.019.114.005.14.463.501.21,1.119.287,1.608ZM37.424,38.802c-.023-.028-.04-.067-.069-.081-.06-.029-.09,0-.061.061.014.029.053.048.084.065.005.003.029-.028-.087-.92,0-.12.015-.242-.003-.359-.079-.529.17-.936.571-1.192.387-.247.675-.577.997-.881.434-.411.903-.768,1.45-1.015.39-.176.769-.385,1.088-.666.671-.592,1.61-.686,2.287-1.261.043-.037.148.007.204-.024.429-.235,1-.178,1.317-.641.306-.059.559-.203.746-.457.071-.097.182-.058.266-.045.33.052.582-.06.829-.279.06-.053.179-.125.287-.159.699-.22,1.362-.533,2.047-.787.478-.177.962-.341,1.444-.506.567-.194,1.13-.405,1.707-.563.164-.045.298-.08.426-.198.113-.104.285-.257.395-.231.481.113.828-.234,1.247-.323.416-.088.812-.272,1.251-.271.089,0,.178.026.271-.04.353-.248.78-.318,1.177-.452.252-.085.491-.263.77-.22.341.053.618-.14.926-.206.076-.016.15-.112.249-.085.317.086.644-.052.853-.186.302-.194.681.064.911-.248.513-.086.984-.397,1.535-.289.046.009.113.022.141-.002.257-.223.619-.116.89-.286.297-.186.626-.13.948-.148.057-.003.108-.107.166-.112.185-.016.366-.16.505-.151.616.038,1.132-.434,1.752-.307.409-.238.917-.072,1.311-.301.204-.118.394-.099.594-.135.602-.108,1.181-.338,1.804-.33.135-.189.377-.09.563-.218.163-.112.463-.023.703-.023.12,0,.274.048.353-.009.256-.182.561-.058.803-.152.297-.116.594-.073.88-.137.575-.127,1.144-.259,1.731-.341.669-.094,1.307-.382,2-.37.093.002.205.019.276-.025.46-.281.965-.277,1.475-.264.09.002.213.01.266-.041.21-.203.46-.046.68-.103.242-.062.465-.165.733-.149.434.025.889.088,1.263-.246.043-.038.132-.031.2-.033.322-.01.633-.049.953-.118.331-.071.651-.2.979-.244.355-.047.655-.198.919-.386.21-.149.407-.126.603-.11.822.07,1.585-.184,2.364-.375.471-.115.961-.161,1.427.078.132.068.226.227.311-.122.112-.461.413-.884.511-1.363.049-.241.108-.449.315-.59.135-.092.156-.216.157-.37,0-.136-.022-.268.038-.413.235-.568.466-1.142.389-1.781-.011-.092.013-.17.069-.259.233-.369-.113-.843.203-1.212.031-.036-.273-.116-.366-.053-.189.128-.319.31-.538.43-.431.235-.98.305-1.26.788-.061.105-.188.015-.262.058-.482.279-1.097.273-1.506.705-.411.062-.673.419-1.08.524-.445.115-.874.325-1.277.553-.334.188-.651.389-1.038.449-.499.077-.87.436-1.327.615-.7.275-1.486.358-2.077.889-.013.012-.048-.004-.07.002-.646.169-1.308.293-1.878.676-.035.024-.083.04-.126.041-.531.011-.972.388-1.476.414-.562.029-.963.351-1.429.56-.06.027-.136.016-.201.036-.468.142-.984.208-1.389.454-.366.222-.762.316-1.134.384-.802.146-1.571.345-2.305.699-.198.095-.432.193-.639.176-.572-.047-1.056.254-1.589.357-.782.15-1.47.617-2.295.716-.52.062-.979.484-1.56.382-.694.463-1.564.345-2.297.708-.599.297-1.297.313-1.919.574-.138.058-.248.177-.44.164-.552-.036-1.034.295-1.582.346-.4.037-.777.251-1.199.224-.156-.01-.312.064-.457.096-.571.124-1.08.43-1.674.504-.235.029-.489.144-.733.106-.277-.044-.467.202-.733.157-.234-.04-.403.184-.66.151-.508-.065-.994.073-1.462.276-.324.141-.667.162-1.019.149-.359-.014-.737-.068-1.069.027-.174.05-.35.134-.523.104-.213-.036-.314.187-.518.156-.729-.111-1.379.388-2.11.284-.255.27-.59.156-.874.128-.345-.034-.615.17-.949.173-.7.007-1.394-.015-2.103.097-.776.122-1.576.28-2.38.179-.094-.012-.216-.039-.283.006-.163.11-.33.172-.52.134-.182-.037-.319.152-.441.128-.167-.033-.297-.019-.462,0-.473.054-.961.059-1.435.008-.481-.053-.903.201-1.381.166-.62-.045-1.246-.011-1.869-.011-.551,0-1.103-.003-1.654,0-.537.004-1.049-.241-1.595-.148-.087.015-.177.014-.262-.061-.156-.136-.348-.083-.53-.054.051.186.109.368.263.5.054.047.093.126.154.148.621.224.761.925,1.261,1.266.298.785.905,1.331,1.474,1.907.275.278.593.523.692.936.02.081.099.178.175.21.671.278.847,1.038,1.402,1.425.317.711.809,1.286,1.381,1.802.1.09.168.2.226.336.062.144.199.325.407.365v-.504c0-.096,0-.192.132.588Zm8.742-11.884c.264,0,.587.098.78-.019.559-.338,1.215-.155,1.775-.413.254.107.411-.197.66-.147.567.114,1.099-.231,1.667-.142.045.007.114.013.136-.012.214-.24.495-.126.739-.12.265.007.458-.23.733-.158.357.094.681-.089.997-.196.133-.045.258-.076.394-.088.366-.032.726-.028,1.099-.108.361-.077.683-.219,1.026-.318.477-.137.936-.389,1.462-.295.096.017.169-.03.255-.081.235-.139.483-.257.777-.209.27.044.465-.139.687-.25.253-.126.56.061.819-.106.055-.035.134-.036.183-.076.132-.11.272-.171.446-.142.216.036.352-.248.588-.144.252.11.439-.115.652-.17.22-.057.47-.188.685-.237.591-.136,1.171-.35,1.762-.43.638-.086,1.153-.571,1.822-.482.149-.263.427-.099.643-.183.725-.284,1.474-.518,2.247-.656.253-.28.613-.096.918-.215.705-.275,1.371-.704,2.178-.655.073.004.147-.118.229-.132.424-.072.803-.258,1.189-.432.12-.054.211-.145.369-.158.634-.053,1.241-.216,1.751-.624.082-.066.156-.094.254-.086.774.064,1.416-.446,2.178-.492.353-.022.684-.298,1.036-.431.374-.141.778-.212,1.137-.382.346-.163.706-.276,1.066-.377.543-.152,1.032-.406,1.525-.665.175-.092.321-.236.546-.249.385-.022.726-.196,1.071-.361.52-.249,1.008-.566,1.573-.719.241-.065.49-.112.649-.352.118-.178.342-.25.527-.278.967-.147,1.597-.987,2.526-1.205.06-.014.102-.097.154-.148.133-.13.314-.181.462-.265.332-.188.689-.322,1.014-.509.623-.357.576-.403,1.026-1.135.309-.503.353-1.099.672-1.598.168-.263-.009-.713-.309-.852-.342-.158-.581-.516-1.021-.5-.132.005-.267-.15-.404-.225-.705-.388-1.345-.88-2.087-1.213-.481-.216-.982-.318-1.485-.4-.228-.037-.427-.152-.657-.165-.249-.015-.515.08-.739-.134-.047-.045-.227-.036-.267.013-.154.189-.352.093-.53.125-.451.081-.859-.212-1.308-.146-.185-.208-.436-.162-.659-.136-.249.029-.435-.14-.661-.148-.133-.005-.29-.063-.391.095-.048.074-.155.069-.189.034-.265-.269-.591-.114-.883-.123-.292-.009-.61-.109-.882.126-.049.042-.221.027-.264-.023-.157-.186-.356-.116-.533-.109-.564.024-1.098-.257-1.667-.149-.086.016-.119-.064-.179-.089-.222-.094-.457-.101-.672.002-.084.04-.196.14-.241.073-.179-.269-.294.083-.473.031-.182-.052-.415-.079-.612.056-.213.145-.471.099-.687.056-.287-.056-.476.185-.735.158-.024-.002-.059.01-.07-.002-.202-.212-.374-.077-.608-.027-.421.088-.847.22-1.302.183-.548-.044-1.103.006-1.654-.017-.289-.012-.546.056-.792.18-.242.122-.558.335-.742.232-.325-.183-.563.024-.83.012-.876-.039-1.727.262-2.603.162-.139-.016-.293-.022-.421.022-.479.164-.965.265-1.473.267-.156,0-.31.02-.473.063-.498.132-1.018.351-1.506.331-.744-.032-1.38.434-2.112.321-.538.349-1.201.185-1.764.432-.254-.106-.414.156-.66.155-.594-.003-1.137.366-1.752.278-.018-.003-.044.014-.058.03-.351.368-.858.225-1.278.388-.745.289-1.611.213-2.288.731-.285-.048-.513.164-.803.161-.282-.003-.604.062-.839.209-.389.244-.908.13-1.237.495-.83.03-1.549.41-2.303.693-.215.081-.522.043-.712.184-.302.224-.65.302-.986.405-.224.069-.443.119-.595.299-.106.125-.245.107-.369.157-.457.181-.99.171-1.389.461-.57.413-1.229.63-1.84.951-.253.133-.562.165-.803.314-.331.205-.671.334-1.042.449-.231.071-.575.054-.711.362-.517.158-.913.556-1.431.715-.233.071-.459.164-.687.253-.738.286-1.335.811-2.024,1.188-.868.475-1.662,1.085-2.495,1.627-.256.167-.42.423-.685.594-.399.257-.728.623-1.178.813-.591.724-1.478,1.189-1.838,2.117-.032.082-.126.191-.198.197-.323.026-.277.315-.366.493-.107.217-.114.491-.244.688-.414.63-.138,1.261.03,1.845.196.681.922.911,1.443,1.308.061.046.187.005.283.007.206.004.405.08.593.112.248.043.479.17.726.17.966.003,1.919.248,2.891.153.185-.018.43-.052.55.043.216.171.312-.153.484-.052.074.043.174-.019.268.05.273.201.645.175.882.073.424-.182.859,0,1.24-.136.442-.157.875-.1,1.314-.127.462-.028.92.041,1.386-.124.299-.105.67-.058.999-.009.345.051.615-.173.949-.167.393.008.797.098,1.186-.077.36-.162.795.074,1.141-.198.756.085,1.493-.128,2.243-.144Zm61.761,89.307c.167-.7-.15-1.352-.427-2.001-.084-.197-.184-.412-.372-.569-.248-.208-.481-.439-.617-.748-.164-.369-.459-.601-.799-.813-.741-.461-1.487-.891-2.318-1.185-.241-.085-.463-.111-.676-.082-.259.035-.425-.215-.661-.155-.209.053-.322-.156-.517-.151-.948.024-1.841-.323-2.769-.441-.241-.031-.473-.153-.734-.134-.239.017-.479.004-.719.004h-3.022c-.264,0-.596-.1-.775.024-.263.18-.414-.171-.619-.027-.032.023-.1-.012-.141.005-.612.267-1.256.093-1.884.141-.142.011-.303-.033-.424.019-.778.336-1.633.31-2.437.537-.32.09-.649.163-.973.262-.323.099-.691.075-.993.209-.224.099-.475.211-.684.242-.364.054-.749.072-1.037.283-.343.251-.742.171-1.105.289-.486.158-.902.517-1.445.532-.057.002-.292.009-.33.268-.057.382-.243.455-.591.383-.507-.105-.67-.081-1.094.196-.241.158-.488.131-.727.028-.183-.079-.16-.264-.162-.434-.003-.199.114-.298.269-.364.27-.115.472-.317.588-.566.115-.245-.162-.358-.275-.526-.022-.033.008-.097-.005-.141-.231-.767-.416-1.546-.707-2.297-.152-.393-.372-.789-.299-1.243-.282-.206-.041-.576-.278-.826-.235-.248-.229-.639-.272-.954-.057-.414-.187-.792-.342-1.161-.133-.317-.298-.622-.255-.971.085-.688-.254-1.294-.369-1.942-.112-.63-.407-1.25-.468-1.877-.074-.759-.497-1.426-.463-2.193-.288-.24-.105-.603-.24-.909-.205-.464-.295-1.004-.314-1.516-.012-.335-.106-.644-.192-.939-.115-.392-.285-.767-.256-1.184.012-.18-.109-.3-.136-.447-.027-.144-.188-.203-.162-.37.058-.374-.078-.74-.209-1.062-.144-.353.083-.76-.218-1.061-.084-.815-.273-1.61-.415-2.414-.04-.226-.228-.395-.173-.66.045-.215-.181-.408-.138-.658.042-.243-.143-.417-.253-.612-.031-.056-.026-.135-.028-.203-.009-.322.046-.654-.145-.948.058-.863-.44-1.627-.441-2.479-.33-.282.052-.754-.278-1.036.085-.381-.183-.739-.127-1.089.115-.726-.363-1.34-.306-2.041-.294-.151-.048-.477-.239-.699-.175-.204.051-.552-.117-.808-.159-.242-.045-.508-.067-.762-.011-.127-.066-.208-.129-.31-.15-.238-.176-.511-.171-.794.003-.184.091-.399-.044-.552-.299-.338-.228-.737-.237-1.127-.005-.206-.073-.398-.119-.594-.105-.443-.231-.897-.178-1.372.022-.194.1-.434-.121-.593.041-.427-.272-.772-.288-1.171-.014-.332-.083-.647-.235-.913-.174-.305.113-.675-.19-.931.051-.4-.211-.759-.161-1.154.048-.383-.101-.722-.205-1.07-.024-.08-.112-.151-.086-.25.095-.362-.066-.706-.174-1.01-.099-.276-.03-.582-.228-.843-.184-.243-.133-.261-.361-.118-.602.379-1.049.956-1.692,1.293-.166.087-.375.163-.514.334-.192.237.15.342.104.57-.082.41.057.803.23,1.191.18.404.302.837.411,1.267.11.434.241.87.324,1.3.149.776.305,1.539.596,2.277.192.487.399.984.294,1.533-.021.108.053.167.111.243.213.277.323.591.322.946,0,.367-.025.723.225,1.062.147.2.202.514.193.773-.021.591.233,1.109.398,1.641.2.646.375,1.3.46,1.961.098.769.278,1.504.538,2.228.135.377.268.762.329,1.155.039.249.066.491.152.732.1.279.202.561.155.875-.025.169.285,1.149.387,1.275.242.298.34.64.326,1.017-.017.442.044.86.223,1.275.202.467.439.958.47,1.45.036.571.154,1.075.458,1.547.011.017.006.048,0,.071-.095.452.24.856.145,1.308-.022.105.076.17.096.246.074.284.254.522.365.785.116.275-.006.615.255.83-.2.272-.023.577.035.807.091.368.076.753.238,1.12.195.442.344.916.453,1.395.126.555.157,1.124.264,1.684.135.712.336,1.392.61,2.054.149.36.296.715.272,1.109-.052.868.231,1.657.59,2.418.096.203.127.387.132.594.006.261-.053.546.032.779.195.533.496,1.031.399,1.632-.014.088.068.118.094.177.293.67.478,1.365.485,2.102.002.18.04.348.101.53.106.314.213.632.329.945.117.314.086.672.286.961-.091.481.199.878.295,1.318.1.456.341.895.368,1.35.037.632.631,1.083.496,1.749-.008.041.118.097.13.156.071.352.251.665.314,1.027.046.267.149.543.331.8.198.28.475.535.523.931.065.532.188,1.061.516,1.51.279.382.201.734-.01,1.132-.26.489-1.095.646-1.499.249-.367-.361-.657-.775-.878-1.224-.268-.544-.546-1.074-.889-1.576-.185-.27-.389-.599-.395-.905-.012-.672-.418-1.182-.626-1.766-.115-.323-.375-.608-.402-.982-.01-.14-.125-.167-.196-.125-.369.212-.835.246-1.105.641-.201.294-.547.395-.836.574-.188.116-.408-.02-.533.098-.389.368-.933.458-1.336.768-.369.284-.773.463-1.199.587-.312.091-.64.103-.84.415-.029.046-.129.087-.179.072-.254-.077-.436.21-.659.142-.332-.102-.388.34-.674.303-.029-.004-.062.084-.102.093-.725.166-1.344.579-2.015.868-.244.105-.488.212-.737.304-.924.34-1.711.95-2.617,1.324-.211.334-.615.379-.907.599-.384.289-.762.6-1.16.851-.438.276-.783.65-1.198.925-.626.414-1.09.982-1.591,1.508-.217.228-.392.441-.69.585-.354.171-.656.474-.771.86-.081.271-.241.478-.365.714-.113.216-.328.364-.324.663.004.278-.283.446-.415.684-.288.518-.421,1.05-.414,1.629.001.093-.02.212.027.274.304.393.714.65,1.189.763.25.059.529.039.788.003.294-.042.519.161.805.161.413,0,.837-.1,1.242.122.111.06.297.032.46-.087.169-.122.42-.174.637-.181.773-.026,1.549.035,2.316-.143.25-.058.526.001.789-.011.688-.032,1.406.145,2.042-.281.05-.033.141-.002.213-.005.725-.033,1.447.039,2.176-.12.417-.091.869-.085,1.305-.149.192-.028.297-.216.515-.169.565.122,1.099-.216,1.666-.139.047.006.119.022.14-.002.212-.234.496-.163.733-.127.281.042.454-.221.736-.166.368.072.721-.101,1.058-.213.422-.141.836-.21,1.279-.219.365-.007.758.141,1.096-.124.292.079.521-.17.8-.153.281.018.509-.248.804-.145.295.103.525-.133.803-.151.655-.043,1.284-.219,1.917-.399.472-.134.93-.405,1.455-.314.269-.186.622-.046.864-.167.31-.154.634-.051.929-.193.711-.343,1.492-.46,2.251-.642.436-.105.924-.042,1.261-.431.201.051.351-.136.514-.136.338,0,.607-.141.909-.249.312-.112.642-.166.945-.33.127-.069.289-.122.432-.173.667-.24,1.366-.395,1.997-.735.232-.125.478-.272.757-.249.271.022.481-.103.706-.213.618-.302,1.206-.662,1.869-.873.322-.103.665-.061.981-.238.522-.291,1.077-.523,1.622-.772.283-.129.573-.219.848-.393.655-.417,1.31-.872,2.07-1.067.379-.097.623-.356.935-.527.119-.065.178-.195.33-.247.526-.177.857-.44,1.166-.807.131-.155.297-.271.486-.377.252-.142.56-.196.758-.438.18-.22.472-.32.609-.599.07-.143.209-.297.352-.348.266-.095.398-.253.511-.506.114-.256.479-.268.641-.513.042-.063.038-.139.071-.186.387-.558.484-1.18.41-1.885Zm-42.553-54.072c.158-.075.453-.154.672-.329.714-.572,1.54-.988,2.21-1.618.061-.058.333-.305.345-.349.116-.43.461-.517.835-.563.114-.014.245.051.342-.04.351-.328.744-.625,1.03-1.003.362-.48.672-1.009.932-1.552.167-.348.336-.681.57-.986.094-.123.188-.26.232-.406.199-.662.5-1.279.786-1.904.307-.671.773-1.264,1.047-1.939.242-.596.617-1.093.954-1.614.172-.265.365-.532.472-.815.121-.317.483-.442.531-.789.005-.038.093-.068.093-.102,0-.409.309-.645.513-.94.066-.095.188-.138.215-.271.165-.836.797-1.434,1.128-2.193.212-.485.622-.883.897-1.354.247-.424.544-.832.683-1.297.056-.188.104-.407.191-.57.337-.627.75-1.216.975-1.898.041-.124.103-.203.182-.284.148-.152.332-.284.259-.54.353-.397.412-.932.647-1.387.417-.807.867-1.612,1.155-2.468.309-.919.747-1.758,1.219-2.59.066-.116.207-.217.141-.37-.096-.222.082-.388.164-.506.334-.484.535-1.027.788-1.547.243-.499.509-.988.756-1.485.025-.05.019-.152-.015-.188-.078-.081-.093.063-.148.066-.182.013-.285.14-.398.256-.337.349-.746.583-1.183.788-.783.368-1.575.727-2.322,1.16-.487.281-.999.483-1.504.714-.605.276-1.294.356-1.82.832-.146.133-.446.128-.574.323-.179.272-.509.004-.704.24-.062.074-.306-.024-.402.046-.506.371-1.081.524-1.683.64-.102.02-.266.051-.355.185-.06.091-.175.131-.277.186-.422.225-.825.483-1.335.427-.543.387-1.194.492-1.816.643-.285.069-.465.271-.718.356-.295.099-.604.166-.884.296-.266.124-.495.326-.819.281-.339-.047-.541.346-.887.286-.612.324-1.298.452-1.942.692-.362.135-.74.364-1.165.314-.337-.039-.608.155-.912.23-.195.048-.369.154-.556.222-.772.28-1.629.318-2.328.799-.117.08-.232.014-.341.048-.449.141-.923.136-1.37.34-.587.268-1.213.458-1.868.527-.517.054-.992.33-1.528.301-.473.401-1.082.404-1.639.556-.151.041-.254.171-.444.152-.82-.082-1.567.196-2.299.517-.067.029-.126.056-.194.051-.631-.048-1.213.213-1.824.274-.196.02-.313.188-.515.164-.186-.021-.392-.037-.564.02-.481.159-.965.265-1.473.264-.139,0-.306-.025-.412.041-.466.288-.976.264-1.482.24-.589-.028-1.146.251-1.739.155-.049-.008-.108.086-.17.1-.112.026-.252.073-.341.03-.519-.248-1.066-.128-1.598-.127-.744,0-1.457-.089-2.124-.438-.038-.02-.103-.019-.141,0-.087.045-.052.102.006.149.428.346.679.869,1.161,1.16.195.118.298.356.319.51.07.519.434.839.698,1.227.318.468.636.937.967,1.397.464.645.752,1.414,1.37,1.95.089.077.122.179.167.29.102.254.292.463.491.662.381.38.796.728,1.078,1.204.151.255.324.539.563.692.385.246.672.58.999.88.139.128.266.272.42.378.379.261.76.516,1.09.84.197.193.383.386.644.522.688.358,1.244.895,1.769,1.462.331.356.727.641,1.156.856.351.176.614.44.834.731.511.679.959,1.078,1.603,1.505.325.216.687.319,1.018.503.562.312,1.132.626,1.73.853.325.123.648.26.871.487.556.567,1.302.833,1.91,1.309.284-.043.349.424.672.288.46.252,1.008.244,1.463.458.269.127.437.108.5-.091.122-.385.417-.453.725-.505.375-.063.654.138.921.38.129.118.079.319.247.407.119.062.162.247.458.194Zm-20.382-22.576c.256-.03.52.062.771-.049.335-.147.68-.299,1.052-.23.411.076.768-.195,1.164-.147.334.041.649-.039.944-.156.244-.096.478-.15.736-.136.12.007.294.052.35-.008.224-.238.547-.022.728-.155.254-.187.499-.107.746-.117.172-.007.299-.095.447-.14.556-.171,1.119-.329,1.691-.43.29-.051.597-.127.874-.128.369-.001.586-.236.874-.349.103-.04.208-.078.31-.119.569-.231,1.188-.205,1.778-.39.741-.232,1.521-.378,2.243-.672.218-.089.448.006.655-.169.202-.172.484-.244.776-.205.107.015.217-.004.335-.051.413-.163.843-.28,1.266-.418.38-.124.766-.23,1.134-.389.224-.097.46-.292.67-.268.516.06.938-.181,1.393-.311.663-.19,1.267-.546,1.976-.623.458-.05.839-.445,1.35-.389.066.007.171-.086.214-.159.095-.161.307-.212.407-.227.389-.06.691-.315,1.07-.391.389-.078.763-.236,1.14-.368.192-.068.413-.09.579-.163.332-.146.705-.101,1.026-.31.295-.192.69-.207.944-.512.048-.058.193-.127.287-.152.498-.133,1.044-.126,1.427-.564.044-.05.181-.03.273-.022.368.034.661-.094.946-.332.255-.214.553-.466.858-.507.406-.055.716-.251,1.06-.413.28-.131.575-.299.87-.314.37-.019.67-.193.926-.372.281-.197.587-.335.878-.503.479-.278,1.017-.442,1.497-.725.976-.576,1.881-1.243,2.672-2.058.064-.066.167-.144.167-.215-.005-.377.161-.698.288-1.035.04-.106.055-.243-.165-.311-.174-.054-.338-.157-.521-.119-.483.101-1.002.144-1.431.359-.361.181-.699.222-1.065.206-.312-.014-.585.062-.844.226-.258.163-.533.25-.848.215-.213-.023-.432.009-.647-.008-.218-.017-.375.144-.58.185-.163.032-.342.095-.524.107-.391.025-.798-.088-1.163.144-.569-.092-1.022.471-1.607.288-.161.192-.392.181-.585.133-.264-.065-.431.14-.658.18-.191.033-.384.133-.592.116-.26-.022-.492.055-.735.138-.255.087-.538.117-.793.182-.216.055-.43-.111-.582.024-.319.282-.69.226-1.057.234-.166.004-.343-.028-.496.02-.673.209-1.327.501-2.059.414-.04-.005-.092.014-.126.039-.249.183-.567.178-.838.219-.316.049-.631.17-.943.16-.679-.022-1.285.333-1.954.332-.468.345-1.121.142-1.581.535-.069.059-.233.008-.353.008-.144,0-.313-.05-.427.008-.558.286-1.19.232-1.771.413-.467.146-.95.295-1.42.376-.496.085-.961.249-1.442.365-.121.029-.218.146-.375.138-.252-.013-.526-.062-.729.142-.216.217-.519.091-.768.241-.41.246-.904.299-1.371.32-.63.029-1.123.463-1.737.507-.102.21-.361.195-.503.354-.059.066-.106.184-.219.157-.422-.1-.739.188-1.103.295-.388.114-.774.224-1.176.29-.418.068-.789.292-1.185.437-.686.251-1.389.478-2.015.862-.291.179-.588.371-.908.404-.387.04-.688.219-.982.416-.21.141-.399.27-.657.335-.361.091-.715.246-1.043.426-.355.195-.662.482-1.109.459-.048-.002-.101.095-.152.145-.085.084-.157.193-.258.247-.697.374-1.446.664-1.989,1.278-.013.014-.041.016-.063.021-.391.082-.63.377-.882.644-.158.167-.455.291-.419.532.026.174.245.338.409.468.158.126.195.315.274.468.146.284.328.577.617.605.65.063,1.302.38,1.972.031.142-.074.403-.05.547.035.322.19.651.039.969.096.252-.291.587-.074.875-.147Zm44.246-16.473c-.016-.016-.035-.048-.047-.045-.034.008-.065.029-.097.045.016.016.035.048.047.045.034-.008.065-.029.097-.045Z" fill="#1738ff" stroke-width="0"/>
        <path d="m.032,14.159c.023-.411-.089-.838.13-1.235.041-.074.047-.228-.001-.278-.206-.216.102-.407.007-.607.361-.173.301-.562.38-.847.248-.903.688-1.737.907-2.645.032-.131.112-.195.175-.289.173-.26.365-.531.392-.838.016-.183.24-.25.169-.439.603-.708.988-1.551,1.42-2.361.167-.314.565-.436.613-.823.713-.705,1.255-1.565,2.113-2.147.45-.305.82-.74,1.319-.996.177-.091.387-.139.536-.262.275-.229.584-.229.911-.245.33-.016.607.028.807.32.092.135.186.106.35.046C11.094.205,11.946-.04,12.856.005c.43.021.863.007,1.294.003.511-.005.973.16,1.429.371.281.13.58.221.86.352.413.195.827.393,1.121.767.204.259.545.343.761.605.178.216.38.421.579.622.399.402.793.855.69,1.502-.045.281.14.469.238.694.145.331.328.644.099,1.031-.085.144-.057.368-.043.553.054.749-.096,1.461-.383,2.144-.051.12-.058.229-.048.338.042.43-.15.807-.314,1.166-.219.483-.49.945-.709,1.433-.099.222-.249.431-.44.613-.642.611-1.267,1.242-1.883,1.88-.181.188-.401.306-.604.455-.748.552-1.366,1.29-2.288,1.596-.082.027-.148.113-.211.182-.459.503-1.015.824-1.682.982-.099.023-.256.091-.349.188-.361.373-.851.508-1.316.639-.312.088-.591.232-.844.391-.343.215-.684.326-1.081.355-.388.029-.761.184-1.164.142-.261-.028-.536-.047-.788.007-.224.048-.394-.357-.616-.045-.221-.155-.474-.106-.718-.11-.24-.004-.48-.008-.719.002-.13.006-.208-.081-.31-.122-.646-.257-1.153-.705-1.708-1.102-.571-.408-.931-.922-1.253-1.5-.342-.615-.537-1.264-.425-1.98Zm3.703,1.248c-.485-.005-.84-.357-.831-.839.01-.572.343-1.006.632-1.466.137-.218.422-.213.535-.484.094-.225.348-.384.534-.57.083-.083.162-.206.262-.232.463-.117.726-.485,1.042-.787.104-.099.186-.25.309-.297.759-.295,1.187-.973,1.759-1.484.161-.144.281-.366.465-.441.254-.103.413-.266.604-.446.212-.2.474-.363.687-.577.592-.595,1.191-1.183,1.778-1.783.266-.271.616-.458.807-.803.279-.006.38-.258.547-.411.173-.158.381-.27.512-.491.194-.326.554-.492.866-.677.358-.213.579-.552.888-.803-.256-.276-.634-.332-.932-.522-.157-.101-.295-.107-.455-.128-.225-.03-.481.116-.672-.112-.706-.019-1.41-.076-2.118.036-.429.068-.818.249-1.208.394-.476.176-1.001.206-1.447.512-.19.13-.559.144-.764-.148-.134-.192-.196-.011-.251.054-.101.119-.119.288-.256.398-.476.384-.759.926-1.13,1.398-.519.661-.703,1.51-1.258,2.146-.08.091-.04.253-.091.391-.151.402-.27.811-.579,1.127-.081.083-.031.185-.068.26-.232.462-.336.966-.503,1.448-.214.617-.545,1.194-.503,1.878.003.041-.026.084-.043.125-.237.543-.462,1.087-.412,1.703.011.129.073.805.113.932.192.615.695.985,1.13,1.397.167.159.439.303.656.294.522-.021,1.002.252,1.524.165.117-.019.292-.054.35.006.291.297.572.066.82-.021.387-.137.745-.354,1.181-.278.038.007.09-.018.123-.045.482-.384,1.141-.367,1.637-.749.346-.267.788-.407,1.175-.626.411-.233.816-.474,1.21-.74.367-.248.769-.455,1.151-.693.739-.459,1.4-.986,1.987-1.617.215-.231.381-.535.639-.693.445-.273.609-.731.842-1.13.137-.233.094-.59.298-.805.28-.296.099-.634.147-.949.017-.113.122-.146.146-.228.162-.553.364-1.106.145-1.69-.042-.112-.187-.182-.014-.329.062-.053.028-.245-.067-.385-.093-.137-.204-.289-.209-.488-.011-.52-.284-.902-.664-1.238-.172-.152-.311-.153-.396.028-.188.399-.541.642-.821.955-.168.188-.404.326-.458.602-.314.046-.519.296-.633.519-.183.354-.448.632-.742.83-.519.35-.914.815-1.349,1.242-.332.326-.672.642-.94,1.043-.196.293-.538.509-.815.75-.407.354-.859.671-1.199,1.124-.422.562-1.05.937-1.572,1.412-.367.334-.829.574-1.185.94-.331.341-.756.586-1.015,1.005-.066.107-.189.18-.324.246-.262.129-.499.325-.717.525-.254.233-.533.354-.865.323Z" fill="#1738ff" stroke-width="0"/>
        <path d="m9.539,43.631c-.143-.528.165-1.007.133-1.527-.032-.525-.016-1.054-.004-1.581.007-.301.559-1.656.753-1.915.087-.116.571-.364.81-.472.305-.138.585-.21.911-.044.247.126.479.075.687-.156.353-.39.726-.766,1.116-1.119.658-.596,1.478-.919,2.281-1.257.339-.142.666.126,1.007.16.072.007.164.18.228.112.311-.324.598.169.894.007.226.248.564.261.847.385.177.077.386.143.557.216.344.145.729.276.971.608.238.328.663.46.893.772.317.43.692.832.85,1.369.15.51.463.954.609,1.476.049.176.107.348.103.527-.011.465.12.891.261,1.33.101.316.256.645.18,1.008-.034.16.061.297.123.449.238.582.22.826-.011,1.444-.038.102-.179.217-.109.305.322.405.049.805-.029,1.176-.082.392-.095.798-.252,1.185-.149.368-.248.756-.44,1.112-.082.152-.111.354-.172.503-.212.514-.416,1.052-.838,1.447-.112.105-.128.238-.198.352-.458.752-.971,1.461-1.626,2.058-.035.032-.062.086-.103.099-.787.257-1.403.839-2.209,1.093-.874.275-1.711.257-2.569.061-.164-.038-.322-.174-.447-.299-.393-.395-.851-.7-1.292-1.034-.576-.435-1.104-.969-1.481-1.601-.341-.571-.687-1.156-.905-1.779-.265-.758-.625-1.467-.93-2.203-.025-.061-.047-.133-.041-.197.055-.61-.291-1.145-.324-1.739-.004-.067-.129-.128-.111-.239.118-.71-.25-1.387-.125-2.092Zm2.572-.234c0,.422-.098.818.021,1.131.22.578.241,1.187.386,1.774.097.393.161.799.352,1.15.424.781.751,1.607,1.19,2.383.236.417.544.773.788,1.177.108.179.298.308.449.462.107.108.113-.017.12-.061.03-.178.011-.343.111-.532.108-.205.126-.538-.012-.748-.17-.258-.152-.556-.073-.744.206-.488.073-.975.119-1.458.016-.166-.066-.393.017-.49.16-.186.155-.307,0-.462.22-.159.158-.407.116-.589-.075-.33-.02-.638.003-.962.038-.524-.007-1.053.021-1.578.008-.153-.179-.232-.106-.35.194-.313-.043-.701.116-.954.209-.332.059-.646.121-.959.031-.154.034-.303.089-.465.125-.36.192-.758.188-1.139-.006-.61.059-1.187.391-1.709.034-.053.066-.075.006-.102-.04-.018-.095-.039-.131-.026-.373.139-.768.242-1.108.439-.45.261-.894.556-1.271.91-.494.464-1.025.81-1.691.96-.292.066-.328.211-.363.55-.086.828.236,1.628.149,2.391Zm9.065,1.406c0-.215.048-.445-.009-.644-.175-.605-.304-1.218-.423-1.835-.298-.242-.116-.607-.221-.912-.17-.49-.395-.948-.654-1.381-.334-.558-.799-1.005-1.468-1.172-.12-.03-.203-.248-.351-.099-.089.09-.134.229-.18.353-.023.063.001.143-.005.214-.055.626.131,1.27-.139,1.882-.023.053-.009.164.03.196.19.153.083.355.109.533.071.494-.207.948-.153,1.45.048.45.015.909.007,1.364-.002.137.033.274-.036.415-.172.35-.153.704-.008,1.065.087.217.117.47-.02.668-.097.14-.065.268-.075.402-.049.674.016,1.344-.118,2.029-.152.772.057,1.59-.161,2.38-.072.26.023.293.313.139.01-.005,1.452-1.159,1.455-1.168.143-.439.489-.751.719-1.137.377-.633.629-1.323.932-1.987.131-.287.31-.631.293-.946-.033-.618.168-1.202.163-1.809Z" fill="#1738ff" stroke-width="0"/>
        <path d="m106.158,66.06c.562-.052,1.06.224,1.594.318.068.012.128.166.201.027.099-.19.318-.177.454-.301.346-.315.722-.484,1.176-.208.036.022.091.025.135.018.969-.141,2.057.347,2.554,1.134.27.428.617.914.556,1.484-.041.387.197.707.165,1.092-.027.337-.106.702.127,1.021.034.047.002.14.005.212.017.349-.215.653-.153,1.02.058.342-.235.657-.135,1.017-.423.485-.304,1.232-.812,1.676-.018.016-.048.033-.049.051-.048.819-.729,1.325-.996,2.031-.065.172-.155.316-.281.379-.304.151-.433.433-.585.69-.062.105-.137.189-.216.266-.467.456-.846.982-1.248,1.491-.157.199-.409.357-.626.519-.713.533-1.324,1.187-2.122,1.628-.424.234-.806.59-1.221.874-.438.299-.938.479-1.432.513-.443.03-.859.212-1.304.171-.367.329-.735-.08-1.102,0-.161-.191-.381-.148-.587-.142-.324.011-.569-.133-.791-.35-.152-.148-.19-.375-.441-.467-.199-.073-.366-.267-.544-.406-.376-.293-.715-.631-.791-1.175-.057-.409-.314-.776-.461-1.171-.072-.194-.115-.398-.061-.537.215-.551.103-1.114.124-1.671.008-.221.072-.382.207-.567.178-.243.321-.553.355-.849.036-.312.193-.546.296-.817.267-.705.607-1.378.896-2.073.149-.358.439-.677.66-1.018.372-.573.737-1.158,1.217-1.65.122-.125.177-.289.225-.413.103-.264.274-.503.444-.669.524-.514.945-1.113,1.452-1.639.533-.554,1.197-.906,1.857-1.253.377-.198.813-.295,1.258-.256Zm4.52,4.268c0-.407.031-.818-.008-1.221-.042-.44-.216-.935-.598-1.089-.428-.172-.919-.408-1.451-.142-.203.102-.453.176-.706.21-.354.048-.544-.002-.689-.325-.031-.07-.053-.116-.141-.12-.495-.021-.96.097-1.337.411-.377.313-.682.708-1.114.961-.252.148-.282.479-.51.65-.552.415-.787,1.072-1.215,1.583-.289.346-.416.797-.678,1.152-.23.312-.351.681-.613.976-.266.3-.451.66-.591,1.046-.105.289-.461.469-.419.83.041.348-.238.57-.314.882-.145.598-.304,1.2-.627,1.752-.205.35-.064.793-.052,1.19.004.123.213.332.333.336.158.005.027-.237.102-.347.414-.612.497-1.398.994-1.957.277-.312.351-.748.682-1.015.276-.223.485-.509.653-.809.215-.384.497-.712.743-1.065.164-.235.357-.48.528-.699.339-.434.561-.957.976-1.328.299-.267.491-.611.727-.923.234-.309.435-.649.699-.929.558-.594,1.164-1.142,1.717-1.739.432-.466.971-.372,1.5-.377.038,0,.077.043.114.069.425.296.596.884.274,1.259-.289.335-.454.74-.737,1.064-.122.139-.142.342-.384.426-.184.064-.332.297-.46.506-.272.446-.572.888-.931,1.265-.39.409-.717.868-1.087,1.291-.238.271-.557.518-.69.854-.153.39-.432.65-.704.931-.1.103-.262.188-.295.308-.144.535-.583.827-.925,1.2-.081.088-.203.157-.243.259-.275.714-.879,1.174-1.337,1.746-.217.271-.489.488-.665.803-.181.325-.21.305.115.455.253.116.488.163.786.099.353-.077.704-.261,1.087-.162.087.023.119-.079.177-.091.472-.097.759-.486,1.13-.734.282-.189.636-.258.862-.539.279-.346.649-.581,1.033-.799.119-.068.27-.16.309-.275.14-.412.57-.591.739-.988.08-.189.274-.386.515-.458.172-.052.312-.187.361-.316.126-.33.417-.499.622-.75.102-.125.233-.215.312-.373.309-.615.661-1.202.932-1.843.309-.73.421-1.474.495-2.238.028-.285.004-.575.004-.862Z" fill="#1738ff" stroke-width="0"/>
        <path d="m99.167,40.687c.05-.378-.048-.811.124-1.257.155-.403-.094-.886.117-1.318.062-.126-.127-.197-.107-.353.041-.317,0-.634.14-.952.116-.264-.11-.609.135-.88.037-.041.03-.137.02-.204-.073-.52.13-1.012.179-1.519.042-.434.103-.87.112-1.31.001-.067-.018-.134.045-.198.228-.232.184-.549.264-.827.086-.298.087-.587.127-.881.079-.578.127-1.167.423-1.692-.017-.725.456-1.186.922-1.627.355-.336.835-.346,1.301-.315.037.002.081.053.103.092.203.36.416.276.685.058.128-.104.296-.195.51-.163.195.029.387.017.597-.115.268-.168.573.085.856.151.474.11.924.333,1.412.398.192.025.372.107.487.207.596.519,1.304.895,1.834,1.503.23.264.481.541.625.827.337.67.744,1.311.957,2.048.069.238-.028.498.095.673.16.229.18.434.048.639-.085.132.027.142.055.21.206.487.355.981.315,1.527-.034.453.019.912-.019,1.364-.017.194.339.315.058.555-.138.118-.032.362-.043.549-.012.215-.019.433.002.646.018.179-.112.314-.171.433-.197.392-.107.831-.33,1.235-.309.558-.763,1.008-1.045,1.576-.178.36-.518.6-.748.916-.326.447-.772.792-1.039,1.29-.078.146-.213.304-.416.363-.346.099-.586.355-.826.608-.449.472-.995.829-1.517,1.207-.278.201-.655.261-.999.36-.347.1-.646-.02-.965-.026-.343-.006-.69.069-1.024-.13-.207-.123-.995-.515-1.156-.675-.341-.337-.672-.684-1.02-1.013-.155-.147-.285-.312-.347-.505-.164-.508-.531-.951-.489-1.524.003-.043,0-.107-.027-.13-.196-.161-.179-.427-.231-.621-.096-.358-.027-.759-.027-1.2Zm9.641-6.921c-.011-.377.05-.767-.232-1.116-.396-.49-.53-1.154-1.021-1.587-.403-.885-1.302-1.182-2.019-1.693-.131-.093-.31.045-.328.211-.057.518.24.997.154,1.523-.036.219-.072.473.136.658.067.778.344,1.529.292,2.325-.024.358-.015.719,0,1.078.013.319.042.634.103.954.062.329.219.657.186,1.012-.022.238-.019.48,0,.718.016.203-.1.436.093.606.227.199-.203.403.015.594-.162.261.226.586-.019.769-.212.158.207.273-.048.387-.118.053-.034.263-.043.402-.01.167.01.336-.006.503-.016.175.063.302.135.45.054.111.051.313-.018.41-.124.176-.219.365-.022.471.097.052.341-.086.471-.195.216-.181.423-.387.582-.618.335-.489.636-.996,1.031-1.448.161-.184.311-.43.441-.669.456-.837.424-1.756.546-2.65.005-.039-.017-.091-.043-.124-.164-.215-.111-.401-.011-.642.123-.297.17-.687-.019-.947-.308-.426-.373-.876-.356-1.378Zm-7.195,5.485c-.138.867.178,1.889.146,2.928-.003.088-.055.216.054.26.302.123.165.463.347.654.171.18.455.286.464.595.317.121.534.42.872.497.324.074.414-.004.418-.34.003-.288-.022-.577.007-.862.029-.293-.094-.585.115-.89.153-.223-.184-.498-.127-.79.032-.161-.061-.393.022-.49.246-.286.095-.595.121-.888.029-.333-.023-.674.016-1.005.033-.277-.21-.545-.009-.817-.249-.259-.146-.584-.133-.875.015-.334-.127-.632-.146-.948-.049-.795.033-1.591-.136-2.388-.12-.563.095-1.172-.16-1.735.102-.757-.218-1.486-.144-2.241.005-.047.008-.097,0-.144-.031-.174-.089-.053-.17-.031-.286.077-.518-.111-.555-.364-.037-.25.125-.435.157-.66.008-.058.1-.099.134-.159.019-.034.014-.1-.007-.136-.06-.103-.106-.015-.149.024-.439.403-.425.984-.541,1.498-.088.387-.015.811-.018,1.218-.003.393-.017.775-.123,1.168-.099.367-.05.77-.144,1.162-.092.385-.062.816-.009,1.216.055.413-.18.766-.158,1.164.025.473.271.966-.133,1.41-.06.066-.008.232-.008.352v1.614Z" fill="#1738ff" stroke-width="0"/>
        <path d="m108.952,11.929c.002-.33.02-.615.132-.91.189-.498.273-1.035.45-1.539.245-.696.539-1.371,1.025-1.949.231-.275.383-.619.621-.888.404-.457.972-.741,1.357-1.225.549-.105.968-.587,1.583-.526.216.021.435-.012.671-.099.265-.098.649-.144.951.065.132.091.28.052.413.038.449-.048.849.223,1.309.17.154-.018.377.128.515.296.106.129.215.289.358.346.197.078.407.382.648.058.419.019.805-.243,1.234-.144.757-.27,1.541-.096,2.312-.141.228-.013.44.035.667.118.22.08.451.222.723.171.466-.086.835.171,1.191.41.21.141.44.213.659.319.622.299,1.296.538,1.642,1.235.111.224.349.392.549.562.59.503.961,1.299.999,2.022.03.576-.071,1.092-.425,1.554-.024.031.007.116-.018.133-.481.333-.763.883-1.286,1.174-.136.076-.289.113-.406.244-.245.274-.494.554-.92.553-.191,0-.27.216-.447.3-.541.257-1.123.427-1.637.731-.522.309-1.112.449-1.647.706-.504.243-1.059.343-1.539.619-.143.082-.266.086-.398.08-.49-.023-.943.187-1.405.232-.447.043-.902.355-1.381.069-.106-.063-.282-.009-.426-.009-.24,0-.484.031-.717-.009-.214-.037-.42-.14-.617-.238-.071-.035-.132-.032-.199-.04-.247-.029-.489.036-.743-.125-.188-.119-.508.06-.722-.159-.023-.024-.093-.006-.14-.003-.707.048-1.318-.248-1.94-.522-.323-.142-.685-.2-1.004-.35-.31-.147-.619-.309-.846-.596-.219-.277-.53-.493-.7-.792-.171-.302-.233-.671-.328-1.015-.09-.324-.107-.632-.119-.922Zm8.723,3.046c.354,0,.602-.039.832.01.282.06.455-.197.735-.165.625.072,1.195-.226,1.792-.351.392-.082.729-.337,1.095-.476.371-.142.764-.219,1.121-.424.325-.187.69-.3,1.027-.467.359-.178.699-.394,1.059-.569.583-.284.998-.762,1.436-1.212.078-.08.087-.226.127-.342-.092-.01-.183-.02-.275-.031-.804-.098-1.593.092-2.383.171-.31.031-.634.149-.948.106-.366-.051-.659.235-1.021.157-.378-.081-.717.103-1.067.198-.059.016-.093.095-.179.089-.753-.052-1.496.109-2.242.124-.682.014-1.339.272-2.026.164-.042-.007-.106,0-.13.026-.205.231-.523.067-.769.243-.188.135-.491-.06-.746.101-.248.156-.556.036-.836.058-.143.011-.323-.053-.425.012-.307.197-.637.15-.953.124-.337-.027-.631.115-.948.149-.237.025-.479,0-.718.008-.047.001-.18.035-.071.109.263.177.337.505.641.671.715.392,1.485.588,2.255.813.517.151,1.044.265,1.565.375.712.15,1.408.476,2.053.332Zm1.212-5.468c.38,0,.646-.022.906.006.268.029.493-.132.732-.138.584-.014,1.144-.254,1.738-.161.128.02.255-.01.396-.08.294-.145,2.398-.067,2.731.054.118.043.271.072.331.008.127-.135-.074-.187-.136-.238-.193-.16-.321-.373-.587-.484-.346-.144-.708-.313-.965-.634-.087-.108-.267-.165-.415-.198-.351-.078-.67-.234-1.002-.358-.248-.092-.522-.313-.761-.202-.243.112-.373.124-.621.005-.178-.085-.431-.108-.65-.153-.215-.044-.468-.08-.689.05.131.136.257.277.395.405.105.098.183.203.204.349.008.055.104.055.083.154-.067.316-.599.723-.883.597-.246-.11-.539-.117-.742-.286-.563-.465-1.243-.698-1.882-1.014-.079-.039-.126-.118-.235-.13-.649-.075-1.294-.194-1.954-.141-.537.043-1.05.128-1.411.59-.073.094-.158.231-.254.246-.562.087-.729.56-.93.966-.076.153-.182.26-.27.39-.275.409-.562.816-.615,1.325-.022.21.074.295.231.198.572-.355,1.239-.231,1.85-.388.279-.072.583-.093.874-.138.304-.046.574-.103.828-.274.068-.046.18-.029.271-.035.438-.028.891.089,1.306-.144.754.07,1.482-.284,2.124-.144Z" fill="#1738ff" stroke-width="0"/>
      </g>
    </g>
  </g>
</svg>