<?xml version="1.0" encoding="UTF-8"?>
<svg id="b" data-name="Layer 2" xmlns="http://www.w3.org/2000/svg" width="223.068" height="131.261" viewBox="0 0 223.068 131.261">
  <g id="c" data-name="Layer 1">
    <g>
      <path d="m128.433,24.807c.36-.11.721-.218,1.08-.331.514-.161,1.06-.451,1.441.203.397.679.262,1.61-.273,2.076-.125.109-.277.187-.414.283-.359.252-.944.274-.982.859-.052.799.015,1.596.341,2.337.148.337.527.392.857.45,1.553.273,2.921-.013,3.929-1.339.253-.333.486-.682.723-1.027.338-.491.787-.861,1.367-.529.628.359.358.979.132,1.444-.777,1.601-2.098,2.574-3.788,3.054-.855.243-1.738.252-2.621.193-.491-.033-.866.024-1.057.614-.492,1.521-1.347,2.779-2.815,3.546-.538.281-.624.615-.081,1.033,1.488,1.146,3.155,1.844,4.993,2.229,2.184.457,4.131-.03,5.953-1.234.205-.135.45-.225.69-.286.249-.063.498-.023.676.209.2.26.22.532.072.821-.179.349-.486.571-.795.788-2.473,1.742-5.191,1.943-8.047,1.273-1.737-.407-3.292-1.21-4.765-2.19-.423-.281-.867-.58-1.065-1.044-.332-.777-.864-1.003-1.675-.949-1.448.096-2.725-.457-3.823-1.347-.584-.473-.836-.309-1.298.171-1.158,1.204-1.453,2.484-1.049,4.133.507,2.069.904,4.155,1.899,6.066.185.355.208.724.074,1.095-.253.697-.777.842-1.379.395-.387-.288-.597-.697-.759-1.132-.307-.823-.619-1.645-.894-2.48-.168-.509-.404-.668-.922-.414-1.246.61-2.549,1.071-3.926,1.27-.611.088-.735.454-.713.97.032.756.172,1.492.334,2.231.356,1.624,1.23,3.016,1.93,4.486.088.184.196.401.454.344.177-.039.25-.223.273-.383.18-1.268,1.216-2.073,1.71-3.179.375-.84,1.137-1.075,2.141-.84,1.74.407,3.435.471,5.152-.214,1.241-.495,2.535-.477,3.763.207.913.509,1.866.442,2.769-.005.697-.346,1.374-.528,2.168-.434.797.094.951-.162.75-.959-.031-.121-.093-.234-.129-.354-.544-1.857.218-3.024,2.146-3.223,1.21-.125,2.431-.155,3.638.021.754.11,1.646-.005,2.024.953.035.09.201.172.313.181,1.439.122,1.761,1.22,2.071,2.337.078.282.179.558.277.834.163.46.431.62.961.52,1.938-.367,3.919-.333,5.875-.558.41-.047.86-.057,1.246.064,1.169.365,1.951-.127,2.562-1.046.486-.731.867-1.549,2.007-1.363.37.06.305-.345.216-.556-.479-1.127-1.373-1.884-2.377-2.512-.396-.248-.622-.013-.655.418-.051.667-.04,1.346-.166,1.999-.167.866-.633,1.239-1.247,1.107-.722-.154-.866-.707-.859-1.339.002-.209-.019-.435.051-.624.547-1.482.358-3.039.475-4.563.03-.394.123-.738.394-1.027.269-.288.57-.523.99-.348.377.157.67.458.578.872-.204.927.392,1.289,1.049,1.611,1.431.702,2.571,1.733,3.418,3.068.773,1.217,1.248,2.494.282,3.852-.266.375-.157.658.101,1.007,1.174,1.584,2.157,3.289,3.087,5.025.514.959.648.957,1.4.122,2.555-2.836,4.705-5.97,6.84-9.122.772-1.14,1.564-2.263,2.264-3.449.314-.532.279-.817-.428-.898-1.006-.115-1.958-.439-2.829-.971-1.197-.731-1.429-1.481-.854-2.737.487-1.064.502-1.105-.51-1.483-.806-.301-1.369-.802-1.668-1.588-.245-.643-.666-1.019-1.346-1.169-1.257-.277-2.213-.981-2.765-2.162-.22-.471-.574-.67-1.061-.767-.614-.121-1.237-.25-1.819-.472-.858-.326-1.048-.782-.811-1.682.074-.283.142-.579.28-.832.543-.993.602-1.651-.457-2.577-1.233-1.078-1.058-2.831-.709-4.381.321-1.427,1.111-2.516,2.548-3.033.374-.135.624-.347.731-.772.502-1.994,1.198-3.908,2.296-5.671.54-.867.452-1.003-.474-1.572-.499-.307-1.026-.569-1.519-.884-.675-.432-.862-.949-.571-1.453.333-.576,1.244-.921,1.751-.515.856.684,1.83,1.18,2.69,1.842.628.483.768,1.152.483,1.918-.309.833-.81,1.558-1.233,2.327-1.281,2.331-1.745,4.862-1.831,7.484-.012.376-.042.781.478.879.466.088.746-.061,1.004-.507,1.419-2.451,4.31-2.39,5.862.097.846,1.355.836,1.32,2.329.902,2.172-.608,4.358-1.165,6.544-1.724.275-.07.586-.042.875-.012.651.068,1.223-.067,1.786-.429,1.319-.849,2.65-.884,3.997.008.81.536.976.422,1.061-.515.077-.852-.108-1.673-.303-2.484-1.284-5.347-4.045-9.689-8.721-12.712-.21-.136-.438-.244-.658-.365-.569-.312-.876-.151-.891.505-.007.335.02.67.014,1.005-.024,1.347-.81,1.859-2.084,1.369-.514-.198-.956-.516-1.407-.822-.866-.589-1.731-1.179-2.604-1.757-.201-.133-.441-.3-.672-.071-.165.164-.121.388-.043.589.421,1.088.52,2.287,1.157,3.304.328.524.291,1.013-.22,1.448-.501.426-1.007.592-1.587.193-.275-.189-.566-.374-.79-.616-.928-1.001-2.035-1.724-3.272-2.288-.948-.432-1.176-.84-.909-1.36.35-.683,1.138-.837,1.956-.395.429.232.843.815,1.302.581.446-.226.041-.835.064-1.274.029-.548.225-.955.644-1.295,1.297-1.053,2.655-1.114,4.039-.162.138.095.264.207.403.301.406.277.675.897,1.197.821.577-.084.299-.773.506-1.16.418-.781,1.731-1.367,2.71-1.135.535.127,1.037.348,1.496.639,5.964,3.789,9.889,8.947,10.751,16.13.196,1.635.036,3.265-.441,4.845-.213.705-.227,1.336.009,2.067.319.986.429,2.042.607,3.071.259,1.502.486,1.804,1.936,1.987,1.129.143,2.204.461,3.301.728,2.637.642,5.036,1.791,7.358,3.151,2.471,1.448,4.815,3.057,6.664,5.279,1.281,1.539,2.345,3.223,3.357,4.958,1.399,2.399,2.326,4.994,3.396,7.528.631,1.495,1.07,3.074,1.546,4.63,1.391,4.554,2.458,9.189,3.386,13.856.138.695.47,1.13,1.141,1.344.84.268,1.618.666,2.391,1.094,1.736.961,2.553,2.44,2.683,4.374.117,1.742-.131,3.429-.763,5.047-1.05,2.691-2.286,5.301-3.542,7.901-.167.347-.219.599-.006.916.533.797.517,1.735.701,2.631.243,1.18.439,2.378.76,3.535.584,2.104.719,4.272,1.039,6.411.402,2.687.339,5.411.326,8.124-.001.251.003.503-.008.754-.041.922-.34,1.359-.938,1.383-.604.024-.964-.416-.984-1.329-.034-1.55-.004-3.101-.036-4.651-.064-3.053-.509-6.062-.996-9.073-.226-1.399-.622-2.759-.803-4.162-.028-.218-.121-.443-.347-.459-.098-.007-.248.203-.316.344-.308.641-.604,1.288-.886,1.94-.119.274-.129.546.025.841.812,1.551,1.013,3.267,1.209,4.962.298,2.578.517,5.166.706,7.755.161,2.212.235,4.43.339,6.646.012.249.022.517-.054.747-.14.419-.444.704-.908.755-.479.053-.629-.305-.816-.644-.195-.352-.185-.726-.184-1.1.007-2.133-.196-4.257-.307-6.384-.075-1.43-.102-1.391-1.564-1.394-1.66-.004-2.942.126-3.449,2.221-.629,2.605-1.729,5.096-2.63,7.636-.111.314-.224.631-.372.928-.214.431-.587.605-1.047.468-.446-.133-.7-.46-.671-.94.015-.246.065-.498.147-.731.946-2.681,1.903-5.358,2.855-8.037,2.17-6.107,4.291-12.231,6.528-18.313,1.343-3.649,2.877-7.228,4.305-10.847.619-1.569.631-3.186.257-4.817-.279-1.216-1.169-1.89-2.179-2.454-.183-.102-.403-.15-.582.011-.186.168-.116.395-.048.586.309.864.455,1.78.935,2.592.516.873.681,1.855.172,2.763-1.298,2.319-2.105,4.83-2.991,7.311-1.8,5.041-3.664,10.061-5.362,15.136-1.54,4.602-3.138,9.186-4.515,13.844-.804,2.719-1.716,5.406-2.448,8.147-.118.443-.305.873-.646,1.206-.362.353-.798.522-1.249.241-.389-.242-.497-.641-.354-1.103.359-1.158.689-2.325,1.056-3.48,1.176-3.707,2.364-7.41,3.548-11.114.277-.866.141-1.073-.77-.966-3.118.367-6.229.792-9.35,1.133-.787.086-.962.441-.958,1.136.011,1.674-.014,3.349-.051,5.023-.026,1.172-.082,2.343-.15,3.513-.059,1.016-.473,1.54-1.129,1.497-.614-.04-.925-.629-.86-1.685.164-2.677.268-5.356.284-8.039.008-1.209.022-1.195-1.182-1.237-.5-.017-1.008-.062-1.494-.177-.49-.116-.992-.326-1.115-.892-.135-.623.243-1.031.725-1.343.245-.159.508-.294.777-.409,3.197-1.36,6.404-2.696,9.592-4.075,2.763-1.195,5.513-2.421,8.331-3.484.389-.147.632-.396.754-.777.228-.716.412-1.448.759-2.122.182-.352-.016-.651-.183-.938-.232-.398-.492-.779-.729-1.173-.191-.317-.231-.65.08-.908.29-.24.612-.175.94-.021.32.151.506.914.965.375.38-.447.821-1.04.372-1.704-.412-.608-.413-1,.415-1.12.396-.057.522-.344.63-.687.34-1.078.689-2.153,1.068-3.218.217-.611.02-.806-.563-.633-.398.118-.782.292-1.159.47-1.099.518-2.213.997-3.368,1.38-1.2.398-1.367.537-1.355,1.754.011,1.092-.378,1.984-.819,2.955-1.14,2.512-4.068,3.197-6.224,3.122-2.706-.094-4.574-1.427-5.784-3.773-.247-.479-.564-.689-1.095-.599-.537.09-1.077.162-1.616.234-.414.055-.723.248-.802.674-.073.394-.253.707-.57.942-1.748,1.292-3.323,2.814-5.216,3.916-.474.276-.927.579-1.509.537-.288-.02-.612.015-.716-.359-.083-.299-.059-.603.181-.815.248-.219.532-.402.815-.578,1.498-.931,2.864-2.041,4.231-3.148.207-.168.564-.35.374-.697-.133-.243-.456-.145-.692-.121-1.208.122-2.435.04-3.626.315-1.058.245-1.223.447-1.295,1.531-.034.508-.033,1.004-.456,1.382-.196.175-.314.448-.243.684.317,1.054.028,2.155.354,3.23.283.934.103,1.969.163,2.959.224,3.67.32,7.35.391,11.028.05,2.633-.017,5.269-.032,7.904,0,.042.002.084-.001.126-.081,1.138-.458,1.671-1.16,1.642-.678-.028-.913-.437-.865-1.661.197-4.983.047-9.963-.188-14.938-.11-2.332-.143-4.673-.43-6.999-.07-.568-.215-.843-.798-.859-3.211-.091-6.382-.68-9.604-.7-2.636-.016-5.257.107-7.871.404-2.373.269-4.736.391-7.129.201-2.534-.201-5.08-.27-7.623-.316-2.382-.043-4.761-.152-7.144-.189-3.257-.05-6.507.104-9.76.113-3.454.009-6.905-.032-10.355-.428-3.905-.448-7.828-.359-11.76-.077-2.704.194-5.434.269-8.152.091-3.212-.21-6.418-.506-9.632-.66-3.514-.168-7.028-.072-10.545.121-3.806.21-7.602-.319-11.405-.412-1.833-.045-3.678.109-5.508.279-2.593.241-5.188.166-7.782.173-1.337.004-1.476.073-1.275,1.425.424,2.857.663,5.733.871,8.608.179,2.471.043,4.96-.524,7.374-1.024,4.358-1.28,8.763-1.164,13.215.02.759.267,1.282,1.031,1.276,2.163-.016,4.188.735,6.285,1.074,2.773.448,5.313-.18,7.834-1.144.935-.358,1.857-.758,2.759-1.193,2.361-1.139,4.741-.813,7.108-.095,4.055,1.23,8.168,2.147,12.42,2.163,1.749.006,3.502-.258,5.248-.447,2.867-.311,5.733-.643,8.595-1.001,4.071-.51,8.152-.994,12.244-1.165,4.594-.192,9.199-.29,13.796.25,3.402.4,6.816.727,10.241.921,3.007.171,6.005.502,9.012.656,2.088.107,4.186.054,6.279.032,1.589-.016,3.177-.15,4.764-.136,3.478.031,6.948-.182,10.414-.38,3.335-.191,6.654-.651,9.98-.994.083-.009.163-.041.246-.049.544-.058,1.218-.184,1.27.581.043.633-.52.853-1.109.958-3.789.675-7.615,1.016-11.448,1.26-5.914.375-11.834.528-17.762.512-3.767-.01-7.504-.361-11.254-.618-2.71-.186-5.415-.441-8.119-.668-2.489-.209-4.983-.419-7.468-.723-1.476-.181-2.999.065-4.498.023-3.306-.094-6.588.218-9.87.508-2.037.18-4.062.494-6.098.697-2.281.227-4.566.465-6.837.733-2.313.272-4.626.607-6.948.751-4.48.278-8.83-.559-13.099-1.854-1.125-.341-2.274-.564-3.42-.788-1.49-.291-2.878.042-4.233.753-2.65,1.39-5.456,2.383-8.482,2.356-1.791-.016-3.6-.247-5.333-.756-1.182-.347-2.382-.424-3.588-.499-1.436-.089-2.259-.876-2.21-2.325.141-4.176-.037-8.373,1.016-12.486.697-2.723.974-5.515.856-8.335-.069-1.637-.075-1.373-1.308-1.834-3.221-1.206-6.602-1.853-9.85-2.95-.287-.097-.559-.168-.855-.086-1.591.439-3.203.608-4.848.388-.112-.015-.319.017-.335.071-.066.219.12.252.283.284,1.763.342,3.54.601,5.288,1.034,3.256.806,6.469,1.725,9.509,3.169.227.108.457.216.663.357.312.214.646.437.422.91-.202.426-.527.661-1.003.567-.325-.064-.645-.178-.953-.303-3.498-1.413-7.068-2.595-10.771-3.349-1.145-.233-2.295-.445-3.441-.672-.244-.048-.494-.097-.723-.19-.892-.361-1.011-.698-.41-1.458.303-.384.322-.525-.164-.673-.987-.3-1.901-.637-3.027-.416-1.077.211-2.252.018-3.371-.107-.8-.089-1.226.117-1.495.911-.496,1.465-1.109,2.89-1.653,4.339-.55,1.467-.312,1.789,1.19,1.92,2.628.229,5.217.72,7.796,1.267,3.267.693,6.542,1.363,9.699,2.483.787.279,1.57.586,2.322.949,2.222,1.073,3.239,2.96,3.378,5.334.08,1.373.014,2.756-.038,4.133-.04,1.058-.274,1.321-1.057,1.423-.875.114-1.262-.163-1.337-1.054-.052-.623-.012-1.254-.005-1.882.014-1.253.034-2.495-.11-3.755-.173-1.514-1.014-2.343-2.307-2.839-5.107-1.961-10.469-2.903-15.817-3.882-2.264-.414-4.557-.651-6.852-.826-1.276-.097-2.066-.746-2.552-1.901-.754-1.788-.776-3.668-.785-5.553-.006-1.256-.017-1.272-1.263-1.128-.458.053-.92.079-1.373.157-1.15.198-1.423.614-1.092,1.75.844,2.892,1.718,5.775,2.569,8.666.898,3.05,1.782,6.104,2.67,9.157.058.201.148.409.138.609-.026.519-.368.82-.812,1.024-.485.223-.808-.03-1.062-.396-.165-.239-.345-.499-.406-.774-.673-3.052-1.681-6.013-2.473-9.033-.75-2.861-1.638-5.701-2.419-8.56-.602-2.205-1.214-4.411-1.761-6.634-.477-1.938-.965-3.892-1.575-5.804-.145-.456-.453-.715-.871-.819-1.301-.322-2.581-.683-3.826-1.199-.782-.324-1.045,0-.806.885.524,1.938,1.095,3.864,1.599,5.808.628,2.424,1.34,4.825,1.998,7.241,1.165,4.274,2.49,8.504,3.758,12.75.419,1.403.875,2.796,1.297,4.198.261.866.033,1.427-.626,1.642-.57.186-1.049-.121-1.413-.931-.119-.266-.23-.546-.281-.831-.511-2.82-1.754-5.432-2.312-8.251-.213-1.076-.696-2.135-.936-3.239-.045-.204-.1-.472-.324-.493-.312-.03-.331.308-.446.51-.783,1.375-.93,2.944-1.283,4.439-.306,1.298-.668,2.593-.805,3.932-.033.32-.188.646-.352.932-.362.632-.979.573-1.562.464-.638-.12-.535-.646-.52-1.104.033-.968.236-1.913.471-2.842.471-1.86.969-3.715,1.53-5.55.324-1.059.603-2.21,2.12-2.249.456-.012.436-.489.289-.903-.518-1.449-.861-2.948-1.253-4.435-.317-1.203-.701-2.389-1.02-3.598-.785-2.975-1.636-5.931-2.347-8.927-.356-1.502-.817-2.982-1.119-4.5-.277-1.394-.53-2.79-.412-4.228.137-1.667.769-3.087,2.071-4.15,1.201-.98,2.483-1.854,3.926-2.447.729-.3,1.108-.799,1.301-1.554.951-3.708,2.492-7.168,4.277-10.553.946-1.794,2.123-3.415,3.29-5.032.867-1.202,1.731-2.477,2.939-3.405.611-.47.655-.858.102-1.414-1.694-1.703-2.067-3.857-1.998-6.141.034-1.13.084-2.26.146-3.388.116-2.093.874-3.814,2.827-4.846,2.001-1.057,2.925-2.668,2.544-4.964-.102-.617-.097-1.252-.141-1.879-.168-2.378.551-3.794,2.675-4.715.993-.431,1.318-.997,1.247-2.003-.068-.959-.036-1.925-.039-2.888-.009-3.071,1.524-5.136,4.249-6.364,3.267-1.472,6.411-.9,9.345.877,1.867,1.131,3.861,1.995,5.755,3.059,1.641.921,3.312,1.79,4.924,2.759,2.109,1.267,3.257,3.838,2.633,6.436-.39,1.621-.244,2.952.557,4.399.641,1.156,1.221,2.376,1.64,3.66.3.919.665.938,1.503.431.851-.515,1.494-1.17,1.884-2.09.212-.5.4-1.054.755-1.44.912-.993.626-1.834.064-2.915-1.228-2.364-1.306-4.911-.541-7.443.591-1.955,1.904-2.833,3.939-2.871.988-.018,1.901.265,2.805.604.581.218.969.632,1.181,1.224.14.391.256.798.533,1.126-.061.198-.125.396-.181.595-.411,1.472-2.307,2.31-3.697,1.633-.31-.151-.599-.329-.619-.718-.023-.44.273-.689.615-.867.18-.093.407-.089.603-.156.423-.146,1.199.245,1.216-.461.015-.617-.74-.684-1.25-.837-.279-.084-.569-.159-.857-.177-1.413-.088-2.311.651-2.479,2.065-.289,2.439-.235,4.755,1.909,6.525.727.6.574,1.38-.214,1.96-.572.421-.847,1.028-1.17,1.608-.512.918-.499.954.467,1.341,2.676,1.072,5.334,2.182,8.061,3.14,3.193,1.121,6.479,1.615,9.805,2.01.774.092,1.133-.149,1.306-.928.472-2.121,1.054-4.218,1.516-6.341.204-.936.233-1.91.32-2.869.028-.309-.056-.617-.453-.602-.317.012-.387.274-.386.543.002.429-.043.83-.391,1.146-1.188,1.077-2.532,1.815-4.179,1.735-2.522-.122-2.738-1.561-2.292-3.554.21-.938,1.052-1.049,1.676-.313.216.255.378.554.592.811.694.836,1.525.97,2.446.4.496-.307.97-.605.243-1.2-.41-.335-.4-.809-.143-1.255.242-.421.647-.508,1.089-.445.288.041.567.152.856.184.532.059.86-.291.622-.754-.572-1.114-1.222-2.188-1.86-3.268-.129-.218-.364-.371-.639-.301-.323.082-.296.38-.28.618.058.874-.382,1.48-.944,2.096-.681.747-1.555.928-2.459,1.113-1.41.288-2.369-.147-2.956-1.451-.29-.643-.507-1.337-.636-2.03-.118-.631-.417-.816-1.02-.82-1.421-.009-2.849.08-4.262-.154.082-1.263.191-1.385,1.354-1.452.46-.026.921-.042,1.381-.035,1.018.016,1.826-.17,2.627-1.026,1.524-1.628,4.607-1.397,6.058.302.485.567.702.416.974-.111.077-.148.181-.282.261-.429.238-.437.974-.607.877-1.145-.098-.551-.48-1.055-.76-1.567-.16-.293-.38-.553-.544-.844-.418-.741-.976-.968-1.867-.885-1.579.147-3.15.022-4.641-.7-1.138-.551-2.21-.246-2.805.798-.786,1.378-1.931,2.416-3.491,2.904-.278.087-.566.16-.855.189-.334.034-.687.031-.88-.325-.168-.31.021-.58.172-.814.317-.495.671-1.018,1.249-1.191.67-.201,1.016-.695,1.393-1.195.277-.367.547-.742.852-1.085,1.305-1.467,2.882-1.895,4.765-1.281,1.187.387,2.34.905,3.634.918,1.534.016,1.828-.228,1.861-1.796.011-.544-.033-1.088-.041-1.632-.006-.418-.029-.841.017-1.255.087-.784.788-1.422,1.401-1.322.521.085,1.182.955.966,1.577-.463,1.338-.077,2.76-.535,4.077-.183.525-.056.979.229,1.426.45.705.879,1.424,1.327,2.131.336.53.736,1.037.812,1.68.056.479.365.708.707.968,1.86,1.416,2.414,3.762,1.392,5.836-.11.222-.262.426-.412.625-.268.359-.962.482-.875.982.155.897.394,1.784.583,2.679.07.33.444.188.556-.059.169-.377.253-.792.375-1.19.164-.532.417-1.011.899-1.32.303-.195.638-.213.945-.004.309.21.465.55.324.878-.643,1.493-.825,3.34-2.862,3.797-.425.095-.538.498-.596.882-.337,2.237-.939,4.414-1.504,6.598-.168.65-.069,1.06.583,1.43,1.343.763,2.62,1.643,3.924,2.475,1.337.852,1.658.835,2.864-.205,1.461-1.26,3-2.405,4.714-3.307.895-.471,1.675-1.088,2.288-1.921.514-.699.8-1.426.825-2.31.054-1.958.341-2.317,2.197-2.957.38-.131.552-.325.55-.714-.002-.461-.023-.925.028-1.381.132-1.178.963-1.588,2.138-1.391,1.849.31,3.689.656,5.524,1.033,1.479.304,3.093.036,4.403,1.092.332.268.514-.144.624-.393.304-.688.567-1.395.859-2.089.309-.737.673-1.444,1.244-2.019,1.12-1.129,2.651-1.217,3.794-.127.466.444.758.487,1.248.08.853-.707,1.882-.805,2.955-.732,1.716.117,3.405.417,5.091.722.589.106.881.124.752-.612-.054-.308.089-.65.142-.976,0,0-.034.028-.034.028Zm-31.555,38.85c-.045.458-.082.916-.135,1.373-.062.535.21.873.642,1.118.353.2.658.089.886-.203.173-.222.451-.545.162-.77-.578-.449-.766-1.307-1.583-1.489-.1-.076-.212-.14-.298-.229-.27-.278-.843-.405-.622-.948.182-.449.623-.658,1.083-.771.291-.071.604-.074.826.159.594.624,1.145.218,1.702-.048.15-.072.28-.186.276-.38-.006-.282-.242-.334-.433-.358-.828-.104-1.664-.155-2.489-.277-.514-.076-1.004-.003-1.49.107-.674.153-1.336,1.024-1.307,1.653.031.677.411.968,1.414,1.081.456.051.914.134,1.367-.02Zm6.076-3.601c.775-.195,1.047-.622.635-1.37-.187-.339-.205-.716-.227-1.092-.065-1.108-.067-1.1-1.184-1.288-.417-.07-.826-.056-1.244-.026-2.221.161-3.804,1.573-5.493,2.779-.098.07-.225.18-.145.301.049.074.218.124.315.102,1.588-.356,3.208.079,4.802-.202.431-.076.802-.093.997-.572.137-.336.446-.511.818-.398.343.104.567.368.6.727.027.286-.017.579-.03.869-.83-.07-1.535.092-1.954.926-.117.233-.531.387-.222.699.317.32.677.072.845-.179.383-.576,1.045-.792,1.487-1.276Zm29.523,11.974c0,.029,0,.059,0,.088-.627,0-1.255-.015-1.882.003-1.049.031-1.326.314-1.363,1.343-.007.209-.022.419-.021.628.004.972.004.955.96.822,1.661-.232,3.33-.407,5.008-.23.338.036.836.007.824.558-.011.491-.227.898-.751,1.032-.2.051-.416.054-.624.055-1.466.004-2.921.294-4.39.187-.757-.055-1.042.312-1.114,1.016-.082.794-.108,1.586-.104,2.383.003.628-.002,1.259-.07,1.882-.071.65-.538.94-1.146.916-.578-.023-.911-.377-.944-.971-.016-.292-.05-.589-.021-.878.314-3.079.197-6.177.425-9.261.087-1.179.408-2.217,1.115-3.134.709-.921,1.252-1.969,2.246-2.678.469-.334.737-.993.545-1.564-.152-.45-.74-.221-1.135-.281-.248-.038-.51,0-.75-.057-.391-.095-.919-.095-.962-.632-.051-.636.469-.822.968-.961.159-.044.333-.035.499-.052q1.241-.126,1.263-1.31c.048-2.612.186-2.748,2.776-2.735,2.252.011,2.669.439,2.583,2.645-.005.126-.013.251-.028.376-.069.569.134.842.755.858,1.128.03,2.253.144,3.381.196.509.024,1.012.064,1.46.311.34.188.625.481.517.912-.097.384-.365.67-.788.707-.332.028-.669.017-1.003-.006-1.169-.08-2.337-.207-3.507-.249-.951-.034-1.224.413-.746,1.235.356.612.849,1.141,1.247,1.73.666.986.644.975,1.667.333,2.915-1.829,5.907-1.406,8.56.529,1.07.78,1.425,2.012.958,3.129-.62,1.482-1.727,2.661-3.342,2.697-2.065.046-4.28.815-6.185-.719-.172-.139-.447-.141-.499.127-.112.575-.19,1.185.079,1.724.234.469.737.294,1.139.273,2.468-.128,4.934-.285,7.402-.398.753-.035,1.47.006,1.187-1.111-.033-.131.079-.325.171-.457.749-1.068,1.575-2.033,2.742-2.708,1.602-.927,3.278-.848,4.994-.588.658.099,1.285.345,1.979.273,2.126-.222,4.237-.501,6.275-1.193,2.342-.796,4.674-1.604,6.709-3.067.333-.24.82-.441.487-.965-.39-.614-.539-1.313-.819-1.963-.459-1.069-.867-1.171-1.764-.36-1.21,1.095-2.4,2.211-3.646,3.268-1.151.977-2.328,1.924-3.576,2.764-1.975,1.329-3.219,1.178-4.942-.425-.798-.742-1.632-1.447-2.401-2.216-.604-.605-1.186-.781-2.013-.409-.989.445-2.018.737-3.164.566-2.541-.378-4.631-1.545-6.092-3.616-1.581-2.241-3.004-4.596-4.448-6.931-.564-.912-.824-1.062-1.806-.637-.498.215-.941.557-1.493.645-.43.069-.929.122-.973-.457-.056-.744-.363-.664-.895-.464-1.581.595-2.751.042-3.419-1.505-.328-.761-.209-1.435.101-2.171.356-.844.168-1.083-.721-1.051-.885.032-1.743.201-2.51.694-.708.455-1.456.767-2.321.855-.579.059-.91-.004-.896-.643.014-.619-.346-.855-.875-.767-1.195.199-2.381.455-3.568.698-.212.043-.394.163-.389.419.005.274.157.485.377.614.236.138.366-.072.516-.218.178-.173.361-.358.577-.47.285-.148.57-.07.8.166.192.196.3.429.137.675-.605.911-.002.73.552.635.578-.099,1.006.113,1.129.712.118.571-.285.91-.731,1.017-1.253.3-2.517.639-3.816.166-.742-.27-1.219-.707-1.205-1.555.007-.42-.055-.832-.181-1.238-.168-.542-.557-.821-1.074-.946-.549-.132-.859.212-1.125.612-.232.348-.481.689-.676,1.058-.487.927-.437,1.121.478,1.691.979.609,1.488,1.419,1.339,2.614-.465,3.73-.613,7.498-1.35,11.197-.287,1.439-1.579,2.534-3.059,2.685-1.93.197-3.825.174-5.733-.264-1.912-.438-2.483-1.043-2.457-2.995.01-.796.026-1.592.034-2.388.002-.158.031-.351-.165-.421-.201-.071-.281.131-.407.225-.432.321-.689.704-.567,1.284.176.835-.429,1.222-1.014,1.542-.604.33-.733-.246-1.01-.603-.403-.519-1.051-.403-1.433.224-.172.283-.244.628-.418.91-.364.588-.893.711-1.333.206-.473-.542-1.042-.812-1.69-1.008-.523-.158-.978-.501-.929-1.047.065-.731-.241-.879-.87-1.04-1.841-.47-2.337-1.738-1.429-3.416.152-.281.476-.56.214-.897-.208-.267-.543-.124-.826-.066-.123.025-.24.084-.363.099-.465.054-1.024.123-1.166-.436-.145-.572.318-.932.804-1.112.344-.127.74-.13,1.115-.156.474-.032.875-.155,1.234-.513,1.315-1.311,2.857-2.32,4.462-3.235,1.513-.863,3.116-1.191,4.83-.723.721.197,1.406.16,2.046-.261,1.256-.827,2.729-.945,4.142-1.239.805-.167.847-.181.409-.933-1.335-2.287-2.253-4.657-1.543-7.376.046-.177-.027-.422-.121-.593-.244-.439-.128-.846.147-1.166.454-.53.381-1.177.512-1.779.052-.24.137-.53-.158-.659-.296-.129-.5.132-.591.333-.455,1.007-1.357,1.276-2.311,1.526-.9.236-.897.272-.415,1.041.137.219.272.441.218.7-.231,1.096-1.023,1.693-1.97,2.119-.81.365-1.608.402-2.368-.18-.427-.327-.6-1.031-1.193-1.04-.598-.009-.985.588-1.517.826-.115.051-.225.111-.338.167-1.721.848-2.942,2.089-3.6,3.965-1.108,3.158-2.341,6.277-4.119,9.139-.608.978-1.014,2.028-1.174,3.155-.234,1.65-1.201,2.913-2.109,4.211-.328.47-.787.415-1.228.175-.414-.224-.423-.587-.257-.975.115-.269.266-.524.36-.8.109-.323.016-.596-.35-.671-1.234-.251-2.475-.469-3.731-.164-.671.163-.774.706-.734,1.281.039.571.479.622.918.609.726-.021,1.409.144,2.086.388.631.228,1.064.579,1.224,1.286.197.87.302.878.988.292.643-.549,1.095-1.264,1.641-1.896.46-.533.955-.429,1.459-.133.46.27.689.741.371,1.17-1.019,1.374-1.946,2.843-3.419,3.815-.493.325-1.022.424-1.533.095-.547-.352-.482-.818-.131-1.292.076-.103.118-.258-.012-.324-.082-.042-.256-.012-.33.053-.643.562-1.395.917-2.19,1.198-.34.12-.845.155-.762.656.069.415.535.499.9.575.282.058.581.041.872.04.755-.003,1.536-.068,2.246.175.868.298,1.329.097,1.6-.785.147-.478.46-.964,1.105-.758.618.198.995.651.921,1.327-.082.753-.23,1.51-.838,2.047-1.413,1.247-2.837,2.481-4.265,3.712-.286.246-.618.444-.992.523-.536.113-1.021-.006-1.298-.513-.277-.506.148-.756.462-1.025.764-.654,1.533-1.301,2.296-1.956.186-.159.469-.304.405-.585-.081-.356-.436-.345-.718-.359-.837-.041-1.676-.035-2.511-.095-.777-.055-1.669-.247-1.835-1.062-.256-1.255-.906-1.726-2.106-1.675-.193.008-.393-.125-.588-.198-1.098-.415-2.373.013-2.929.99-.173.303-.233.538.073.876,1.281,1.417,1.194,2.842-.187,4.154-.911.865-1.783,1.779-2.752,2.574-1.628,1.336-3.326,2.584-5.606,2.457-.508-.028-.691.133-.515.658.244.731.153,1.407-.474,1.938-.425.36-.333.73.001,1.079.803.838.574,1.663-.006,2.495-.461.66-.993,1.245-1.706,1.64-1.134.628-2.276,1.235-3.438,1.814-1.454.725-3.06,1.16-4.353,2.201-.241.194-.703.263-.534.715.146.389.55.329.876.331,2.722.017,5.444.079,8.165-.136,1.749-.138,3.506-.288,5.257-.268,2.3.026,4.599.196,6.896.337,1.969.12,3.944.165,5.902-.014,3.431-.314,6.855-.135,10.278.01,2.459.104,4.91.404,7.368.56,2.93.186,5.867.12,8.793-.042,3.889-.215,7.767-.448,11.657.007,2.823.331,5.662.595,8.507.518,4.894-.132,9.786-.276,14.681-.17,3.847.083,7.695.169,11.539.408,3.306.205,6.609.058,9.907-.333,1.658-.197,3.343-.289,5.012-.252,3.096.069,6.179.386,9.262.687,1.373.134,1.638-.209,1.426-1.594-.367-2.394-.694-4.792-1.196-7.167-.798-3.778-2.093-7.403-3.252-11.071-.191-.603-.509-.824-1.119-.573-2.413.993-4.954,1.524-7.5,2.023-2.381.466-4.768.908-7.202.983-1.463.045-1.464.023-1.877,1.434-.371,1.266-.353,1.316,1.035,1.29,1.935-.036,3.853.117,5.741.527,1.427.31,2.892.604,4.11,1.456.604.422,1.09.474,1.726.183.49-.224,1.017-.39,1.579-.356.415.025.761.182.859.598.095.405-.239.601-.546.74-.303.137-.624.246-.948.326-.648.16-1.094.434-1.29,1.173-.328,1.235-1.279,1.924-2.459,2.3-1.558.497-3.18.716-4.771,1.071-1.345.3-2.701.547-4.073.725-2.932.381-5.858.083-8.783.005-3.201-.086-6.323-.627-9.182-2.194-.411-.225-.819-.163-1.213-.007-1.178.464-2.478.261-3.672.705-.442.165-.998.059-1.498.023-.77-.055-1.155-.481-1.09-1.231.047-.544.216-1.07.58-1.503.402-.479.924-.543,1.485-.367.51.16.598.523.431.995-.096.273.08.447.302.374,1.008-.332,2.099-.185,3.049-.962,2.333-1.908,5.1-3.014,7.996-3.773,2.398-.629,4.874-.801,7.331-.974,1.317-.093,1.137-.241,1.576-1.352.227-.575.041-.824-.612-.848-1.32-.049-2.52-.579-3.718-1.076-.593-.246-1.149-.593-1.305-1.264-.144-.621-.547-.632-1.036-.603-1.337.079-2.669.202-4.011.235-1.754.043-3.505.205-5.255.349-1.308.108-1.344.129-1.417,1.486-.052.957.047,1.922.016,2.882-.02.617-.247,1.223-.975,1.251-.743.029-.939-.518-.994-1.18-.089-1.085-.022-2.162.041-3.244.127-2.193-.134-4.404.312-6.581.063-.308.017-.581-.092-.856-.446-1.127-.879-2.247-1.656-3.22-.612-.767-1.33-1.536-1.182-2.672.035-.272-.138-.482-.446-.484-.265-.002-.375.189-.354.414.1,1.108-.626,1.78-1.313,2.445-.665.644-1.296,1.313-1.84,2.058-.231.316-.693.627-.462,1.07.198.38.684.221,1.044.22.963-.002,1.926-.046,2.889-.063.29-.005.593-.03.868.041.478.123.853.407.805.967-.05.573-.344.913-.979.893-.669-.022-1.34-.005-2.01-.005Zm50.953,18.143c3.46-.435,7.399-.513,11.287-1.194,4.415-.773,8.742-1.862,13.032-3.148,2.091-.627,3.955-1.797,6.063-2.363.7-.188,1.085-.721,1.321-1.401.425-1.228.955-2.414,1.608-3.539.333-.573.423-1.116.16-1.782-.831-2.103-1.381-4.296-1.778-6.515-1.101-6.146-2.565-12.196-4.641-18.087-1.365-3.874-2.865-7.694-5.306-11.051-1.009-1.387-2.055-2.766-3.412-3.835-1.744-1.374-3.569-2.642-5.477-3.78-.861-.514-1.767-.953-2.66-1.412-.138-.071-.329-.121-.454.053-.146.203-.081.398.081.553.087.083.218.12.32.19.882.61.988,1.23.379,2.211-.507.816-1.334,1.066-2.143.62-.591-.326-1.084-.787-1.573-1.246-.36-.337-.848-.649-.519-1.256.264-.487.591-.713,1.226-.457.626.252.38-.603.741-.787.123-.062.159-.265-.027-.408-.817-.627-2.036-.308-2.593.61-1.855,3.06-3.924,5.951-6.926,8.015-3.168,2.178-6.542,3.728-10.539,3.19-.548-.074-.965.122-1.33.533-.726.818-1.34,1.716-1.95,2.619-2.277,3.368-4.68,6.641-7.394,9.674-.277.31-.562.645-.912.85-.403.236-.968.354-1.181-.212-.344-.915-1.005-1.63-1.407-2.509-.89-1.946-2.008-3.768-3.244-5.516-.703-.994-.776-1.028-1.561-.167-.596.655-1.306,1.068-2.16,1.165-.69.078-1.167.349-1.499.964-.154.285-.416.525-.666.741-.301.26-.639.521-.307.924.352.426.565-.057.81-.217.482-.315,1.027-.487,1.182.235.489,2.277,1.631,4.295,2.457,6.436.434,1.124.778,2.307,1.562,3.268,1.489,1.825,3.22,3.4,5.062,4.855.899.711,1.185.72,2.104.004.921-.717,1.816-1.481,2.738-2.189,2.194-1.685,4.203-3.559,6.171-5.491.421-.413.507-.787.284-1.336-.46-1.134-.666-2.332-.673-3.557-.002-.331.023-.675.112-.991.128-.456.493-.696.953-.644.525.059.646.444.596.924-.034.331-.098.685-.022.997.63,2.599,1.243,5.207,2.272,7.686.41.989.697,1.035,1.408.282.372-.393.687-.843,1-1.287,2.31-3.271,3.874-6.935,5.522-10.553.163-.358.542-.736.197-1.153-.308-.373-.731-.281-1.159-.157-.777.225-1.287-.159-1.633-.822-.215-.413-.354-.849-.374-1.319-.021-.507-.42-1.191.319-1.41.768-.228.788.51.958,1.013.307.906.371.934,1.164.446.432-.266.801-.468,1.168.083.27.406.586.273.808-.042.35-.496.933-.987.519-1.668-.449-.738-1.007-.261-1.521-.006-.149.074-.309.132-.471.174-.67.174-1.261-.103-1.554-.721-.694-1.461-.103-2.987,1.402-3.618,1.295-.543,2.05-.086,2.179,1.32.065.711.295.854.862.448.613-.439,1.177-.957,1.468-1.683.143-.358.283-.704.621-.915.464-.29.944-.636,1.486-.185.577.481.442,1.033.063,1.561-.687.956-1.275,1.971-1.769,3.036-1.105,2.385-2.241,4.754-3.314,7.155-1.156,2.585-2.283,5.207-3.759,7.638-.931,1.534-1.892,3.06-3.181,4.343-2.957,2.946-6.623,4.595-10.517,5.879-1.64.541-3.298.923-5,1.163-.2.028-.464.033-.527.257-.09.32.206.412.421.531.988.548,1.989,1.073,2.958,1.653.299.179.684.453.471.902-.179.378-.579.463-.971.437-.205-.014-.404-.103-.608-.15-.482-.11-.91-.081-1.203.406-.104.173-.265.324-.43.445-.175.129-.397.15-.576,0-.146-.122-.133-.303-.057-.463.071-.15.178-.283.246-.434.061-.136.229-.295.015-.428-.158-.098-.318-.027-.457.081-.099.077-.202.15-.301.227-.373.291-.765.36-1.135.023-.416-.378-.236-.75.08-1.085.551-.583.309-1.02-.205-1.476-1.386-1.228-3.031-1.29-4.735-1.097-.481.054-.558.417-.299.723.664.786.268,1.49-.093,2.2-.227.447-.481.884-.764,1.298-.299.437-.163.69.278.862.234.092.469.18.708.258q1.098.359,1.594-.726c.332-.725.677-.884,1.383-.542.41.198.773.495,1.151.756.926.638,1.936.981,3.072.878,4.679-.423,9.289-1.186,13.716-2.829,3.053-1.133,5.944-2.597,8.064-5.122,2.423-2.885,4.525-6.019,6.387-9.305,1.384-2.442,2.821-4.851,4.545-7.075.307-.396.596-.808,1.092-1.01.524-.214.984-.183,1.355.277.388.482-.039.777-.295,1.071-1.216,1.401-2.112,3.016-3.118,4.558-.316.485-.336.812.263,1.069,1.338.575,1.978,1.742,2.499,3.008.186.452.043,1.231.511,1.296.316.044.108-.781.277-1.198.246-.608.674-.939,1.291-1.066.555-.114.834.279,1.132.632.959,1.139.787,2.41.394,3.684-.183.594-.717.89-1.28.818-.859-.109-1.681-.597-2.574-.085-.1.057-.375-.137-.54-.256-.662-.48-.825-1.084-.574-1.999.128-.467.46-.925.049-1.419-.455-.547-.862-1.138-1.349-1.654-.742-.785-1.214-.758-1.774.165-1.086,1.794-2.277,3.514-3.486,5.223-1.548,2.188-3.15,4.311-5.279,6.009-1.158.923-2.375,1.71-3.681,2.374-.653.331-.959.637-.603,1.449.484,1.105.742,2.305,1.095,3.462.986,3.231,1.899,6.486,2.568,9.805.29,1.438.338,1.428,2.239,1.348Zm-159.243,9.409c1.724.074,3.397.166,5.071.209.654.017.747-.203.385-.74-.116-.172-.259-.33-.407-.478-1.198-1.195-2.115-2.597-2.93-4.063-1.91-3.437-3.366-7.076-4.603-10.796-1.452-4.369-2.585-8.824-3.206-13.395-.089-.657-.085-1.334-.049-1.998.024-.445.284-.81.785-.831.482-.02.626.362.699.745.086.451.115.912.195,1.364,1.258,7.111,3.27,13.999,6.221,20.595,1.369,3.059,3.023,5.944,5.467,8.325,1.101,1.073,2.376,1.671,3.826,2.003,2.942.674,5.594-.567,8.286-1.358,1.229-.361,2.428-.865,3.681-1.193,1.015-.266,2.059-.319,3.082-.501,1.157-.206,1.518-.656,1.459-1.782-.064-1.236.443-2.162,1.32-2.982,1.447-1.351,3.3-1.949,5.013-2.811,1.376-.693,2.844-1.234,4.019-2.28.496-.441.718-.919.192-1.509-1.895-2.126-3.369-4.553-4.937-6.913-.213-.32-.438-.609-.803-.766-1.05-.451-4.227.177-4.83,1.111-.804,1.246-1.955,1.61-3.298,1.703-1.529.106-2.849.583-3.727,1.956-.673,1.052-1.717,1.404-2.918,1.409-.617.003-1.055-.277-1.285-.828-.846-2.023-1.668-4.059-2.276-6.166-.751-2.604-1.587-5.18-2.252-7.815-.425-1.683-.878-3.393-1.485-5.041-.199-.541-.347-1.127-.196-1.723.084-.333.219-.655.605-.724.337-.06.546.18.719.417.524.718.863,1.528,1.114,2.376,1.043,3.524,2.077,7.051,3.129,10.573.208.696.405.733.896.138.773-.936,1.495-1.912,2.314-2.813.854-.939.834-2.52.095-3.565-1.547-2.188-3.036-4.416-4.588-6.6-1.238-1.743-.606-3.231.499-4.404.629-.668,1.203-1.386,1.812-2.073.458-.516.293-.827-.238-1.196-.806-.56-1.534-.959-2.361-.053-.151.166-.446.249-.686.277-1.529.179-3.062.473-4.593.467-4.155-.016-8.283-.348-12.23-1.805-.637-.235-1.144-.147-1.606.307-1.198,1.174-2.3,2.446-3.259,3.808-1.806,2.567-3.32,5.306-4.609,8.183-1.616,3.607-2.712,7.353-3.484,11.214-.244,1.222-.25,2.505-.864,3.641-.3.556-.721,1.019-1.388.809-.668-.21-.565-.848-.483-1.386.2-1.325.44-2.643.631-3.969.11-.765-.014-.853-.677-.602-2.5.946-3.908,3.352-3.5,5.937.066.417.221.705.619.852,1.517.561,2.95,1.342,4.518,1.766,1.734.469,2.985,1.418,3.46,3.228.477,1.817.975,3.628,1.457,5.444.525,1.976,1.047,3.953,1.558,5.932.182.705.467.997,1.321.862,3.1-.488,6.224-.754,9.318-.492Zm8.322-45.518c1.298.056,2.592-.046,3.884-.185.964-.104,1.433-.648,1.692-1.574.334-1.197-.032-2.327-.12-3.484-.124-1.63-.416-3.335.602-4.75.845-1.174.871-2.281.381-3.527-.122-.31-.2-.64-.277-.966-.44-1.852-.612-3.71-.131-5.585.333-1.299,1.226-2.041,2.512-1.969,1.583.088,2.623-.683,3.317-2.005.411-.782.636-1.631.718-2.52.1-1.085.176-2.168.184-3.259.005-.645.389-1.136,1.07-1.186.72-.053,1.033.439,1.136,1.087.033.206.041.417.056.626.142,1.956-.109,3.886-.94,5.64-.915,1.93-2.395,3.315-4.667,3.555-1.271.134-1.472.345-1.499,1.663-.04,1.953.475,3.805.996,5.663.19.68.502,1.118,1.181,1.304.745.204,1.205.684,1.439,1.434.473,1.516-.215,3.963-1.427,4.952-.263.215-.545.361-.887.437-1.291.287-1.287.298-1.236,1.625.011.293.017.588-.008.879-.042.48.16.801.577,1.014,1.304.667,2.599,1.354,3.972,1.876.316.12.683.315.951.083.355-.306.111-.729-.078-1.023-1.257-1.965-.366-3.88.12-5.794.179-.704.774-1.074,1.425-1.314.47-.173.972-.266,1.43-.464,1.011-.436,1.21-1.2.563-2.079-.349-.473-.688-.945-.909-1.498-.215-.538-.335-1.037.17-1.491.536-.482.978-.26,1.429.14.354.314.823.49,1.006-.084.302-.948.982-1.273,1.849-1.447.394-.079.69-.23.503-.774-.774-2.26-1.579-4.506-2.783-6.581-.455-.784-.636-.804-1.354-.257-.332.254-.637.548-.989.77-.534.336-1.07.262-1.459-.229-.427-.539-.012-.939.349-1.291.207-.201.478-.336.722-.498,2.835-1.887,2.331-6.811-.278-8.148-2.125-1.088-4.058-2.524-6.234-3.514-1.417-.645-2.737-1.427-4.035-2.282-2.275-1.498-4.742-1.845-7.29-.799-1.224.502-2.19,1.356-2.64,2.695-.411,1.222-.534,2.451-.265,3.708.134.625.154,1.246.089,1.874-.161,1.55-.786,2.712-2.466,3.066-.856.181-1.332.813-1.605,1.616-.251.74-.218,1.482-.04,2.228.216.901.328,1.829.265,2.741-.143,2.065-1.315,3.475-3.09,4.42-1.212.646-2.136,1.533-2.256,2.957-.172,2.044-.253,4.096-.016,6.143.184,1.588.937,2.84,2.24,3.766.831.591,1.764.946,2.735,1.229,3.075.894,6.211,1.363,9.416,1.382Zm18.019-1.296c.051-.346.097-.593.123-.842.162-1.534.689-2.77,2.419-3.083.187-.034.462-.181.504-.33.258-.917.969-1.189,1.779-1.352.265-.053.424-.233.577-.445.938-1.307,2.44-1.303,3.805-1.605.243-.054.506.034.6.33.081.252.065.502-.102.714-.188.238-.471.336-.741.45-.848.358-1.691.726-2.542,1.075-.588.241-.756.592-.416,1.17.382.649.691,1.343,1.097,1.975.487.757,1.761.942,2.438.407,1.634-1.288,2.166-1.339,3.9-.313.315.187.572.326.894.035,1.518-1.37,1.633-2.833-.287-3.765-.335-.163-.708-.251-1.067-.362-.36-.111-.739-.173-1.083-.319-.661-.28-.726-.804-.164-1.239.303-.234.635-.387,1.048-.237.865.313,1.749.575,2.604.912.64.252,1.196.681,1.394,1.363.258.883.964.994,1.585.787.87-.29,1.216.074,1.56.743.766,1.489,1.568,2.958,2.351,4.439.173.328.26.734.802.536,1.116-.409,2.316-.335,3.463-.576.971-.204,1.03-.268.881-1.236-.203-1.322-.452-2.641-.578-3.97-.092-.964-.118-1.86-1.391-1.958-.18-.014-.375-.187-.511-.335-.378-.41-.319-1.161.088-1.464.408-.304,1.109-.203,1.379.269.179.312.332.571.719.602.797.064.983.623,1.109,1.292.262,1.396.423,2.808.632,4.209.281,1.88.75,1.384,1.757.684.103-.071.195-.158.291-.24,1.692-1.456,3.086-3.186,4.476-4.916.564-.702.511-.829-.313-1.331-1.287-.783-2.577-1.562-3.859-2.354-.361-.223-.712-.442-1.159-.412-.972.065-1.914-.162-2.868-.283-3.239-.413-6.441-.962-9.545-2.04-2.608-.906-5.208-1.821-7.743-2.918-.621-.269-1.266-.495-1.934-.169-.79.385-1.589.76-2.337,1.217-.493.301-.919.694-.791,1.424.278,1.591.058,1.891-1.595,2.035-.754.066-1.046.367-1.01,1.095.027.55.014,1.13-.489,1.486-.485.343-.549.772-.503,1.311.079.927-.369,1.602-1.13,2.095-.529.343-1.08.641-1.667.871-1.487.584-1.504.594-.803,2.011.229.464.198.872-.227,1.08-.952.465-.666,1.086-.333,1.76.166.337.325.682.45,1.036.444,1.262-.192,2.446-1.469,2.857-.792.255-1.5.055-2.165-.32-.537-.302-.881-.256-1.27.251-.713.929-1.494,1.807-2.252,2.701-.624.736-.674,1.497-.139,2.302.673,1.011,1.352,2.017,2.006,3.04,1.411,2.208,3.203,4.218,3.54,6.983.074.61.378.652.846.19.389-.385.656-.862.949-1.322,1.193-1.874,2.873-3.018,5.113-3.206.524-.044.81-.253,1.115-.647,1.211-1.562,2.092-3.327,3.15-4.982.397-.622.257-.889-.416-1.036-1.108-.242-1.786-.858-1.783-2.077.002-.617-.386-.844-.97-.92-.836-.109-1.68-.294-2.221-1.023-.923-1.244-1.191-2.743-1.574-4.109Zm121.625-13.91c1.452-.167,3.031-.376,4.525-1.189,2.87-1.561,4.807-3.992,6.506-6.655.824-1.292,1.27-2.725.855-4.298-.207-.785-.369-.853-.953-.282-.423.413-.809.863-1.418.983-.324.064-.697.143-.922-.191-.21-.313-.066-.644.076-.955.129-.284.364-.453.631-.586.348-.174.596-.439.806-.766.821-1.278.488-3.783-.657-4.836-.653-.6-1.454-.622-2.14-.009-.467.417-.861.919-1.337,1.324-.499.424-1.151.567-1.512-.07-.368-.65-.746-.55-1.336-.454-2.149.35-4.193,1.134-6.341,1.467-.905.14-1.56.51-1.681,1.534-.037.315-.253.613-.406.91-.673,1.304-1.828,1.629-3.174,1.522-1.278-.102-2.053-.861-2.472-2.013-.199-.548-.328-1.121-.476-1.686-.062-.239-.044-.53-.335-.619-.334-.103-.562.132-.748.349-.16.186-.276.42-.369.65-.457,1.124-.915,2.248-1.344,3.382-.42,1.11-.252,1.388.929,1.616.286.055.582.064.874.091.67.062,1.135.378,1.515.963,1.534,2.361,4.332,2.533,6.18.402.414-.477.865-.866,1.508-.574.596.271.85.871.741,1.47-.231,1.267-.407,2.596-1.521,3.475-.411.324-.497.65-.215,1.069.394.584.213,1.063-.153,1.603-.647.956-.49,1.388.622,1.718,1.162.344,2.344.63,3.743.655Zm-93.329,22.686c-.084-1.256.756-2.391,2.289-2.751,2.062-.485,4.074-.239,6.025.485.664.246,1.062.264,1.399-.452.335-.714.809-1.363,1.202-2.051,1.313-2.299,2.076-4.837,3.137-7.246.215-.488.546-.923.223-1.522-.177-.328.058-.66.378-.833.855-.461,1.552-1.135,2.331-1.698,1.332-.963,2.872-1.541,4.267-2.387.561-.34.992-.757.71-1.409-.333-.771-.055-1.277.473-1.772.143-.134.409-.287.288-.497-.155-.269-.448-.12-.668-.033-.31.124-.603.289-.905.433-1.018.484-2.055.757-3.122.162-.346-.193-.613-.102-.932.066-3.19,1.68-5.965,3.859-8.205,6.704-1.218,1.547-2.476,3.061-3.879,4.448-1.76,1.74-3.754,3.08-6.223,3.575-.9.181-1.811.338-2.724.417-1.086.094-1.755.543-2.022,1.662-.436,1.828-1.007,3.625-1.443,5.453-.191.805-.631,1.197-1.38,1.433-.763.24-1.49.056-2.237-.003-.479-.038-1.004-.188-1.324.41-.56,1.045-.869,2.172-1.145,3.311-.07.289.034.519.392.427.954-.244,2.15.172,2.765-1.028.078-.151.351-.212.542-.294,1.002-.427,2.014-.798,3.116-.912,1.181-.123,1.986.227,2.261,1.09.312.979-.055,1.771-1.094,2.38-.504.295-1.008.593-1.498.91-.14.091-.21.281-.079.426.066.072.233.104.336.079.2-.049.39-.147.58-.231,1.95-.862,3.887-1.744,5.729-2.83.454-.268.65-.538.631-1.08-.051-1.502.044-3.01-.196-4.843Zm-12.432-8.272c.029-.221.144-.533-.15-.648-.316-.123-.403.215-.574.374-.793.739-1.362.768-2.201.102-.163-.13-.296-.3-.465-.421-.82-.585-1.351-.354-1.408.643-.06,1.043-.097,2.09-.088,3.134.017,1.83-.104,3.591-1.578,4.954-.329.304-.56.733-.779,1.136-1.142,2.105-2.453,4.098-4.015,5.913-.773.899-.825,1.742-.195,2.731.675,1.058,1.266,2.169,1.898,3.254.334.574.005.957-.388,1.298-.405.352-.778.147-1.121-.137-.36-.299-.626-.676-.842-1.086-.586-1.11-1.193-2.209-1.688-3.366-.743-1.735-1.34-1.785-2.507-.228-.251.334-.457.701-.68,1.055-.581.921-1.156,1.845-1.74,2.765-.295.464-.65.875-1.137,1.151-.837.474-1.059.406-1.509-.456-.391-.748-.536-.792-1.049-.191-.816.955-1.593,1.943-2.39,2.915-.224.273-.357.561-.239.924.326.995.669,1.983,1.2,2.893.258.442.534.473.863.056,1.066-1.352,2.539-2.03,4.161-2.399,1.231-.28,2.365-.453,3.399-1.477,1.179-1.167,2.902-1.614,4.643-1.594,1.957.023,3.444-.829,4.346-2.54,1.598-3.029,3.012-6.144,4.205-9.359,1.364-3.676,1.972-7.484,2.026-11.398Zm5.531,14.126c-1.133.134-2.061.617-2.939,1.191-1.315.861-2.693,1.538-4.293,1.625-.483.026-.733.286-.946.693-.914,1.742-1.668,3.567-2.742,5.224-.259.399-.292.805.092,1.129,1.216,1.025,1.791,2.486,2.61,3.78.17.269.373.456.679.498.415.058.462-.268.527-.556.146-.646.592-.875,1.204-.863.994.02,1.77-.402,2.419-1.131.395-.443.877-.764,1.455-.951.406-.131.727-.413.985-.754.383-.507.839-.925,1.383-1.263.392-.244.867-.582.616-1.089-.224-.454-.655-.105-.99.029-.076.03-.164.033-.246.045-.507.074-.794-.184-.929-.64-.135-.457.093-.707.507-.855.471-.168.947-.331,1.401-.541.251-.116.579-.274.46-.644-.125-.39-.455-.277-.739-.207-.325.081-.644.189-.971.256-.786.161-1.276-.094-1.62-.819-.524-1.105-.248-2.049.801-2.683.465-.281.949-.53,1.418-.803.187-.109.362-.284.249-.502-.057-.109-.284-.129-.389-.172Zm38.168,1.192c.586,0,1.172-.015,1.757.004.795.026,1.263-.315,1.391-1.119.138-.865.31-1.725.452-2.59.414-2.515.141-5.101.775-7.596.07-.276.045-.585.016-.875-.062-.62-.404-.999-1.044-1.044-1.374-.096-2.752-.282-4.122-.239-1.152.036-2.33.198-3.4.721-.391.191-.742.498-.68.962.057.425.497.545.858.633.526.129,1.066.207,1.602.29,1.286.199,2.585.187,3.881.2.587.006,1.153.125,1.214.808.067.74-.568.826-1.103.924-1.496.275-2.992.26-4.482-.048-.33-.068-.657-.178-.967.035-.092.064-.212.176-.21.263.002.09.124.234.217.255.57.131,1.146.233,1.72.347,1.28.255,2.582.184,3.873.271.394.027.934.043.957.591.019.453-.378.702-.776.89-.355.168-.73.173-1.103.2-1.302.096-2.584-.05-3.867-.272-.849-.147-1.169.074-1.075.743.185,1.333.062,2.668.107,4,.028.816.397,1.199,1.143,1.403.947.258,1.91.195,2.868.24Zm-7.386-37.908c-.798-.039-1.376-.099-1.359.743.035,1.756.056,3.512.104,5.267.016.594.338.923.963.903.209-.007.421-.017.627.011.919.129,1.264.864.74,1.636-.206.304-.541.519-.768.812-.183.236-.124.577.205.526.913-.142,1.811-.163,2.728-.045.302.039.488-.294.636-.548.673-1.156,1.401-2.285,1.988-3.484.458-.935.875-1.894,1.318-2.84.458-.978.169-1.742-.742-1.862-2.241-.296-4.449-.765-6.441-1.119Zm54.846,52.149c-2.412-.185-5.277.195-8.139.568-2.471.322-4.764,1.246-7.044,2.192-.295.122-.727.246-.713.621.014.372.469.415.752.57.183.1.379.178.575.249,2.257.812,4.565,1.349,6.981,1.332,2.465-.016,4.91.363,7.392.178,3.017-.225,5.944-.91,8.901-1.44.687-.123,1.334-.471,1.996-.724.164-.063.307-.202.244-.38-.061-.173-.26-.173-.428-.158-.125.012-.253.017-.373.051-3.633,1.027-7.354,1.542-11.104,1.865-2.081.179-4.156.481-6.256.373-.36-.018-.681-.053-.707-.511-.027-.47.215-.668.669-.714,1.536-.156,3.066-.397,4.605-.484,2.383-.135,4.738-.476,7.101-.773.197-.025.488-.01.441-.295-.041-.252-.31-.197-.521-.185-1.875.107-3.743.308-5.623.353-2.724.066-5.397.6-8.085.996-.445.066-.986.222-1.137-.418-.145-.615.273-.917.797-1.077.237-.072.489-.109.737-.134,1.414-.139,2.811-.405,4.217-.597,3.285-.449,6.589-.418,9.882-.629.439-.028.903.017,1.135.395.783,1.277,1.86.745,2.896.543.133-.026.24-.074.257-.215.016-.136-.052-.237-.188-.279-.597-.185-1.186-.408-1.794-.548-2.295-.529-4.642-.58-7.469-.726Zm-18.031-28.473c.851-.265,1.237.264,1.548.813.583,1.029,1.365,1.899,2.099,2.81.215.267.417.488.794.543,1.532.222,3.9-1.218,4.399-2.684.208-.61.153-1.078-.553-1.27-1.13-.307-1.702-1.09-2.014-2.18-.307-1.071-.358-1.079-1.526-.856-1.107.211-2.159.041-3.199-.333-.413-.148-.641-.353-.773-.847-.279-1.042-.73-2.039-1.115-3.052-.121-.317-.261-.665-.669-.642-.462.026-.609.431-.675.793-.081.448-.094.916-.079,1.373.041,1.279.194,1.437,1.444,1.637.778.124.872.292.549,1.092-.265.658-.604,1.29-.832,1.96-.234.69-.031.905.601.845Zm54.31,52.851c2.481-.279,4.805-.514,7.122-.809,1.697-.216,3.385-.501,5.074-.776.444-.072.938-.122,1.125-.654.429-1.22.869-2.438,1.272-3.667.145-.441-.151-.633-.545-.592-.238.025-.465.174-.694.275-3.283,1.448-6.562,2.906-9.849,4.344-1.108.485-2.236.923-3.357,1.378-.16.065-.324.138-.335.324-.015.259.209.182.187.177Zm-21.02-65.348c2.851-.118,5.397-1.176,7.719-2.7,2.971-1.95,5.051-4.724,6.653-7.866.356-.697.159-.985-.646-.959-.434.014-.837.099-1.019.575-.503,1.318-1.474,2.331-2.311,3.416-2.595,3.363-5.815,5.752-10.193,6.211-.384.04-.751.116-1.023.409-.341.368-.317.674.203.828.197.058.411.059.617.086Zm-21.925,22.331c.534.043.904,0,1.253-.16.472-.215.621-.545.308-.994-1.084-1.553-1.709-3.318-2.357-5.073-.165-.446-.37-.649-.762-.164-1.014,1.257-2.305,1.986-3.938,2.162-.863.093-.971.39-.434,1.031,1.585,1.893,3.487,3.221,5.93,3.198Zm-35.354-33.571c.385,0,.678.008.97-.002.277-.01.501-.145.554-.42.061-.313-.171-.435-.434-.504-.121-.032-.24-.073-.361-.107-.356-.101-.802-.122-.605-.702.152-.45.42-.721.934-.612.286.061.567.144.855.193.171.029.326-.031.406-.212.062-.139-.018-.238-.091-.336-.686-.918-1.889-.887-2.478.075-.195.319-.374.658-.497,1.01-.56,1.604-1.468,2.996-2.535,4.3-.291.355-.558.735-.794,1.128-1.101,1.828-.721,2.683,1.358,3.127.623.133,1.111.065,1.524-.523.527-.75,1.134-1.45,1.754-2.129.503-.551.661-1.2.5-1.86-.181-.742-.882-.44-1.386-.482-.398-.034-.766-.114-.924-.518-.162-.415-.091-.819.185-1.184.32-.423.761-.227,1.068-.244Zm-58.99,25.873c.961-.097,1.844-.32,2.676-.731.4-.198.701-.457.64-.96-.064-.533-.434-.62-.888-.679-.576-.075-1.158-.18-1.708-.36-1.405-.462-2.595-1.206-2.907-2.791-.179-.906-.961-1.105-1.682-.409-.446.431-.625.983-.45,1.605.248.881.496,1.763.767,2.638.228.735.734,1.219,1.486,1.375.693.144,1.4.215,2.066.313Zm144.386,36.699c1.639.192,2.938-.457,3.652-2.075.232-.526.325-1.119.439-1.69.162-.81.054-.922-.705-.757-.692.15-1.379.327-2.066.504-1.101.283-1.119.314-1.014,1.45.103,1.112-.178,1.607-1,1.647-.996.048-.988-.748-1.021-1.393-.039-.754-.404-.919-1.054-.793-.327.063-.666.074-.985.161-.88.24-.974.493-.408,1.201,1.039,1.298,2.39,1.915,4.162,1.746Zm-148.414,8.153c0-.418-.01-.836.002-1.253.023-.769-.346-1.043-1.093-.956-1.623.189-3.216.526-4.8.914-.528.13-1.043.312-1.507.61-.201.129-.528.203-.477.492.05.286.377.275.619.324,1.845.377,3.658.877,5.461,1.414,1.994.593,2.051.551,1.794-1.543ZM122.487,35.612c2.232.005,3.536-.624,4.511-1.901.137-.18.331-.435.149-.679-.138-.186-.376-.086-.582-.058-2.149.297-4.232-.049-6.291-.645-.63-.182-1.195-.401-1.264-1.181-.019-.214-.11-.425-.395-.314-.348.136-.747,1.18-.563,1.524,1.081,2.017,2.622,3.331,4.434,3.255Zm.125-8.23c-1.183,0-2.015.085-2.756.536-.349.213-.84.433-.703.918.128.456.638.259.98.262.922.01,1.845-.007,2.735.279.332.107.621.288.526.722-.08.37-.372.416-.677.414-.376-.002-.753-.027-1.129-.034-.163-.003-.38-.006-.426.159-.053.193.148.282.311.31.823.139,1.647.279,2.475.388.325.043.742.124.399-.486-.246-.437.005-.809.405-1.046.409-.242.832-.147,1.179.109.403.296.416.724.107,1.091-.396.471-.14.554.286.565.302.008.564.107.828.25.446.241.629.026.593-.42-.068-.834-.124-1.671-.247-2.497-.07-.473-.335-.861-.879-.935-1.45-.197-2.881-.525-4.008-.586ZM20.333,103.252c0,.209-.007.418.001.626.044,1.092.292,2.144.671,3.164.117.315.34.615.714.629.417.017.524-.362.649-.663.271-.654.52-1.318.775-1.978.361-.934.716-1.87,1.079-2.802.204-.523.037-.808-.526-.834-.5-.023-1.003-.056-1.502-.035-1.927.082-1.897-.391-1.861,1.893Zm89.845-60.121c1.263-.106,2.44-.501,3.604-.991.592-.249.764-.576.603-1.153-.101-.362-.197-.726-.287-1.091-.088-.358-.245-.61-.678-.572-1.074.093-2.064-.206-3.024-.66-.342-.161-.731-.295-1.019.092-.264.355-.166.742.092,1.042.735.853.709,1.707.155,2.645-.342.579.021.735.552.688Zm-41.962,11.552c-.032,1.019.214,1.231,1.107.91.545-.196,1.049-.51,1.569-.777.286-.147.492-.359.33-.701-.752-1.584-1.412-3.219-2.485-4.632-.402-.529-.712-.27-.965.129-.322.508-.152,1.047-.039,1.58.25,1.174.81,2.308.484,3.49Zm76.592,17.113c1.421.032,2.33-.657,2.356-1.687.022-.884-1.149-2.203-2.015-2.032-.709.14-1.284.007-1.91-.187-.366-.113-.741-.071-1.114.014-1.39.317-1.816,1.578-.885,2.653.334.385.747.656,1.236.822.799.272,1.638.286,2.333.416ZM7.852,88.886c.736.028.932-.224.721-.928-.229-.763-.681-1.357-1.479-1.566-.773-.202-1.487-.545-2.231-.814-.547-.198-1.113-.355-1.682-.477-.472-.101-.768.125-.614.622.269.869.502,1.765,1.67,1.91.83.103,1.591.495,2.341.86.42.205.86.313,1.274.393Zm60.971-26.814c.417.033.767-.175.912-.622.478-1.466.938-2.939,1.391-4.413.088-.288.011-.49-.368-.41-2.223.472-2.812,1.095-3.14,3.338-.036.248-.068.496-.099.745-.121.953.265,1.376,1.304,1.362Zm93.86-40.087c.056.763.275,1.474.794,2.046.539.595,1.45.505,1.745-.225.323-.801.569-1.658.531-2.539-.029-.688-.673-1.289-1.369-1.417-.779-.143-1.143.334-1.42.931-.175.377-.303.774-.282,1.204Zm53.12,81.875c-.105-1.374-.187-2.542-.29-3.708-.022-.248-.12-.512-.43-.525-.257-.011-.323.221-.396.417-.598,1.606-1.195,3.212-1.793,4.817-.132.355.005.541.353.65,1.592.496,2.587-.225,2.555-1.651ZM83.108,60.448c-.59-.022-1.168.045-1.742.183-.669.162-.68.67-.613,1.183.07.532.513.517.874.427,1.653-.412,3.224-.088,4.796.426.619.202.929-.098.967-.741.035-.604-.381-.828-.826-.943-1.132-.292-2.276-.541-3.456-.535Zm-6.298-37.442c0-1.507-.979-2.414-2.455-2.269-.289.028-.704.072-.642.423.185,1.043-.01,2.171.656,3.114.229.325.509.509.919.549,1.15.112,1.523-.32,1.522-1.816Zm-34.191,22.326c0-.125.006-.25-.001-.375-.029-.51-.261-.903-.765-1.024-.502-.12-.756.263-.952.641-.268.517-.536,1.037-.754,1.577-.222.55-.193,1.082.396,1.412.554.31,1.178.076,1.576-.575.31-.507.493-1.057.499-1.657Zm91.669,3.308c-.917.021-1.253.322-1.031.926.307.833,1.654,1.637,2.515,1.507.24-.036.355-.159.371-.401.063-.965-.927-2.052-1.855-2.031Zm.357-3.284c-.36.011-.906-.026-1.437.139-.316.098-.5.281-.493.628.007.376.16.709.536.74.789.066,1.592.12,2.376.044.559-.054.843-.611.844-1.1.001-.488-.53-.417-.89-.447-.25-.02-.502-.004-.936-.004Zm-35.027-9.087c.008,0,.016,0,.025,0,0-.497.008-.993-.004-1.489-.005-.207-.05-.442-.314-.446-.148-.002-.319.077-.44.17-.206.158-.296.407-.306.658-.031.83-.137,1.629-.486,2.407-.212.472.057.779.598.817.758.054,1.033-.206,1.002-1.001-.014-.372-.049-.743-.074-1.115Zm-19.544,33.159c.806-.026,1.567-.241,2.312-.524.246-.093.47-.245.439-.537-.039-.372-.339-.431-.65-.433-.99-.006-1.85.465-2.76.753-.212.067-.416.207-.359.436.054.217.308.254.518.276.165.017.332.02.499.029Zm2.55-46.767c-.003-.755-.208-1.316-.851-1.628-.274-.133-.574-.18-.827.015-.265.204-.249.506-.155.799.141.44.346.848.65,1.197.214.246.422.577.818.396.354-.163.342-.535.365-.779Zm-23.647,34.97c-.384.085-.79.18-1.199.264-.332.068-.716.114-.72.545-.006.623.515.821.979.993.338.125.768.264.987-.197.177-.372.3-.775.398-1.177.075-.307-.09-.473-.445-.43Zm97.662-36.833c.022.279.006.493.062.688.087.304.12.73.547.71.343-.016.391-.392.428-.666.093-.695.152-1.395.221-2.093.026-.266-.028-.526-.313-.597-.348-.087-.554.159-.631.449-.137.518-.221,1.049-.314,1.509Zm-23.688,40.181c.053.486-.15,1.136.745,1.113.791-.021.82-.563.83-1.124.015-.8-.234-1.084-.866-1.07-.758.017-.693.561-.709,1.081Zm4.371-8.163c-.045-.057-.098-.168-.134-.162-.65.097-1.308.169-1.941.335-.251.066-.261.405-.171.654.106.296.347.317.61.235.564-.177,1.038-.515,1.505-.861.06-.045.088-.133.131-.201Zm30.105-20.755c.05-.17-.084-.267-.187-.234-.591.187-1.23.286-1.689.757-.117.12-.124.304-.032.469.112.201.284.295.51.302.446.013,1.368-.839,1.398-1.293Zm-34.153,21.312c.077-.018.183-.01.226-.059.257-.291.223-.644.05-.928-.21-.346-.498-.661-.964-.664-.06,0-.143.087-.177.153-.191.371.433,1.444.864,1.497Zm18.773,20.116c.034-.351-.273-.568-.511-.595-.788-.091-.751.839-1.266,1.122-.126.069-.087.215.022.301.312.248,1.715-.403,1.756-.828Zm-48.781-31.415c-.257-.319-.303-.9-.88-1-.267-.046-.473.132-.5.418-.035.365.692,1.123,1.019,1.069.22-.036.36-.174.362-.486Zm.67,20.108c-.02-.21-.042-.422-.282-.504-.253-.087-.383.092-.501.262-.094.136-.195.279-.241.434-.082.277-.563.573-.12.832.299.175.612-.147.865-.361.203-.171.293-.398.279-.663Zm-1.196-16.962c.3-.051.611-.162.563-.502-.038-.276-.364-.27-.604-.267-.236.003-.549-.007-.548.312,0,.333.271.463.589.457Zm78.778-1.632c.284-.268.488-.627.503-1.049.007-.211-.188-.398-.428-.289-.453.204-.493.623-.45,1.053.018.178.125.293.375.286Zm-80.43,21.922c-.056-.342-.333-.33-.571-.322-.37.011-.679.176-.623.593.039.291.245.565.605.449.324-.105.573-.329.589-.72Zm.3-2.456c-.015-.178-.059-.343-.275-.33-.397.025-.735.177-.842.594-.042.163.083.343.279.321.375-.041.745-.127.838-.585Zm-40.017,17.153c.023-.293-.166-.505-.468-.596-.171-.051-.325.041-.329.258-.007.332.161.569.461.665.172.055.308-.073.336-.327Zm136.201-17.607c-.054-.209-.159-.389-.394-.385-.25.005-.342.184-.313.414.021.168.106.31.299.322.244.016.362-.131.409-.352Zm-50.104-12.735c.03-.229-.174-.22-.31-.228-.201-.013-.422.02-.498.248-.061.182.041.304.234.331.274.038.474-.057.574-.351Zm-42.589-8.944c-.016-.136-.095-.216-.227-.196-.068.01-.158.066-.185.125-.064.137.021.222.154.238.121.014.222-.035.258-.167Zm15.584,11.475c-.039-.131-.13-.201-.261-.214-.165-.016-.221.088-.204.227.017.134.114.212.25.214.145.001.224-.075.214-.226Zm-58.111,29.892c-.15-.023-.226.064-.221.193.003.061.076.146.138.173.116.051.239.016.269-.12.03-.133-.071-.204-.186-.246Zm81.427-32.395c.081-.068.072-.121-.03-.15-.033-.01-.072-.008-.106,0-.093.02-.126.088-.057.145.039.033.128.006.194.007Zm1.678-.117c-.066-.155-.198-.131-.315-.128-.112.003-.257.034-.238.165.008.053.194.102.302.111.107.009.219-.034.251-.148Zm-86.194,28.015c.058.209.164.254.276.22.047-.014.091-.121.093-.187.003-.119-.046-.231-.197-.201-.126.025-.18.118-.171.167Z" fill="#233ae5" stroke-width="0"/>
      <path d="m128.468,24.779c-.247-.027-.493-.067-.741-.08-1.552-.076-2.129-.713-2.002-2.299.035-.433-.097-.642-.502-.687-.333-.037-.668-.054-1.003-.062-.462-.012-.69.167-.621.684.066.495.101,1.006.059,1.502-.072.852-.39,1.143-1.226,1.011-.589-.093-1.078-.036-1.519.346-.432.375-.955.499-1.354.116-.445-.427-.161-.994.159-1.365.77-.894,1.396-1.858,1.93-2.913.41-.811.433-1.468-.11-2.205-.666-.903-.801-1.848.087-2.715.309-.302.302-.672.336-1.043.305-3.339,1.946-5.999,4.525-7.966,2.51-1.915,5.421-2.479,8.55-1.571,1.544.448,2.983,1.04,4.293,1.999,2.507,1.836,4.007,4.353,4.949,7.227.56,1.709,1.052,3.437,1.79,5.083.667,1.488.78,3,.057,4.497-.409.847-.2,1.498.401,2.158.618.68,1.156,1.433,1.733,2.151.615.766.998,1.649,1.243,2.586.401,1.535-.264,2.493-1.799,2.235-1.414-.237-1.925.972-2.912,1.376-.262.108.027.441.178.619.653.769,1.392,1.44,2.212,2.038,1.412,1.029,1.49,1.36.643,2.917-.599,1.1-.516,2.266-.473,3.433.026.714.064,1.428-.12,2.121-.141.529-.465.894-1.079.849-.634-.046-.918-.518-.894-1.028.088-1.908-.092-3.866.718-5.673.221-.492.082-.744-.235-1.086-1.136-1.23-2.458-2.283-3.448-3.65-1.325-1.83-2.216-3.833-2.425-6.105-.023-.249-.036-.507.002-.752.085-.552.381-.925.977-.97.677-.051.891.422.926.948.074,1.096.298,2.156.639,3.193.449,1.366,1.461,1.613,2.426.539.519-.577,1.019-.903,1.841-.778.76.115.861-.112.528-.861-.189-.426-.463-.795-.765-1.145-.302-.349-.591-.71-.916-1.036-1.401-1.402-1.845-3.017-1.257-4.945.327-1.072.215-2.161-.302-3.179-.841-1.653-1.188-3.475-1.772-5.215-.662-1.973-1.579-3.77-3.104-5.226-1.865-1.781-4.132-2.719-6.647-2.941-1.917-.17-3.661.61-5.077,1.841-1.9,1.652-3.277,3.678-3.468,6.31-.015.208-.029.42-.013.627.038.521.429.678.853.775.472.108.522-.263.653-.574.551-1.307,1.922-2.044,3.347-1.793.551.097,1.106.247,1.049.995-.041.543-.636,1.025-1.258.961-.331-.034-.643-.171-.972.008-.286.156-.726.224-.726.596,0,.391.45.249.697.355,1.039.447,2.073.916,3.249.747.905-.13,1.8-.35,2.728-.207.15.023.351-.006.409-.193.063-.202-.109-.315-.254-.375-.464-.19-.94-.348-1.408-.53-.274-.106-.585-.222-.627-.55-.051-.394.278-.586.555-.765.937-.609,2.729.138,2.963,1.229.025.117.053.287-.007.359-.779.931-.044.949.608,1.038.994.135,1.987.279,2.979.428.247.037.511.065.728.174.409.205.896.445.769,1.004-.12.527-.604.669-1.096.635-.542-.037-1.092-.075-1.616-.207-.577-.145-.967-.053-1.219.523-.22.503-.569.927-.962,1.31-1.528,1.486-3.906,1.285-5.162-.435-.025-.034-.048-.068-.073-.103-.911-1.294-1.045-1.29-1.876.047-.743,1.195-.767,1.235.347,2.088.843.646.119,1.071-.127,1.577l.034-.028Zm-2.614-4.793c.228-.016.44-.007.64-.05.488-.105.878-.371.849-.909-.028-.514-.531-.477-.868-.502-.829-.062-1.641-.193-2.446-.392-.225-.056-.512-.203-.654.106-.118.256.078.476.224.669.569.753,1.371,1.023,2.255,1.077Zm7.176-.625c0-.014,0-.028,0-.041-.37,0-.742-.017-1.111.005-.368.022-.524.208-.345.576.455.937,1.95,1.224,2.64.498.222-.234.533-.506.357-.852-.145-.285-.518-.171-.799-.183-.247-.011-.495-.002-.742-.002Z" fill="#233ae5" stroke-width="0"/>
      <path d="m177.74,8.158c.04.666-.658,1.216-1.285,1.037-.44-.126-.855-.337-1.284-.502-1.279-.49-2.549-.348-3.81.077-.152.051-.37.12-.352.292.018.172.243.205.406.235.985.18,1.997.175,2.963.512,1.088.381,2.09.863,2.788,1.825.314.433.46.883.179,1.401-.353.651-.864.768-1.245.16-1.057-1.688-2.76-1.901-4.478-2.05-1.081-.094-2.175-.052-3.263-.051-.601,0-1.265.013-1.532-.601-.311-.715.12-1.352.662-1.752,2.146-1.581,4.471-2.637,7.245-2.168.788.133,1.578.249,2.263.692.351.227.677.498.744.892Z" fill="#233ae5" stroke-width="0"/>
      <path d="m103.907,109.081c-.282.021-.457.217-.638.382-.864.787-1.847,1.438-2.625,2.324-.365.416-.806.736-1.385.778-.418.031-.873.073-1.101-.381-.222-.441-.012-.818.319-1.114.715-.641,1.42-1.295,2.173-1.888.757-.596,1.483-1.216,2.137-1.925.312-.338.704-.584,1.124-.785.595-.284,1.109-.266,1.567.281.402.479.872.905,1.089,1.512.366,1.024.872,1.984,1.317,2.972.415.922.197,1.472-.622,1.85-.801.369-1.325.122-1.744-.849-.381-.88-.734-1.773-1.117-2.652-.096-.22-.21-.46-.494-.505Z" fill="#233ae5" stroke-width="0"/>
      <path d="m173.974,116.483c-.655.002-1.091-.244-1.357-.799-.758-1.58-1.492-3.173-2.384-4.684-.258-.437-.401-.843.097-1.204.482-.351.99-.466,1.487-.053.188.156.315.387.464.587.476.64.847,1.341,1.196,2.055.587,1.202.615,1.207,1.464.241.698-.794,1.503-1.453,2.449-1.925.296-.148.616-.291.938-.332.452-.057.821.169,1.002.596.167.395-.12.653-.4.821-1.555.93-2.61,2.317-3.579,3.797-.332.508-.793.857-1.377.9Z" fill="#233ae5" stroke-width="0"/>
      <path d="m157.24,118.181c-.939.011-1.257-.501-.839-1.398.597-1.281,1.635-2.242,2.653-3.131,2.487-2.171,5.494-3.434,8.589-4.492.493-.168.937-.139,1.182.363.258.529-.224.736-.544.97-.512.375-1.131.524-1.71.759-2.41.981-4.712,2.134-6.533,4.072-.548.584-1.026,1.205-1.426,1.895-.305.527-.715.927-1.372.961Z" fill="#233ae5" stroke-width="0"/>
      <path d="m41.99,123.976c-.094,1.745-.182,3.49-.284,5.235-.042.719-.28,1.303-1.098,1.455-.798.148-1.33-.25-1.287-1.066.107-1.992.227-3.985.4-5.973.08-.919.015-1.832.057-2.748.048-1.062.424-1.729,1.028-1.776.645-.049,1.051.497,1.195,1.63.137,1.08.048,2.162-.011,3.243Z" fill="#233ae5" stroke-width="0"/>
      <path d="m66.603,106.16c.826.06,1.393.513,1.826,1.079.812,1.062,1.55,2.181,2.323,3.272.396.559.414,1.082-.132,1.553-.529.457-1.106.451-1.701-.055-.684-.58-1.067-1.39-1.544-2.125-1.134-1.746-1.407-1.785-2.828-.204-.583.649-1.163,1.216-2.102,1.164-.711-.039-1.1-.609-.653-1.083,1.288-1.365,2.669-2.648,4.371-3.509.143-.073.324-.071.441-.095Z" fill="#233ae5" stroke-width="0"/>
      <path d="m86.756,111.925c-.935-.169-1.526-.893-2.115-1.595-.293-.349-.486-.779-.75-1.155-.273-.388-.608-.769-.095-1.19.437-.358.949-.384,1.386-.031.353.285.636.661.932,1.012.7.828.758.85,1.553.073.838-.82,1.642-1.674,2.457-2.517.297-.307.6-.581,1.075-.545.404.031.735.197.959.521.261.378.086.732-.165,1.031-1.239,1.481-2.647,2.794-4.125,4.031-.292.244-.672.33-1.113.366Z" fill="#233ae5" stroke-width="0"/>
      <path d="m66.135,7.742c-.077.585.249,1.036.493,1.52.383.758.245,1.304-.369,1.575-.595.263-1.175-.008-1.486-.738-.163-.383-.244-.799-.389-1.19-.128-.342-.222-.789-.735-.677-.49.107-1.001.249-1.028.907-.012.291.041.607-.055.868-.215.588-.654,1.042-1.307.963-.708-.086-.885-.67-.867-1.315.045-1.659.822-2.7,2.405-3.229.356-.119.705-.262,1.059-.386,1.638-.572,2.309-.07,2.279,1.703Z" fill="#233ae5" stroke-width="0"/>
      <path d="m123.675,113.555c-.006.811-.457,1.295-1.234,1.421-.647.105-1.328-.271-1.395-.943-.172-1.747-1.355-2.887-2.343-4.15-.204-.261-.477-.466-.696-.717-.212-.244-.532-.49-.383-.856.18-.441.61-.514,1.044-.54.395-.024.736.115,1.06.313,1.905,1.168,2.893,3.053,3.851,4.956.089.177.076.405.095.515Z" fill="#233ae5" stroke-width="0"/>
      <path d="m138.155,113.893c.013.939-.477,1.514-1.245,1.622-.83.117-1.182-.121-1.362-1.032-.303-1.538-1.034-2.9-1.729-4.273-.305-.603-.383-1.065.235-1.508.595-.427,1.089-.287,1.561.169,1.47,1.42,2.176,3.218,2.539,5.023Z" fill="#233ae5" stroke-width="0"/>
      <path d="m153.338,116.749c-.55.042-.929-.275-1.13-.774-.626-1.55-1.187-3.127-2.145-4.52-.25-.364-.158-.722.188-.995.374-.295.768-.509,1.266-.287.435.194.758.513,1.042.882.93,1.211,1.539,2.583,1.964,4.036.269.92-.252,1.633-1.185,1.658Z" fill="#233ae5" stroke-width="0"/>
      <path d="m141.285,115.502c-.475.016-.903-.047-1.107-.485-.194-.415.106-.734.359-.999,1.835-1.927,3.828-3.615,6.493-4.306.528-.137,1.033-.29,1.255.35.215.62-.379.76-.759.959-1.408.736-2.814,1.465-3.963,2.6-.383.378-.846.652-1.076,1.194-.213.503-.688.707-1.202.686Z" fill="#233ae5" stroke-width="0"/>
      <path d="m110.505,112.699c-.406-.052-.838-.122-1.02-.565-.172-.417-.081-.837.24-1.156,1.153-1.148,2.034-2.522,3.125-3.72.437-.48.953-.663,1.558-.291.653.402.584.962.276,1.519-.793,1.431-1.985,2.555-3.017,3.801-.263.318-.712.416-1.161.412Z" fill="#233ae5" stroke-width="0"/>
      <path d="m191.894,115.519c-.072,1.26.138,2.503.211,3.753.032.556-.015,1.087-.485,1.482-.494.414-.901.346-1.227-.213-.172-.295-.242-.618-.256-.957-.077-1.839-.055-3.673.257-5.495.058-.338.124-.665.369-.91.246-.246.549-.406.904-.256.309.131.395.412.371.727-.046.623-.096,1.246-.144,1.87Z" fill="#233ae5" stroke-width="0"/>
      <path d="m56.062,108.491c-.037-.636.117-1.005.562-1.184.478-.192.925-.11,1.224.326.815,1.189,1.17,2.569,1.506,3.94.117.478-.267.87-.705,1.08-.442.212-.895.18-1.291-.146-.363-.298-.627-.672-.764-1.122-.304-1.001-.398-2.04-.531-2.894Z" fill="#233ae5" stroke-width="0"/>
      <path d="m77.116,112.044c-.544-.002-.992-.086-1.214-.579-.195-.432.093-.736.375-.966.958-.779,1.535-1.854,2.27-2.807.6-.777,1.193-.843,1.788-.297.268.246.443.554.324.888-.56,1.571-1.413,2.919-2.994,3.656-.182.085-.407.079-.55.104Z" fill="#233ae5" stroke-width="0"/>
      <path d="m127.686,113.744c-.85-.031-1.223-.587-.692-1.223,1.451-1.737,3.076-3.291,5.291-4.051.303-.104.577-.108.738.236.161.343.142.64-.201.873-.276.187-.536.397-.812.584-1.116.755-2.103,1.639-2.874,2.756-.343.497-.783.872-1.449.825Z" fill="#233ae5" stroke-width="0"/>
      <path d="m94.264,106.587c.359.08.651.321.907.593.725.767,1.187,1.699,1.644,2.639.353.728.071,1.199-.53,1.568-.603.37-1.294.408-1.683-.187-.585-.896-1.072-1.875-1.458-2.874-.243-.629.555-1.736,1.12-1.738Z" fill="#233ae5" stroke-width="0"/>
      <path d="m142.807,24.092c.035.848-.298,1.454-.998,1.797-.634.31-1.038-.025-.967-.743.004-.042.019-.082.021-.124.014-.399.453-.903.036-1.165-.503-.316-.587.424-.917.623-.433.261-.903.418-1.277.092-.384-.334-.329-.854-.032-1.265.473-.654,1.073-1.186,1.83-1.48.762-.297,1.367-.055,1.821.659.321.506.483,1.062.484,1.606Z" fill="#233ae5" stroke-width="0"/>
      <path d="m129.128,9.915c.031-.45.129-.816.394-1.098.912-.969,2.055-1.381,3.368-1.278.525.041,1.008.285,1.028.894.022.642-.487.868-1.007.872-1.007.008-1.549.471-1.68,1.452-.072.541-.3,1.01-.9,1.008-.636-.002-.918-.489-1.046-1.059-.064-.283-.114-.57-.158-.792Z" fill="#233ae5" stroke-width="0"/>
      <path d="m67.899,7.724c0-.921.733-1.63,1.529-1.586.555.031.954.353.829.866-.184.758.038,1.401.267,2.071.143.418.142.812-.107,1.2-.465.727-1.125.783-1.595.061-.531-.816-.746-1.763-.924-2.612Z" fill="#233ae5" stroke-width="0"/>
      <path d="m188.168,107.679c-.437.812.03,2.098-1.337,2.438-.368.092-1.004.375-.104.795.216.101.166.468.003.679-.185.239-.452.375-.769.299-.305-.074-.392-.309-.307-.577.197-.616-.165-.448-.504-.403-.367.049-.812.124-.98-.32-.16-.424.191-.697.479-.931.223-.181.476-.345.742-.448.706-.274,1.39-.483,1.481-1.452.047-.502.597-.49,1.024-.439.193.023.254.184.272.359Z" fill="#233ae5" stroke-width="0"/>
      <path d="m190.931,96.701c-.043.269-.221.448-.429.592-1.029.713-2.062,1.42-3.093,2.13-.391.269-.781.342-1.101-.085-.332-.442-.259-.857.171-1.206.944-.768,2.002-1.366,3.057-1.954.606-.338,1.433.041,1.396.523Z" fill="#233ae5" stroke-width="0"/>
      <path d="m71.415,8.53c.003-1.072.405-1.708,1.113-1.931.827-.261,1.46.248,1.263,1.085-.099.422-.172.799-.019,1.212.254.683-.142,1.119-.632,1.473-.549.397-1.021.286-1.343-.319-.277-.521-.398-1.095-.383-1.519Z" fill="#233ae5" stroke-width="0"/>
      <path d="m77.129,8.571c-.145.613-.279,1.35-.501,2.059-.144.458-.5.765-1.033.745-.523-.02-.671-.433-.806-.826-.441-1.29-.239-2.356.569-2.953.332-.246.703-.498,1.142-.278.453.227.616.644.629,1.254Z" fill="#233ae5" stroke-width="0"/>
      <path d="m184.572,107.559c-.287-.009-.524-.072-.746-.206-.328-.197-.425-.432-.061-.656.961-.591,1.938-1.156,2.908-1.732.246-.146.471-.13.681.074.252.244.225.488.073.789-.6,1.193-1.72,1.495-2.855,1.731Z" fill="#233ae5" stroke-width="0"/>
      <path d="m188.72,101.075c-.339-.019-.624-.106-.765-.387-.123-.245-.017-.477.174-.672.589-.6,1.301-1.02,2.034-1.412.356-.191.65-.083.878.204.235.296.241.683-.01.918-.668.627-1.469,1.059-2.31,1.349Z" fill="#233ae5" stroke-width="0"/>
      <path d="m197.184,101.051c-.144.423.223,1.201-.522,1.299-.858.113-.723-.722-.828-1.241-.097-.483-.121-.983-.153-1.477-.028-.424.163-.754.593-.81.387-.05.562.248.68.589.18.518.196,1.053.23,1.641Z" fill="#233ae5" stroke-width="0"/>
      <path d="m197.695,99.328c-.007-.301.047-.579.268-.807.248-.257.507-.32.716.015.427.686.601,1.459.661,2.253.023.308-.126.574-.473.639-.285.053-.48-.098-.605-.336-.292-.554-.545-1.123-.566-1.765Z" fill="#233ae5" stroke-width="0"/>
      <path d="m177.411,16.42c-.707.016-1.312-.333-1.232-.753.104-.542.542-.673,1.035-.691.685-.024,1.234.317,1.23.776-.003.384-.421.653-1.034.667Z" fill="#233ae5" stroke-width="0"/>
      <path d="m179.525,11.005c-.144.476-.532.69-1.025.6-.541-.098-1.087-.35-1.098-.984-.008-.473.39-.682.872-.654.604.035,1.284.568,1.252,1.038Z" fill="#233ae5" stroke-width="0"/>
      <path d="m135.231,11.037c-.039.586-.593,1.13-1.081,1.089-.494-.041-.752-.36-.771-.826-.019-.475.634-1.09,1.087-1.03.457.06.771.306.765.767Z" fill="#233ae5" stroke-width="0"/>
      <path d="m195.034,101.812c-.111.438,0,1.07-.646,1.027-.647-.044-.625-.685-.644-1.157-.018-.46.092-1.002.674-.993.771.012.398.755.615,1.124Z" fill="#233ae5" stroke-width="0"/>
      <path d="m208.043,94.681c.435.091.715.355.676.841-.033.415-.254.722-.716.631-.462-.091-.691-.448-.642-.899.036-.339.236-.613.682-.573Z" fill="#233ae5" stroke-width="0"/>
      <path d="m189.684,101.602c.06-.342.371-.446.693-.492.18-.025.295.133.278.311-.033.355-.196.634-.597.618-.201-.008-.387-.123-.374-.437Z" fill="#233ae5" stroke-width="0"/>
      <path d="m185.5,102.127c-.055.273-.276.393-.513.418-.16.016-.293-.148-.284-.321.015-.284.211-.429.477-.417.16.007.275.142.32.321Z" fill="#233ae5" stroke-width="0"/>
      <path d="m185.548,116.82c-.043.137-.148.19-.276.169-.143-.024-.206-.128-.134-.259.033-.061.123-.115.193-.125.147-.021.219.068.216.216Z" fill="#233ae5" stroke-width="0"/>
      <path d="m78.521,83.663c.56.058,1.025-.006.76-.867-.117-.381.136-.637.554-.647.335-.008.676-.035,1.004.015,2.503.382,5.074.418,7.448,1.463.175.077.416.229.574.011.144-.199-.022-.4-.157-.549-.893-.986-1.421-2.167-1.796-3.418-.371-1.237.057-2.384,1.03-2.797.475-.202.998-.38,1.15.411.058.302.175.556.544.587,2.002.167,3.956.732,5.98.727.338,0,.677-.002.978-.174,1.194-.681,2.512-.911,3.852-1.03.711-.063.95-.392.837-1.075-.138-.834-.325-.988-1.163-.857-.041.006-.083.011-.124.022-2.376.634-2.53.307-3.4-1.552-.329-.704-.751-.651-1.295-.338-.935.538-1.571,1.371-2.184,2.223-.369.512-.727,1.034-1.286,1.356-.37.214-.779.379-1.169.056-.439-.363-.381-.821-.116-1.246,1.267-2.034,2.825-3.736,5.251-4.368,1.384-.36,2.243.117,2.768,1.453q.378.963,1.434.702c1.818-.448,2.654-.084,3.431,1.602.264.572.622.918,1.194,1.18,1.293.594,1.51,1.45.749,2.616-1.118,1.714-2.067,3.548-3.574,4.988-.397.38-.574.911-.775,1.421-.657,1.67-1.813,2.46-3.593,2.329-1.208-.088-2.403-.248-3.622-.146-.961.08-1.541-.519-1.959-1.312-.115-.218-.22-.531-.482-.521-.335.014-.227.376-.299.596-.379,1.145-1.346,1.672-2.345,2.102-.566.244-.956.513-1.219,1.113-.58,1.318-1.876,1.638-3.113,1.809-2.437.336-4.887.625-7.358.55-1.76-.053-3.463-.455-5.181-.801-1.232-.248-2.447-.509-3.631-.935-.521-.188-1.003-.417-1.42-.778-1.733-1.496-1.513-3.96.522-5.026,1.965-1.03,4.037-1.822,6.244-2.179.497-.08.858-.302,1.155-.673.264-.331.538-.64.968-.762,1.125-.321,1.708.198,1.499,1.339-.237,1.294-.187,1.348,1.336,1.376Zm11.616-4.036c-.811-.011-1.049.336-.718,1.101.459,1.062,1.226,1.888,2.097,2.624.705.595,1.416,1.177,1.832,2.035.151.311.389.603.773.525,1.065-.215,2.068.033,3.089.286.631.156,1.24-.147,1.816-.375.475-.188.329-.723.445-1.106.225-.744.669-1.341,1.198-1.888.465-.482.965-.935,1.384-1.454.971-1.204.882-1.453-.571-1.806-1.014-.246-2.088-.648-3.052-.058-1.789,1.094-3.668.967-5.588.643-.906-.153-1.805-.349-2.706-.527Zm-13.138,7.956c-.877-.007-1.453-.071-2.032-.194-2.105-.448-2.227-.589-1.88-2.748.074-.459-.042-.543-.435-.402-1.496.534-3.001,1.047-4.483,1.618-.677.261-.71.541-.223,1.124.626.748,1.47,1.085,2.415,1.187.666.072,1.334.121,2.002.167,2.542.176,5.079.48,7.629.034,1.853-.324,3.714-.608,5.579-.847,1.071-.137,2.178-.044,3.156-.639.25-.152.571-.254.562-.602-.009-.362-.349-.423-.616-.532-1.822-.749-3.695-1.333-5.625-1.725-.49-.1-.991-.149-1.49-.188-.238-.019-.544-.06-.667.213-.148.329.226.373.368.548.605.746,1.437.69,2.271.698.453.005.969.035.959.71-.01.632-.477.716-.951.768-.66.073-1.316.057-1.985.19-1.595.319-3.213.547-4.555.62Zm.2-1.687c.412-.02.826-.029,1.236-.069.099-.01.224-.101.274-.19.085-.152-.067-.244-.174-.253-.904-.073-1.785-.361-2.703-.296-.227.016-.422.102-.429.346-.005.178.171.26.326.321.477.187.975.147,1.471.141Zm5.944,4.265c.565-.157,1.244-.342,1.92-.537.124-.036.224-.136.202-.275-.022-.14-.146-.177-.273-.156-.695.115-1.39.23-2.083.353-.191.034-.471.023-.459.297.015.353.325.303.693.317Zm20.079-12.692c-.328.089-.912-.106-.92.316-.009.51.599.421.971.447.311.022.757-.03.732-.447-.028-.476-.499-.253-.784-.316Z" fill="#233ae5" stroke-width="0"/>
      <path d="m112.555,72.311c2.177-.096,4.338.211,6.507.294,1.024.039,1.619.814,1.437,1.921-.34,2.065-.696,4.13-1.158,6.169-.188.829-.165,1.265.797,1.316.435.023.757.309.999.685.967,1.502,2.132,2.783,3.804,3.546.785.358,1.247,1.091,1.206,1.913-.039.782-.637,1.329-1.354,1.685-1.883.934-3.888,1.27-5.968,1.198-1.509-.052-3.012-.184-4.444-.716-1.089-.405-2.1-.899-2.221-2.269-.049-.558-.52-.61-.929-.66-1.22-.149-2.42-.304-3.187-1.456-.222-.334-.396-.095-.556.12-.239.322-.572.41-.844.103-.28-.317-.075-.752.191-.864.87-.366.71-1.066.595-1.691-.507-2.758-.59-5.576-1.199-8.319-.072-.325-.104-.665-.11-.998-.017-.992.329-1.463,1.302-1.721,1.356-.359,2.748-.224,4.127-.253.335-.007.67-.001,1.005-.001Zm10.613,15.109c-.002.164-.022.33-.004.492.027.238.023.532.356.551.305.018.58-.116.694-.411.118-.305-.138-.437-.359-.542-.182-.086-.381-.136-.572-.202-1.011-.861-2.024-1.716-2.898-2.727-.378-.437-.802-.861-1.417-.967-.375-.064-.839-.126-.957.329-.138.533.395.562.724.623.617.114,1.084.245,1.445.913.239.442-.151,1.091.455,1.297.508.172,1.058.218,1.583.344.322.077.633.198.949.299Zm-11.003-13.43c-1.046,0-2.093-.005-3.139.003-.369.003-.828-.051-.842.494-.013.489.381.574.781.623,2.118.26,4.234.539,6.377.444.334-.015.669-.018,1.003-.008.307.009.594.094.68.436.078.311-.047.582-.273.792-.46.427-1.025.518-1.632.506-1.715-.034-3.43-.049-5.142-.214-.436-.042-1.208-.31-1.257.35-.048.636.749.552,1.204.573,1.797.082,3.596.101,5.395.141.418.009.838-.025,1.241.129.241.092.487.191.514.481.026.28-.173.453-.383.603-.462.329-.986.441-1.543.438-1.633-.009-3.265-.026-4.898-.023-1.209.002-1.291.078-1.118,1.304.147,1.034.379,2.055.566,3.084.129.706.386,1.304,1.216,1.367.867.066,1.811.629,2.53-.361.239-.329.57-.563.966-.426.851.294,1.271-.227,1.606-.824.399-.712.839-1.437,1.045-2.214.523-1.977.951-3.981,1.368-5.984.254-1.221.091-1.411-1.126-1.49-1.711-.111-3.423-.243-5.14-.223Zm8.53,15.315c.434-.087,1.008-.198,1.579-.32.158-.034.351-.087.365-.273.013-.177-.131-.3-.304-.348-.563-.156-1.117-.335-1.713-.35-1.61-.038-2.157-.517-2.408-2.081-.044-.275.072-.653-.338-.698-.372-.041-.585.212-.734.557-.402.932-.468,1.945-.745,2.906-.066.229.011.447.262.471.562.053,1.159.361,1.677-.113.586-.537,1.14-.682,1.67.06.139.194.33.234.689.19Zm-5.74-2.209c.005-.241-.013-.498-.298-.427-.331.082-.598.321-.654.679-.042.27.12.54.386.539.515-.002.468-.478.565-.791Z" fill="#233ae5" stroke-width="0"/>
      <path d="m119.299,64.495c-.215-.018-.554-.018-.881-.08-.522-.099-.942-.376-1.127-.895-.196-.551.051-.968.472-1.319.818-.685,1.36-1.582,1.887-2.49.168-.289.34-.577.537-.847.318-.435.763-.513,1.23-.312.5.214.614.653.527,1.153-.104.597-.52,1.041-.782,1.562-.156.31-.605.639-.294.968.272.288.707,0,1.055-.121,1.235-.431,2.153-1.263,2.904-2.305.244-.339.465-.703.756-.998.397-.403.899-.455,1.378-.148.496.319.603.794.342,1.316-.758,1.516-2.021,2.556-3.424,3.405-1.353.819-2.902,1.024-4.582,1.111Z" fill="#233ae5" stroke-width="0"/>
      <path d="m124.244,70.078c-.902-.102-1.807.102-2.714.251-.721.119-1.425.064-2.116-.118-1.05-.275-1.416-.965-1.07-2.003.335-1.003,1.059-1.71,1.933-2.235,1.844-1.109,3.882-1.503,6.011-1.5.623,0,1.07.247,1.144.908.086.761-.44.896-1.034.931-1.464.086-2.925.198-4.312.73-.35.134-.7.28-1.026.464-.256.145-.504.367-.354.708.171.388.555.377.871.286,1.191-.342,2.412-.203,3.619-.27.33-.018.671.021.996.088.433.089.595.45.64.836.046.398-.245.601-.574.724-.642.239-1.317.201-2.015.2Z" fill="#233ae5" stroke-width="0"/>
      <path d="m106.814,83.255c-.018.636-1.344,2.212-1.956,2.341-.312.065-.579-.007-.787-.256-.21-.251-.26-.552-.088-.813.343-.52.684-1.057,1.117-1.497.319-.325.799-.465,1.279-.285.231.086.478.195.436.51Z" fill="#233ae5" stroke-width="0"/>
      <path d="m94.635,76.947c.173-.543.602-.745,1.117-.792.31-.028.619.094.607.45-.019.56-.449.767-.928.777-.3.006-.677-.011-.796-.436Z" fill="#233ae5" stroke-width="0"/>
      <path d="m81.138,80.587c-.053.468-.38.608-.779.576-.272-.022-.624-.076-.593-.469.037-.457.384-.584.788-.59.324-.004.555.116.584.483Z" fill="#233ae5" stroke-width="0"/>
      <path d="m138.971,90.924c-.254-.015-.593.03-.548-.329.052-.413.434-.452.775-.447.255.004.569.066.545.373-.038.476-.495.313-.772.403Z" fill="#233ae5" stroke-width="0"/>
      <path d="m203.213,58.797c-.2.55-.116.934.619.977.365.021.595.28.631.667.043.457-.237.693-.607.845-1.054.435-2.012-.185-1.788-1.238.13-.609-.069-.612-.579-.481-.685.176-1.405.289-1.998-.304-.305-.306-.598-.101-.914.021-1.003.388-1.914.057-2.231-.897-.357-1.074-.327-2.147.469-3.071.996-1.156,2.568-.858,3.072.584.055.157.076.325.111.489q.285,1.33,1.598,1.033c1.123-.255,1.697.22,1.617,1.375Zm-5.137-1.435c.424-.118.408-.463.396-.794-.01-.26-.089-.542-.41-.477-.391.079-.464.42-.435.775.023.276.161.455.449.496Z" fill="#233ae5" stroke-width="0"/>
      <path d="m199.43,40.589c-.057,1.033-.428,1.958-1.058,2.765-1.184,1.516-2.816,1.413-3.753-.251-.222-.394-.378-.817-.705-1.15-.25-.255-.304-.596-.252-.937.072-.474.446-.408.779-.396.39.014.419-.296.555-.557.464-.894,1.06-.983,1.715-.202.345.411.514.632.866.035.253-.429.574-.888,1.193-.655.619.232.702.769.661,1.349Z" fill="#233ae5" stroke-width="0"/>
      <path d="m193.11,67.001c-.033.916.087,1.02,1.106.795,1.13-.249,1.415-.105,1.939.983.452.939.628.972,1.185.066.479-.78,1.13-1.05,1.992-.946.524.063.858.304.829.889-.027.534-.162,1.11-.747,1.143-.681.038-1.004.386-1.401.853-.968,1.14-2.57.886-3.089-.502-.261-.698-.6-.888-1.301-.755-.698.133-1.373-.008-1.689-.749-.385-.903-.579-1.846-.08-2.774.162-.3.474-.497.845-.429.423.077.465.426.463.775-.001.167-.026.333-.053.651Z" fill="#233ae5" stroke-width="0"/>
      <path d="m208.157,50.854c-.365.907-.773,1.975-1.603,2.775-.742.715-1.488.681-2.188-.083-.678-.739-1.315-1.521-1.906-2.332-.452-.62-.267-1.213.382-1.575.701-.391.988.069,1.231.602.069.151.086.327.163.473.053.099.163.225.257.233.28.025.174-.215.183-.353.01-.165-.039-.334-.03-.499.017-.307.107-.596.446-.679.342-.084.672-.062.849.323.208.451.435.767.83.14.193-.307.419-.517.823-.304.463.244.684.597.563,1.278Z" fill="#233ae5" stroke-width="0"/>
      <path d="m201.31,62.065c.611.2,1.249.432,1.727.916.907.92,1.8,1.856,2.656,2.824.349.394.735.873.212,1.428-.436.463-1.055.418-1.628-.218-.781-.866-1.501-1.789-2.234-2.697-.27-.334-.538-.606-1.018-.627-.413-.019-1.018.147-1.011-.583.004-.446.802-1.063,1.298-1.043Z" fill="#233ae5" stroke-width="0"/>
      <path d="m199.939,66.673c-.058.488-.406.829-.961.819-.59-.011-.697-.533-.698-.983-.001-.463.144-.972.751-.904.518.058.92.36.909,1.068Z" fill="#233ae5" stroke-width="0"/>
      <path d="m23.242,48.757c.524-2.272.7-4.693,1.13-7.079.272-1.51.738-2.989.837-4.534.048-.75.151-1.503.487-2.193.243-.499.626-.801,1.21-.646.619.164.548.69.482,1.133-.307,2.062-.662,4.117-.965,6.179-.304,2.069-.566,4.144-.849,6.217-.062.456-.088.923-.208,1.364-.202.745-.923,1.298-1.445,1.123-.723-.242-.646-.885-.678-1.565Z" fill="#233ae5" stroke-width="0"/>
      <path d="m32.256,47.809c.169-1.696.203-3.662.751-5.561.104-.359.212-.723.377-1.055.279-.562.758-.774,1.356-.56.56.2.539.683.456,1.153-.174.984-.341,1.971-.549,2.948-.397,1.868-.26,3.729.03,5.59.045.288.161.57.164.856.006.538-.204.998-.749,1.176-.586.192-.975-.141-1.204-.631-.542-1.16-.643-2.404-.632-3.917Z" fill="#233ae5" stroke-width="0"/>
      <path d="m27.369,49.222c.404-2.535.888-5.113,1.724-7.612.09-.269.261-.532.457-.738.33-.347.722-.574,1.224-.284.485.281.353.679.25,1.098-.494,2.021-1.083,4.021-1.329,6.098-.049.418-.068.83-.067,1.245.001.55-.081,1.089-.283,1.595-.161.404-.458.718-.944.687-.477-.031-.765-.364-.88-.78-.109-.396-.102-.823-.154-1.309Z" fill="#233ae5" stroke-width="0"/>
      <path d="m19.108,45.818c-.028-.931.187-1.822.464-2.698.087-.275.189-.565.359-.791.345-.458.73-1.069,1.387-.799.585.24.329.897.242,1.353-.234,1.235-.348,2.476-.382,3.729-.007.248-.029.506-.105.741-.135.419-.405.745-.876.782-.499.039-.744-.315-.92-.712-.227-.513-.15-1.065-.17-1.603Z" fill="#233ae5" stroke-width="0"/>
      <path d="m37.717,19.472c-.037,1.68-.781,2.681-2.113,2.986-.527.121-.998.064-1.357-.376-.383-.47-.213-.939.042-1.394.206-.369.49-.677.845-.905.297-.19.541-.384.454-.793-.172-.814.349-1.03.992-1.087.759-.067,1.003.448,1.11,1.072.035.203.022.415.026.497Z" fill="#233ae5" stroke-width="0"/>
      <path d="m51.299,36.274c-.02.503-.195.924-.633,1.166-.423.234-.85.122-1.125-.241-.494-.65-.93-.532-1.433-.025-.306.308-.685.531-1.116.222-.46-.329-.613-.817-.436-1.335.416-1.219,1.531-1.452,2.589-1.696.734-.169,1.486.311,1.943,1.083.158.267.198.543.21.825Z" fill="#233ae5" stroke-width="0"/>
      <path d="m42.208,21.998c-.128.964-.283,1.916-1.224,2.477-.505.301-1.043.397-1.5-.053-.443-.437-.439-1.005-.145-1.506.315-.536.744-.996.853-1.648.09-.537.379-.965.99-.93.61.035.797.532.922,1.037.05.201.069.41.103.623Z" fill="#233ae5" stroke-width="0"/>
      <path d="m180.8,21.851c.025.609-.378,1.093-.929,1.098-.588.006-.789-.38-.831-.882-.052-.615.353-1.079.93-1.084.579-.005.802.341.831.868Z" fill="#233ae5" stroke-width="0"/>
      <path d="m144.266,70.961c-.558.087-.991-.151-1.394-.467-.302-.238-.613-.501-.431-.937.166-.395.556-.53.935-.481.779.102,1.553.198,2.339.25.58.038.712.666.274,1.12-.476.494-1.106.53-1.724.514Z" fill="#233ae5" stroke-width="0"/>
    </g>
  </g>
</svg>