<?xml version="1.0" encoding="UTF-8"?>
<svg id="b" data-name="Layer 2" xmlns="http://www.w3.org/2000/svg" width="111.086" height="169.309" viewBox="0 0 111.086 169.309">
  <g id="c" data-name="Layer 1">
    <g>
      <path d="m47.157,87.982c0-1.765.087-3.536-.024-5.294-.116-1.828-.097-3.652-.104-5.478-.009-2.114.157-4.22.298-6.328.075-1.117.131-2.236.192-3.354.11-1.983.121-3.972.241-5.954.054-.888.093-1.787.285-2.665.06-.274.102-.606.013-.854-.314-.875.147-1.412.678-1.906.78-.725,1.71-1.189,2.665-1.584,1.767-.73,3.602-1.197,5.463-1.557,1.178-.228,2.351-.487,3.533-.695,1.005-.176,2.016-.311,3.027-.441,1.578-.202,3.155-.405,4.737-.568,2.187-.226,4.381-.279,6.578-.247,1.866.027,3.733.014,5.6.01.596-.001.594-.014.639-.635.104-1.434.342-2.851.504-4.276.209-1.839.487-3.678.395-5.546-.033-.672.004-1.348.012-2.021.005-.428.178-.693.574-.865.896-.39,1.801-.644,2.777-.74,1.382-.136,2.763-.123,4.145-.152,1.753-.038,3.467.248,5.165.675.087.022.17.068.258.083.482.085.648-.005.821-.503.187-.539.335-1.094.517-1.635,1.411-4.219,2.89-8.409,4.695-12.459.373-.838.732-1.684.952-2.588.126-.517.415-.838.936-.886.509-.047.849.181,1.13.765.244.508.275,1,.108,1.569-.739,2.506-1.681,4.928-2.638,7.343-.945,2.387-1.773,4.822-2.635,7.243-.085.238-.145.477-.08.747.084.353.018.7-.144,1.023-.196.39-.21.464.294.698.604.28,1.23.509,1.849.754,1.655.658,3.107,1.671,4.437,2.892,2.966,2.723,4.852,6.165,5.767,10.188.27,1.189.33,2.434.212,3.705-.151,1.625-.408,3.228-.624,4.84-.199,1.486-.37,2.996-.819,4.412-.767,2.421-1.662,4.797-2.536,7.179-.629,1.714-1.594,3.225-2.633,4.682-.272.382-.549.764-.85,1.12-.348.413-.809.555-1.314.455-.714-.141-.96-.651-.7-1.395.153-.438.155-.459-.255-.611-.424-.157-.857-.287-1.288-.422-1.528-.479-3.006-1.099-4.48-1.737-.435-.188-.491-.16-.478.293.035,1.184-.056,2.373.122,3.553.038.251.018.512.018.769,0,6.804.048,13.609-.026,20.412-.026,2.434-.016,4.877-.165,7.306-.275,4.489-.093,8.977-.116,13.465-.026,5.094.015,10.189-.081,15.281-.027,1.395-.086,2.808-.246,4.21-.116,1.01-.132,2.046-.261,3.056-.15,1.175-.07,2.368-.299,3.532-.024.124-.017.255-.023.383-.104,2.336-.162,4.674-.251,7.009-.089,2.34-.097,4.678-.112,7.017-.005.848-.354,1.406-1.032,1.756-1.027.53-2.061,1.046-3.101,1.546-2.216,1.066-4.452,2.085-6.721,3.017-1.769.727-3.592,1.195-5.492,1.385-2.096.209-4.19.348-6.295.35-1.605.002-3.164-.299-4.707-.712-.813-.218-1.614-.493-2.41-.776-1.144-.407-2.35-.492-3.51-.815-1.449-.404-2.928-.658-4.397-.967-1.297-.273-2.284-1.086-3.1-2.167-.602-.797-.705-1.748-.755-2.71-.037-.704-.005-1.412-.028-2.118-.059-1.793-.14-3.586-.237-5.376-.071-1.313-.061-2.625-.13-3.936-.073-1.372-.138-2.745-.314-4.109-.09-.697-.135-1.4-.195-2.1-.181-2.101-.38-4.201-.531-6.305-.069-.957-.127-1.915-.19-2.872-.115-1.725-.323-3.436-.625-5.13-.32-1.79-.491-3.596-.661-5.404-.108-1.145-.224-2.289-.322-3.435-.079-.924-.179-1.848-.196-2.774-.035-1.891-.267-3.765-.427-5.642-.193-2.26-.41-4.517-.555-6.783-.084-1.313-.093-2.624-.129-3.936-.06-2.178-.057-4.363-.225-6.532-.174-2.245-.098-4.485-.168-6.727Zm2.726-12.174c-.136,3.362.094,6.048.186,8.738.003.096-.003.195.014.288.248,1.391.153,2.808.281,4.212.114,1.238.203,2.488.276,3.734.052.891.047,1.797.182,2.677.184,1.206.13,2.425.277,3.634.157,1.299.143,2.62.245,3.928.148,1.911.335,3.818.501,5.727.047.54.147.618.619.393,1.59-.759,3.182-1.514,4.76-2.3,1.019-.507,1.946-1.173,2.607-2.164.434-.651.824-1.34,1.189-2.039,1.219-2.331,2.58-4.549,4.302-6.505.864-.981,1.687-2.005,2.497-3.038.616-.786,1.193-1.609,1.766-2.431.261-.374.195-.524-.21-.526-.662-.004-1.339-.062-1.984.061-1.132.215-2.276.165-3.411.282-1.283.132-2.57.206-3.846.429-1.591.277-3.079.83-4.431,1.778-.428.3-.881.547-1.349.772-.403.193-.817.189-1.238.175-.282-.01-.375-.194-.297-.453.244-.807.6-1.535,1.301-2.012,1.654-1.124,3.365-2.09,5.313-2.536,2.355-.539,4.748-.711,7.136-.939.717-.069,1.445-.13,2.157-.13,2.005,0,2.507.081,3.53,2.126.265.53.276,1.025-.011,1.545-.473.858-.984,1.688-1.573,2.459-1.198,1.568-2.485,3.048-3.799,4.507-.957,1.062-1.878,2.165-2.609,3.431-.693,1.2-1.398,2.393-2.113,3.579-1.073,1.781-2.522,3.067-4.395,3.818-.982.394-1.941.857-2.902,1.309-.452.212-.469.313-.139.655,2.373,2.465,4.522,5.155,6.82,7.696.297.328.3.396.022.698-.168.184-.356.338-.57.465-.217.128-.376.114-.566-.058-1.309-1.186-2.544-2.452-3.675-3.833-1.187-1.45-2.39-2.885-3.581-4.331-.172-.209-.353-.37-.619-.245-.255.12-.478.303-.492.631-.014.32-.02.645.021.961.192,1.458.198,2.929.302,4.393.108,1.532.152,3.07.225,4.605.005.096.015.192.023.288.101,1.177.206,2.354.301,3.532.08.988.092,1.986.238,2.962.1.67.109,1.339.173,2.007.113,1.176.232,2.352.317,3.531.078,1.086.174,2.169.233,3.257.12,2.202.335,4.398.477,6.599.099,1.534.143,3.071.211,4.607.004.096.004.193.013.288.02.212.137.383.313.431.937.254,1.601.994,2.385,1.515,1.033.686,2.12,1.184,3.317,1.429.705.144,1.395.375,2.1.519.468.096.918.259,1.413.268,1.418.026,2.818-.206,4.228-.293.684-.042,1.377-.088,2.064-.165.983-.11,1.965-.257,2.951-.321,1.172-.076,2.322-.272,3.466-.539,2.464-.577,4.879-1.324,7.237-2.284,1.71-.696,3.427-1.372,5.132-2.085.21-.088.638-.104.54-.479-.077-.296-.447-.255-.719-.251-.151.002-.304-.008-.451.018-.828.145-1.662.261-2.479.457-1.849.443-3.728.655-5.609.823-1.617.144-3.242.176-4.863.255-.271.013-.547-.024-.812.023-1.458.26-2.937.15-4.403.306-1.344.143-2.693.264-4.025.475-2.043.322-4.074.74-6.088,1.234-.354.087-.723.109-1.076.019-.536-.137-.695-.629-.351-1.075.17-.22.381-.409.594-.585.77-.637,1.651-1.042,2.578-1.336,1.815-.576,3.687-.872,5.555-1.13,2.022-.279,4.059-.458,6.095-.581,2.189-.132,4.379-.262,6.569-.381,2.044-.111,4.061-.433,6.088-.672,1.321-.156,2.628-.266,3.938.059.422.105.566.029.608-.398.068-.699.148-1.4.192-2.097.066-1.054.182-2.105.259-3.157.072-.99.078-1.985.179-2.97.147-1.431.263-2.864.301-4.303.032-1.187-.034-2.381.065-3.561.192-2.276.167-4.558.053-6.824-.098-1.95-.09-3.904-.22-5.854-.123-1.847-.054-3.711.063-5.572.141-2.234.228-4.474.372-6.709.132-2.044.047-4.095.157-6.145.118-2.208.045-4.428.055-6.643,0-.193.001-.385,0-.578,0-.249-.141-.369-.345-.301-.725.242-1.194-.161-1.648-.671-.645-.724-1.186-1.535-1.74-2.332-1.145-1.648-2.191-3.377-3.619-4.782-.13-.128-.228-.297-.325-.458-.087-.145-.082-.297.02-.445.328-.475.869-.616,1.346-.324.18.11.353.25.499.408.697.755,1.394,1.51,2.07,2.286,1.023,1.175,2.028,2.367,3.043,3.55.101.118.208.234.325.333.065.055.162.11.238.101.153-.017.152-.174.152-.293.006-.899.013-1.798.003-2.696-.007-.599-.018-.603-.576-.766-.172-.05-.354-.065-.528-.11-.845-.216-1.683-.464-2.491-.806-.45-.19-.595-.432-.555-.77.049-.414.35-.69.825-.718.269-.016.541.014.812.02.662.015,1.324.04,1.986.039.522-.001.522-.017.542-.618.002-.064.001-.128,0-.193-.008-2.022-.035-4.045-.01-6.066.007-.543-.19-.827-.62-1.031-.905-.429-1.797-.891-2.704-1.315-1.234-.576-1.028-.85-1.778.647-1.361,2.718-2.362,5.601-3.456,8.443-.208.541-.142.979.136,1.441.957,1.592,1.907,3.188,2.856,4.785.547.92,1.087,1.845,1.631,2.767.071.121.094.235-.029.327-.475.355-1.188.238-1.477-.284-.322-.582-.656-1.145-1.117-1.616-.105-.107-.163-.267-.239-.405-.749-1.355-1.625-2.619-2.477-3.9-.248-.373-.322-.355-.55.079-.059.112-.116.225-.164.342-1.217,2.966-2.662,5.813-3.989,8.721-1.645,3.604-2.95,7.345-4.015,11.187-.492,1.776-.892,3.585-1.609,5.284-.468,1.109-.964,2.207-1.371,3.342-1.897,5.287-3.766,10.584-5.648,15.877-.851,2.394-1.749,4.766-2.79,7.075-.598,1.327-1.168,2.668-1.745,4.006-.866,2.006-1.628,4.058-2.349,6.128-.178.511-.391,1.009-.769,1.399-.489.505-1.071.63-1.649.353-.597-.286-.823-.797-.803-1.471.024-.78.258-1.506.485-2.232.8-2.556,1.839-5.008,2.975-7.406,2.66-5.614,4.689-11.497,6.659-17.407.069-.207.336-.475.077-.69-.22-.182-.461.053-.67.147-.497.225-.978.491-1.462.746-.35.184-.636.077-.888-.204-.408-.454-.391-.786.062-1.217.09-.085.184-.168.286-.235.792-.523,1.584-1.046,2.383-1.557.151-.097.341-.211.499-.191.636.078.844-.343.987-.873.7-2.595,1.768-5.026,2.884-7.44.569-1.232,1.132-2.473,1.475-3.809.411-1.605.925-3.174,1.466-4.733,1.118-3.215,2.419-6.342,3.916-9.378,1.174-2.382,2.331-4.773,3.46-7.18.814-1.736.779-1.747.206-3.501-.099-.301-.209-.254-.362-.094-.409.426-.818.854-1.215,1.292-1.128,1.245-2.345,2.398-3.362,3.759-.325.435-.665.891-1.256,1.011-.296.06-.538.292-.526.685.005.177-.058.308-.238.345-.432.088-.756.364-1.075.665-.203.192-.461.296-.731.357-.372.084-1.006-.22-1.237-.608-.21-.352.056-.602.191-.87.099-.196.239-.367.359-.551.26-.397.171-.665-.281-.707-.417-.039-.849-.044-1.261.027-.769.134-1.544.236-2.311.37-2.573.45-5.112,1.062-7.578,1.992-.901.34-1.845.531-2.792.713-1.042.2-2.099.1-3.136.319-.434.092-.904.048-1.35-.008-.49-.061-.897-.502-.935-.911-.034-.366.265-.708.801-.913.028-.011.059-.011.088-.02,2.522-.815,5.004-1.769,7.612-2.268,2.769-.53,5.459-1.486,8.286-1.714,1.444-.116,2.83-.078,3.985,1.02.199.189.336.191.53,0,1.175-1.148,2.357-2.287,3.537-3.429.691-.668,1.355-1.372,2.083-1.99.567-.482,1.072-1.031,1.621-1.529.529-.48.874-.425,1.265.193.183.289.289.632.453.936.127.237.172.64.488.603.224-.026.265-.389.35-.622.843-2.295,1.751-4.561,2.735-6.792.076-.173.113-.364.185-.539.08-.195-.004-.326-.153-.381-.849-.309-1.669-.735-2.559-.885-1.07-.18-1.926-1.053-2.064-2.18-.098-.795-.161-1.59-.184-2.392-.016-.535-.159-.628-.61-.561-1.844.271-3.691.503-5.554.554-.27.007-.544.002-.809.052-.719.134-1.434.126-2.148-.014-1.338-.261-2.699-.378-4.038-.21-1.624.204-3.241.148-4.863.149-.786,0-1.548-.175-2.315-.324-1.502-.293-2.977-.725-4.506-.879-1.678-.169-3.195-.837-4.551-1.912-.169-.134-.34-.265-.516-.388-.118-.083-.25-.081-.256.1-.025.704-.217,1.382-.205,2.098.035,2.01.17,4.018.02,6.034-.076,1.018-.167,2.042-.183,3.065-.023,1.508-.006,3.017-.006,3.86Zm40.505,78.558c0-.605,0-1.118,0-1.631,0-.417.013-.834,0-1.251-.013-.41-.066-.449-.42-.345-.202.06-.401.134-.598.21-1.55.599-3.103,1.19-4.648,1.803-1.829.725-3.693,1.347-5.619,1.665-2.338.386-4.684.732-7.055.855-.836.043-1.679.102-2.513.2-2.001.235-4.003.409-6.018.379-.696-.01-1.365-.107-2.025-.379-2.21-.911-4.459-1.73-6.363-3.31-.089-.074-.211-.193-.307-.115-.074.061-.097.228-.096.347.014,1.026-.011,2.056.07,3.077.149,1.881.343,3.757.294,5.649-.007.255-.015.512-.045.765-.028.239-.312.464-.129.699.144.185.387.292.6.404.378.2.784.305,1.199.39.793.163,1.59.317,2.37.535,1.968.549,3.873,1.33,5.886,1.725,1.828.359,3.643.778,5.512.795.721.007,1.437-.085,2.154-.128,1.35-.081,2.686-.244,4.026-.414,1.618-.206,3.185-.61,4.701-1.223,2.925-1.183,5.639-2.852,8.481-4.227.372-.18.529-.475.509-.918-.036-.798-.112-1.614-.06-2.391.073-1.089-.003-2.176.093-3.168Zm-22.766-92.116c.856-.103,1.691-.198,2.534-.188.511.006,1.024-.013,1.533-.056,1.135-.096,2.269-.216,3.403-.324.837-.08,1.686-.088,2.506-.257.68-.14,1.379-.068,2.047-.304.611-.216.767-.426.664-1.093-.024-.157-.047-.316-.052-.475-.049-1.667.041-3.329.213-4.985.092-.884.054-.996-.731-1.141-.264-.049-.539-.041-.81-.043-1.234-.01-2.468.004-3.701-.023-1.774-.039-3.545.03-5.31.207-1.549.155-3.095.355-4.64.557-1.516.198-3.039.365-4.541.65-2.386.453-4.777.882-7.139,1.47-.994.248-1.959.595-2.899,1.015-.191.085-.368.217-.534.352-.054.044-.089.179-.066.247.023.067.124.127.2.146.115.028.24.035.358.021.484-.059.88.139,1.24.456.255.224.517.438.767.668.739.68,1.556,1.185,2.528,1.395,1.056.228,2.103.499,3.155.745,1.405.328,2.822.602,4.253.732,1.675.152,3.365-.021,5.021.232Zm15.708-5.132c.136.92.111,1.852.175,2.777.036.513.127.568.642.447.995-.234,1.979-.517,2.942-.874.566-.21,1.129-.433,1.703-.616.797-.255,1.266-.085,1.739.581.511.719.329,1.436-.484,1.723-1.676.592-3.337,1.243-5.069,1.643-.349.08-.688.215-1.024.345-.333.129-.46.42-.376.765.155.636.037,1.261-.035,1.884-.094.81-.071.922.639,1.251.688.318,1.394.591,2.084.903.241.109.394.068.518-.176.287-.563.583-1.121.875-1.68.672-1.287,1.351-2.57,2.012-3.863.309-.604.728-.891,1.394-.755.496.101.538.12.41.68-.486,2.121-1.191,4.155-2.124,6.1-.294.612-.299.812.197,1.108.811.483,1.664.886,2.503,1.313.123.062.24-.009.27-.155.026-.123.024-.255.024-.382.006-2.823.013-5.646.011-8.469,0-.417-.045-.826.147-1.221.133-.276.074-.561-.086-.82-.53-.854-.976-1.787-1.611-2.54-.638-.757-.986-1.583-1.137-2.549-.03-.188-.067-.376-.112-.561-.698-2.872-1.555-5.7-2.068-8.623-.135-.77-.435-.994-1.147-.833-.512.116-.991.193-1.503.017-.266-.091-.45.035-.477.383-.102,1.338-.231,2.673-.328,4.011-.081,1.115-.13,2.233-.201,3.349-.012.189-.041.385-.102.561-.209.601,0,1.075.402,1.467.42.411.865.796,1.311,1.176.991.845,2.098,1.489,3.224,2.1.216.117.42.254.525.505-.224.082-.443.214-.672.237-.923.096-1.783-.182-2.611-.583-.66-.319-1.222-.813-1.837-1.213-.188-.122-.316-.478-.581-.32-.232.138-.152.46-.161.712-.002.064,0,.128,0,.192Zm20.81,5.823c.041-1.862-.097-3.72-.419-5.539-.332-1.878-.123-1.624-1.585-.977-.028.012-.058.017-.085.031-1.518.763-3.024,1.556-4.731,1.756-.352.041-.709.216-.953.507-.402.479-.777.971-1.35,1.247-.208.1-.202.416-.022.567.092.077.203.136.313.179.817.314,1.611.704,2.472.868.543.103,1.037.32,1.467.685.893.758,1.924,1.157,3.037,1.347.363.062.692.219.993.432.424.3.577.8.444,1.353-.096.4-.463.659-.985.663-.207.002-.422-.023-.622-.082-.836-.248-1.672-.497-2.498-.78-.34-.116-.665-.298-.975-.491-.384-.239-.588-.612-.644-1.094-.109-.943-.193-.966-1.069-1.241-.588-.185-1.197-.066-1.777-.266-.249-.086-.28.163-.291.358-.06,1.073-.118,2.145-.171,3.218-.095,1.893.181,3.773.169,5.662-.003.436.159.753.508.941.481.259.975.494,1.471.72.215.098.337-.02.285-.268-.284-1.368-.676-2.711-.878-4.1-.119-.819-.27-1.633-.377-2.454-.064-.493.301-.768.751-.611.419.146.48.551.558.914.1.465.143.944.208,1.418.256,1.87.688,3.689,1.344,5.449.183.492.465.772.95.912.372.107.598-.012.74-.33.179-.402.336-.821.456-1.247.297-1.049.736-2.02,1.298-2.938.492-.804.933-1.642,1.323-2.51.448-.997.747-2.019.647-3.145-.034-.381-.005-.769-.005-1.154Zm4.655-7.467c.094-.872-.108-1.688-.214-2.51-.043-.332-.066-.797-.653-.621-.256.077-.495-.222-.666-.435-.232-.291-.418-.625-.61-.95-.403-.682-.892-1.287-1.407-1.873-.191-.217-.377-.348-.705-.291-.508.088-1.028-.013-1.452-.347-.858-.677-1.643-1.464-1.939-2.584-.172-.65-.525-.947-1.042-1.195-.629-.302-1.246-.637-1.845-1.002-.242-.147-.606-.352-.447-.727.129-.304.486-.343.8-.305.117.014.23.067.347.095,2.47.612,4.426,2.08,6.031,4.126.598.762,1.184,1.534,1.781,2.297.051.065.175.146.22.123.179-.095.015-.209-.026-.292-.594-1.189-1.24-2.345-2.083-3.359-1.865-2.245-4.239-3.634-6.843-4.65-.336-.131-.516-.083-.617.259-.23.777-.682,1.419-1.08,2.097-.367.624-.887,1.034-1.494,1.343-.162.083-.334.146-.502.215-.089.037-.155.088-.152.203.003.113.068.164.156.205.495.23.998.444,1.481.7,1.482.786,2.886,1.717,4.292,2.643,1.291.85,2.443,1.882,3.413,3.116,1.029,1.308,1.861,2.744,2.197,4.459.178.909.285,1.822.376,2.745.188,1.908.397,3.798.19,5.733-.169,1.58-.547,3.066-1.133,4.512-.613,1.514-1.539,2.82-2.412,4.161-.256.393-.531.774-.805,1.153-.097.135-.38.155-.285.397.071.181.284.208.467.239.176.029.35.079.523.125.518.136.563.139.815-.311.724-1.291,1.435-2.587,1.932-4.008.721-2.063,1.224-4.221,2.296-6.135.015-.027.018-.062.03-.09.135-.302.156-.585.015-.912-.292-.676-.38-1.4-.395-2.147-.028-1.419.339-2.718.97-3.942.371-.72.645-1.449.475-2.26Zm-14.295-5.392c-.06.888-.129,1.941-.205,2.992-.009.125-.051.25-.09.37-.095.292-.117.72-.518.654-.35-.058-.398-.448-.39-.77.021-.863-.052-1.726.086-2.59.18-1.127,0-2.232-.312-3.313-.127-.44-.365-.807-.777-1.012-.954-.474-1.961-.793-2.959-1.136-.259-.089-.353.05-.283.355.416,1.801.953,3.563,1.523,5.314.452,1.388.88,2.784,1.257,4.197.068.256.215.264.402.05.623-.71,1.17-.602,1.452.29.048.151.064.315.117.463.173.476.326.557.834.464.637-.117.776-.039,1.029.58.277.678.308.707.958.628.267-.032.526-.132.793-.162.245-.028.404-.143.446-.391.088-.523.432-.685.861-.84,1.083-.391,2.128-.886,3.075-1.581.638-.468.687-.74.216-1.412-.506-.722-1.112-1.35-1.779-1.903-1.477-1.223-3.104-2.189-4.753-3.115-.211-.119-.439-.209-.666-.288-.281-.098-.495.06-.437.365.103.54.113,1.081.12,1.79Zm-6.098-10.944c-.391,0-.782.013-1.172-.004-.337-.015-.654.082-.978.143-.173.032-.267.136-.245.327.075.652.51,1.062,1.1.962.472-.08.95-.118,1.423-.197.916-.153,1.86-.183,2.75.212.608.27,1.2.582,1.801.87.709.339.832.284,1.151-.489.364-.884.259-1.092-.653-1.278-1.71-.35-3.433-.561-5.176-.544Zm-4.086,2.563c-.041.091-.107.17-.107.249,0,.34.172.583.557.634.769.102,1.537.334,2.321.116.176-.049.336-.058.524,0,.976.299,1.954.601,2.945.835.273.064.677.49.852.034.129-.337-.364-.517-.595-.747-.149-.148-.345-.275-.571-.247-1.117.137-2.201-.287-3.317-.211-.79.054-1.551-.104-2.25-.53-.102-.062-.225-.084-.358-.131Z" fill="#233ae5" stroke-width="0"/>
      <path d="m29.907,140.252c-2.884-.246-5.772-.18-8.66-.211-.997-.011-1.978.148-2.969.185-1.351.051-2.616-.256-3.862-.771-1.233-.51-2.432-1.098-3.625-1.703-1.031-.523-2.074-1.012-3.133-1.469-1.498-.646-2.027-1.518-2.024-3.236,0-.447.021-.883.143-1.327.263-.957.789-1.627,1.638-2.044,2.25-1.107,4.592-1.84,7.062-2.148,1.754-.219,3.493-.576,5.243-.845.827-.127,1.663-.198,2.502-.154.09.005.184.028.27.009,1.167-.26,1.058.077,1.017-1.17-.07-2.141-.2-4.279-.306-6.419-.009-.192-.027-.383-.037-.575-.071-1.471-.107-2.945-.219-4.413-.157-2.042-.249-4.087-.364-6.132-.115-2.04-.207-4.085-.385-6.116-.154-1.758-.04-3.523-.263-5.275-.081-.631.036-1.276.077-1.915.064-.991.035-1.989.07-2.983.063-1.761.222-3.517.162-5.283-.07-2.021-.315-4.011-.875-5.948-.062-.214-.118-.431-.199-.636-.203-.514-.584-.787-1.062-.635-.46.146-.869.079-1.321-.007-.707-.135-1.434-.081-2.153-.198-.918-.149-1.853-.174-2.781-.251-1.662-.137-3.224-.632-4.759-1.332-2.855-1.303-5.259-3.212-7.194-5.788-.938-1.249-1.458-2.691-1.72-4.273-.217-1.313-.211-2.625-.122-3.929.091-1.333.325-2.655.59-3.969.459-2.278.856-4.57,1.153-6.878.089-.694.135-1.402.171-2.1.1-1.951.343-3.882.554-5.819.156-1.429.25-2.865.407-4.294.205-1.871.468-3.735.662-5.607.25-2.416.677-4.797,1.128-7.176.184-.971.419-1.927.712-2.869.157-.505.417-.831.918-.924.924-.172,1.719-.733,2.634-.959,1.585-.392,3.179-.66,4.808-.628.478.009.958.147,1.43.114,1.255-.089,2.511-.178,3.75-.448,1.322-.288,2.648-.588,4.013-.489.269.02.559-.009.802.09.397.162.544-.025.676-.37.521-1.363,1.052-2.721,1.583-4.079.208-.532.42-1.061.636-1.589.472-1.155,1.28-1.903,2.396-2.314,1.404-.517,2.836-.496,4.278-.316.535.067,1.061.208,1.592.306.681.125,1.361.251,1.953.668.257.181.448.11.604-.153.392-.664.958-1.133,1.524-1.618.537-.46,1.017-1.001,1.5-1.529,1.262-1.378,2.543-2.729,3.977-3.913.809-.668,1.515-1.47,2.162-2.318.706-.925,1.471-1.777,2.36-2.505.357-.292.684-.624.914-1.053.288-.536.762-.578,1.264-.477.521.105.876.438.982.994.125.654.103,1.281-.488,1.721-.246.183-.462.413-.708.594-1.182.868-2.079,2.037-2.962,3.213-.816,1.086-1.777,1.999-2.801,2.847-1.498,1.241-2.948,2.534-4.079,4.184-.374.546-.799,1.046-1.469,1.207-.27.065-.234.263-.073.414.547.513.776,1.196.959,1.916.361,1.426.932,2.769,1.472,4.122.272.682.433,1.399.557,2.119.206,1.194-.111,2.292-.735,3.281-.855,1.355-1.757,2.677-2.602,4.04-.332.535-.836.908-1.125,1.471.273.53.594,1.039.81,1.594.679,1.745,1.171,3.557,1.516,5.41.524,2.817,1.078,5.627,1.707,8.42.698,3.102,1.376,6.21,2.019,9.326.501,2.425.589,4.899.397,7.361-.154,1.975-.572,3.919-1.299,5.758-.712,1.8-1.919,3.153-3.462,4.19-.716.481-1.466.886-2.254,1.199-1.939.771-3.887,1.518-5.834,2.267-1.108.427-2.259.606-3.429.727-.777.08-1.551.17-2.331.221-.543.035-.621.179-.678.798-.171,1.845-.349,3.689-.523,5.534-.009.096-.01.192-.014.288-.171,4.327-.301,8.655-.181,12.986.029,1.051.189,2.098.288,3.147.079.827.155,1.654.237,2.481.099.985.199,1.969.306,2.952.079.73.139,1.466.191,2.195.108,1.5.316,2.987.432,4.485.109,1.399.324,2.789.477,4.184.077.699.101,1.401.186,2.102.188,1.553.277,3.119.415,4.679.028.317.107.629.139.946.099.977.094.978,1.042.975.6-.002,1.19-.048,1.79-.154,1.076-.191,2.159-.014,3.226.189,2.476.471,4.792,1.43,7.002,2.683,1.255.711,2.403,1.588,3.281,2.807.441.612.801,1.271,1.069,1.994.115.31.103.562-.067.81-.247.362-.49.733-.776,1.059-1.561,1.786-3.467,2.943-5.705,3.463-1.729.402-3.474.68-5.242.831-.99.084-1.976.158-2.968.178Zm-8.879-63.92c1.337.019,2.426.098,3.501-.065,1.333-.202,2.658-.465,3.982-.728,1.474-.292,2.943-.625,4.33-1.251.996-.449,2.002-.864,3.021-1.248,1.137-.429,2.228-.966,3.19-1.756.89-.731,1.714-1.542,2.136-2.68.705-1.9.91-3.905.887-5.927-.01-.92-.188-1.84-.321-2.755-.082-.567-.224-1.124-.339-1.686-.048-.235-.162-.233-.301-.089-.108.111-.212.23-.3.359-.78,1.155-1.863,1.881-3.039,2.491-1.301.675-2.669,1.152-4.048,1.594-1.522.488-3.084.796-4.645,1.099-2.332.453-4.663.922-7.051.878-.269-.005-.54.022-.809.05-1.745.184-3.482.078-5.206-.214-2.053-.348-4.005-1.092-5.946-1.854-1.24-.487-2.444-1.067-3.477-1.993-.453-.406-.774-.885-1.008-1.449-.063-.152-.131-.307.025-.428.14-.108.284-.046.417.044.076.052.162.089.231.15.678.608,1.484.956,2.289,1.318,1.556.699,3.189,1.107,4.825,1.508,1.49.365,2.983.688,4.522.739,1.207.04,2.399-.16,3.601-.179,1.445-.023,2.875-.241,4.297-.455,1.836-.276,3.652-.708,5.472-1.093,2.097-.444,4.109-1.176,6.063-2.097,1.436-.677,2.201-1.931,2.615-3.47.155-.576.035-.804-.481-1.082-.374-.201-.774-.344-1.161-.517-1.247-.558-2.516-1.043-3.859-1.262-.888-.145-1.779-.282-2.668-.397-1.411-.184-2.781-.623-4.255-.443-1.725.21-3.477.161-5.217.226-.119.004-.241.015-.357.045-.359.092-.709.045-1.071,0-1.164-.144-2.35-.229-3.505-.186-1.404.053-2.816.062-4.225.235-1.726.213-3.463.332-5.181.626-1.098.188-2.175.469-3.176,1.008-.282.152-.446.347-.476.731-.106,1.369-.355,2.719-.62,4.062-.457,2.311-1.012,4.605-1.286,6.949-.233,1.996.136,3.873,1.362,5.507.67.893,1.48,1.591,2.345,2.231,1.395,1.033,2.977,1.648,4.545,2.299,1.653.687,3.401.788,5.128.896,1.829.115,3.657.345,5.242.255Zm18.729-25.488c-.191-1.085-.386-2.247-.602-3.405-.445-2.378-.932-4.747-1.345-7.132-.423-2.44-1.178-4.751-2.181-6.982-.145-.322-.308-.315-.568-.217-.452.17-.914.311-1.371.469-1.201.415-2.411.444-3.641.148-.612-.147-1.203-.42-1.846-.394-.489.02-.952-.105-1.414-.25-.546-.171-.538-.161-.883.265-.235.29-.467.602-.755.823-1.589,1.218-3.032,2.629-4.589,3.887-.553.447-1.144.811-1.852.939-.643.117-1.092-.094-1.382-.736-.275-.608-.159-1.049.397-1.495.096-.077.2-.142.307-.201,1.265-.7,2.326-1.696,3.426-2.642.752-.646,1.41-1.397,2.157-2.042.659-.568.682-.559.287-1.395-.259-.548-.45-1.111-.554-1.715-.077-.448-.1-.471-.532-.354-1.691.458-3.415.732-5.147.815-2.28.109-4.57.255-6.845-.137-1.338-.23-2.57-.67-3.379-1.945-.05-.079-.115-.149-.178-.217-.062-.067-.126-.141-.232-.099-.093.037-.142.106-.151.21-.026.319-.039.64-.081.957-.344,2.591-.858,5.153-1.087,7.766-.123,1.402-.141,2.808-.28,4.21-.155,1.558-.161,3.132-.233,4.699-.004.096-.005.194-.023.287-.222,1.101-.112,2.234-.294,3.341-.087.531.005,1.085-.139,1.622-.071.265.108.419.371.37.117-.022.227-.081.341-.117,1.155-.361,2.33-.567,3.532-.678.868-.08,1.739-.11,2.605-.197,1.734-.175,3.467-.334,5.212-.355,1.325-.016,2.64.101,3.959.196,1.687.12,3.359-.224,5.044-.214.688.004,1.379-.128,2.064-.091.836.044,1.665.215,2.499.305,1.401.152,2.804.278,4.184.598,1.523.353,3.054.678,4.476,1.4.108.055.22.104.336.132.26.063.401-.07.389-.43Zm-12.328,86.566c0-.026,0-.052,0-.078,1.144,0,2.292.07,3.429-.019,1.192-.093,2.376-.321,3.559-.522,1.57-.267,3.122-.625,4.629-1.173,1.139-.414,2.043-1.199,2.846-2.132.178-.207.175-.374-.013-.568-.414-.428-.887-.762-1.389-1.059-1.926-1.139-3.966-1.981-6.068-2.66-.548-.177-1.106-.307-1.678-.314-1.445-.015-2.891.007-4.335-.019-.632-.012-.721.255-.543.75.263.735.403,1.544,1.04,2.088.55.47.53,1.615-.245,2.042-.16.088-.302.218-.468.286-.615.254-1.232.504-1.857.728-.691.248-1.409.355-2.132.246-.411-.062-.808-.315-1.214-.324-.895-.019-1.247-.671-1.566-1.375-.188-.417-.076-.692.302-.98.166-.127.402-.142.498-.384.338-.855.687-1.706,1.025-2.561.083-.209-.05-.299-.214-.319-.178-.023-.36-.012-.541-.016-1.24-.032-2.444.248-3.651.49-1.354.272-2.694.646-4.057.831-2.01.273-3.941.811-5.805,1.637-.387.171-.754.397-1.123.611-.164.095-.317.255-.243.463.129.363-.043.692-.048,1.038-.004.285.049.505.349.578.116.028.222.102.338.131,1.904.488,3.69,1.335,5.513,2.069,1.564.63,3.148,1.06,4.837.852.387-.048.773-.132,1.16-.146,1.742-.061,3.486-.047,5.227-.179.809-.061,1.625-.01,2.438-.01ZM14.471,27.028c1.528-.015,2.844-.053,4.161-.184,1.138-.113,2.252-.302,3.338-.675.369-.127.72-.321,1.123-.313.254.005.407-.132.398-.403-.021-.649.139-1.267.274-1.887.062-.285.017-.424-.248-.482-.204-.044-.396-.14-.617-.094-.703.147-1.415.253-2.11.432-2.192.563-4.399.942-6.665.837-.659-.031-1.321,0-1.982.011-.968.015-1.887.304-2.809.576-.215.063-.318.176-.184.408.476.82,1.1,1.391,2.032,1.586,1.163.242,2.331.156,3.289.188Zm15.796-1.135c.033.307.071.613.388.793.504.286.92.176,1.197-.37.328-.647.572-1.356.973-1.944.74-1.084,1.326-2.203,1.343-3.584.004-.31.218-.356.445-.311.111.022.21.11.314.169.098.055.168.208.309.113.141-.095.19-.251.176-.415-.075-.843-.846-1.316-1.591-.993-.634.275-.89.923-1.264,1.45-.071.1-.061.341.003.462.264.503.023.861-.268,1.201-.324.379-.676.73-1.004,1.105-.57.652-.885,1.436-1.02,2.323Zm-2.851-3.412c.089-.177.134-.262.175-.35.279-.602.55-1.209.838-1.806.589-1.224,1.098-2.492,1.781-3.664.134-.23.458-.49.267-.724-.127-.156-.476.092-.726.165-.494.144-.7.565-.91.993-.545,1.11-.895,2.297-1.199,3.501-.125.493-.236.99-.34,1.488-.015.071.043.16.116.398Zm-.733,109.451c-.025-.096-.031-.159-.056-.212-.314-.648-.61-1.304-.779-2.015-.033-.139-.133-.229-.255-.223-.118.007-.22.104-.26.232-.056.18-.105.363-.14.549-.101.535-.296,1.024-.589,1.473-.118.182-.205.386-.305.581-.058.113-.112.241,0,.338.06.052.171.087.242.066.63-.182,1.257-.373,1.881-.577.102-.034.182-.146.261-.213Zm-3.061-52.721c-.035-.278-.268-.328-.46-.338-.26-.013-.228.23-.214.415.007.093.031.192.074.272.146.268.001.818.314.81.34-.008.106-.511.201-.777.041-.117.056-.245.085-.382Z" fill="#233ae5" stroke-width="0"/>
      <path d="m85.322,115.695c-.034.253-.049.511-.104.759-.555,2.516-1.141,5.024-1.67,7.546-.549,2.615-1.089,5.232-1.54,7.87-.235,1.379-.485,2.759-.955,4.082-.202.569-.285,1.174-.267,1.79.009.32.003.642-.005.962-.005.192-.005.389-.048.574-.237,1.011-1.003,1.335-1.82.751-.208-.149-.29-.166-.365.099-.209.74-.701.946-1.389.913-1.111-.053-2.203-.245-3.303-.385-2.604-.332-5.096-1.136-7.575-1.996-.368-.128-.751-.237-1.06-.511-.237-.21-.198-.451.098-.578.194-.083.38-.119.607-.081,1.154.196,2.313.361,3.471.527,1.246.18,2.493.356,3.741.522,1.426.19,2.853.366,4.279.548.06.008.119.024.179.023.382-.004.735.571.972.348.23-.215.119-.778.203-1.188.109-.531.215-1.059.394-1.568.434-1.238.57-2.544.725-3.838.261-2.185.532-4.366.987-6.518.703-3.327,1.425-6.649,2.216-9.954.124-.519.223-1.055.269-1.602.064-.767.362-.989,1.076-.961.266.01.466.105.567.378.176.477.356.954.316,1.486Z" fill="#233ae5" stroke-width="0"/>
      <path d="m78.851,98.845c.283-.045.546.111.802.283,1.815,1.225,3.435,2.68,4.819,4.445,1.101,1.404,2.345,2.662,3.723,3.763.935.747,1.773,1.636,2.836,2.196.258.136.23.332.053.54-.121.142-.227.299-.34.449-.251.335-.529.437-.944.287-.666-.24-1.252-.616-1.811-1.048-.851-.656-1.677-1.349-2.531-2-.945-.721-1.659-1.671-2.329-2.654-1.044-1.533-2.116-3.035-3.463-4.287-.43-.4-.871-.786-1.301-1.186-.131-.122-.326-.25-.251-.465.079-.228.296-.298.517-.312.06-.004.12-.006.219-.011Z" fill="#233ae5" stroke-width="0"/>
      <path d="m73.216,114.645c-.155-.019-.279-.017-.392-.053-.311-.098-.549-.337-.609-.65-.048-.251.172-.452.374-.613.975-.774,2.06-1.317,3.217-1.685,2.095-.665,4.184-1.353,6.316-1.881,1.079-.267,2.162-.507,3.26-.667.545-.08.585-.032.669.561.157,1.101.153,1.084-.873,1.328-2.079.495-4.094,1.222-6.112,1.935-1.706.603-3.423,1.161-5.173,1.603-.233.059-.472.085-.677.121Z" fill="#233ae5" stroke-width="0"/>
      <path d="m73.689,117.648c-.218.885-.537,1.746-.881,2.597-.761,1.881-1.628,3.708-2.493,5.535-.541,1.142-1.04,2.304-1.509,3.482-.151.379-.36.738-.579,1.08-.181.284-.357.267-.584.007-.312-.358-.411-.715-.197-1.209.275-.634.463-1.314.664-1.982.571-1.896,1.361-3.685,2.266-5.423.67-1.287,1.299-2.597,1.952-3.894.127-.252.23-.525.452-.71.214-.178.433-.176.674-.052.232.12.279.312.237.569Z" fill="#233ae5" stroke-width="0"/>
      <path d="m53.314,105.872c-.015-.354.081-.62.198-.884,1.551-3.495,3.369-6.791,6.088-9.432.666-.647,1.281-1.354,1.916-2.037.384-.414.816-.756,1.309-1.004.144-.072.308-.072.399.087.064.112.021.251-.061.355-.484.611-.954,1.238-1.46,1.828-1.095,1.276-2.167,2.571-3.185,3.92-.835,1.107-1.469,2.339-2.128,3.557-.584,1.081-1.127,2.188-1.699,3.276-.131.249-.296.482-.47.7-.138.173-.306.302-.551.174-.241-.126-.395-.291-.355-.54Z" fill="#233ae5" stroke-width="0"/>
      <path d="m79.826,121.723c-.069.261-.108.518-.203.75-.301.733-.594,1.472-.943,2.179-.652,1.321-.993,2.726-1.188,4.198-.217,1.643-.557,3.267-.781,4.91-.15,1.099-.487,2.166-.493,3.29-.002.39-.24.622-.625.682-.278.044-.413-.086-.371-.368.347-2.362.713-4.721,1.037-7.086.19-1.389.328-2.786.555-4.171.084-.511.225-1,.408-1.465.442-1.121.936-2.219,1.417-3.321.084-.193.125-.465.384-.484.304-.022.502.186.641.447.073.137.109.295.161.441Z" fill="#233ae5" stroke-width="0"/>
      <path d="m85.391,99.412c-.15-.015-.307-.004-.447-.05-2.043-.669-3.869-1.705-5.257-3.502-.852-1.102-.412-2.103.354-2.62.743-.502,1.551-.837,2.463-.551.376.118.485.285.463.694-.022.412-.137.575-.53.627-.659.088-1.302.226-1.888.575-.304.181-.319.361-.015.565,1.245.833,2.518,1.614,3.906,2.156.478.186.958.366,1.434.559.484.196.567.322.528.741-.044.479-.302.763-.741.806-.089.009-.18.001-.27.002Z" fill="#233ae5" stroke-width="0"/>
      <path d="m61.572,114.05c-.301,0-.427-.176-.334-.489.054-.181.115-.366.206-.528,1.579-2.794,3.174-5.577,4.842-8.313.198-.324.416-.533.799-.491.266.029.399.192.291.446-.16.378-.346.745-.542,1.104-1.264,2.323-2.501,4.664-3.861,6.926-.194.323-.409.631-.626.938-.191.271-.449.419-.775.408Z" fill="#233ae5" stroke-width="0"/>
      <path d="m76.606,109.21c-.241,0-.482-.01-.722.002-.363.018-.633-.164-.871-.426-.245-.269-.203-.533.13-.663.338-.132.687-.216,1.056-.208,1.388.029,2.75-.176,4.097-.522.407-.105.832-.088,1.241-.223.322-.107.658-.03.942.197.122.097.243.208.233.386-.01.183-.152.247-.288.326-.302.176-.641.161-.962.235-1.112.255-2.23.477-3.335.763-.507.131-1.011.132-1.52.135Z" fill="#233ae5" stroke-width="0"/>
      <path d="m89.82,98.315c.005,1-.782,1.556-1.617,1.196-.137-.059-.264-.152-.385-.246-.535-.411-.522-.512.095-.828.108-.055.217-.11.326-.162.3-.144.379-.378.269-.704-.307-.914-.769-1.729-1.375-2.452-.524-.625-1.132-1.142-1.81-1.566-.073-.045-.139-.127-.091-.222.02-.04.105-.051.162-.06.346-.058.657.073.945.245,1.459.877,2.486,2.187,3.253,3.747.096.195.146.419.193.636.034.154.028.318.035.416Z" fill="#233ae5" stroke-width="0"/>
      <path d="m72.568,123.893c.05-.217.073-.446.155-.648.63-1.552,1.245-3.112,2.043-4.579.06-.11.134-.212.202-.317.146-.227.236-.566.548-.54.248.021.573.949.477,1.245-.01.03-.03.055-.045.083-.744,1.315-1.324,2.718-1.959,4.092-.184.397-.431.769-.762,1.06-.15.132-.315.197-.494.094-.182-.105-.227-.283-.164-.489Z" fill="#233ae5" stroke-width="0"/>
      <path d="m53.656,77.397c.115-1.082.215-2.128.342-3.169.108-.886.093-1.779.2-2.669.098-.818.144-1.65.219-2.476.069-.759.131-1.519.201-2.278.011-.122.031-.282.193-.255.094.015.1.147.082.236-.289,1.48-.164,2.979-.173,4.471-.009,1.658-.1,3.308-.301,4.952-.054.442-.049.894-.054,1.341-.003.328-.08.633-.219.917-.031.064-.145.101-.226.112-.099.013-.177-.076-.187-.167-.037-.348-.055-.699-.078-1.015Z" fill="#233ae5" stroke-width="0"/>
      <path d="m60.205,76.499c.089-2.269.224-4.534.545-6.782.047-.328.149-.624.414-.817.059-.043.184-.04.247,0,.061.038.126.161.112.228-.08.373-.215.734-.274,1.11-.359,2.308-.542,4.633-.54,6.974,0,.287-.027.577.097.851.094.208.094.434.07.66-.011.102-.053.18-.151.208-.097.028-.183-.005-.236-.091-.185-.3-.292-.626-.286-.992.008-.449.002-.899.002-1.348Z" fill="#233ae5" stroke-width="0"/>
      <path d="m56.761,78.451c.319-1.342.306-2.724.495-4.08.127-.911.106-1.844.224-2.765.081-.63.256-1.251.209-1.9-.008-.116.051-.252.113-.355.089-.148.165-.399.392-.266.157.092.054.278.031.433-.236,1.546-.354,3.104-.416,4.669-.036.924-.116,1.849-.239,2.763-.056.413-.097.822-.107,1.237-.002.096,0,.192-.001.288-.005.306-.143.495-.438.482-.334-.015-.213-.311-.263-.508Z" fill="#233ae5" stroke-width="0"/>
      <path d="m63.089,75.532c0-.735-.003-1.471.002-2.206.002-.287,0-.578.039-.861.03-.209.064-.522.295-.526.325-.005.198.33.199.52.011,1.66.02,3.322-.127,4.976-.03.337.067.624.08.937.008.193-.106.314-.255.343-.197.038-.253-.148-.255-.306-.008-.959-.004-1.918-.004-2.877.009,0,.017,0,.026,0Z" fill="#233ae5" stroke-width="0"/>
      <path d="m66.479,133.911c.278-.017.399.136.282.399-.255.571-.483,1.16-.854,1.662-.193.262-.466.251-.575-.003-.27-.629.505-2.019,1.147-2.059Z" fill="#233ae5" stroke-width="0"/>
      <path d="m86.082,49.556c.212.014.263.148.294.319.248,1.386.767,2.676,1.261,3.973.157.413.352.809.515,1.22.06.151.06.321-.119.4-.161.071-.292.015-.368-.155-.727-1.634-1.705-3.151-2.06-4.961-.086-.441.142-.793.477-.795Z" fill="#233ae5" stroke-width="0"/>
      <path d="m86.123,64.594c.313.003.595.288.586.595-.013.488-.585,1.098-.998,1.064-.357-.029-.612-.433-.589-.934.02-.422.445-.73,1.001-.725Z" fill="#233ae5" stroke-width="0"/>
      <path d="m101.965,61.497c-.731-.142-1.41-.373-1.994-.854-.089-.073-.192-.186-.094-.326.051-.072.134-.119.207-.171.022-.016.059-.017.088-.014.802.091,1.592.25,2.358.525.142.051.272.161.27.345-.002.218-.136.363-.314.421-.168.055-.353.052-.521.074Z" fill="#233ae5" stroke-width="0"/>
      <path d="m107.352,54.842c-.221-.044-.408-.133-.533-.331-.452-.714-.908-1.426-1.35-2.146-.079-.129-.098-.299-.152-.448-.09-.249,0-.459.18-.584.165-.114.35-.022.486.122.127.135.256.273.358.429.393.605.813,1.185,1.29,1.717.082.092.167.191.216.304.085.193.278.384.129.615-.145.223-.397.262-.623.322Z" fill="#233ae5" stroke-width="0"/>
      <path d="m98.831,52.637c0,.155-.071.293-.152.431-.144.244-.34.36-.607.302-.266-.058-.463-.38-.468-.739-.004-.296.128-.488.393-.565.115-.033.237-.045.356-.047.39-.006.533.178.478.618Z" fill="#233ae5" stroke-width="0"/>
      <path d="m20.332,74.917c-1.686.022-3.359-.106-4.986-.598-.873-.264-1.678-.695-2.322-1.406-.058-.064-.14-.14-.086-.241.063-.12.177-.185.303-.154.174.042.345.106.514.171,1.224.468,2.499.646,3.785.694,1.077.04,2.159.154,3.235-.09.351-.08.688.186,1.062.14.774-.095,1.553-.139,2.327-.232,1.339-.161,2.66-.438,3.974-.756.089-.022.18-.053.196-.157.029-.187-.116-.203-.228-.206-1.021-.027-2.038-.114-3.054-.217-.336-.034-.657-.086-.948-.261-.214-.129-.39-.314-.39-.602,0-.314.218-.457.453-.524.433-.123.872-.234,1.315-.298,3.56-.518,7.105-1.123,10.584-2.101.898-.252,1.787-.547,2.667-.862.353-.126.7-.17,1.062-.154.223.01.426.086.487.342.052.219-.093.345-.244.467-.509.411-1.088.668-1.68.907-1.936.78-3.923,1.374-5.928,1.907-.347.092-.689.212-1.03.329-.272.093-.399.27-.264.583.05.115.094.237.114.361.121.752-.02.986-.748,1.284-1.206.494-2.458.842-3.724,1.058-2.13.364-4.274.659-6.442.616Z" fill="#233ae5" stroke-width="0"/>
      <path d="m8.435,72.598c-.065-.023-.235-.078-.401-.146-1.747-.723-2.813-2.146-3.404-3.964-.228-.7-.304-1.496-.073-2.257.049-.161.139-.29.299-.322.215-.043.317.106.408.289.102.205.126.421.154.644.169,1.348.829,2.363,1.858,3.141.491.371,1.004.693,1.534.992.567.32.643.655.388,1.257-.134.317-.354.408-.762.365Z" fill="#233ae5" stroke-width="0"/>
    </g>
  </g>
</svg>