<?xml version="1.0" encoding="UTF-8"?>
<svg id="b" data-name="Layer 2" xmlns="http://www.w3.org/2000/svg" width="182.762" height="123.108" viewBox="0 0 182.762 123.108">
  <g id="c" data-name="Layer 1">
    <g>
      <path d="m182.544,80.381c.407-.552.152-1.094-.038-1.629-.246-.693-.326-1.385-.065-2.091.152-.412.263-.887.105-1.26-.313-.735-.089-1.437-.021-2.143.045-.472-.041-.915-.062-1.371-.055-1.187-.352-2.377-.032-3.571.04-.148-.117-.246-.235-.328-.024.018-.047.041-.074.05-.01.003-.048-.034-.045-.043.009-.027.032-.05.05-.075.188-.556-.016-1.125.065-1.691.104-.732.14-1.475.182-2.214.016-.278.096-.626-.131-.817-.274-.231-.207-.343-.118-.666.145-.524.686-1.036.259-1.657l-.066.057.057-.066c.25-.708.186-1.442.091-2.154-.116-.861-.337-1.708-.513-2.561.235-.134.406-.313.301-.604-.263-.724-.191-1.523-.529-2.233-.253-.531-.044-1.132-.177-1.676-.174-.713-.641-1.345-.343-2.168.094-.26-.213-.656-.312-.997-.628-2.174-.842-4.478-2.036-6.475-.036-.06-.062-.133-.068-.202-.091-.993-.639-1.812-1.062-2.669-.27-.548-.481-1.08-.52-1.696-.046-.727-.303-1.388-.801-1.942-.142-.158-.356-.328-.372-.508-.061-.671-.542-1.008-1.025-1.283-.867-.493-1.311-1.256-1.54-2.167-.117-.467-.376-.74-.802-.918-.504-.211-.886-.55-1.184-1.033-.239-.386-.581-.724-1.013-.934-.226-.11-.435-.243-.585-.456-.832-1.188-2.186-1.823-3.109-2.919-.149-.177-.373-.378-.652-.221-.19.106-.241.022-.299-.133-.306-.828-1.332-1.079-1.578-1.961-.015-.055-.1-.11-.164-.13-.927-.294-1.668-.918-2.495-1.391-.024.022-.045.047-.072.064-.004.003-.046-.039-.044-.042.017-.027.041-.049.063-.073-.843-.513-1.625-1.196-2.67-1.226-.788-.023-1.553-.184-2.311-.331-.674-.131-1.258-.099-1.826.268.024.025.071.054.067.073-.015.077-.063.07-.121-.018-.242.02-.484.042-.726.058-.214.015-.285.159-.323.339-1.156.131-2.147,1.13-2.11,2.228.017.498-.127.837-.416,1.234-.544.746-.964,1.576-.478,2.542h-.001c.026.177.021.365.083.528.287.755.102,1.315-.621,1.707-.179.097-.342.27-.447.447-.369.62-.943.965-1.582,1.217-.378.149-.689.343-.916.696-.494.769-1.203,1.287-2.012,1.702-1.648.845-3.25,1.773-4.74,2.878-.393.292-.795.519-1.263.671-.539.176-1.048.412-1.472.839-.346.348-.832.521-1.283.74-1.024.498-2.179.852-2.79,1.953-.059.106-.178.078-.268.115-.883.359-1.829.626-2.62,1.132-.771.493-1.411,1.171-2.414,1.18-.125.001-.251.127-.373.201-.427.259-.828.575-1.283.769-.82.35-1.445,1.034-2.319,1.286-.505.146-.496.17-.309.789.019.063-.008.14-.014.211-.02.068-.182.012-.128.146.051-.039.101-.079.152-.118.538.737-.333,1.571.152,2.32.023.036-.1.167-.154.254-.071.104-.179.222-.016.316.047.027.161-.062.244-.098.754-.013,1.42-.226,1.908-.842-.021-.021-.062-.044-.06-.061.01-.063.049-.055.099.022.553-.126-.072-.731.322-.849.324-.097.632.326,1.011.153.162-.074.339-.12.491-.209.673-.397,1.404-.679,2.094-1.047.364-.194.647-.388.861-.72.186-.287.408-.392.795-.375.677.029,1.305-.09,1.665-.862.196-.42.652-.744,1.202-.792.36-.032.7-.134.963-.406-.12-.084-.124-.176-.02-.275.073-.07.147-.14.22-.21.048-.023.096-.046.144-.069-.023.048-.046.096-.069.143-.07.073-.14.147-.21.22-.006.052-.013.103-.019.155,1.096-.445,2.041-1.139,2.989-1.826.317-.23.614-.522,1.028-.516.555.007.931-.301,1.305-.635.85-.76,1.787-1.421,2.803-1.909,1.165-.56,2.119-1.403,3.18-2.099.298-.195.451-.552.585-.877.135-.326-.235-.485-.32-.745-.033-.1-.036-.209-.053-.314-.508-.345-.209-.851-.193-1.267.007-.179.34-.06.492.097.072.142.144.284.216.426.019.043.038.086.057.129-.043-.018-.086-.036-.129-.055-.08-.141-.159-.281-.239-.422-.19.313-.102.649-.081.979.319.024.686-.002.78.405.088.38.287.33.543.209.615-.292,1.207-.614,1.645-1.158.212-.264.488-.479.829-.36.466.162,1.111.286,1.306.635.282.505.693.538,1.094.709.752.32,1.525.596,2.08,1.258.201.24.468.48.754.582.41.146.652.438.858.76.466.726.976,1.392,1.751,1.821.294.163.372.51.538.782.534.876.9,1.833,1.586,2.642.887,1.045,1.603,2.23,2.057,3.552.162.473.467.879.805,1.251.048-.022.096-.044.143-.066-.021.048-.043.096-.064.144.002.185.047.365.184.487.417.37.663.819.761,1.372.035.198.182.385.307.556.785,1.073,1.308,2.271,1.656,3.543.117.428.288.782.598,1.104.708.738,1.227,1.594,1.165,2.659-.054.928.31,1.751.599,2.576.452,1.294,1.155,2.497,1.197,3.927.013.449.208.912.485,1.29.665.906.771,2.039,1.257,3.017.135.272.037.556-.021.838-.095.463,0,.895.138,1.355.334,1.121.58,2.268.835,3.411.044.195-.023.425-.076.63-.181.705-.171,1.494.041,2.094.427,1.208-.034,2.36.048,3.535.047.68-.17,1.394.054,2.095.09.281.051.571-.006.849-.193.942.093,1.882-.002,2.823-.012.121.102.255.158.382.024-.023.046-.049.073-.068.004-.003.047.041.045.044-.019.027-.044.05-.067.074.003.047.009.094.016.141.07.05.14.101.21.151-.13.148-.205.03-.285-.06-.266.314-.299.714-.4,1.089-.369,1.367-.428,2.826-1.075,4.104-.498.983-.965,1.913-.64,3.07.112.401-.35.484-.576.35-.638-.378-1.312-.258-1.981-.269-.019.019-.037.038-.058.054-.002.002-.033-.029-.032-.031.016-.021.035-.04.054-.059-.164-.163-.374-.183-.59-.19-.917-.029-1.835-.049-2.752-.093-.457-.022-.943-.25-1.362-.042-.708.351-1.328.206-2.029-.026-.548-.182-1.155-.353-1.772-.125-.182.067-.434.044-.623-.024-.408-.147-.767.025-1.143.099l-.073.053.052-.073c-.252-.218-.568-.343-.877-.353-.668-.023-1.425-.393-1.978-.068-.753.442-1.37-.213-2.036.003-.033.011-.074.004-.105.019-.527.251-1.056.119-1.561-.04-.593-.186-1.182-.192-1.792-.16-.633.033-1.298.107-1.896-.046-.566-.145-1.116-.17-1.68-.191-.921-.035-1.845.062-2.761-.169-.361-.091-.779-.105-1.138.119.022.048.044.097.066.146-.049-.022-.097-.043-.146-.065-1.506.375-2.592-.132-3.208-1.538-.208-.476-.493-.843-.925-1.14-.802-.552-1.564-1.211-1.902-2.124-.314-.846-.903-1.283-1.629-1.652-.026.082-.038.242-.139.183-.094-.054.019-.161.093-.222-.079-.452-.472-.622-.802-.796-.699-.367-1.346-.808-1.945-1.308-.416-.347-.894-.58-1.379-.721-.587-.171-1.177-.412-1.608-.757-.708-.568-1.452-.708-2.284-.679-.554.019-1.065-.046-1.464-.488-.146-.161-.335-.25-.569-.241-1.426.054-2.797-.468-4.23-.398-.52.025-1.076-.484-1.552.155-.093.124-.247-.037-.368-.102-.578-.309-1.203-.416-1.853-.416-.606,0-1.214.021-1.816-.024-.602-.045-1.024.178-1.319.685-.045.021-.09.042-.134.063.021-.045.041-.089.062-.134-.211-.379-.485-.572-.96-.472-.379.08-.78.06-1.171.073-.5.017-.995.064-1.472.228-1.065.368-2.137.72-3.194,1.109-.572.21-1.142.356-1.753.427-.85.099-1.672.373-2.42.804-.667.385-1.284.863-1.967,1.215-1.423.733-2.604,1.716-3.531,3.027-.283.4-.574.946-.946,1.108-.537.234-.529.66-.677,1.02-.151.365.092.766.42.867.348.107.632.009.819-.318.035-.062.067-.126.108-.185.493-.71,1.077-1.267,1.939-1.568.456-.159.975-.283,1.36-.592,1.076-.863,2.326-1.311,3.628-1.68,1.204-.341,2.216-1.158,3.453-1.433.313-.07.019-.162-.013-.244-.025-.064-.08-.139-.064-.192.037-.128.16-.138.252-.079.708.459,1.477.402,2.271.341.709-.054,1.435-.059,2.138.035.578.077,1.139-.053,1.693-.003.459.042.655-.476,1.018-.383.367.094.678.379,1.096.374.212-.002.429.019.636.066.732.168,1.522-.046,2.213.252.442.191.876.237,1.331.315,1.156.2,2.337.218,3.476.557,1.173.349,2.485.246,3.505,1.099.073.061.206.046.31.074,1.154.304,2.165.958,3.13,1.581.76.491,1.486,1.082,2.265,1.576.044-.021.089-.042.133-.063-.02.045-.04.089-.061.134.284.48.693.811,1.219.984.312.102.584.265.833.469.272.223.177.418-.058.606-.36.286-.737.17-1.119.068-.764-.205-1.53-.398-2.281.044-.173.102-.337.083-.501-.016-.266-.161-.55-.064-.831-.075-.867-.035-1.612-.14-1.981-1.203-.33-.949-1.211-1.574-2.165-1.919-.402-.145-.781-.297-1.157-.499-.842-.453-1.71-.954-2.663-1.01-.973-.057-1.903-.235-2.837-.46-.021.022-.042.043-.062.065-.014-.013-.028-.027-.042-.04.021-.021.043-.042.064-.063-.046-.376-.249-.676-.525-.903-.691-.568-1.529-.863-2.353-1.173-.167-.063-.353-.009-.494.128.021.046.043.091.064.137-.046-.021-.092-.042-.138-.062-.832.057-1.658.021-2.471-.178-.324-.079-.626.007-.931.102-.489.152-.98.296-1.47.443.05.127.126.25.141.381.01.094-.073.199-.199.164-.031-.009-.049-.113-.048-.174,0-.105.021-.209.033-.313-.181.084-.365.247-.541.239-1.049-.048-1.237-.01-1.948.546.022.047.044.094.066.142-.047-.021-.095-.042-.143-.064-1.36.06-1.951.71-1.825,2.008.027.28.105.571.058.839-.131.747.073,1.394.479,2.002.047-.021.094-.043.14-.064l-.062.141c-.172.178-.368.46-.618.29-.674-.457-1.354-.287-2.062-.157-.381.07-.813.125-1.168.013-.881-.278-1.708.005-2.497.234-.64.186-1.114.103-1.579-.271-.284-.228-.523-.34-.851-.089-.575.439-1.177.351-1.825.126-1.332-.461-2.743-.493-4.121-.474-.853.012-1.699.085-2.549-.045-.289-.044-.99.087-1.288.237-.211.106-.399.113-.589-.055-.103-.091-.229-.159-.356-.214-.056-.024-.163-.016-.202.023-.114.114.028.166.086.228.104.112.177.236.073.373-.114.15-.261.086-.367-.011-.262-.242-.562.006-.811-.07-.366-.112.036-.229.041-.352-.018-.042-.036-.084-.054-.127.042.017.085.034.128.052.129-.066.269-.143.287-.293.025-.21-.162-.187-.293-.208-.175-.029-.351-.068-.528-.071-.85-.015-1.699.022-2.536-.216-.344-.098-.705.021-1.026.198.001.061.004.123.008.184.022.021.064.045.061.062-.01.064-.05.056-.1-.022-.019-.056-.045-.112-.052-.17-.003-.022.037-.05.057-.075-.401-.321-.413.308-.66.277-.373-.046-.134-.621-.538-.684-.103-.016-.195-.093-.298-.115-.675-.144-1.264-.732-2.039-.383-.125.056-.251-.083-.372-.163-.704-.464-1.512-.608-2.328-.712-.205-.026-.399-.014-.614-.089-1.694-.592-3.375-1.224-5.154-1.549-1.077-.197-2.136-.493-3.203-.744-.42-.099-.85-.205-1.239.064-.323.223-.537.056-.739-.158-.113-.121-.087-.358-.305-.399-.664-.125-1.272-.453-1.966-.483-.922-.039-1.842-.131-2.763-.194-.324-.022-.649-.052-.932-.212-.723-.409-1.464-.696-2.323-.683-.428.007-.58-.346-.302-.656.407-.453.754-1.053,1.548-.87.246.057.506-.076.694-.235.404-.343.92-.551,1.226-1.011h0s0,0,0,0c0,0,0,0,0,0-.022-.046-.049-.091-.061-.14-.004-.015.034-.04.053-.06.002.067.004.133.008.2.02-.021.059-.043.057-.062-.005-.053-.026-.104-.04-.156.082-.232.271-.135.436-.168.618-.122,1.323-.19,1.574-.881.098-.271.061-.427.416-.346.386.088.66-.195.954-.397.528-.363.497-.32.94.124.652.653,1.036,1.657,2.162,1.728.08.005.206.125.218.204.063.443.455.519.748.693.857.51,1.836.76,2.695,1.285.37.226.871.322,1.35.182.298-.087.567-.031.782.206.509.562,1.173.627,1.871.59,1.405.298,2.82.339,4.224.055,1.672-.338,3.339-.709,4.992-1.13,1.382-.352,2.702-.887,3.742-1.914.467-.461.985-.813,1.578-1.081.387-.175.818-.309,1.09-.659.294-.378.699-.592,1.068-.87.846-.64,1.753-1.244,2.154-2.307-.021-.026-.065-.055-.061-.076.015-.075.063-.07.124.011.357-.272.868-.27,1.042-.886.113-.401.661-.677,1.003-1.02.07-.07.108-.187.129-.29.192-.922.808-1.551,1.452-2.178.811-.79.793-.863-.047-1.562l-.057-.131c.044.019.088.037.132.056.867-.135,1.334-.731,1.686-1.461.72-.573,1.021-1.36,1.047-2.238.018-.609.166-1.101.643-1.505.492-.416.688-.975.664-1.623-.018-.498-.052-1.006.018-1.496.162-1.147.169-2.391,1.468-2.987-.019-.019-.057-.041-.055-.057.007-.056.044-.048.09.021.144-.096.284-.266.433-.275.726-.043,1.315-.313,1.78-.88.1-.122.25-.02.341.099l-.049.059.059-.049c1.125-.352,2.189-.812,3.051-1.656.282-.276.599-.456,1.046-.392.886.128,1.577-.249,2.107-.949-.023-.019-.067-.041-.064-.057.01-.063.047-.052.092.028.702-.512,1.672-.558,2.239-1.333.13-.178.489-.206.787-.225.528-.035,1.09-.1,1.531-.416.889-.637,1.753-1.31,2.601-2.002.252-.205.409-.625.611.013.047.149.153.079.246.033.789-.388,1.73-.384,2.449-.952-.021-.045-.042-.09-.063-.134.045.02.09.041.135.061.234-.171.477-.333.611-.604.243-.027.497-.019.729-.087,1.024-.301,1.117-.602.472-1.445-.104-.136-.211-.27-.317-.405.089-.053.239-.093.254-.161.042-.196-.141-.201-.274-.234-.001-.081-.002-.161-.003-.242.041-.056.094-.108.121-.171.041-.095.074-.237-.043-.264-.109-.025-.164.097-.144.216.012.069.03.137.045.206-.229.026-.437-.036-.557-.232-.251-.409-.538-.39-.877-.122-.484.382-1.035.581-1.648.671-.381.056-.731.233-1.041.497-.935.797-2.192,1.083-3.107,1.92-.04.036-.136.033-.2.018-.88-.199-1.532.314-2.222.707-.017.02-.05.041-.047.058.006.045.027.088.043.132-.062.218-.228.228-.411.205l-.064-.04.039.065c-.022.164.135.531-.222.375-.452-.198-.815-.145-1.207.087-.365.216-.784.328-1.096.648-.167.17-.391.366-.656.291-1-.284-1.606.34-2.236.926-.233.217-.411.558-.739.589-.618.059-1.141.396-1.739.503-.932.167-1.715.63-2.382,1.295-.327.057-.618.184-.853.425.023.016.045.031.068.047-.026-.012-.052-.024-.078-.037-2.247.518-4.264,1.612-6.341,2.551-.16.072-.332.167-.437.3-.627.799-1.594,1.058-2.43,1.502-1.655.88-3.538,1.255-5.117,2.344-1.153.796-2.671.938-3.729,1.949-.046.044-.131.057-.2.063-.703.059-1.243.478-1.832.8-.843.461-1.576,1.182-2.517,1.383-.785.168-1.295.555-1.665,1.191-.218.375-.461.608-.922.586-.836-.04-1.533.322-2.124.867-.251.231-.489.437-.829.409-.443-.036-.69.252-1.021.458-.846.526-1.624,1.161-2.551,1.566-.639.279-1.378.444-1.716,1.183-.038.082-.163.141-.26.177-.97.356-1.762,1.041-2.719,1.437-.915.379-1.831.81-2.643,1.367-1.147.787-2.431,1.3-3.622,1.991-.363.211-.65.369-.525.895.079.332-.152.194-.281.057-.071-.075-.121-.176-.253-.141-.679.178-1.374.329-1.721,1.05.021.042.042.084.063.125-.042-.02-.084-.041-.126-.061-.609.362-1.16.813-1.873,1.003-1.132.302-2.061,1.064-3.165,1.456-.489.174-.905.557-1.346.857-.528.359-.801.901-.996,1.482-.168.499.287.749.463,1.115.18.375.413.639.743.869.402.28.499.676.3,1.131-.127.292-.334.581-.231.911.199.641.015,1.362.446,1.958.171.236.14.552.11.834-.079.733.271,1.308.683,1.847.388.507.823.978,1.234,1.468.367.438.764.839,1.284,1.099.018-.018.036-.036.056-.051.002-.001.031.028.03.029-.015.02-.034.038-.051.056.194.156.441.278.572.476.351.53.859.701,1.446.793.594.093,1.157.298,1.683.608.488.288.984.537,1.595.519.302-.009.634.135.911.286.86.468,1.811.643,2.734.907.007-.173.008-.346.023-.518.017-.195-.039-.524.176-.525.32-.002.129.307.134.483.006.212.114.309.308.34.046-.072.071-.228.168-.168.086.054-.016.167-.077.24-.152.238-.408.208-.637.245.238.204.522.129.794.131.02-.016.038-.034.061-.045.005-.003.035.027.033.031-.011.022-.029.041-.044.061.555.074,1.119.103,1.631.369.468.244.921.205,1.442.082.713-.169,1.547-.309,2.191-.007,1.299.609,2.696.183,3.994.577.154.047.355-.021.523-.073.442-.137.867-.317,1.353-.18.381.108.533-.318.818-.414.385-.129.452.561.88.415.836-.286,1.704-.097,2.554-.182.504-.05,1.052-.432,1.491.195.064.091.34.051.517.044.818-.032,1.637.053,2.454-.12.331-.07.704-.096,1.054.054.332.142.689.109,1.045.127.922.045,1.838.194,2.758.282.704.067,1.444.405,2.097.171.532-.191.946-.133,1.426-.006,1.201.317,2.389.718,3.664.577.173-.019.385-.023.526.058.914.523,1.954.34,2.905.388,1.153.059,2.252.216,3.347.527.385.109.949.234,1.131-.013.41-.557.76-.241,1.163-.126.274.078.553.15.835.186,1.878.238,3.759.392,5.651.154.136-.017.303-.025.416.036.82.45,1.753.247,2.617.463.612.153,1.293.257,1.899.146.683-.126,1.269-.015,1.875.214.753.285,1.515.408,2.306.17.211-.063.425-.049.631.031.643.25,1.317.232,1.988.223.182-.003.359-.027.512.086.823.61,1.767.512,2.683.397.52-.065,1.019-.037,1.451.182.459.232.865.276,1.321.085.211-.089.386-.052.594.078.985.612,2.152.085,3.178.482.031.012.078.013.105-.003.583-.34,1.174-.113,1.754-.008.537.098,1.054.132,1.583-.053.225-.078.468-.187.725-.091,1.031.387,2.159.04,3.197.419.222.081.482-.121.702-.148.786-.096,1.585-.476,2.379-.027l.067-.059-.058.067c.137.126.303.205.486.192.955-.067,1.89.305,2.867.043.541-.145,1.136-.026,1.684.186.403.156.826.265,1.26.182.571-.108,1.134-.039,1.703.005.64.05,1.287.107,1.914-.105.249-.084.487-.025.736-.011,1.061.061,2.124.087,3.186.122.336.011.651.001.643-.484-.002-.099.184-.201.284-.302-.354-.091-.766.087-1.07-.232-.015-.022-.046-.047-.043-.067.009-.059.051-.057.105.003.097-.022.223-.012.287-.07.456-.418.609-.038.787.285.25.141.515.221.804.214.1-.062.128-.049.062.06.384.383.519.346.792-.215-.015-.021-.029-.041-.044-.061.032.002.065.004.097.007.39-.024.869-.202,1.15-.039.493.286.944.162,1.431.192,1.061.065,2.115.204,3.172-.023.032-.007.07.012.104.021.6.156,1.226.148,1.813.053,1.208-.196,2.416-.192,3.629-.201.209-.002.484.006.617-.115.761-.692,1.729-.574,2.626-.716.393-.062.784-.089,1.073-.406-.022-.023-.066-.05-.063-.068.013-.071.057-.063.111.019.409-.041.847.149,1.225-.151-.022-.048-.044-.095-.066-.143.048.021.096.043.144.064.139.012.264-.013.352-.136-.022-.048-.044-.095-.066-.143.048.021.096.043.143.064,1.204-1.211,1.527-2.743,1.584-4.369.009-.252-.224-.344-.355-.502-.022-.022-.065-.047-.062-.064.011-.067.053-.059.105.021.289-.302.458-.741.944-.819.778-.125,1.114-.689,1.371-1.351.258-.663.509-1.331.958-1.903.129-.164.255-.379.266-.576.045-.803.465-1.499.618-2.259.209-1.037.365-2.093.308-3.162-.006-.107-.006-.217-.035-.318-.354-1.229-.218-2.447.102-3.652.085-.321.21-.644.034-.931-.653-1.065.05-2.169-.13-3.243Zm-57.066-33.194c-.015-.025-.047-.054-.042-.075.013-.064.059-.064.119-.004.022.048.044.095.066.143-.048-.021-.096-.043-.143-.064Zm3.487-2.673l-.062-.055c.024-.014.05-.042.072-.04.023.002.043.033.065.052-.025.014-.05.029-.075.043Zm3.478-3.229c-.021.016-.063.029-.083.019-.086-.044-.081-.092.012-.12.022-.007.053.018.081.029-.003.025.004.061-.01.072Zm19.723-19.006c-.007-.023.019-.055.029-.083.026.003.063-.004.074.01.017.021.03.064.02.085-.045.089-.094.084-.123-.012Zm-49.215,63.082c-.024-.047-.048-.094-.072-.142.047.023.095.046.142.069.021.026.063.057.059.078-.017.078-.067.074-.129-.006Zm6.921-2.369c-.022.019-.043.041-.069.055-.006.003-.042-.033-.04-.038.014-.026.035-.047.054-.07.04-.091.08-.183.12-.274.025.021.074.054.07.062-.04.09-.089.177-.136.265Zm9.467-1.371c-.109-.01-.182-.081-.169-.202.011-.105.067-.181.174-.212.112.007.179.075.201.176.035.163-.042.252-.206.238Zm6.368,2.556c-.103-.013-.181-.108-.174-.223.013-.216.076-.427.328-.448.158-.013.221.137.24.294-.058.196-.115.411-.394.376Zm1.068,1.309c-.08-.032-.111-.094-.057-.156.039-.045.109-.062.166-.091.021.057.074.131.055.166-.023.044-.107.055-.164.081Zm.821-2.693c-.024.005-.058.021-.071.011-.019-.015-.038-.053-.032-.074.024-.082.072-.091.116-.022.012.018-.008.056-.013.085Zm-4.92-35.777c.064.085.061.17-.002.255-.128.007-.167-.072-.14-.174.01-.037.092-.054.141-.081Zm-6.272,3.931c.021.007.033.042.049.065-.013.025-.021.067-.039.071-.066.016-.098-.025-.079-.104.004-.017.05-.038.069-.032Zm-1.013,1.089c.047-.021.095-.043.142-.064l-.063.142c-.034.084-.05.247-.166.175-.094-.059.011-.18.087-.252Zm-.47.458l-.036.06-.024-.065.06.006Zm-1.808-2.294c.081-.008.112.024.079.09-.008.016-.052.013-.079.018-.032-.036-.032-.073,0-.109Zm-.144.721l.056.072c-.01.027-.014.07-.032.078-.065.028-.103-.008-.089-.09.004-.023.042-.04.065-.06Zm-12.262,5.816c.02.054.039.108.059.162-.055.021-.11.041-.166.061-.019-.051-.067-.123-.049-.148.03-.041.102-.052.156-.076Zm-.112,1.877c.028.106-.036.225-.135.238-.252.033-.233-.182-.268-.34.154-.045.333-.158.403.103Zm-.488-1.242c.012.002.017.049.025.076-.024.007-.064.026-.069.019-.052-.069-.034-.107.044-.095Zm-30.741,22.17l.039-.065.027.071-.066-.006Zm11.828,1.32l-.023-.063.058.006-.035.058Zm3.578-.866c-.043.021-.086.042-.128.063l.061-.129c.023-.016.045-.037.071-.045.01-.003.043.03.041.04-.008.026-.029.048-.044.072Zm7.098-4.591c-.031-.011-.061-.022-.092-.033.01-.027.02-.054.03-.081.03.011.066.017.088.037.008.008-.016.05-.026.077Zm.845.219c-.019.013-.065,0-.088-.016-.016-.011-.013-.049-.018-.075.027-.012.059-.038.081-.032.087.024.098.075.025.123Zm.156-1.65c-.109-.098-.205-.221-.078-.347.123-.123.249-.049.339.079.088-.061.173-.127.264-.181.094-.055.219-.089.281.012.045.074.059.233.011.286-.225.25-.482.449-.817.151Zm.708.709c-.106-.02-.178-.112-.153-.224.012-.055.078-.124.132-.14.136-.038.179.06.193.175-.01.107-.041.213-.173.189Zm1.2-1.746c-.071.008-.101-.057-.07-.129.011-.026.053-.062.068-.057.047.016.087.05.13.077-.043.039-.083.104-.129.109Zm-11.626-7.188c.023.053.075.116.072.175-.006.112-.078.201-.198.198-.025,0-.073-.114-.065-.169.015-.1.052-.207.191-.205Zm-3.018,1.029c.169-.172.319-.023.447.098.05.047.084.113.125.17.103.097.245.176.302.296.134.283.068.647-.186.726-.274.085-.373-.249-.404-.51-.009-.071-.005-.143-.007-.214-.058-.039-.125-.07-.173-.12-.124-.127-.27-.277-.104-.447Zm6.584,3.472c.099.019.205.023.296.062.162.07.345.228.241.373-.151.211-.259-.087-.396-.135-.086-.03-.147-.131-.219-.201-.518.974-1.223,1.819-1.858,2.712.022.046.043.092.065.138-.046-.021-.092-.042-.139-.063-1.714,1.056-3.518,1.865-5.563,2.01-.177.012-.359.088-.501-.067-.183-.2-.062-.405.033-.59.34-.657.947-1.098,1.521-1.464.921-.588,1.748-1.345,2.811-1.708.504-.172,1.03-.29,1.494-.572.212-.129.459-.205.58-.45.102-.208.147-.624.43-.479.392.202.996-.208,1.204.434Zm-1.139-1.46c.045-.08.149-.126.219-.181.271.108.585.07.721.373.01.022-.015.071-.038.093-.268.25-.527.1-.78-.029-.099-.05-.184-.146-.121-.257Zm-4.489,7.843c-.034.055-.069.109-.103.163-.034-.054-.096-.109-.095-.163,0-.055.061-.109.096-.163.034.054.069.109.103.163Zm-3.471-6.304c.244-.023.49-.029.735-.043.141,0,.281-.006.421.002.134.008.327-.009.354.137.028.149-.161.214-.283.267-.256.112-.518.214-.784.298-.404.127-.439-.252-.582-.462-.08-.117.034-.189.14-.199Zm-.403.912l.059.033-.062.029.003-.061Zm-.676,2.242c.314-.162.587-.4.889-.586.078-.048.239-.08.288-.037.144.126,0,.246-.065.361-.053.093-.113.182-.169.272.094.097.225.187.059.331-.049-.086-.098-.172-.147-.258-.093.15-.213.29-.275.453-.679,1.788-.233,2.447,1.354,2.701.105.017.209.049.307.089.102.041.2.111.166.235-.013.048-.108.097-.171.104-1.161.136-2.268.661-3.475.48-.172-.026-.363-.007-.53.041-.922.266-1.565.069-2.002-.634-.383-.616-.343-.939.244-1.356,1.13-.804,2.292-1.557,3.527-2.195Zm.966,5.249l-.064-.057c-.151-.038-.35-.023-.316-.271.004-.027.042-.067.068-.069.254-.021.221.183.256.333l.057.064Zm-4.396-5.219c.177.035.563-.495.515.176.078.047.157.094.235.141-.132.153-.211.01-.304-.055-.137-.013-.274-.021-.409-.041-.065-.009-.164-.022-.184-.063-.066-.14.092-.169.147-.158Zm-.367-.683c-.017.012-.06,0-.082-.015-.015-.01-.012-.045-.017-.069.025-.011.054-.036.075-.03.08.021.089.068.024.114Zm-.302-2.297c.107-.003.187.056.217.166-.034.046-.081.138-.102.132-.094-.025-.216-.055-.261-.125-.088-.138.042-.17.145-.173Zm-5.919,6.822c.695-.873,1.84-1.169,2.575-1.997.109-.123.334-.257.467-.226.895.213,1.443-.397,2.075-.817.118-.079.242-.152.371-.211.13-.06.291-.117.371.047.034.07-.009.233-.073.287-.564.47-.779,1.182-1.227,1.737-.57.705-.232,1.951.583,2.37.253.13.501.239.714.449.546.539,1.197.681,1.941.436.15-.049.345.036.519.059.046-.022.092-.044.139-.066-.022.046-.044.092-.066.138.564.299,1.101.207,1.73.105,1.349-.219,2.598-.753,3.923-1.038,1.565-.337,2.949-1.049,4.195-2.167,1.726-1.549,3.269-3.291,5.091-4.734.477-.378.875-.844,1.117-1.419-.073-.07-.145-.14-.217-.21-.093-.027-.185-.054-.278-.081.151-.193.197.024.286.073.07.073.14.145.21.218.472-.157.946-.308,1.416-.471.629-.218.943-.659.927-1.277-.016-.592-.294-.976-.93-1.149-.479-.13-.982-.17-1.432-.409-.301-.159-.551.154-.803.133-1.407-.114-2.578.806-3.94.858-1.687.905-3.648,1.068-5.338,1.966-.265.141-.546.149-.832.151-.064.059-.171.168-.213.088-.045-.085.11-.091.184-.122.261-.549.843-.599,1.303-.838-.026-.052-.059-.103-.074-.158-.006-.022.028-.054.044-.082.043-.024.086-.049.129-.073-.017.046-.035.091-.052.137-.019.056-.033.113-.041.171l2.954-1.439c-.12-.046-.247-.088-.214-.257.005-.026.039-.06.065-.065.171-.033.208.099.256.215.15-.094.35-.154.442-.288.241-.35.488-.576.965-.47.182.04.437-.058.604-.173,1.522-1.052,3.309-1.583,4.894-2.511.706-.414,1.406-.838,2.125-1.23,1.06-.577,2.117-1.159,3.371-1.233.376-.023.743-.198,1.114-.303.047.459-.361.723-.477,1.117-.165.559-.631,1.097-.036,1.668.107-.067.137-.053.066.064-.141.337-.282.673-.423,1.01.069.069.139.138.208.208.092.059.158.135.135.252-.005.027-.05.072-.066.068-.123-.031-.134-.138-.148-.241-.069-.069-.139-.139-.208-.208-.718.192-.896.84-1.168,1.401-.075.156-.057.356-.13.514-.431.93-.373,1.84.014,2.773.237.572.146.731-.458.912-.363.109-.701.36-1.12.246-.398-.109-.619.032-.614.468.001.114-.075.19-.179.234-.229.096-.809-.288-.593.43,0,.002-.127.07-.186.059-.913-.162-1.011.598-1.202,1.146-.078.225-.043.476-.303.592-.362.162-.508.473-.616.821-.05.162-.084.409-.31.346-.264-.074-.193-.331-.157-.539l.032-.068-.053.049c-1.057.915-2.104,1.842-3.176,2.738-.401.335-.863.597-1.298.892.021.04.041.081.062.121-.041-.02-.081-.04-.122-.06-.887-.09-1.575.415-2.26.832-1.506.916-3.104,1.412-4.871,1.548-1.555.12-3.092.02-4.636-.044-.017.022-.037.066-.051.064-.058-.008-.046-.042.032-.082-.777-.133-1.411-.642-2.13-.862-.972-.298-1.754-.898-2.64-1.3-.811-.367-1.594-.749-2.331-1.239-.016-.021-.032-.041-.048-.062.033.003.066.006.099.01Zm23.29-6.938c.092.028.22.082.244.153.024.073-.034.227-.102.265-.21.118-.441.198-.665.293l.064.142c-.047-.021-.094-.042-.142-.063-.145-.102-.336-.234-.199-.412.188-.245.424-.492.799-.378Zm-.226-.439c.058-.065.107-.061.147.013-.026.015-.053.044-.078.042-.025-.002-.046-.036-.069-.055Zm-.566-.43c-.039.175-.117.352-.337.247-.199-.094-.169-.252-.038-.41.063-.076.094-.177.14-.267-.223.032-.458.194-.653-.063-.022-.047-.044-.094-.066-.142.047.022.094.044.142.065.227-.051.455-.603.68.002.162.161.179.36.133.567Zm-.829,2.338l-.006.057-.057-.034.062-.023Zm-36.641,10.441l.042-.071.03.077-.072-.006Zm127.166-38.419c.02-.023.041-.046.061-.069.014.014.028.027.042.041l-.069.062c-.018.018-.036.037-.056.052-.002.001-.032-.028-.031-.03.015-.02.034-.038.052-.056Zm-.944,6.81c.056.08.112.161.167.241.182-.104.348-.133.357.145.006.18-.065.393-.279.364-.216-.029-.171-.263-.181-.431-.113-.088-.227-.176-.065-.32Zm-1.283-6.412s.03.053.046.081c-.021.024-.061.069-.062.068-.072-.058-.066-.112.016-.15Zm-2.363-5.816c.018.023.036.046.054.07-.01.026-.014.068-.032.076-.063.027-.1-.009-.086-.088.004-.022.042-.038.064-.057Zm-7.218-9.503l.069.041-.075.029.006-.07Zm-4.03-3.801c-.025.006-.05.012-.075.018-.005-.023-.022-.061-.014-.066.07-.049.101-.031.09.048Zm-7.721-2.632l-.012.07-.064-.044.076-.026Zm3.316,10.91l-.076-.028c.011-.028.015-.063.035-.082.008-.008.048.015.073.024l-.031.086Zm4.947,5.167c-.067.029-.105-.008-.091-.092.004-.023.043-.041.066-.061.019.024.038.049.057.073-.01.028-.014.072-.033.08Zm.336,6.834c-.012-.018,0-.064.016-.086.011-.015.048-.012.073-.017.011.027.037.058.031.08-.024.086-.074.095-.121.024Zm5.179,10.281l.039-.056.022.067-.061-.012Zm.456-1.478c-.013-.023-.039-.047-.037-.068.002-.021.032-.04.049-.06.013.023.026.047.039.071-.017.019-.035.038-.052.057Zm1.545,6.64c-.033.071-.116.081-.165.013-.057-.079-.108-.176-.117-.27-.008-.078.07-.104.143-.068.122.076.208.173.139.326Zm2.449,25.543c.025.002.048.036.071.057-.027.016-.055.031-.082.047-.023-.02-.046-.04-.069-.06.027-.016.055-.046.08-.044Zm-19.495,8.58c.01.001.016.047.024.073-.029.009-.058.018-.087.027-.008-.026-.016-.052-.024-.078.029-.009.059-.025.087-.022Zm-9.205-1.849c.024.003.059-.003.07.01.016.02.028.061.018.08-.043.083-.09.078-.116-.013-.006-.021.018-.052.029-.078Zm-1.188,2.166c.036.047.075.092.103.143.004.008-.05.067-.063.062-.054-.02-.103-.055-.154-.084.038-.041.076-.081.114-.121Zm-.85.314c.019-.012.065,0,.088.016.016.011.013.049.018.074-.027.012-.058.038-.081.032-.087-.024-.097-.074-.025-.122Zm-1.356,1.207l.021.064-.058-.012.038-.053Zm-5.384-6.857c.067-.134.198-.048.254.022.298.373.952.417.97,1.047.111.074.229.211.101.289-.154.092-.153-.119-.201-.215-.402-.228-.82-.439-1.066-.856-.048-.082-.092-.217-.057-.287Zm-3.732,3.799c.011-.013.077-.002.094.018.208.253.142.523.038.791-.025.064-.071.12-.108.18-.047.021-.093.042-.139.063.02-.047.041-.093.061-.14.003-.07-.002-.142.01-.21.042-.234-.149-.481.044-.702Zm-3.168.179c.007.007-.014.042-.022.065-.026-.01-.051-.019-.077-.029.009-.023.017-.045.026-.068.025.01.056.014.073.032Zm-.417-.55c.135.017.347-.006.328.148-.025.194-.267.182-.427.205-.079.012-.244-.067-.248-.115-.024-.265.209-.195.348-.238Zm-1.572-2.441c.069.055.186.101.207.175.036.126-.088.147-.182.135-.103-.014-.199-.07-.175-.194.008-.041.087-.069.151-.115Zm-.964.054c.032.053.063.107.095.16-.036.048-.073.096-.109.144-.031-.052-.089-.106-.087-.157.002-.05.065-.098.102-.147Zm-7.969-4.576c.099.048.138.151.109.277-.03.033-.087.121-.108.114-.156-.056-.195-.195-.179-.341.003-.025.134-.07.178-.049Zm-2.498-.025c.016-.018.065-.021.09-.011.021.009.029.048.042.074-.025.017-.051.05-.074.049-.088-.006-.111-.053-.058-.111Zm-2.323,3.793c.217-.388.634-.567.99-.529.725.078,1.48-.187,2.18.187.112.06.283.068.409.034.737-.203,1.487-.08,2.231-.11.647-.026,1.272.06,1.885.286.398.147.867.364,1.24.172.854-.439,1.424.211,2.103.431.088.029.117.242.173.37.017.023.05.049.047.069-.01.061-.053.059-.109-.005-.839-.012.038.416-.147.572.022.047.044.095.066.143-.048-.021-.096-.043-.143-.064-.337-.038-.563-.295-.847-.437-.294-.148-.588-.207-.921-.207-1.668,0-3.348.085-5-.084-1.081-.111-2.162-.313-3.253-.422-.302-.03-.584-.247-.876-.377-.018.021-.039.062-.054.06-.057-.008-.047-.042.027-.086Zm1.898,1.271c-.009.025-.012.064-.029.071-.061.026-.096-.008-.082-.082.004-.021.039-.036.06-.054.017.022.034.043.052.065Zm-6.39,1.662c.04-.007.137.069.134.101-.016.219-.203.244-.363.297-.048-.039-.136-.078-.135-.113.011-.222.196-.256.363-.285Zm-1.43,1.298c.026.003.063-.004.074.01.017.021.03.064.02.085-.045.089-.094.084-.123-.012-.007-.023.019-.055.029-.083Zm-1.199-2.663c.028.011.056.021.084.032-.01.025-.018.069-.029.07-.027.001-.061-.012-.08-.031-.007-.007.016-.046.025-.071Zm-.647,2.041c.039.04.071.086.105.13-.026.015-.052.03-.078.045-.033-.043-.066-.086-.099-.13.025-.016.068-.05.072-.045Zm-1.854-.956l-.006.08-.079-.046.085-.034Zm-.239.641c.024.008.047.017.071.025-.007.021-.012.057-.022.059-.021.003-.052-.006-.066-.022-.008-.009.011-.041.018-.062Zm-2.998-1.568l.057.062-.062-.057c-.022-.015-.045-.029-.067-.044.024.013.048.026.072.039Zm-14.46-.226c.012.003.012.052.018.079-.025.006-.067.023-.072.015-.054-.078-.033-.115.054-.095Zm-.845.717c.041-.017.107.027.163.044-.025.051-.04.127-.08.144-.04.017-.105-.025-.159-.04.024-.052.037-.131.076-.148Zm-3.163-.221c.028.011.061.015.08.034.008.008-.015.046-.024.071-.028-.01-.056-.021-.084-.031.009-.025.019-.049.028-.074Zm-1.881-.729c.018.025.056.054.052.074-.014.07-.061.067-.12-.004-.025-.047-.05-.095-.075-.142.048.024.096.048.143.072Zm-1.361-1.509c.047-.024.095-.047.142-.071-.023.047-.047.095-.07.142.304.302.586.633,1.005.789.107-.067.136-.054.065.063-.177.225-.432.278-.657.164-.304-.153-.615-.35-.742-.688-.067-.179.088-.318.257-.399Zm-6.74-.22c.008.027.028.058.021.081-.022.077-.076.1-.141.058-.018-.011-.016-.051-.024-.078.048-.021.095-.041.143-.061Zm-1.719-.018c.038-.139.217-.165.347-.113.193.077.083.216.037.335.087.038.241.075.164.185-.071.102-.179-.003-.243-.088-.156-.057-.367-.095-.305-.319Zm-8.02-1.152l-.004.071-.069-.038.073-.034Zm-4.843-4.246c-.028.015-.057.044-.083.042-.024-.002-.067-.054-.065-.056.056-.07.106-.064.148.014Zm-.03.402c.008.008-.016.049-.026.075l-.09-.033c.01-.026.02-.053.03-.079.03.011.065.016.086.036Zm-3.468-3.68c.059.007.117.025.176.039-.013.025-.028.071-.037.07-.059-.007-.117-.025-.175-.039.012-.024.027-.07.036-.069Zm3.093,13.539c-.023-.008-.063-.013-.066-.024-.004-.024.005-.059.022-.074.01-.009.046.012.07.019-.009.026-.018.053-.027.079Zm5.325,3.699c-.031.018-.101-.031-.153-.05.025-.053.037-.121.077-.157.06-.053.119-.025.149.054-.023.054-.032.13-.073.154Zm2.687-1.174c-.133.049-.164-.069-.153-.172.012-.111.088-.191.201-.187.039.001.075.085.127.15-.055.07-.1.181-.175.209Zm8.057,2.819c-.012-.021-.034-.044-.032-.064.002-.019.03-.035.047-.053.012.022.023.043.038.07-.017.015-.034.031-.052.046Zm8.897-.336c-.016.006-.076-.057-.073-.061.034-.054.076-.103.115-.153.081,0,.139.048.112.122-.016.045-.098.072-.155.093Zm1.333-.223l-.076-.045.082-.031-.007.077Zm20.336,2.362l.006-.082.082.047-.088.035Zm5.788.744c-.024-.043-.048-.087-.071-.13.044.023.088.046.131.069.015.022.03.044.046.066-.035-.001-.07-.003-.106-.004Zm18.552,2.133l.037-.069.034.071-.07-.002Zm9.786.038c-.042-.039-.057-.108-.085-.163.059-.018.132-.064.173-.045.042.021.053.106.078.163-.039.076-.104.101-.166.045Zm24.055-.264l-.047.055c.009-.024.018-.049.027-.073.017-.023.038-.067.052-.065.06.009.048.043-.033.084Zm2.158-.496c-.021-.018-.042-.037-.063-.055.025-.015.05-.043.073-.04.023.002.044.034.066.052-.025.015-.051.029-.076.044Zm11.107-5.964c-.307,2.043-1.521,3.366-3.328,4.224-.278.132-.55.071-.83-.028-.43-.153-.848-.079-1.231.16-.718.447-1.497.624-2.342.636-.743.01-1.492.062-2.218.254-.294.078-.563-.028-.844-.043-.779-.042-1.586-.097-2.215.479-.206.189-.298.02-.447.021-.641.004-1.339-.272-1.877.333-.07.078-.191.13-.291.056-.555-.409-1.007-.025-1.482.183-.025.019-.049.044-.077.054-.01.003-.05-.036-.047-.045.01-.029.034-.052.053-.078-.246-.219-.671-.264-.779-.083-.3.505-.741.182-1.015.169-.934-.046-1.836.097-2.746.22-.182.025-.354.037-.521-.042-.646-.305-1.318-.271-1.993-.143-.361.068-.703.034-1.043-.097-.657-.254-1.326-.252-1.999-.077-.424.11-.86.142-1.272.018-.861-.26-1.738-.318-2.628-.324-.252-.002-.496,0-.741.069-.948.268-1.86.26-2.783-.182-.485-.232-1.054-.041-1.556.106-.363.107-.684.168-1.028-.013-.093-.049-.221-.115-.302-.087-1.179.413-2.396-.322-3.57.121-.285.108-.563.01-.844-.014-.063.088-.171.194-.243.092-.079-.113.079-.145.165-.183-.291-.241-.589-.446-.984-.219.136.047.284.087.216.286-.01.03-.043.068-.071.073-.212.041-.2-.139-.247-.259-1.095-.08-2.189-.177-3.285-.232-.365-.018-.74-.137-1.093.216-.293.293-.724-.049-.937-.196-.595-.412-1.284-.426-1.923-.608-.56-.159-1.14-.056-1.501.519-.171.272-.348.227-.449-.037-.292-.766-1.025-.666-1.551-.623-.394.032-.633-.073-.951-.199-.82-.325-1.625-.748-2.575-.412-.362.128-.8.09-1.154-.102-.811-.439-1.728-.384-2.566-.395-.835-.01-1.69-.33-2.541.007-.18.071-.46-.154-.702-.188-1.269-.177-2.536-.386-3.812-.481-.702-.052-1.425.058-2.125.179-.362.062-.615.004-.873-.225-.492-.436-1.082-.528-1.704-.415-.389.07-.802,0-1.153.066-1.036.198-1.926-.485-2.925-.363-1.133-.548-2.449-.158-3.598-.741-.568-.288-1.271-.056-1.913-.089-.648-.033-1.283-.018-1.774-.566-.221-.247-.567-.28-.898-.282-.501-.003-1.001-.016-1.501-.024-.014.022-.028.043-.042.065.013-.023.025-.046.038-.068-.845-.27-.959-.271-2.511-.066-.056.007-.172-.043-.171-.064.013-.595-.449-.351-.691-.342-.291.01-.56-.013-.84-.078-.695-.159-1.396-.287-2.111-.329-.437-.026-.436-.041-.799.513-.233.356-.438.361-.628-.073-.146-.333-.361-.437-.66-.404-1.676.182-3.323-.244-4.989-.227-1.39.015-2.761-.162-4.132-.355-.208-.029-.451-.079-.629-.004-.978.411-1.859.14-2.72-.327-.249-.135-.468-.364-.768-.35-1.461.067-2.788-.495-4.157-.862-.251-.067-.42-.098-.65.138-.112.114-.43-.229-.761-.277-.849-.122-1.773-.219-2.411-.943-.176-.2-.419-.325-.652-.337-.916-.048-1.529-.709-2.278-1.086-.702-.353-1.157-.931-1.162-1.784-.002-.397-.152-.777-.35-1.114-.416-.705-.459-1.494-.546-2.268-.065-.579.193-.81.77-.658,1.281.338,2.572.553,3.899.612.435.019.868.256,1.286.431,1.215.508,2.412,1.043,3.769,1.082.744.021,1.481.168,2.154.537.115.063.28.037.421.052.014-.021.029-.043.043-.064-.012.023-.025.047-.037.07.2.19.456.166.704.196.742.09,1.472.219,2.184.474,1.202.43,2.478.565,3.727.79.521.094,1.073.133,1.573.281.968.286,1.949.408,2.945.468.106.006.239-.045.316.002,1.343.824,2.906.509,4.342.842.274.064.541.097.808.232.543.274,1.136.338,1.759.354.655.017,1.322.187,1.953.387,1.067.339,2.135.562,3.253.371.372-.063.714.042,1.052.135,1.752.482,3.527.484,5.311.275.646-.076,1.276-.102,1.889.173.261.117.567.237.828.088.612-.349,1.245-.221,1.875-.147.606.071,1.263-.126,1.803.319,1.273-.222,2.546.369,3.818,0,.316-.091.629-.098.952-.037.844.159,1.629-.164,2.435-.315.091-.149.181-.149.271,0,.979.335,1.965.613,3.021.523.175-.015.348.021.514-.077.846-.496,1.633-.366,2.493.07.759.384,1.625.502,2.47.136.449-.195.927-.184,1.352-.023.983.371,1.929.428,2.884-.062.304-.156.634-.116.938.011,1.138.476,2.302.361,3.468.166.178-.03.353-.092.524-.023.495.199.946.166,1.435-.086.467-.24.977.116,1.474.048,0,0,0,0,0,0,.283.258.662.243.999.332.334.087.704.179.922-.267.104-.213.212-.068.272.065.07.155.206.252.333.147.612-.507,1.241-.077,1.843-.017.637.064,1.267.19,1.91.143.724-.053,1.358.165,1.827.704.353.407.918.491,1.247.926.077.102.333.069.507.098.019-.022.04-.066.055-.063.061.009.051.045-.029.089.092.052.185.15.274.147.426-.017,1.467-.7,1.581-1.118.112-.414.343-.464.699-.479.353-.014.713-.076,1.053-.173.502-.144.976-.106,1.471.042.792.237,1.57.307,2.415.078.662-.18,1.403-.184,2.111-.051.048-.022.096-.044.144-.066-.021.048-.043.096-.064.144.395.288.823.175,1.23.065.564-.152,1.133-.151,1.696-.078.527.068,1.04.234,1.573.028.17-.066.349,0,.516.073,1.027.445,2.088.356,3.146.167.393-.07.763-.075,1.159-.008.869.147,1.726.281,2.607-.11.415-.184.968-.244,1.436.077.211.145.465.169.72.137l.145-.065c-.021.048-.043.097-.064.145,1.154.148,2.319.175,3.477.298.792.084,1.622-.123,2.429-.241.797-.117,1.591-.266,2.377-.441.352-.078.638-.039.879.219.35.375.761.63,1.261.769.416.116.508.438.447.845Zm-1.362-15.534c.021-.048.043-.095.064-.143.121-.07.149-.047.078.077l-.142.066Zm2.933,19.452c-.047.021-.095.043-.142.065.021-.048.042-.095.063-.143.129-.078.158-.055.08.078Zm.365-8.584c-.09-.051-.158-.118-.139-.231.004-.025.047-.067.063-.063.117.029.129.129.141.227.015.023.047.049.043.069-.011.061-.053.059-.109-.001Zm1.706-13.378c.048-.022.097-.044.145-.066-.021.048-.043.097-.064.146-.242.304-.089.631-.008.922.246.892.165,1.771-.073,2.635-.158.576-.14,1.117.033,1.679.191.619.227,1.233.071,1.89-.154.648-.152,1.335-.196,2.006-.032.492-.23.844-.622,1.169-.446.37-.809.763-.962,1.449-.157.706-.771,1.328-1.249,1.938-.257.328-.596.067-.858-.104-.263-.171-.103-.359.027-.534.191-.257.377-.518.568-.775.257-.347.511-.718.576-1.136.126-.805.221-1.601.799-2.247.103-.116.136-.341.121-.508-.081-.862.278-1.672.311-2.497.042-1.059.215-2.105.251-3.146.038-1.095.188-2.188.169-3.275-.017-1-.012-2.069-.738-2.918-.017-.018-.034-.036-.051-.055.029.006.058.012.087.018.439-.05.657-.285.543-.727-.092-.355-.153-.694.002-1.045.205-.466.185-.899-.216-1.265-.169-.154-.219-.327-.199-.569.02-.238-.048-.496-.125-.729-.238-.718-.297-1.441-.267-2.2.043-1.076-.308-2.113-.608-3.127-.266-.899-.63-1.742-.296-2.694.1-.286.072-.601-.165-.796-.345-.283-.412-.744-.397-1.044.037-.722-.502-1.262-.468-1.965.012-.259-.186-.532-.307-.791-.168-.358-.557-.671-.197-1.12-.384-.706-.215-1.573-.599-2.255-.448-.797-.797-1.673-1.56-2.268-.392-.306-.432-.803-.518-1.258-.08-.42-.153-.842-.215-1.265-.08-.543-.32-.999-.636-1.449-.541-.77-1.183-1.501-1.21-2.535-.006-.228-.153-.497-.318-.667-.67-.688-1.014-1.549-1.296-2.429-.317-.989-.968-1.76-1.632-2.487-.521-.57-.813-1.241-1.175-1.878-.794-1.396-1.942-2.453-3.134-3.479-.071.07-.142.14-.213.21-.036.097-.014.304-.178.212-.119-.068-.002-.213.096-.294.07-.071.139-.142.209-.213-.329-.399-.498-.89-1.012-1.191-.424-.248-.68-.781-1.161-1.028-.095-.049-.211-.092-.267-.172-.686-.984-1.878-1.241-2.75-1.928-.984-.774-2.056-1.201-3.239-1.456-.445-.096-.525-.421-.522-.806.003-.482.312-.865.417-1.313.076-.069.161-.131.224-.211.05-.063.169-.148.017-.222-.021-.01-.108.076-.14.132-.051.088-.082.189-.121.284-.126.069-.291.154-.367-.009-.235-.503-.524-1.001-.127-1.577.143-.207.357-.472.08-.753h0c.261-.505.213-1.032.144-1.571-.11-.863-.004-.982.8-1.371.983-.475,2.055-.449,3.094-.615.169-.027.374-.008.526.065,1.4.676,2.982,1.073,3.893,2.514.107.169.303.319.491.396,1.308.536,2.099,1.693,3.09,2.598.569.519,1.174,1.047,1.573,1.738,1.109.458,1.4,1.766,2.431,2.324.371.201.574.608.763,1.009.241.511.524.969,1.184,1.13.565.138.929.615,1.15,1.182.349.896.735,1.777,1.096,2.669.15.371.312.735.686.924.4.202.49.524.564.945.172.973.152,1.997.709,2.886.121.192.088.482.12.728.032.247-.027.55.096.733.462.686.454,1.528.834,2.252.376.716.448,1.568.57,2.378.059.391.068.788.404,1.069.104-.064.134-.051.065.063,0,.195.001.39.002.585.023.047.047.094.07.14-.047-.023-.094-.046-.14-.07-.129.447.431.699.321,1.159-.032.132.145.089.245.052.281-.105.364.041.213.241-.287.382-.324.755-.181,1.203.175.548-.131,1.101.019,1.69.146.576.128,1.2.361,1.769.098.24.093.479.023.731-.125.452-.135.923-.081,1.381.055.469.067.914-.113,1.362-.139.346-.121.718.06,1.039.573,1.018.488,2.127.418,3.213-.037.571-.045,1.12.022,1.688.073.628.036,1.251-.072,1.898-.158.948-.243,1.945.022,2.907.069.251.029.434-.056.675-.241.678-.329,1.377-.013,2.075.198.437.141.91.137,1.373-.005.712-.013,1.408.313,2.09.25.523.182,1.112-.057,1.659-.124.283-.367.558-.084.882Zm-3.238-2.368c.018.016.021.065.011.09-.009.021-.048.029-.074.042-.017-.025-.05-.051-.049-.074.006-.088.053-.111.111-.058Zm-.051-10.563c.048.021.096.043.144.064.054.108.212.199.057.342-.045-.088-.09-.175-.134-.263-.022-.048-.044-.095-.066-.143Zm.295,13.96c.01-.024.018-.068.029-.068.027-.001.059.012.079.031.007.007-.016.065-.025.065-.028,0-.055-.017-.083-.028Zm.299,1.331c.007-.055.023-.109.037-.163.023.012.067.026.065.035-.007.055-.023.109-.037.163-.023-.012-.066-.026-.065-.034Zm1.14-7.79c.053-.065.101-.059.134.015.001.002-.048.027-.073.041-.021-.02-.062-.055-.06-.057Zm2.536,21.843c-.008-.026-.016-.053-.024-.079.024-.007.064-.026.069-.019.051.07.034.104-.045.098Zm.27-23.819c-.064.028-.101-.008-.088-.088.004-.022.042-.039.064-.058.018.023.037.047.055.07-.01.026-.013.068-.031.076Zm.043-25.315c-.074.023-.124-.039-.113-.121.004-.029.034-.063.062-.078.076-.041.135-.018.172.059-.04.049-.071.125-.121.14Zm.589,26.804c-.203-.022-.245-.2-.291-.355-.012-.04.059-.15.093-.151.225-.006.262.164.29.329-.035.069-.07.18-.093.177Zm.744-19.916c-.133-.055-.211-.158-.169-.312.007-.027.053-.069.072-.065.154.034.207.152.229.292-.046.031-.104.096-.132.085Zm.197,18.516c-.029-.038-.062-.074-.083-.117-.004-.009.036-.046.061-.061.072-.043.12-.022.14.069-.037.034-.078.071-.119.109Zm.432,3.439c-.011-.001-.029-.062-.022-.067.072-.054.109-.036.104.046-.028.008-.056.025-.082.022Z" fill="#e53013" stroke-width="0"/>
      <path d="m69.147,109.389q.051.625-.433.427c-.047.095-.049.302-.2.21-.126-.077-.01-.212.099-.285-.167-.427.157-.418.416-.468-.542-.197-.966-.522-1.35-.971-.854-.998-.882-.974-2.003-1.066-.047.023-.093.046-.14.07.023-.046.047-.093.07-.139-.515.044-.795-.409-1.213-.571-.048.022-.095.044-.143.066.021-.048.043-.095.064-.143-.008-.151-.056-.307-.193-.358-.661-.244-1.302-.618-2.03-.56-.388.031-.73-.086-.974-.286-.533-.439-1.105-.541-1.773-.578-.822-.046-1.624-.135-2.439.088-.256.07-.57-.005-.843-.075-.713-.183-1.413-.135-2.12.022-.487.108-.987.301-1.467.264-.945-.073-1.771.577-2.718.369-1.679.721-3.576.675-5.231,1.484-.124.06-.277.076-.418.082-.469.02-.895.121-1.327.346-.713.37-.948.192-.965-.637-.006-.284.032-.57.069-.852.097-.743.214-1.482.082-2.237-.036-.203.022-.423.041-.635.078-.88.162-1.759.235-2.639.079-.953.094-1.913.134-2.864.043-1.014-.228-2.042.155-3.044-.285-.889-.156-1.836.005-2.671.325-1.682-.298-3.293-.117-4.94.022-.199-.087-.415-.145-.621-.076-.27-.017-.512.026-.79.171-1.109.211-2.238.291-3.36.007-.101-.037-.212-.077-.31-.243-.598-.274-1.221-.309-1.859-.033-.597.07-1.207-.139-1.798-.097-.275.038-.56.141-.83.076-.198.206-.414.18-.604-.101-.753.11-1.49.063-2.24-.026-.419-.096-.889.312-1.188.563-.413,1.162-.909,1.845-.92.662-.011,1.104-.274,1.464-.7.383-.454.701-.884,1.398-.721.195.046.396-.137.541-.305-.015-.022-.031-.044-.046-.065.035.002.07.003.105.005,1.214-.45,2.328-1.043,3.114-2.124.1-.138.256-.274.414-.324.955-.307,1.477-1.054,1.969-1.849.242-.391.52-.757.834-1.102.404-.444.816-.9,1.117-1.415.432-.741.88-1.458,1.513-2.045.273-.254.44-.549.424-.936-.022-.517.226-.876.67-1.12.428-.234.669-.624.855-1.056-.02-.016-.04-.031-.061-.047.025.01.051.021.076.031.448-.269.434-.769.629-1.168.205-.421.753-.638.981-1.102.031-.063.054-.133.07-.202.351-1.496,1.223-2.76,1.864-4.125.46-.978.971-1.912.557-3.041-.073-.199-.097-.445.031-.625.709-.998.765-2.21,1.045-3.332.498-1.999.832-4.039,1.256-6.057.14-.668.27-1.328.151-2.011-.044-.256-.012-.496.104-.727.495-.982.523-2.023.39-3.085-.023-.186.006-.354.193-.453l.073.04-.036-.075c-.072-.379.254-.681.205-1.055l.051-.054-.071.033-.389.054c-.075.058-.143.134-.227.171-.093.04-.215.027-.239-.086-.008-.036.125-.113.203-.152.056-.028.128-.026.192-.038.001-.166.002-.332.004-.498-.173-.054-.35-.109-.247-.351.026-.06.09-.154.128-.15.242.024.164.254.232.393.13.058.261.123.362-.047.176-.293.247-.595.049-.903-.098-.152-.194-.279-.087-.478.547-1.012.45-2.115.505-3.211.026-.52-.295-.995-.146-1.459.293-.918.053-1.829.089-2.741.053-1.329-.245-2.594-.593-3.872-.279-1.027-.243-2.136.363-3.076.583-.902.582-1.853.466-2.84-.036-.308-.054-.655-.412-.814-.108.067-.134.049-.066-.064.291-.509-.028-.951-.155-1.414-.067-.243.06-.795-.486-.268-.165.16-.211-.173-.16-.235.397-.487.091-.753-.213-1.152-.715-.939-1.749-1.416-2.664-2.071-.728-.521-1.591-.747-2.381-1.113-.635-.294-1.417-.286-2.05-.72-.177-.121-.485-.061-.733-.065-.25-.003-.504.021-.723-.125-.142-.095-.344-.203-.271-.4.058-.157.247-.068.383-.047.875.132,1.747.169,2.611-.075-.022-.017-.065-.038-.063-.052.008-.059.042-.047.084.031.356-.019.771.073,1.056-.079.559-.297,1.032-.112,1.537.056.169.056.337.127.511.159.444.08.67-.109.722-.554.052-.443-.146-.787-.476-1.016-.856-.594-1.511-1.569-2.734-1.493-1.04-.662-2.2-.441-3.331-.473-.674-.019-1.348-.024-2.026-.094-1.299-.135-2.587-.171-3.912.146-1,.239-2.108.026-3.086.539-.813-.327-1.685-.018-2.53-.277-.73-.224-1.505-.167-2.294.089-.924.301-1.972.562-2.895.349-1.147-.264-2.165.33-3.252.158-1.364.576-2.901.104-4.262.702-.968-.36-1.82.24-2.69.431-.98.215-1.866.633-2.951.627-1.178-.007-2.396.311-3.459.959-.248.151-.527.22-.82.209-.437-.017-.843.12-1.258.229-1.096.29-2.097.887-3.248,1.004-.074.008-.134.154-.201.236.064.076.128.151.191.227.017.02.035.039.052.059-.032-.005-.063-.01-.095-.015-.075-.064-.15-.128-.225-.192-.183.359.004.936-.621,1.039-.128.021-.202-.013-.257-.114-.053-.097-.082-.197.02-.285.026-.023.057-.042.088-.057.159-.079.404-.188.269-.367-.183-.242-.394.006-.528.136-.511.496-1.172.682-1.822.733-.919.072-1.787.145-2.514.809-.315.288-.754.371-1.185.442-.72.119-1.365.399-1.781,1.051.022.015.043.03.065.045-.025-.012-.049-.024-.074-.036-.404.068-.807.138-1.211.203-.278.045-.538.115-.673.398.022.048.044.096.066.144-.048-.021-.097-.043-.145-.064-.49.128-.907.368-1.212.782.021.045.042.089.064.134-.045-.02-.09-.041-.135-.061-.299-.034-.562.036-.784.251-.988.959-2.021,1.865-3.115,2.702-.162.124-.287.321-.377.51-.382.803-.8,1.595-1.1,2.429-.491,1.365-.911,2.749-.638,4.247.065.355.036.778-.271,1.094-.333.343-.391.762-.215,1.189.296.718-.215,1.477.136,2.198.053.109-.105.32-.164.484-.078.217.005.418.06.624.183.687.309,1.394.552,2.059.52,1.42.161,2.962.661,4.382.063.18-.061.419-.061.631,0,.353-.021.728.376.926.048-.022.096-.044.143-.066-.021.048-.043.096-.064.144-.031.227.284.267.279.396-.04,1.138.456,2.207.347,3.368-.102,1.086-.112,2.205.522,3.202.106.166.086.411.128.619.263,1.308.281,2.666.796,3.924.041-.019.082-.038.124-.058-.019.041-.037.083-.056.124.094.223.177.452.384.603.058-.074.11-.163.227-.104.005.003-.005.065-.02.071-.06.025-.124.038-.187.056.426.781.552,1.632.723,2.497.193.976.361,2.02,1.236,2.769.406.348.707.937.765,1.49.103.985.493,1.826.946,2.681.583,1.102,1.067,2.246,2.071,3.073.347.286.553.739.839,1.102.438.555.742,1.224,1.317,1.66.402.304.789.594.905,1.12.059.266.222.443.483.524.278.086.499.266.743.414.257.155.492.227.342.623-.169.444.099.732.468.96.39.242.799.457,1.022.908.31.627.834,1.056,1.431,1.4.37.661.963,1.113,1.506,1.613.213.196.445.38.726.434.446.086.786.293,1.046.665.128.183.34.25.563.261.024-.024.047-.05.074-.069.004-.003.049.042.047.045-.019.028-.045.051-.069.075.347.437.584,1.006,1.26,1.048l-.003.003h.008s-.003,0-.004-.003c.07-.085.141-.085.211,0-.001.002-.003,0-.004.003h.009l-.003-.003c.955.371,1.756,1.051,2.759,1.338.399.114.822.24,1.136.563.369.38.87.476,1.357.577,1.593.33,3.189.646,4.784.963.199.039.333.112.31.342-.095.976.216,1.995-.336,2.923-.133.223-.113.483-.03.729.082.241.078.483.064.737-.058,1.024-.277,2.05-.076,3.073.071.361-.373.649-.073,1.008.425.507.277,1.06.114,1.612-.103.348-.136.703-.043,1.057.083.315.106.62.049.949-.075.431-.064.859.415,1.108.165.086.261.241.161.444-.309.628-.263,1.307-.291,1.977-.046,1.099.593,2.189.045,3.296-.014.028-.009.075.005.105.369.805.209,1.66.259,2.497.022.366.025.806.437,1.032.165.09.318.189.261.402-.07.259-.301.276-.516.286-.603.026-1.134.211-1.467.74-.228.361-.428.745-.589,1.14-.192.468-.869.372-.988.898.023.021.069.046.066.063-.012.068-.053.059-.103-.025-.83.331-1.598.756-2.227,1.411-.349.363-.781.6-1.254.786-.659.259-1.35.471-1.867.998-1.189.562-2.405,1.075-3.558,1.704-.743.405-1.573.687-2.185,1.318-.685.706-1.768.889-2.33,1.768-.048.075-.274.019-.406.061-.44.14-.993.203-1.246.563-.454.643-1.109.839-1.767,1.09-.338.129-.618.352-.874.608-.282.281-.596.469-1.017.532-.834.124-1.492.698-2.295.967-.923.308-1.409,1.276-1.598,2.221-.205,1.026-.127,2.008.782,2.826.594.534,1.261.915,1.902,1.356l.002.002c.412-.05.63.294.923.473.485.294.906.721,1.419.934,1.131.468,2.301.841,3.458,1.242.198.069.415.114.624.117.747.013,1.495.026,2.242-.004.564-.022,1.08.092,1.617.266.995.321,2.003.365,2.927-.274-.03-.199-.056-.397.058-.581-.051-.08-.116-.155-.147-.242-.018-.05.003-.16.036-.174.133-.057.133.075.164.149.025.06.035.126.051.19.182.024.409-.193.541.054.084.158-.013.336-.148.446-.128.104-.283.174-.426.259.196.521.656.317,1.011.344,1.918.148,3.826-.157,5.742-.169.481-.003.97.233,1.464-.058.443-.262.912.098,1.375.053-.019-.022-.056-.046-.053-.065.01-.062.051-.056.103.013.633-.065,1.219-.452,1.879-.302.923.211,1.851.096,2.775.067.69-.022.712-.086.951-.878.053-.174.179-.33.393-.275.154.04.187.195.197.342-.019.067-.17.096-.056.2.023-.063.047-.126.07-.188.387.398.851.495,1.368.328.376-.122.757-.235,1.15-.21.543.034.956-.194,1.331-.544l.068.04-.056-.055c.06-.037.161-.116.173-.104.643.616,1.401.336,2.091.206,1.31-.246,2.539-.887,3.921-.793.067.005.142-.024.206-.053,1.208-.55,2.559-.583,3.79-1.054.635-.243,1.285-.424,1.98-.394.172.008.376-.014.518-.101,1.048-.639,2.307-.585,3.419-1.111,1.206-.571,2.579-.787,3.878-1.165.41-.119.857-.188,1.181-.478.389-.349.847-.489,1.326-.642.771-.246,1.536-.473,2.255-.914,1.374-.843,1.971-2.069,1.701-3.636-.13-.753-.702-1.151-1.052-1.723Zm-2.568-81.598c.014.025.027.05.041.075-.041.031-.083.063-.124.094-.014-.024-.045-.064-.04-.069.038-.037.082-.067.124-.1Zm-.993-17.334c.161-.255.343-.146.523-.019.021.043.041.085.062.128-.043-.02-.086-.04-.129-.06-.147.058-.168.353-.404.229-.1-.053-.115-.179-.052-.278Zm-.045,22.037c.012.022.036.045.034.066-.002.02-.045.053-.046.052-.056-.047-.051-.087.012-.118Zm-.178.89c.113.005.18.081.19.238-.004.041-.053.087-.124.054-.056-.026-.12-.082-.135-.137-.012-.045.046-.156.069-.155Zm-.768-23.671c.154.017.172.197.138.339-.039.166-.056.418-.237.424-.251.009-.117-.258-.178-.367.041-.198.038-.423.277-.396Zm2.501,100.018c.012.018-.008.057-.013.086-.025.005-.059.021-.072.011-.019-.015-.038-.053-.032-.074.024-.083.072-.092.118-.022Zm-.609-.132c.023-.007.055.018.083.029-.003.026.004.063-.01.074-.021.017-.064.03-.085.019-.089-.044-.084-.094.012-.122Zm-4.316-2.22c.065-.122.147-.224.297-.235.023-.002.072.039.071.058-.008.163-.137.21-.264.256-.056.084-.112.167-.168.251-.167-.147-.053-.239.064-.331Zm-2.55-1.641c.023-.007.055.019.083.029-.003.026.004.063-.01.074-.021.017-.064.03-.085.02-.089-.045-.084-.094.012-.123Zm-.446,2.063c.109-.068.14-.055.067.065-.034.085-.069.169-.103.254-.038-.031-.112-.08-.107-.09.039-.08.094-.153.144-.228Zm-1.912-.744l.063.038-.069.026.006-.064Zm-.093.472c.049.029.124.048.14.089.015.039-.033.101-.053.154-.05-.027-.13-.044-.142-.083-.013-.043.034-.106.056-.16Zm-15.381-11.536c-.023-.021-.068-.06-.067-.061.058-.071.11-.065.147.016.001.002-.052.03-.08.045Zm12.966-35.531c-.052.028-.104.056-.155.084-.015-.056-.057-.125-.038-.163.02-.041.104-.083.15-.074.076.015.087.085.043.153Zm3.212-5.287c-.053-.023-.106-.047-.158-.07.026-.052.041-.134.08-.149.039-.015.104.038.157.062-.026.052-.053.105-.079.157Zm4.277-17.657c-.051.089-.118.157-.231.138-.025-.004-.067-.048-.063-.062.032-.114.132-.126.23-.138.103-.064.132-.051.064.062Zm.372-3.938c-.076-.023-.084-.068-.019-.109.017-.011.057,0,.077.016.014.01.01.043.014.066-.024.01-.052.033-.071.027Zm.148,15.784c-.008.008-.048-.016-.074-.026.011-.029.022-.059.033-.088.026.01.073.019.073.03.001.028-.012.063-.032.084Zm.428-6.474c-.023-.009-.045-.017-.068-.026.01-.025.014-.056.032-.073.007-.007.042.014.065.022l-.029.077Zm.693-13.301c-.02-.043-.039-.086-.059-.129.043.019.086.038.129.057.025.048.049.096.074.144-.048-.024-.096-.048-.144-.072Zm.101-18.439c-.052.031-.134.12-.219.122-.122.004-.165-.099-.098-.208.058-.095.148-.154.265-.117.082.026.102.089.052.203Zm-.468-3.427c.052-.011.114.02.223.043-.065.043-.103.076-.147.093-.025.01-.065.003-.09-.011-.084-.048-.08-.105.014-.125Zm-5.193-3.161c.083.049.205.08.245.155.076.141-.06.167-.158.167-.108,0-.204-.059-.21-.177-.002-.042.071-.087.123-.145Zm-1.687-1.771c.102-.056.201-.027.256.09-.024.06-.032.146-.078.178-.11.075-.205.011-.242-.096-.016-.047.021-.148.064-.172Zm-10.028-.615c.099.053.147.139.135.247-.014.117-.088.198-.192.101-.066-.061-.082-.181-.104-.278-.002-.011.105-.046.162-.07Zm-3.599,1.111c.015.027.044.056.041.082-.002.024-.054.065-.056.064-.069-.055-.063-.105.015-.146Zm-12.608,2.101c.021-.003.052.006.066.022.008.009-.011.041-.018.062-.024-.008-.047-.017-.071-.025.007-.021.012-.057.022-.059Zm-2.497.481s-.048.027-.074.042c-.021-.02-.062-.057-.061-.058.054-.065.103-.06.135.016Zm-9.357,1.977c.014.025.027.05.041.074-.019.02-.038.04-.057.061-.014-.025-.04-.051-.037-.074.002-.022.034-.041.053-.061Zm-.433-1.076c.014.024.041.05.039.073-.002.023-.034.043-.052.064-.061-.054-.056-.1.013-.136Zm-1.747,1.223c.29.009.403.229.487.464.04.113-.036.222-.147.22-.281-.005-.459-.173-.516-.441-.022-.104.056-.195.177-.243ZM3.453,22.195c-.018.015-.057.026-.076.017-.079-.041-.074-.085.011-.11.02-.006.049.017.074.026-.002.023.003.057-.009.067Zm.211,8.251c-.048.025-.096.05-.144.075.024-.048.049-.097.073-.145.043-.02.086-.04.13-.06l-.058.129Zm.35-2.14c-.021-.046-.043-.091-.064-.137.046.021.092.041.137.062.015.025.047.052.043.073-.012.063-.058.063-.116.001Zm-.289-10.682c.193-.611.554-1.189,1.005-1.622.399-.383.727-.774.943-1.268.276-.63.747-1.043,1.4-1.233.95-.275,1.569-1.114,2.491-1.438.133-.047.212-.203.189-.355-.046-.301.064-.317.349-.315,1.095.007,2.074-.392,2.942-1.031.348-.256.683-.371,1.092-.274.706.168,1.278-.031,1.664-.649.216-.346.512-.465.896-.475.783-.021,1.539-.304,2.336-.239.162.013.375-.053.495-.16.364-.325.772-.493,1.256-.524.186-.012.317-.151.398-.322-.136-.096-.139-.192.001-.287.051-.294-.092-.62.148-.88.014-.015.084-.009.094.008.212.353.035.654-.132.956-.007.039-.008.079-.002.118.366.334.776.134,1.114.011,1.285-.467,2.616-.674,3.96-.861.689-.096,1.3-.486,1.988-.647.724-.169,1.393-.397,2.184-.271.602.096,1.277-.093,1.888-.266.991-.28,2.068-.215,2.992-.758.08-.047.209-.01.314-.018.873-.07,1.747.049,2.623-.258.457-.16,1.038-.018,1.572-.076.476-.052.433-.38.57-.633-.069-.07-.138-.141-.206-.211-.078-.141-.156-.282-.234-.423-.164-.043-.34-.076-.299-.312.005-.027.045-.064.073-.067.224-.025.275.136.316.305.074.134.148.267.221.401.05.009.1.018.149.028.02-.016.038-.034.06-.045.005-.002.035.027.032.031-.011.022-.029.041-.044.061.008.05.019.1.033.149.171.169.275.453.564.438.783-.039,1.546.136,2.32.181.088.005.181-.092.272-.142-.022-.014-.043-.029-.065-.043.024.012.048.024.072.037.71.169,1.394.138,2.085-.148.764-.316,1.612-.248,2.409-.435.263-.062.481.087.714.172.198.072.414.17.613.153,2.325-.205,3.011-.073,5.141.892.609.276,1.212.606,1.912.646.166.009.366.082.481.196.488.486.977.945,1.738.904.063-.003.179.04.188.08.163.76.882.717,1.384,1.005.483.278.847.721,1.184,1.182.431.589.658,1.371,1.462,1.635.1.033.164.175.042.243-.294.163-.128.363-.063.545.412,1.154.203,2.222-.398,3.257-.267.459-.588.892-.74,1.417-.047.161-.161.36-.3.427-.504.245-.581.783-.873,1.171-.09.082-.18.083-.27,0-.175.01-.4-.042-.499.115-.595.936-1.642,1.321-2.441,2.008-.568.488-1.074,1.088-1.88,1.289-.26.065.134.215.172.352.29.079.271.281.197.501-.029.088-.03.215-.162.204-.032-.003-.065-.115-.079-.18-.028-.138-.044-.279-.065-.419-.151.024-.272.097-.298.254-.077.463-.247.494-.458.086-.184-.356-.441-.345-.691-.151-.231.18-.752.046-.669.583.044-.021.089-.042.133-.063-.021.044-.041.088-.062.133-.154.326-.449.455-.678.192-.406-.467-.832-.252-1.272-.164-.07.014-.148.023-.205.061-1.179.781-2.573.995-3.863,1.48-.71.267-1.451.372-2.181.54-.278.064-.58.075-.83.194-1.932.919-4.047,1.008-6.102,1.368-.141.025-.282.048-.42.085-.623.167-1.236.305-1.896.354-.655.049-1.322.255-1.988.378-.665.123-1.318.315-1.973.489-.216.058-.418.044-.633.002-.208-.041-.465-.128-.63-.049-.916.438-1.88.158-2.814.258-.917.098-1.819.333-2.727.505-.175.033-.365.113-.525.075-1.686-.398-3.412.319-5.09-.191-1.076.187-2.211-.301-3.256.302-.305.176-.63.039-.922-.109-1.048-.528-2.13-.766-3.316-.558-.438.077-.929.003-1.287-.368-.18-.186-.401-.322-.659-.322-.884,0-1.535-.513-2.215-.969-.148-.099-.28-.255-.441-.294-1.311-.317-2.056-1.37-2.947-2.234-.026-.025-.057-.048-.072-.079-.841-1.784-1.64-3.586-.997-5.622Zm57.271,2.417c-.031.009-.062.019-.092.028-.008-.027-.016-.055-.025-.082.031-.009.062-.018.093-.028.008.027.016.055.024.082Zm-.354-1.44c-.002.021-.048.057-.049.055-.06-.049-.054-.093.014-.127.013.024.038.049.035.071Zm-18.319,8.068c-.025.014-.051.041-.074.039-.023-.002-.062-.05-.061-.051.052-.064.098-.058.135.012Zm-3.547,1.416c-.04.079-.094.151-.143.225-.106.065-.135.052-.066-.064.034-.083.069-.167.103-.25.037.031.111.08.106.089Zm-14.684.746c-.029.057-.046.128-.09.166-.062.054-.141.025-.15-.059-.006-.053.032-.139.076-.162.035-.019.109.034.165.055Zm-2.341.827c-.045-.024-.09-.049-.134-.073-.014-.021-.027-.042-.041-.063.033,0,.066.002.1.003.025.044.051.089.076.133Zm-14.572-3.381c-.025.055-.04.142-.078.155-.043.014-.138-.029-.154-.07-.016-.038.041-.106.065-.161.056.026.112.051.167.077Zm-1.428,9.665c-.08-.024-.088-.07-.02-.113.017-.011.06,0,.08.016.014.01.01.045.014.069-.025.01-.054.034-.074.028Zm1.348,4.37c-.032.101-.009.311-.174.22-.125-.069-.004-.214.103-.29.044-.021.088-.041.132-.062-.02.044-.041.088-.061.132Zm2.289,11.91l.012-.076.071.047-.083.029Zm5.712,12.771l-.024-.065.06.006-.035.059Zm1.335-3.541c-.042-.016-.086-.105-.079-.155.012-.078.093-.106.155-.057.046.036.066.105.097.16-.059.02-.128.068-.173.051Zm.775.461c-.05.16.023.452-.162.452-.188,0-.12-.276-.142-.45.007-.093.004-.2.026-.303.022-.104.08-.205.208-.161.053.018.114.1.117.157.007.1-.016.207-.047.305Zm.129,2.519c.005-.053.003-.107.018-.157.004-.014.077-.028.081-.02.027.048.044.101.064.153-.054.008-.109.017-.163.025Zm.265-2.02c-.025.018-.047.041-.075.05-.01.003-.048-.033-.045-.043.009-.027.032-.05.049-.075.013-.094.027-.19.141-.215.016-.003.057.036.061.06.02.109-.047.172-.132.223Zm1.057,1.614c-.066.022-.219-.065-.255-.139-.091-.187.06-.237.208-.266.046-.023.093-.046.139-.069-.023.046-.045.092-.068.139.025.117.207.26-.023.336Zm6.36,7.406c-.025.005-.058.022-.071.012-.019-.015-.038-.053-.032-.074.023-.083.072-.092.117-.023.012.018-.008.056-.013.085Zm3.837,2.121c-.024-.01-.067-.018-.068-.029-.001-.026.012-.059.03-.078.007-.007.065.016.065.025,0,.027-.017.055-.028.082Zm4.802,5.773c-.071-.06-.16-.112-.104-.228.002-.003.063.008.069.023.023.06.036.124.052.187.019.016.039.031.058.047-.025-.01-.05-.02-.075-.029Zm-.249-8.659c-.037-.043-.136-.056-.202-.046-1.051.151-1.974-.41-2.976-.527,0,0,0,0,0,0-.478-.322-1.035-.465-1.555-.693-.55-.241-1.181-.354-1.598-.835-.371-.428-.966-.098-1.375-.471-.362-.33-.637-.785-1.154-.93-.172-.048-.353-.092-.503-.182-.642-.386-1.471-.529-1.777-1.366-.043-.117-.192-.218-.315-.278-.949-.46-1.616-1.287-2.462-1.872-.449-.31-.31-.881-.692-1.163-.328-.243-.744-.302-.948-.786-.15-.357-.606-.599-.954-.855-.294-.217-.577-.423-.664-.802-.008-.035-.01-.081-.033-.1-.601-.495-1.154-1.009-1.129-1.892.003-.097-.263-.207-.41-.303-.563-.366-.961-.853-1.091-1.522-.083-.429-.28-.797-.495-1.172-.385-.673-.9-1.271-1.101-2.052-.097-.376-.381-.674-.665-.956-.596-.593-.921-1.244-.938-2.164-.014-.727-.432-1.487-.808-2.155-.291-.517-.22-1.191-.751-1.599-.096-.074-.057-.34-.056-.517.001-.168-.037-.384.182-.444.15-.041.252.104.346.209.283.319.565.619.938.859,1.125.724,2.403.855,3.67,1.018.32.041.638.008.905.223.262.211.576.298.893.331,1.052.109,2.084.492,3.165.255.101-.022.231-.049.311-.006,1.116.61,2.422.113,3.563.619.231.103.562.01.842-.028.891-.121,1.775-.12,2.656.084.635.147,1.299.152,1.918.029.712-.142,1.417-.156,2.128-.156,1.191,0,2.315-.383,3.467-.596.293-.054.508-.151.765.065.139.117.345.083.518.034,1.649-.466,3.39-.421,5.035-.931.773-.239,1.627-.151,2.391-.481l-.049-.074.075.049c.168-.025.359.024.477-.16.237-.371.669-.526,1.003-.421.91.284,1.667-.004,2.431-.42.735-.401,1.584-.445,2.36-.759,1.811-.734,3.753-1.124,5.535-1.937.967-.441,1.84-1.085,2.785-1.582.571-.301,1.111-.639,1.619-1.027.466-.356.8-.834.901-1.411.085-.484.017-.988.515-1.323.159-.107.061-.341-.09-.461-.862-.684-1.652-1.479-2.752-1.805-.763-.227-1.414-.71-2.341-.528-.547.108-1.21-.32-1.807-.544-.234-.088-.335-.301-.041-.464.255-.141.286-.393.38-.619.085-.056.186-.097.248-.172.055-.066-.005-.131-.075-.083-.08.055-.135.146-.201.221-.138-.134-.276-.268-.414-.402-.141.19-.331.232-.539.15-.165-.065-.319-.195-.215-.382.126-.225.265-.07.403.035.073.055.186.057.281.083.007-.071.029-.144.019-.212-.045-.324.558-.291.382-.615-.139-.254-.523-.19-.764-.32-.378-.204-.724-.182-1.128-.099-.794.163-1.642-.041-2.414.333-.08.039-.211-.001-.311-.03-1.103-.321-2.153-.007-3.238.165-.745.118-1.518.328-2.318.158-.75-.159-1.37.248-1.955.672.104.077.221.151.066.287-.054-.071-.108-.143-.162-.214-.601.238-1.202.276-1.858.214-.877-.082-1.751.118-2.63.258-1.201.19-2.329.574-3.492.855-.721.174-1.51.237-2.268.359-.379.061-.592.149-.568.581.017.299-.247.292-.462.304-.046.023-.092.045-.138.068.023-.046.045-.092.068-.138.003-.064.023-.122.06-.174l.033-.075-.054.057c-.258.013-.563-.205-.751.15-.095.18-.137.503-.357.464-.498-.089-.869.356-1.332.261-.508-.104-.958.045-1.413.219-.019.023-.04.066-.055.064-.062-.009-.051-.046.029-.09-.919-.272-1.654.114-2.344.656l-.062.059.059-.062c-.183-.171-.385-.199-.562-.013-.603.634-1.347.792-2.195.776-.485-.009-1.004.076-1.41.411-.344.283-.782.433-1.168.471-1.186.115-2.127.74-3.115,1.288-.216.119-.454.2-.688.283-.2.071-.446.069-.607.188-1.156.849-2.572,1.196-3.765,1.97-.476.309-.974.578-1.234,1.136-.138.296-.347.194-.438-.057-.12-.333-.205-.679-.287-1.024-.106-.447-.163-.907-.384-1.321-.066.073-.132.145-.198.218-.049.024-.098.048-.147.072.024-.049.047-.098.071-.147.073-.066.147-.131.22-.197-.02-.257-.112-.486-.269-.688-.109-.141-.229-.27-.165-.476.266-.869-.147-1.527-.59-2.236-.284-.454-.382-1.065-.427-1.616-.051-.633-.163-1.274-.059-1.917.088-.545-.015-1.054-.245-1.56-.28-.616-.483-1.258-.506-1.95-.009-.278-.053-.609-.21-.82-.596-.796-.585-1.737-.727-2.645l-.053-.07.07.052c.362-.013.56.199.778.467.645.794,1.416,1.416,2.516,1.387.207-.005.31.087.461.176.987.58,2.023,1.014,3.204.903.303-.028.554.07.815.197.891.433,1.806.599,2.794.323.61-.17,1.249-.345,1.86.065.105.07.206.089.239-.155.054-.395.109-.387.608-.138l-.04.065.07-.037c.437.214.708.824,1.37.502.446-.217.963.13,1.413-.043.786-.303,1.609-.251,2.415-.303.706-.045,1.414.032,2.066-.339.11-.063.297-.076.413-.027.964.401,1.963.087,2.941.166.248.02.533.037.716-.143.442-.435.945-.399,1.487-.294.83.162,1.625-.144,2.422-.273,1.018-.165,2.05-.127,3.062-.347.722-.157,1.476-.19,2.218-.23.475-.025.665-.353.892-.668.069-.069.137-.137.206-.206.002-.05.006-.101.01-.151-.021-.025-.064-.054-.06-.074.014-.073.061-.068.12.013.148.07.297.141.445.211.141.097.137.194-.001.29.346.212.743.126,1.017-.035.647-.382,1.374-.258,2.043-.45.689-.198,1.381-.338,2.107-.239.364.05.701-.112,1.038-.226.946-.322,1.915-.542,2.89-.761,1.453-.327,2.9-.711,4.314-1.176.734-.241,1.411-.679,2.082-1.082.549-.33,1.074-.666,1.742-.696.102-.005.196-.183.294-.281-.023-.024-.069-.052-.065-.07.014-.074.06-.066.116.019.66-.248,1.312-.517,1.981-.738.564-.187.847-.574.958-1.127-.022-.048-.044-.096-.066-.144.048.021.097.042.145.064.197.282.419.435.619.023.07-.144.002-.348.038-.517.09-.423.293-.502.685-.29.747.404.73.404.781,1.283.059,1.025-.134,2.06.181,3.08.084.273-.089.621-.124.938-.076.705-.14,1.392.145,2.096.254.628.259,1.31-.198,1.906-.184.24-.272.506-.127.796.081.161.193.299-.05.429-.246.13-.193.307-.095.536.209.49.199.954-.086,1.463-.404.723-.416,1.571-.501,2.38-.048.464-.148.908-.244,1.361-.304,1.445-.873,2.864-.501,4.39.04.164.026.362-.027.523-.428,1.292-.512,2.57.072,3.843.042.091-.054.195-.168.23l-.07-.034.048.057c-.27.549-.521,1.097-.322,1.738.157.505-.161.792-.522,1.05-.682,1.03-1.001,2.171-1.034,3.399.023.047.047.094.07.14l-.14-.07c-.067.025-.183.037-.193.076-.259,1.03-1.047,1.792-1.382,2.8-.294.885-.544,1.838-1.312,2.495-.11.094-.149.224-.158.379-.026.466-.318.797-.661,1.053-.703.525-1.222,1.184-1.632,1.954-.165.31-.422.57-.638.853.02.013.04.026.06.039-.021-.012-.041-.025-.062-.037-.03.018-.074.029-.089.056-.842,1.509-2.464,2.308-3.399,3.735-.301.46-.844.644-1.279.939-.584.396-1.164.79-1.735,1.206-.388.283-.473.439-.189.801.06.076.055.202.08.305.021.044.041.088.062.133l-.133-.06c-.456-.433-.922-.517-1.556-.298-.657.226-1.34.339-1.918.776-.266.202-.619.13-.934.044-.32-.088-.558-.007-.709.295-.933.179-1.797.524-2.573,1.076-.072.084-.148.083-.229.013-.709-.033-1.412.107-2.128.027-.375-.042-.826-.02-1.141.155-.61.338-1.143.59-1.696-.054Zm-11.314-29.88c.039-.085.108-.214.214-.119.047.042.011.196-.012.294-.064.269-.271.399-.501.52-.314.165-.619.349-.921.536-.891.55-1.323,1.345-1.322,2.398,0,.53-.386.785-.844.488-.5-.325-.993-.347-1.532-.291-.046.021-.093.043-.139.064.021-.047.042-.093.062-.14-.393-.217-.876.155-1.25-.189l-.053-.05.032.07c-.04.118-.157.2-.237.134-.128-.106-.181-.304-.312-.404-.654-.501-.661-.523-.027-.962.088-.061.174-.165.267-.172,1.021-.074,1.877-.637,2.82-.923,1.048-.318,2.07-.781,3.197-.81.273-.007.444-.2.556-.445Zm-.275-.806c.052.011.105.019.154.036.007.002-.005.056-.008.085-.051-.011-.103-.019-.151-.039-.008-.003.003-.054.005-.083Zm1.444-.401c.014.024.041.05.038.072-.002.022-.034.042-.052.063-.06-.054-.055-.099.014-.135Zm.283,1.09c.027-.021.052-.049.083-.06.01-.004.055.04.051.049-.012.031-.039.056-.06.083-.044.021-.089.041-.133.061.02-.045.039-.089.059-.134Zm-.011-2.856l.06-.028-.003.06-.057-.032Zm.204,3.987c0-.062.026-.132.061-.185.048-.073.123-.072.153,0,.041.1.012.197-.076.268-.076.023-.137-.005-.138-.084Zm1-1.971c-.007-.171.369-.506.477-.434.043.029.075.129.061.182-.058.209-.164.384-.416.395-.043-.049-.119-.094-.121-.143Zm.799,7.599c.012-.02.054-.023.083-.034.084.009.117.049.08.109-.012.021-.055.034-.082.033-.085-.005-.117-.048-.081-.108Zm.348-10.521c.016-.018.065-.021.09-.011.021.009.029.048.042.074-.025.017-.051.05-.074.049-.088-.006-.111-.053-.058-.111Zm.599-.797c.042.019.085.038.127.058.05.075.105.147.144.227.006.012-.068.062-.105.094-.036-.084-.072-.167-.108-.251-.019-.043-.039-.085-.058-.128Zm1.225,3.335c-.016-.081.044-.127.119-.11.029.007.058.039.075.067.046.079.022.136-.065.165-.046-.04-.12-.075-.129-.122Zm1.213,6.399c.02-.021.038-.044.061-.062.004-.003.028.022.042.034l-.059.064c-.004.062-.009.123-.015.185l.055.071-.071-.054c-.025-.054-.057-.105-.071-.162-.005-.02.037-.051.057-.077Zm-.01-3.546c.071-.052.106-.035.1.045-.027.008-.054.016-.081.024-.007-.024-.026-.065-.019-.07Zm1.064,3.626l.032-.07c.015-.021.031-.043.046-.064-.012.025-.023.05-.035.075-.015.02-.029.039-.044.059Zm1.193-8.79c-.029.049-.096.097-.152.104-.047.006-.147-.053-.144-.074.013-.115.111-.142.211-.156.078.011.122.063.085.126Zm.142,5.359c.047.23-.151.096-.222.15.073-.051.148-.1.222-.15Zm1.723-3.551c-.014-.09-.008-.202.116-.206.042-.001.103.075.127.128.042.09.069.193-.052.256-.127.008-.176-.078-.192-.179Zm.658-2.672c.023-.034.144-.04.194-.012.212.12.178.27.025.42-.044.02-.089.04-.133.06.019-.044.039-.089.058-.133-.048-.114-.258-.165-.145-.335Zm2.813,9.586c.007-.078.049-.098.1-.05.016.015.019.058.009.08-.008.018-.044.024-.067.035-.015-.022-.045-.045-.043-.066Zm.427-8.579c-.035-.152.056-.248.192-.288.036-.011.125.042.136.08.042.156-.067.234-.185.298-.052-.031-.134-.052-.142-.09Zm.854,1.95c-.006-.022.018-.052.028-.079.025.002.06-.004.071.01.016.02.029.061.018.081-.043.085-.09.08-.118-.012Zm2.817-2.181c-.002-.045.071-.094.109-.141.085.007.127.05.11.126-.006.029-.037.06-.065.077-.079.05-.151.027-.155-.063Zm.727.128c.056-.036.111-.1.167-.1.056,0,.112.063.169.099-.056.036-.112.099-.168.099-.056,0-.112-.063-.168-.099Zm1.025,2.787c.022-.046.044-.092.066-.138.077-.057.147-.129.233-.166.093-.04.225-.03.242.082.016.109-.113.132-.206.146-.064.01-.13.007-.196.009-.046.022-.092.044-.138.067Zm1.314,3.32c.099.099.196.227.051.343-.054.043-.203.017-.279-.027-.115-.067-.206-.178-.306-.27-.026.022-.05.049-.08.061-.01.004-.055-.04-.051-.049.012-.03.039-.054.06-.081.212-.263.413-.167.604.024Zm-.028-2.459c.048.021.096.042.143.063.018.027.054.057.049.079-.015.071-.065.07-.128,0-.021-.048-.043-.095-.064-.143Zm1.158-7.169c-.016-.018-.031-.036-.047-.054.028.005.057.01.085.015.091.037.183.074.274.111-.02.025-.038.069-.062.072-.117.017-.191-.053-.251-.144Zm.25,7.775l-.004.072-.069-.038.073-.034Zm.49,1.653l.037-.067.033.07-.069-.003Zm.918-6.263c.012.003.015.05.022.077-.025.006-.066.024-.071.016-.053-.074-.033-.111.049-.094Zm1.862,5.156c.015-.088.097-.11.163-.046.044.043.06.114.089.172-.061.017-.137.064-.178.042-.044-.023-.083-.115-.074-.168Zm.618-7.88c-.083.03-.166.059-.25.089-.005-.13.111-.116.183-.154.042-.02.083-.04.124-.06-.019.042-.039.083-.058.125Zm.055,3.088c-.022.018-.044.035-.066.053-.025-.01-.065-.013-.072-.03-.026-.062.008-.097.084-.084.021.004.037.04.055.061Zm.543-.949c-.009-.143.035-.281.178-.33.122-.042.183.04.174.167-.024.133-.043.287-.182.338-.124.045-.165-.074-.171-.175Zm.726-.007l.041-.07.03.076-.071-.006Zm.406.422c.001-.021.044-.039.068-.058.022.055.043.11.065.165-.017.082-.071.117-.112.066-.031-.039-.025-.114-.021-.173Zm.831-4.958c.087-.199.252-.25.424-.159.156.082.066.243.043.375-.047.265-.227.331-.461.307-.151-.016-.4.119-.4-.167,0-.181.171-.289.359-.322l.073.041-.038-.074Zm.61,4.685c.109-.069.19.03.194.141.006.151-.067.258-.23.28-.101.006-.239-.01-.209-.123.03-.115.14-.231.246-.298Zm-.701-3.361l-.077-.012.047-.073.029.084Zm1.329,3.99c.008-.245.287-.262.458-.365.419.309.931.316,1.413.414.461.094.91.196,1.159.656-.902-.008-1.79-.095-2.64-.425-.16-.062-.397-.077-.391-.281Zm3.038.71c.073.034.147.068.22.102-.027.006-.063.027-.079.017-.051-.034-.095-.078-.141-.119Zm-14.835,54.167c.01.106-.053.228-.193.146-.078-.046-.122-.152-.168-.213.037-.148.11-.245.224-.184.072.038.128.161.136.251Zm-1.022-14.515c.119.425-.151.955-.224,1.44-.057.374-.282.754.009,1.126.088.04.176.08.264.12-.02.025-.052.074-.059.07-.086-.04-.169-.088-.252-.133-.178.78-.356,1.56-.532,2.34-.015.068-.023.144-.01.212.317,1.628.031,3.279.191,4.912.039.4.042.806-.082,1.166-.289.839-.211,1.68-.165,2.534.063,1.166.255,2.33.076,3.502.479.922.068,1.887.145,2.825.09,1.094.119,2.176.028,3.275-.058.697.12,1.415.212,2.12.039.295.013.561-.131.826-.135.248-.3.219-.566.257-1.08.153-2.08-.143-3.111-.32-.675-.116-.639-.053-.452-.711.176-.617.412-1.212.585-1.824.204-.718-.045-1.393-.432-2.013l-.128.058c.019-.043.038-.085.056-.128.06-.121.098-.327.183-.348.435-.108.268-.406.247-.663-.022-.045-.043-.09-.065-.135l.135.064c.096.01.193.02.289.03.005-.105.017-.21.013-.314-.052-1.44.152-2.885-.098-4.32-.044-.251-.043-.498.028-.74.214-.734.163-1.484.133-2.23-.026-.666-.203-1.336.156-1.979.077-.139.069-.36.027-.524-.162-.635-.473-1.234-.014-1.909.14-.206.011-.639-.435-.695-.19-.024-.31-.159-.383-.333-.014-.022-.028-.044-.042-.066.035,0,.07,0,.105,0q.861-.161.604-1.24c-.022-.018-.065-.039-.063-.054.009-.06.044-.049.087.029.255-.52.304-1.062.278-1.641-.039-.873.008-1.75.023-2.626.002-.141.087-.324.026-.415-.734-1.098.197-2.304-.234-3.424-.083-.216.161-.375.355-.472.384-.193.741-.416,1.046-.726.092-.094.249-.197.364-.184.59.068,1.12-.034,1.609-.39.144-.105.35-.081.472.093.086.123.108.285.025.404-.703.999-.61,2.036-.298,3.153Zm-3.428,27.001c-.019.013-.066,0-.089-.016-.016-.011-.013-.049-.018-.075.028-.012.059-.039.082-.032.088.024.098.075.025.124Zm-.609-22.924l.079.012-.049.076-.031-.087Zm1.831-9.702l.006-.072.071.043-.077.029Zm2.508,18.643l.058.074c-.011.028-.014.072-.033.081-.067.03-.106-.008-.092-.093.004-.024.044-.042.067-.062Zm-6.164-9.951c-.072-.071-.144-.143-.216-.214-.022-.05-.045-.1-.067-.15.05.023.1.045.149.068.072.072.143.143.215.215.071.071.142.142.213.213.303.014.511.167.637.438.169.094.215.252.22.43.023.046.046.093.069.139-.046-.023-.093-.045-.139-.068-.168-.092-.216-.255-.253-.424-.262-.064-.485-.183-.615-.433l-.213-.212Zm.502,11.644c.038.036.043.106.063.16-.054.015-.123.058-.156.038-.038-.022-.068-.105-.058-.151.017-.076.095-.1.151-.047Zm-.067-10.353c.019-.013.066,0,.089.016.016.011.013.049.018.075-.027.012-.059.039-.082.032-.088-.024-.098-.075-.025-.123Zm-.576,20.444c.162-.031.294.013.348.162.108.3.138.631.361.803.04.25-.064.341-.211.374-.173.038-.352.06-.529.07-.365.02-.766.403-1.078.02-.169-.208.771-1.365,1.109-1.428Zm-1.921,1.099c.041.007.082.009.124.005.031-.012.062-.033.092-.032.016,0,.047.042.043.06-.005.03-.033.055-.051.083-.099.14-.194.147-.286-.007-.028-.048-.055-.097-.083-.145.054.013.107.025.161.038Zm-13.599,7.109c.044-.02.089-.039.133-.059-.019.044-.038.089-.057.134-.036.079-.05.239-.16.172-.087-.053.016-.173.083-.247Zm-5.134,10.576c-.021-.022-.063-.047-.06-.064.011-.066.052-.058.104.019.02.021.059.045.056.063-.009.062-.049.055-.1-.018Zm.707-.653c-.007-.022.018-.054.029-.081.025.003.062-.004.073.01.017.021.029.063.019.083-.044.087-.093.083-.121-.012Zm2.026,1.417c-.045-.022-.087-.113-.079-.167.012-.089.094-.115.16-.055.046.042.066.113.097.172-.061.02-.136.071-.178.05Zm5.965-1.153c-.016-.023-.047-.048-.045-.069.007-.082.051-.103.106-.052.017.016.02.061.01.084-.008.019-.046.025-.07.037Zm5.444,2.07c-.018.042-.106.062-.166.075-.02.005-.074-.041-.075-.065-.006-.205-.011-.41.002-.614.003-.052.07-.1.108-.149.045.046.112.084.131.139.034.098.038.206.059.333-.015.08-.019.188-.059.281Zm.855-.595c-.022-.048-.044-.096-.066-.144.048.021.097.043.145.064.088.045.176.09.264.136-.143.158-.236.004-.344-.055Zm17.615-.956c-.083-.028-.099-.112-.035-.172.069-.065.157-.111.237-.166.048.069.118.128.107.161-.046.144-.15.23-.309.177Zm1.552-.336c-.022.016-.042.035-.066.044-.007.003-.039-.028-.036-.035.009-.024.029-.044.044-.066.042-.023.083-.046.125-.069-.022.042-.044.084-.067.126Zm2.435-1.052c-.062-.051-.057-.096.013-.132.014.024.04.05.037.073-.002.022-.049.06-.05.058Zm16.574-4.729c-.024.004-.057.02-.07.01-.019-.015-.037-.052-.031-.073.024-.081.071-.09.115-.021.011.018-.008.055-.013.083Zm.379-.815c-.014-.026-.042-.053-.039-.077.002-.023.035-.043.055-.065.014.026.029.052.043.078-.02.021-.039.043-.059.064Zm.116-.945c.022.014.044.028.065.042l-.068-.039c-.587.109-1.139.265-1.542.771-.145.183-.394.344-.622.392-1.504.318-2.854,1.077-4.325,1.487-.273.076-.56.143-.766.359-.167.174-.355.241-.576.145-.516-.223-.961-.009-1.436.169-.593.222-1.189.407-1.84.489-.75.094-1.466.448-2.198.69-.833-.037-1.666-.102-2.443.321-.389.212-.828.08-1.243.12-.378.037-.791-.031-1.012.398.021.021.063.045.06.062-.01.064-.05.056-.1-.021-.425.228-.886.185-1.345.199-.844.026-1.706.015-2.383.664-.129.123-.276.152-.479.087-.681-.217-1.358-.17-2.205.093.022.016.044.032.066.047-.026-.012-.053-.023-.079-.035-1.687.288-3.378.506-5.098.478-.455-.007-.945.073-1.362.248-.605.254-1.188.226-1.777.062-.5-.14-.974-.128-1.478-.022-.698.146-1.413.146-2.127.13-1.071-.025-2.143-.115-3.212.053-.207.032-.459.067-.632-.019-.724-.359-1.449-.315-2.194-.112-.281.076-.58.072-.846-.037-.959-.395-1.927-.409-2.908-.119-.447.132-.856.018-1.235-.198-.474-.271-.983-.396-1.517-.453-.033-.004-.064-.031-.097-.045-.41-.173-.598.515-.926.298-.256-.169-.215-.627-.638-.773-1.026-.354-2.018-.811-3.047-1.154-.895-.299-1.236-1.135-1.836-1.718-.142-.138-.103-.332.063-.467.264-.214.699-.2.812-.613.884.151,1.329-.692,2.064-.93.558-.181,1.128-.549,1.513-1.087.166-.233.422-.396.701-.475.538-.153.966-.465,1.314-.884.322-.387.728-.516,1.216-.574,1.721-.203,3.25-1.029,4.87-1.561.192-.063.365-.229.508-.383.28-.302.565-.509,1.021-.442.187.028.411-.1.6-.193.891-.436,1.763-.914,2.67-1.314.348-.153.693-.344,1.104-.382.61-.056,1.212-.258,1.696-.62.579-.433,1.2-.428,1.83-.341,1.037.143,2.057.182,3.085-.069.416-.102.847-.074,1.273.045.306.086.631.106.947.155.821.289,1.117.905,1.087,1.733-.008.211.037.422.046.634.004.098.018.248-.036.286-.137.097-.263-.018-.354-.117-.169-.183-.314-.413-.614-.282-.266.116-.461.326-.62.562-.092.137-.038.274.061.385.149.167.261.336.144.568-.059-.031-.133-.049-.174-.096-.174-.194-.378-.241-.511-.006-.122.216.015.416.234.504.31.125.46-.037.508-.334.524.313.706-.309,1.084-.395l.063.046-.046-.063c.209-.332.52-.322.852-.262.54.098,1.065.034,1.581-.146.886-.308,1.829-.32,2.739-.402,2.473-.223,4.92-.682,7.414-.737.739-.016,1.461-.086,2.203.025.71.106,1.418-.069,2.116-.222.035-.083.043-.253.153-.192.097.055-.014.174-.088.245.723.226,1.493.302,2.157.718.275.173.537-.008.786-.135l.139-.068c-.023.046-.045.092-.068.138.243.225.552.205.807.109.37-.14.511-.226.627.314.07.329.694.524,1.096.534,1.09.029,1.84.649,2.572,1.316.248.226.486.362.829.41.826.115,1.258.734,1.625,1.402.183.333-.183.407-.297.601Zm1.066.008c-.1.01-.209.049-.297.022-.065-.02-.042-.126.041-.155.119-.042.201.03.267.121l.054.065-.066-.053Z" fill="#e53013" stroke-width="0"/>
      <path d="m126.143,55.614c-.047-.029-.142,0-.208.022-1.283.407-2.649.558-3.816,1.321-.502.328-1.043.667-1.613.804-1.092.263-1.916.923-2.759,1.58-1.228.957-2.468,1.899-3.673,2.883-.705.575-1.058,1.497-1.884,1.976-.12.07-.116.331-.206.482-.271.457-.403.991-.775,1.391-.699.755-1.028,1.691-1.282,2.658-.092.351-.147.686.28.922.209.115.212.567.213.889.002.506-.22,1.069.285,1.481h0c.065.124.115.259.196.371.899,1.245,2.326,1.828,3.508,2.709.75.559,1.572,1.122,2.459,1.449.877.323,1.668.808,2.549,1.13,1.393.508,2.752,1.119,4.153,1.617.019-.02.037-.04.056-.06.012.012.024.023.036.035-.02.019-.04.038-.06.057.541.162,1.097.287,1.619.496.47.189.928.358,1.442.345.292-.008.548.147.822.216,1.481.371,2.931.917,4.494.858.401-.015.769.124,1.152.197,1.184.227,2.327.708,3.556.651.629-.029,1.193.082,1.706.443h.001c.741.206,1.472.469,2.227.601.505.089.955.221,1.38.505,1.002.671,2.204.722,3.33.913.635.108,1.363-.019,2.051-.11.635-.085,1.227-.288,1.842-.422,1.304-.285,2.493-.939,3.805-1.203.034-.007.065-.029.095-.047.731-.429,1.53-.743,2.193-1.288-.022-.023-.066-.05-.062-.069.013-.07.057-.063.112.018,1.728-.745,2.15-2.329,2.536-3.938-.275-1.03-.22-2.12-.627-3.133-.309-.768-.835-1.422-1.103-2.196-.404-1.166-1.036-2.191-1.812-3.131-.506-.613-.723-1.418-1.203-1.996-.742-.894-1.087-1.949-1.623-2.925-.417-.761-.706-1.727-1.728-2.011-.094-.026-.201-.189-.058-.207.521-.067.251-.342.134-.51-.366-.527-.765-1.03-1.152-1.543-.048.022-.097.044-.145.066.021-.048.043-.097.064-.145-.674-.73-1.545-1.241-2.184-2.017-.313-.38-.78-.599-1.253-.788-.491-.196-1.001-.362-1.498-.496-1.085-.292-2.143-.718-3.338-.564-1.138.147-1.553-.209-1.998-1.292-.054-.131-.082-.281-.165-.391-.213-.281-.421-.623-.852-.509-.393.104-.72.332-.826.756-.042.168-.012.353-.017.53-.004.16-.098.324-.239.29-.69-.168-1.294.993-2.042.113-.121-.142-.386.091-.572.19-.458.244-.876.266-1.411.073-.587-.211-1.112-.683-1.802-.578-.789-.414-1.553-.162-2.247.197-.672.347-1.268.829-2.06.337Zm-15.022,13.245c-.041-.037-.055-.104-.081-.158.058-.017.129-.062.17-.043.041.019.051.103.075.158-.04.072-.104.096-.164.043Zm1.545-1.924c-.06.131-.154.247-.298.243-.112-.004-.138-.124-.09-.222.065-.134.184-.207.331-.188.079.01.095.09.058.168Zm.517-.66c.034-.104.124-.162.242-.155.153.058.233.171.193.329-.027.107-.125.175-.24.141-.149-.044-.252-.145-.196-.315Zm1.174,4.995c-.014.137.003.306-.168.334-.082.013-.194-.066-.271-.129-.921-.765-1.36-1.687-.967-2.9.086-.264.078-.558.114-.838l-.063-.041c.022.013.044.025.066.038.176-.136.28-.316.32-.534.052-.287.193-.266.316-.065.147.24.34.5.357.761.074,1.127.408,2.232.294,3.374Zm41.411,8.858c-.085-.023-.095-.073-.025-.12.018-.012.064,0,.086.016.015.011.013.048.018.073-.027.011-.057.038-.079.032Zm-.055-4.588c.121-.02.188.078.215.203-.026.171-.086.342-.269.402-.035.012-.153-.136-.186-.227-.074-.21.035-.344.239-.378Zm-37.812-12.791c.013.023.039.048.037.069-.002.021-.032.04-.05.06-.058-.052-.053-.095.013-.129Zm-.563,3.011c.239-.162.482-.179.615.127.435,1.008.833,2.033,1.437,2.96.111.17.06.37-.128.443-.203.079-.202-.14-.242-.257-.135-.385-.5-.479-.801-.654l-.063.06.06-.063c-.297-.532-.877-.833-1.134-1.401-.241-.533-.17-.928.256-1.217Zm-1.158,3.133c.097.04.178.104.154.214-.008.037-.106.084-.154.076-.108-.018-.168-.11-.154-.216.004-.031.1-.05.154-.074Zm-.072.743c.102.062.11.167.061.272-.029.063-.065.123-.098.184-.047-.052-.117-.099-.133-.159-.024-.092-.015-.195-.002-.291.001-.011.129-.032.172-.006Zm-.709-.101c-.158-.014-.164-.184-.172-.317-.008-.137.002-.311.156-.325.283-.026.114.247.195.332.015.171-.008.325-.178.31Zm35.02,12.722c-.024-.009-.049-.018-.073-.026.008-.022.015-.043.023-.065.024.008.054.011.069.028.008.009-.012.042-.019.064Zm2.457-4.89c.004-.031.022-.08.043-.086,1.185-.342.555-1.136.45-1.798-.018-.061-.043-.12-.048-.182-.002-.023.045-.05.069-.075-.192-.359-.236-.749-.199-1.143.026-.28-.269-.691-.03-.789.331-.136.439.355.655.559.268.253.336.628.407.974.081.397.211.774.51,1.038.294.259.233.539.224.866-.054,2.105-1.105,3.525-2.962,4.414-.064.031-.146.049-.188.099-.724.851-1.768.77-2.726.94-.525.093-1.06.156-1.572.299-1.209.338-2.403.097-3.587-.084-.557-.085-1.097-.299-1.676-.296-.29.002-.573-.052-.823-.202-.239-.144-.661-.288-.611-.518.061-.281.499-.19.754-.172,1.3.09,2.552-.264,3.801-.485.666-.118,1.345-.343,2.035-.446.351-.052.705-.092,1.059-.124.287-.026.568-.053.798-.257.41-.365.954-.44,1.434-.652.919-.405,2.013-.604,2.185-1.878Zm-1.635-6.366c.076-.031.212.007.284.062.133.102.119.251.014.372-.068.078-.161.135-.242.201-.045.022-.091.043-.136.065.021-.045.043-.091.064-.136-.025-.067-.054-.132-.073-.2-.039-.138-.076-.297.088-.364Zm-1.461-8.229c.07.079.084.199-.016.254-.12.066-.17-.043-.189-.141-.019-.098-.019-.199-.027-.298.077.062.167.112.231.185Zm.098,1.546s-.068-.007-.074-.022c-.024-.064-.036-.132-.053-.199l-.052-.071.071.052c.08.061.171.117.108.239Zm-4.058,5.048c.151-.189.311-.017.469.002.068.008.138.007.207.01.187-.425.501-.537.926-.378.128.048.264.142.386.127,1.42-.17,2.056.758,2.598,1.826.306.599.573,1.226.931,1.796.766,1.217.866,2.555.771,3.922-.056.807-.712,1.199-1.332,1.551-1.339.759-2.817,1.204-4.301,1.485-.923.175-1.865.38-2.831.416-1.1.042-2.189.341-3.3.303-1.489-.051-2.971.027-4.465-.312-.872-.198-1.771-.511-2.699-.451-.392.025-.649-.264-1.005-.328-1.281-.229-2.559-.481-3.831-.756-.409-.089-.832-.147-1.188-.44-.455-.375-1.059-.391-1.605-.55-1.185-.345-2.355-.737-3.471-1.274l-.041.062c.013-.022.025-.044.038-.065-.067-.08-.121-.213-.203-.233-1.1-.274-1.965-1.027-2.99-1.452-.022.019-.043.04-.068.054-.005.003-.041-.032-.039-.037.013-.025.034-.046.053-.068-.456-.322-.878-.723-1.379-.942-.491-.214-.675-.697-1.084-.955-.09-.057-.165-.107-.045-.211.539-.467-.151-.584-.249-.87.059-.013.118-.023.175-.042.017-.006.025-.037.038-.056-.105-.044-.155.037-.217.093-.049-.085-.155-.23-.138-.247.394-.382.134-.83.141-1.249.125.056.25.111.375.167.038-.086.069-.243.18-.168.101.068-.004.178-.087.244.307.443.824.644,1.187,1.026.203.213.512.296.78.269,1.03-.107,1.815.325,2.497,1.031.017-.065.023-.137.054-.194.045-.083.105-.187.213-.072.013.014-.048.117-.092.162-.046.047-.112.074-.169.109.704.877,1.728,1.193,2.733,1.52,1.276.415,2.547.887,3.857,1.145,1.146.226,2.278.458,3.374.862.678-.281,1.39.303,2.072-.095.362-.211.657.216,1.014.169.048-.021.095-.042.143-.063-.021.047-.042.095-.062.142.061.037.121.106.182.106,1.775-.001,3.557.205,5.323-.136.245-.047.503-.172.731-.131.813.146,1.612-.049,2.376-.195.57-.109,1.112-.095,1.669-.119.247-.01.562.015.726-.121.522-.434,1.181-.48,1.773-.632.749-.192,1.375-.598,2.03-.934.721-.371.793-1.212.954-1.933.052-.231.032-.505-.041-.731-.097-.299-.255-.669-.599-.681-.411-.014-.32.389-.329.653-.013.382-.263.56-.551.725-.15.086-.268.068-.373-.065-.198-.251-.364-.525-.635-.715-.129-.09-.112-.116.207-.266.026-.012.066.006.099.01-.128-.606.014-.885.681-.588.06.027.177-.125.1-.234-.123-.174-.271-.331-.408-.495-.052-.043.03-.193-.124-.154.032.059.064.117.096.176-.107.28-.352.236-.574.245-.014.032-.02.07-.042.094-.119.123-.061.353-.251.422-.033.012-.131-.061-.146-.112-.094-.307.084-.44.349-.508.132-.224.122-.416-.161-.483-.203-.048-.419-.042-.629-.06-.088.055-.169.131-.264.16-.17.052-.35.059-.473-.103-.031-.041-.041-.142-.013-.178Zm-25.875,1.9c.001-.055.066-.109.102-.163.034.057.095.115.093.172-.002.056-.066.109-.104.164-.033-.057-.093-.115-.092-.172Zm18.424-.517c.645.116,1.082.675,1.711.838.099.026.197.093.272.166.263.255.914.061.865.614-.034.377-.55.393-.819.614-.322.264-.493.158-.597-.213-.201-.721-.781-.977-1.437-1.108-.242-.048-.496-.048-.745-.05-.853-.008-1.684-.008-2.509-.368-.567-.247-1.181-.472-1.843-.481-.394-.005-.747-.223-1.035-.508-.047-.047-.092-.12-.091-.181,0-.041.082-.081.119-.115.309.057.627.096.935.176.488.128.981.205,1.481.166,1.263-.099,2.472.231,3.694.45Zm-2.402-3.075l.064.061c.021.014.042.027.062.041-.022-.013-.044-.025-.065-.038l-.061-.064Zm4.984,6.815c-.026.047-.069.085-.109.132-.026-.07-.07-.128-.061-.176.015-.08.08-.094.138-.041.021.019.042.067.033.085Zm-1.458.36c-.048.014-.097.028-.145.041.007-.053.008-.107.025-.157.006-.018.056-.035.079-.029.076.022.088.075.041.144Zm-2.024-.682c-.002.023-.051.062-.052.061-.064-.053-.059-.099.013-.137.014.025.041.052.039.076Zm-.321-.747l-.08.039v-.079s.08.04.08.04Zm-4.568-.035c-.016.22-.36.122-.619.165-.638-.256-1.389-.078-2.105-.387-.808-.349-1.696-.538-2.565-.715-.978-.199-1.485-.924-2.02-1.632-.176-.233-.145-.473.139-.626.093-.05.197-.081.297-.119.562-.214,1.01-.616,1.517-.922.442.483.181,1.159.461,1.686.082.155.128.363.256.456,1.168.845,2.263,1.857,3.856,1.787.071-.003.144-.009.214,0,.238.027.594-.02.57.308Zm-1.76,2.109c-.018.016-.036.033-.055.05-.012-.023-.036-.047-.033-.068.002-.02.032-.036.049-.054.012.023.025.045.039.072Zm11.372-.89c-.058-.143.315-.505.527-.505.046,0,.118.061.132.108.066.219-.23.514-.505.514-.053-.038-.133-.066-.154-.117Zm3.984-.825c-.02-.013-.041-.025-.061-.038-.157.014-.299.059-.4.191.019.059.046.117.054.178.003.024-.035.054-.055.081-.137.142-.294.204-.462.064-.159-.132-.223-.369-.459-.418-.179-.037-.484.087-.436-.262.026-.192.258-.246.431-.244.679.009,1.227-.249,1.717-.711.198-.187.489-.277.743-.402.094-.046.214-.068.267.057.023.055-.005.14-.028.204-.113.316-.331.535-.634.68-.288.137-.579.277-.737.581l.061.039Zm-.448-3.117c-.044.317-.386.403-.646.485-.351.111-.647.282-.891.55-.226.247-.526.346-.835.438-.312.093-.541.057-.698-.272-.182-.381-.405-.743-.609-1.113-.016.019-.032.038-.048.058.009-.026.019-.052.028-.078-.53-.721-1.311-1.085-2.111-1.354-.717-.241-1.317-.704-2.028-.939-.055-.018-.088-.1-.132-.152.089-.038.186-.121.265-.106,1.842.33,3.746.389,5.435,1.37.38.221.8.688,1.357.311.018-.017.035-.034.055-.048.002-.002.03.026.029.028-.014.02-.031.037-.048.055.094.103.178.22.285.307.196.161.653.038.595.46Zm-3.794-3.244l.14.06c.087.046.174.092.262.137-.143.158-.236.016-.339-.058-.021-.046-.041-.093-.062-.139Zm1.825-.754c.323-.065.69-.346.89.185.023.026.069.056.065.077-.016.079-.066.073-.127-.014-.345.147-.606.012-.828-.248Zm.965,2.384c-.032-.115.06-.184.153-.217.17-.061.335-.045.466.096.018.019.024.07.011.092-.092.148-.246.063-.371.093-.033.008-.068.011-.101.016-.055-.026-.148-.041-.158-.079Zm.678-.573c.007-.022.045-.035.069-.052.026.013.071.021.075.04.018.07-.025.104-.108.084-.018-.004-.042-.053-.036-.072Zm-1.677-7.172c.081-.173.278-.197.454-.225.016-.02.031-.041.047-.061-.01.025-.021.051-.031.076.082.066.164.187.247.188.568.002.78.452,1.058.816.053.07.096.222.059.27-.075.098-.179-.002-.269-.044-.441-.21-.884-.415-1.323-.629-.157-.077-.344-.172-.241-.391Zm-.518.582c.012-.027.056-.064.077-.059.298.07.481.268.536.558.024.129-.032.273-.052.41.037.094.103.187.103.281,0,.078-.127.104-.149.038-.029-.088.007-.197.015-.297-.09-.104-.203-.197-.263-.315-.102-.199-.402-.317-.267-.615Zm-1.238.478l-.039.072-.035-.076.075.003Zm-.608-3.162c.016-.002.039.045.059.069-.058.019-.116.044-.175.052-.017.002-.04-.045-.061-.07.059-.018.117-.043.177-.051Zm-1.211-2.996c.008.027.015.055.023.082-.031.009-.061.018-.092.028-.008-.028-.03-.071-.02-.079.022-.019.059-.021.089-.03Zm-2.004,8.112c1.73.275,3.334.952,4.893,1.731.28.14.571.297.712.612-.36.012-.689-.117-1.021-.226-.93-.307-1.825-.755-2.854-.644-.12.013-.255-.105-.383-.162-.114.073-.138.052-.068-.065-.224-.218-.531-.235-.801-.245-1.284-.045-2.569-.221-3.841-.221-.959,0-1.984.095-2.919.463-.377.148-.721.231-1.133.114-.603-.172-1.206-.099-1.755.227-.727.432-1.674.429-2.26,1.148-.12.147-.314.13-.498.108-1.467-.175-2.363.53-2.846,1.861.022.015.044.029.067.044-.024-.013-.049-.025-.073-.038-.205.205-.409.411-.614.616.077.066.154.132.231.199l.209.21c.031-.017.062-.035.094-.051.123-.064.288-.174.359,0,.063.154-.11.244-.251.247-.094.002-.19-.072-.285-.112-.07-.07-.14-.139-.209-.209-.066-.077-.132-.154-.198-.231-.273.588-.561,1.197-1.343,1.145-.47-.031-.971-.107-1.384-.312-.339-.168.131-.271.174-.431-.022-.05-.05-.099-.061-.151-.004-.018.035-.046.054-.069-.048-.155-.242-.302-.067-.468.042-.04.191.033.292.054l.055.052-.034-.071c-.019-.183.038-.41.237-.279.405.266.692.009,1.019-.118l.07.034-.052-.054c-.472-1.033-1.243-1.877-1.805-2.852-.137-.237-.362-.328-.57-.456-.366-.226-.304-.415.032-.612.512-.301,1-.648,1.529-.911.238-.118.296-.266.328-.479-.053-.022-.108-.038-.164-.049-.148.168-.3.252-.471.028-.024-.047-.047-.094-.071-.141.047.024.094.047.141.071.132.012.263.023.395.035.07-.094.151-.103.242-.032.256.172.205.43.191.678.549.049,1.063-.068,1.536-.344.574-.335,1.155-.455,1.836-.339.544.092,1.137.145,1.665-.179.082-.051.239-.114.28-.078.57.489,1.198.136,1.743.036,1.009-.186,1.974.05,2.955.103.385.021.766.096,1.157.042.174-.024.374-.059.528,0,1.051.405,2.162.246,3.241.379.598.074,1.162.299,1.765.395Zm-18.943-1.129c.015-.076.061-.067.116.021.077.067.153.133.23.2.021.047.042.094.064.141l-.141-.062c-.067-.077-.133-.154-.2-.23-.024-.023-.072-.052-.069-.07Zm11.535-1.496l.071.012-.045.065-.026-.077Zm6.157-5.908c.007.024.027.065.02.07-.071.052-.109.034-.097-.045.002-.012.05-.017.077-.025Zm-.918.212c.016-.018.065-.021.09-.011.021.009.029.048.042.074-.025.017-.051.05-.074.049-.088-.006-.111-.053-.058-.111Zm-.434.727c.162-.186.33-.377.615-.334.063.01.133.052.175.1.074.085.065.186.014.288-.147.292-.502.227-.708.417.024.047.047.094.071.141-.047-.024-.094-.047-.141-.071-.211-.171-.186-.357-.025-.542Zm-1.85.039c.104.028.311.003.231.169-.062.13-.215.019-.302-.079-.084-.048-.168-.095-.252-.143.138-.166.221,0,.323.053Zm-2.228-.315c.05-.164.138-.398.312-.355.231.057.042.277.036.426.007.102.021.204.02.305-.001.121.314.329-.072.346-.181.008-.324-.143-.354-.322-.021-.127.018-.272.057-.401Zm-3.627,2.309c-.062-.102-.216-.188-.054-.327.049.084.099.168.148.251.507.018,1.034-.043,1.516.074.751.182,1.471.247,2.21-.007.126-.044.32-.057.419.009.738.496,1.594.151,2.379.356.773.201,1.399.718,2.174.89.083.018.22.015.183.157-.01.037-.122.063-.189.066-.25.013-.5.025-.75.018-1.644-.042-3.266.185-4.891.384-.387.047-.798.088-1.173.011-1.404-.289-2.76-.045-4.119.27-.202.047-.425.038-.633.013-.668-.082-1.274.075-1.838.428-.056.082-.111.165-.167.247-.164-.145-.051-.236.063-.327-.058-.038-.124-.116-.174-.107-1.171.213-2.442.084-3.417.981.022.02.065.044.063.06-.01.064-.049.055-.097-.025-.142-.012-.286-.011-.425-.038-.258-.05-.447-.21-.164-.409,1.394-.979,2.776-1.994,4.427-2.511.396-.124.847-.069,1.271-.11.44-.042.869-.096.822-.722-.008-.103.149-.229.247-.327.072-.072.181-.13.279-.057.042.031.058.126.052.188-.018.176-.085.353-.074.526.014.21.226.201.286.087.18-.341.341-.353.646-.126.283.211.63.361.979.076Z" fill="#e53013" stroke-width="0"/>
      <path d="m147.45,49.82c.195.062.182.279.228.446.066.24.141.478.217.716.198.619.206.651.885.494.302-.07.524-.127.762.128.157.169.391.115.608.085.543-.076,1.037-.278,1.48-.587,1.705-1.193,2.122-1.658,2.857-3.587.445-1.168.62-2.369-.508-3.338-.159-.137-.222-.311-.263-.545-.142-.816-.521-1.118-1.369-1.199-.341-.033-.591,0-.835-.437-.252-.451-.896-.768-1.471-.733-.648.04-1.275.042-1.984-.129-1.082.286-2.386.232-3.045,1.539-.073.146-.242.256-.387.352-1.104.733-1.785,1.692-1.728,3.079.025.606.009,1.213.007,1.82-.001.37.081.703.352.977.275.278.387.695.74.905.367.218.83.338,1.061.702.31.49.669.123,1.003.159.093.01.173.12.265.172.276.157.555.008.827-.019.129-.013.244-.216.056-.306-.222-.106-.417-.165-.182-.431.113-.128.215-.328.422-.262Zm6.507-4.874c.02.006.031.039.045.061-.012.023-.024.046-.036.069-.026-.034-.051-.067-.077-.101.023-.011.05-.035.068-.029Zm-9.444.187c.018.023.036.047.055.07-.01.026-.014.068-.032.076-.064.027-.1-.008-.087-.088.004-.022.042-.039.064-.058Zm.025,2.37c-.179-.032-.308-.143-.289-.343.01-.104.085-.19.206-.168.181.033.303.131.297.331-.04.104-.103.201-.215.181Zm4.185-5.76c.015.025.046.052.042.073-.012.063-.058.062-.117.003-.022-.046-.043-.093-.065-.139.047.021.093.042.14.063Zm-.71,1.287c.026-.02.05-.046.079-.056.01-.004.052.037.049.047-.011.029-.036.054-.056.08-.046.023-.093.046-.139.069l.066-.14Zm-1.785,2.991l.026.068-.063-.006.037-.063Zm-.391-.531c-.098.024-.243.052-.266-.073-.037-.194.152-.177.284-.235.086.035.25.063.255.11.022.185-.156.169-.273.199Zm.845,4.086c-.064.027-.101-.009-.087-.089.004-.022.042-.039.064-.058.018.023.037.047.055.07-.01.026-.014.068-.032.076Zm-.173-1.357c-.026.016-.129-.039-.147-.082-.025-.059-.027-.151.003-.205.263-.468-.667-1.03.079-1.421.461-.242.769-.622,1.141-.947.881-.769,1.942-1.157,2.954-1.408.886.014,1.414.66,1.229,1.41-.384,1.558-1.291,2.654-2.846,3.175-.367.123-.683.12-1.003-.122-.412-.312-.795-.772-1.41-.4Z" fill="#e53013" stroke-width="0"/>
      <path d="m84.477,32.147c.173.175.375.311.485.55.393.857,1.096,1.464,1.723,2.138.84.904,2.022,1.411,2.761,2.423l.063-.07c.015.014.029.028.044.042-.023.021-.046.043-.07.064.103.134.248.179.407.196.014-.021.028-.042.042-.062-.012.022-.025.045-.037.067.139.156.255.349.424.46.293.193.619.098.898-.049.213-.112.444-.281.215-.585-.048.022-.096.044-.143.066.021-.048.043-.096.064-.144.005-.157-.045-.29-.17-.39l-.062.057.057-.062c-1.089-.791-1.676-1.937-2.214-3.119-.132-.291-.26-.586-.424-.859-.528-.875-.955-1.844-2.007-2.253-.186-.073-.229-.249-.325-.394-.555-.839-1.017-.989-2.068-.699.02.044.039.088.059.132-.044-.019-.088-.038-.133-.057-.717.79-.752,1.032-.204,1.825.179.26.394.499.616.724Z" fill="#e53013" stroke-width="0"/>
      <path d="m121.533,28.842c-.024.673.699,1.501,1.37,1.632.501.098,1.15-.33.961-.664-.191-.337-.056-.462.046-.701.113-.265.133-.553-.082-.8-.044.021-.088.042-.132.063.02-.044.041-.088.061-.132.078-.526.193-1.051.227-1.58.092-1.433.449-2.806,1.017-4.108.242-.555.288-1.084.271-1.652-.011-.372-.192-.555-.543-.378-.807.407-1.539.893-1.555,1.94.023.021.067.046.064.063-.011.068-.052.059-.103-.024-.208.11-.212.373-.336.505-.96,1.029-.697,2.487-1.308,3.632-.044.082-.012.21,0,.314.07.628.064,1.256.042,1.888Zm3.153-7.901c.025.048.049.096.074.144-.048-.024-.096-.049-.144-.073l-.071-.141c.047.023.094.047.141.07Z" fill="#e53013" stroke-width="0"/>
      <path d="m160.842,68.162c.396.156.795.295,1.18.488.522.263.862.156,1.14-.395.233-.462.522-.813.958-1.096.66-.429.775-1.217.761-1.859-.035-1.549-2.026-2.506-3.334-1.67-.51.326-1.013.726-1.275,1.265-.757,1.556-.92,1.671.184,2.797.048-.022.095-.044.143-.066-.021.048-.043.096-.064.144.019.197.128.321.308.392Z" fill="#e53013" stroke-width="0"/>
      <path d="m159.149,89.241c.125.061.197.189.206.348.035.588.494.608.919.669l.057.055-.048-.063c-.129-.157-.405-.211-.382-.472.021-.232.211-.361.392-.472.136-.083.304-.104.289.122-.045.707.584.498.895.588.347.1.635-.208.782-.581.163-.413.212-.843.095-1.254-.138-.489-.185-.977-.156-1.474.045-.77-.406-1.197-1.037-1.445-.656-.258-1.303-.277-1.874.283-.487.478-.789,1.019-.704,1.705.086.687-.37,1.535.564,1.989Zm.772-.638c.041.019.051.103.075.158-.04.071-.104.096-.164.043-.041-.037-.055-.104-.081-.158.058-.017.129-.062.17-.043Z" fill="#e53013" stroke-width="0"/>
      <path d="m167.726,78.05c-.205.338-.113.689.064,1.017.065.12.125.29.296.242.061-.017.084-.181.116-.28.057-.178.122-.356.36-.263.241.095.328.282.164.502-.142.191-.322.361.097.379.199.008.343.085.449.237.213.306.813.212.784.763.397.157.833.36,1.222.148.448-.244.716-.691.746-1.228.014-.25.004-.539-.241-.665-.211-.108-.354.193-.563.215-.213.022-.243.221-.357.339-.08.083-.214.048-.283-.035-.06-.073-.13-.204-.103-.273.104-.267.261-.524.516-.658.318-.167.109-.194-.037-.281-.12-.072-.242-.271-.326-.252-.849.191-1.285-.626-1.983-.785h0c-.607-.023-.696.509-.921.879Z" fill="#e53013" stroke-width="0"/>
      <path d="m141.105,85.422c-.854-.185-1.469.405-1.379,1.274.04.389.119.779.226,1.155.171.599.545.894,1.169.889.336.018.71-.175.752-.62.052-.55.25-.852.808-.943.293-.048.511-.263.567-.576.073-.408-.273-.524-.512-.731-.478-.413-1.084-.328-1.631-.446Z" fill="#e53013" stroke-width="0"/>
      <path d="m102.478,27.081c-.156.411.121.671.287.975-.019.022-.056.048-.052.067.009.05.034.097.053.145-.003-.07-.003-.139.002-.209.022.05.05.098.061.151.003.016-.039.041-.062.062.201,1.268.627,2.479.937,3.719.261,1.046.9,1.923,1.274,2.918.016.042.128.08.18.065.051-.014.121-.101.117-.15-.014-.173-.004-.385-.099-.508-.346-.446-.37-.992-.536-1.495-.468-1.424-.557-2.927-.934-4.376-.231-.892-.517-1.868-.193-2.84.069-.207.091-.453-.133-.57-.269-.141-.487.051-.653.232-.249.271-.404.595-.288.977.085.28.142.565.038.839Z" fill="#e53013" stroke-width="0"/>
      <path d="m128.473,50.15c1.04-.008,1.29-.141,1.37-.738.083-.617-.081-1.199-.463-1.693-.25-.324-1.159-.426-1.474-.205-.497.349-.817,1.429-.587,2.028.243.633.795.614,1.154.609Z" fill="#e53013" stroke-width="0"/>
      <path d="m111.312,59.009c.014-.298-.151-.463-.451-.46-.258.003-.518.047-.53.379-.012.346.231.485.522.562.309-.016.445-.206.458-.481Z" fill="#e53013" stroke-width="0"/>
      <path d="m123.188,45.817c-.035-.056-.069-.113-.104-.169-.111.101.03.14.051.208.034.203.055.41.108.608.029.109.139.158.247.1.098-.052.147-.13.055-.246-.127-.161-.239-.334-.357-.502Z" fill="#e53013" stroke-width="0"/>
      <path d="m22.932,71.81h-.202c.068.075.135.075.202,0Z" fill="#e53013" stroke-width="0"/>
      <polygon points="102.766 28.267 102.766 28.272 102.767 28.271 102.767 28.271 102.766 28.267" fill="#e53013" stroke-width="0"/>
      <path d="m94.306,70.881c.135.026.314.037.352-.118.042-.171-.157-.189-.268-.254-.066-.067-.133-.065-.201-.002-.128.177-.14.325.117.374Zm.06-.338c-.05.112-.1.114-.15,0,.05-.015.1-.015.15,0Z" fill="#e53013" stroke-width="0"/>
      <path d="m94.889,69.252l-.067.195-.05.059.058-.051c.021-.067.177-.095.059-.203Z" fill="#e53013" stroke-width="0"/>
      <path d="m60.948,33.575c.109-.011.236-.046.238-.156.001-.08-.084-.193-.162-.238-.495-.284-1.002-.546-1.498-.827-1.285-.73-2.666-.986-4.124-.812-.386.046-.757.216-1.155.065-.053-.02-.182.012-.184.032-.017.131.092.164.19.193.331.095.933-.033.933.318,0,.497.438.8.367,1.268l-.054.057.06-.05c.235.228.475.371.844.326,1.473-.177,2.958-.117,4.437-.167.036-.001.071-.005.107-.008Z" fill="#e53013" stroke-width="0"/>
      <path d="m54.587,33.281c.014.056.06.119.11.147.067.038.125-.01.106-.089-.014-.056-.071-.101-.109-.15-.077-.022-.127.012-.106.092Z" fill="#e53013" stroke-width="0"/>
      <path d="m39.34,28.091c.201.226.332.011.483-.078.007-.036.008-.073,0-.109-.107-.002-.214-.004-.321-.006-.054.064-.109.129-.163.193Z" fill="#e53013" stroke-width="0"/>
      <path d="m38.412,70.507c.062.008.125.012.188.012-.058-.07-.12-.089-.188-.012Z" fill="#e53013" stroke-width="0"/>
      <path d="m60.604,17.309c-.013.057-.026.115-.04.172l.073.004c-.011-.058-.022-.117-.034-.175Z" fill="#e53013" stroke-width="0"/>
      <path d="m121.28,70.459c.023.015.065.011.093.002.018-.006.027-.038.04-.058-.029-.013-.059-.038-.086-.036-.1.007-.118.046-.047.092Z" fill="#e53013" stroke-width="0"/>
      <polygon points="121.381 64.358 121.437 64.303 121.438 64.301 121.435 64.301 121.381 64.358" fill="#e53013" stroke-width="0"/>
      <path d="m120.149,70.093c.019-.02.055-.043.053-.061-.007-.048-.029-.095-.046-.142-.002.068-.005.135-.007.203Z" fill="#e53013" stroke-width="0"/>
      <polygon points="153.472 75.359 153.492 75.308 153.437 75.27 153.472 75.359" fill="#e53013" stroke-width="0"/>
      <path d="m145.65,74.119c.007-.038.008-.076,0-.115l-.055.057.055.058Z" fill="#e53013" stroke-width="0"/>
    </g>
  </g>
</svg>